<?xml version="1.0" encoding="UTF-8" standalone="no"?>
<svg
   version="1.0"
   width="288.000000pt"
   height="288.000000pt"
   viewBox="0 0 288.000000 288.000000"
   preserveAspectRatio="xMidYMid meet"
   id="svg43"
   sodipodi:docname="output.svg"
   xml:space="preserve"
   inkscape:version="1.4.2 (ebf0e940d0, 2025-05-08)"
   xmlns:inkscape="http://www.inkscape.org/namespaces/inkscape"
   xmlns:sodipodi="http://sodipodi.sourceforge.net/DTD/sodipodi-0.dtd"
   xmlns="http://www.w3.org/2000/svg"
   xmlns:svg="http://www.w3.org/2000/svg"><defs
     id="defs43" /><sodipodi:namedview
     id="namedview43"
     pagecolor="#ffffff"
     bordercolor="#000000"
     borderopacity="0.25"
     inkscape:showpageshadow="2"
     inkscape:pageopacity="0.0"
     inkscape:pagecheckerboard="0"
     inkscape:deskcolor="#d1d1d1"
     inkscape:document-units="pt"
     inkscape:zoom="2.0807292"
     inkscape:cx="159.07885"
     inkscape:cy="221.79725"
     inkscape:window-width="1920"
     inkscape:window-height="1008"
     inkscape:window-x="0"
     inkscape:window-y="0"
     inkscape:window-maximized="1"
     inkscape:current-layer="svg43" /><metadata
     id="metadata1">
Created by potrace 1.16, written by Peter Selinger 2001-2019
</metadata><path
     style="fill:#000000"
     d="m 15.592298,285.13698 c 0.479185,-1.74606 0.695591,-1.87129 0.969378,-0.56096 0.193861,0.92782 1.113495,1.88722 2.043632,2.132 1.004736,0.26442 0.611276,0.4921 -0.969378,0.56096 -2.293587,0.0999 -2.575451,-0.19415 -2.043632,-2.132 z m 11.946445,1.43609 c 0.947918,-0.60064 0.774291,-1.98513 -0.751173,-5.98979 -1.091235,-2.86472 -1.96058,-6.21531 -1.931878,-7.44575 0.02977,-1.27629 1.133007,0.55201 2.568598,4.25673 3.950256,10.1941 3.924963,9.99256 1.251897,9.97531 -1.52654,-0.01 -1.931448,-0.29339 -1.137444,-0.7965 z m 33.070692,0.0891 c 1.790297,-0.22162 3.255085,-0.82403 3.255085,-1.3387 0,-2.39465 4.166947,-4.93201 8.099515,-4.93201 3.635611,0 4.221086,0.33781 5.236565,3.02139 l 1.143306,3.0214 15.533625,-0.27398 15.533629,-0.27397 1.2267,-2.55558 c 0.67468,-1.40557 3.72246,-4.27017 6.77283,-6.3658 4.00817,-2.75363 5.54613,-4.44643 5.54613,-6.1045 0,-3.25051 1.00457,-5.45488 2.48587,-5.45488 1.27716,0 2.52195,-4.23583 2.52195,-8.58175 0,-1.32553 0.87901,-2.80688 2.03024,-3.42146 1.92848,-1.02951 2.02182,-0.81849 1.86253,4.21086 -0.0922,2.91208 0.16477,6.86822 0.57113,8.79141 0.69875,3.30698 0.65376,3.3883 -0.82911,1.49859 -0.86237,-1.09897 -1.61787,-2.89728 -1.67887,-3.99624 -0.0802,-1.4444 -0.26404,-1.58283 -0.66345,-0.49953 -0.30389,0.82422 -1.63424,2.39774 -2.95633,3.49671 -1.67462,1.39199 -2.44312,3.11846 -2.53338,5.69131 -0.0713,2.03126 -0.39547,3.60757 -0.72046,3.50292 -0.325,-0.10465 -2.30861,0.87216 -4.40804,2.17067 -2.56915,1.58905 -3.62589,2.85812 -3.23216,3.88159 0.4701,1.22201 0.30295,1.28716 -0.85112,0.33176 -0.979,-0.81047 -1.6427,-0.85545 -2.08517,-0.14131 -0.35698,0.57617 -0.28443,1.05446 0.16123,1.06287 0.44565,0.008 0.20911,0.39543 -0.52565,0.86003 -1.0692,0.67607 -1.00882,0.96994 0.30241,1.47185 0.95753,0.36652 1.38406,0.21672 1.02643,-0.3605 -0.93262,-1.50524 1.10637,-1.17727 2.40814,0.38735 0.96406,1.15871 -2.06944,1.4019 -19.287308,1.54621 l -20.43129,0.17125 -0.640423,-2.54527 c -0.502742,-1.99808 -1.266908,-2.54528 -3.554495,-2.54528 -1.602739,0 -3.677537,0.76156 -4.610661,1.69235 -1.59441,1.59043 -1.583639,1.73662 0.178851,2.42744 1.095155,0.42925 -0.624791,0.69777 -4.133946,0.64541 -3.305163,-0.0493 -4.544599,-0.27099 -2.754303,-0.49261 z m 58.077535,-0.51956 c -0.31383,-0.8158 0.22181,-1.32674 1.39087,-1.32674 1.0457,0 1.75505,0.43754 1.57635,0.97231 -0.52429,1.56894 -2.4132,1.79457 -2.96722,0.35443 z m 14.2855,0.4735 c 0,-0.18382 1.37259,-0.81152 3.05021,-1.39487 3.29773,-1.14673 3.44373,-2.56654 0.43795,-4.25887 -1.04567,-0.58874 -2.5372,-1.65373 -3.31451,-2.36665 -1.16509,-1.06857 -1.74418,-0.99751 -3.29739,0.40461 -1.20885,1.09126 -1.88409,1.26613 -1.88409,0.48795 0,-0.66708 -0.39981,-0.96638 -0.88848,-0.66513 -0.48866,0.30126 -0.82669,-0.23418 -0.75117,-1.18986 0.0755,-0.95568 1.0208,-2.25359 2.10062,-2.88423 1.68504,-0.98411 2.69839,-0.52021 7.14959,3.27307 2.85245,2.43084 5.39701,5.51935 5.65458,6.86335 0.44284,2.31077 0.23106,2.43336 -3.8945,2.25425 -2.39955,-0.10417 -4.36281,-0.3398 -4.36281,-0.52362 z m -3.50548,-9.22183 c 0.34045,-0.54949 0.1417,-0.99907 -0.44167,-0.99907 -0.58337,0 -1.06068,0.44958 -1.06068,0.99907 0,0.54948 0.19876,0.99906 0.44168,0.99906 0.24292,0 0.72022,-0.44958 1.06067,-0.99906 z m 19.29686,9.25047 6.27652,-0.35513 1.23521,-4.61362 c 1.3595,-5.07782 5.66021,-8.73386 9.24773,-7.86149 1.10172,0.2679 3.31448,0.79949 4.91724,1.18131 l 2.91411,0.69421 -0.64033,-7.88966 c -0.35219,-4.33932 -1.60503,-13.2846 -2.78411,-19.8784 -1.17908,-6.59381 -2.25684,-13.11269 -2.39502,-14.48639 -0.13818,-1.37371 -0.30936,-3.11204 -0.38039,-3.86295 -0.0834,-0.88214 -0.92663,-1.18556 -2.38267,-0.8574 -4.77633,1.07648 -18.77484,4.78058 -20.48672,5.42093 -1.57926,0.59073 -1.6308,0.46744 -0.4235,-1.01306 0.75603,-0.92711 2.52815,-1.68565 3.93805,-1.68565 4.83558,0 18.22412,-4.14028 18.22412,-5.63564 0,-0.78127 -0.71384,-1.69374 -1.58632,-2.02771 -0.97348,-0.37262 -1.18149,-0.85678 -0.53844,-1.25321 0.57633,-0.35531 0.80498,-1.57255 0.5081,-2.70499 -0.41447,-1.58095 -1.1286,-1.94671 -3.0759,-1.57539 -2.32301,0.44296 -2.43985,0.30417 -1.39045,-1.65175 0.63012,-1.17444 1.60711,-2.13535 2.1711,-2.13535 0.56399,0 0.74689,0.44958 0.40644,0.99906 -0.34045,0.54948 -0.13311,0.99906 0.46075,0.99906 0.62156,0 0.83828,-0.9597 0.51073,-2.26154 -0.31297,-1.24385 -0.88494,-4.41624 -1.27104,-7.04977 l -0.70201,-4.78822 -4.50704,4.2799 c -2.47887,2.35395 -3.94366,3.63812 -3.25508,2.85371 0.68857,-0.7844 1.23724,-3.02219 1.21926,-4.97286 -0.0318,-3.45159 -0.0817,-3.40509 -1.86157,1.73477 -1.95362,5.6417 -3.32015,7.07316 -9.62373,10.08091 -4.1299,1.97059 -14.18548,3.78421 -11.46593,2.06799 0.86166,-0.54376 0.9754,-0.92144 0.28025,-0.93053 -0.64352,-0.008 -1.99564,-0.2825 -3.00469,-0.60907 -1.52584,-0.49383 -1.58178,-0.41232 -0.33231,0.48423 1.31709,0.94508 1.30287,1.07989 -0.11532,1.09331 -2.56848,0.0243 -7.22223,-4.05479 -6.00795,-5.26604 0.70636,-0.70459 1.51652,-0.62567 2.57535,0.25089 3.12156,2.58419 1.31039,-0.18254 -9.26655,-14.15549 C 93.930899,169.90826 92.750727,166.96 90.438533,135.02801 c -0.64278,-8.87695 -0.754897,-9.6031 -1.385586,-8.97398 -0.568121,0.5667 -7.160267,-5.48971 -7.160267,-6.57836 0,-1.45595 14.278847,-2.00363 22.26092,-0.85385 9.49125,1.36718 13.16376,2.51261 12.33657,3.84769 -0.3178,0.51292 0.37031,1.59501 1.52912,2.40464 l 2.10694,1.47207 -2.10472,0.66634 c -1.1576,0.36649 -1.89266,1.00863 -1.63346,1.42697 0.2592,0.41834 -0.18496,0.76062 -0.98702,0.76062 -0.80206,0 -1.45829,-0.35421 -1.45829,-0.78714 0,-0.43292 -1.10627,0.31637 -2.45838,1.6651 -1.96772,1.9628 -3.41701,2.43237 -7.26135,2.35266 -3.9012,-0.0809 -4.332844,-0.24977 -2.29904,-0.89947 1.42691,-0.45584 1.80386,-0.84273 0.87637,-0.89948 -0.89515,-0.0548 -2.923318,-0.33657 -4.507042,-0.62622 -4.92885,-0.90145 -5.856064,0.54631 -5.58132,8.71475 0.570575,16.96382 4.103102,30.36944 10.446502,39.64354 1.73767,2.54048 6.56513,9.13989 10.7277,14.66535 4.16256,5.52545 9.1378,12.18461 11.05607,14.79812 6.73241,9.17241 12.5683,10.60812 20.8631,5.13259 3.60362,-2.3788 4.19018,-3.36672 5.73689,-9.66245 1.39712,-5.68681 1.50686,-7.73189 0.58041,-10.81636 l -1.14245,-3.80364 -5.00835,1.89827 c -3.18973,1.20897 -7.55637,1.89827 -12.02541,1.89827 h -7.01706 l -4.49019,-4.67451 c -2.4696,-2.57098 -4.49019,-5.04366 -4.49019,-5.49484 0,-1.21092 6.78243,-0.99836 7.54755,0.23655 0.43098,0.69559 3.78932,0.83942 9.82437,0.42074 10.29663,-0.71432 12.93751,-1.24475 12.19157,-2.4487 -0.2819,-0.45497 0.95099,-0.83345 2.73975,-0.84106 1.78877,-0.008 4.52107,-0.50215 6.0718,-1.09897 5.68599,-2.18834 7.45576,-0.62624 3.79112,3.34625 -1.54092,1.67037 -1.97481,3.97773 -2.28207,12.13566 -0.3769,10.00664 -0.36629,10.06096 1.60696,8.22719 3.01499,-2.80187 4.01416,-1.74212 4.77687,5.06649 1.06741,9.52851 7.98328,32.08108 9.83784,32.08108 0.44907,0 1.49452,-1.9107 2.32323,-4.24601 1.24608,-3.51146 1.53769,-3.81392 1.68564,-1.74835 l 0.17891,2.49765 0.87565,-2.49765 c 1.34661,-3.841 0.40884,6.89339 -1.49349,17.09563 -1.42155,7.62374 -1.44161,9.44427 -0.17619,15.98498 2.26282,11.69597 2.65109,12.31477 8.58442,13.68092 2.8507,0.65638 5.99493,1.19341 6.98718,1.19341 0.99224,0 2.42265,0.74797 3.17867,1.66216 1.2426,1.50255 1.16452,1.55051 -0.81308,0.49953 -1.20322,-0.63945 -3.23139,-1.11661 -4.50704,-1.06036 -2.33271,0.10285 -2.16351,0.17074 4.69158,1.88239 0.55087,0.13755 2.68804,0.19685 4.74927,0.13178 3.52757,-0.11137 4.15619,-0.67001 10.70176,-9.5105 5.41555,-7.31428 7.74409,-9.65227 10.52504,-10.56777 4.24158,-1.39635 5.11106,-3.77827 4.20043,-11.50692 -0.34556,-2.93291 -0.23247,-5.48227 0.25132,-5.66525 1.02102,-0.38616 5.1653,-46.78462 5.14287,-57.57855 -0.0167,-8.03651 -1.7254,-12.64349 -5.08376,-13.70673 -3.33991,-1.0574 -5.57513,1.96118 -8.02168,10.83298 -1.94331,7.04689 -2.24976,10.56897 -2.23194,25.65201 0.0137,11.57897 0.50279,19.52027 1.44824,23.51424 0.78516,3.31688 1.13909,7.13829 0.7865,8.49203 -0.62731,2.40853 -0.65173,2.39703 -1.13845,-0.53584 -0.49473,-2.98114 -0.49855,-2.97847 -0.71446,0.49953 l -0.21706,3.49672 -1.42015,-4.49578 c -1.6536,-5.23484 -1.9485,-12.84418 -0.36783,-9.49108 0.67521,1.43232 0.76222,0.86652 0.30728,-1.99813 -0.34906,-2.19793 -0.60439,-9.16639 -0.56741,-15.48545 0.10835,-18.51233 -1.77266,-8.49562 -2.25133,11.98874 -0.2247,9.61596 -0.73134,22.20414 -1.12587,27.97372 l -0.71734,10.49014 -7.73644,5.24507 c -4.25504,2.88479 -8.4766,5.24508 -9.38123,5.24508 -2.06421,0 -2.16705,-3.31924 -0.15447,-4.98536 1.30961,-1.08416 1.26598,-1.5533 -0.35985,-3.86881 -2.32734,-3.31464 -5.4666,-12.7242 -4.797,-14.37847 0.27703,-0.6844 0.55298,-0.34521 0.61322,0.75375 0.10449,1.90622 0.15897,1.91328 1.18442,0.15348 0.7344,-1.26031 0.74955,-2.16917 0.0478,-2.86915 -0.5649,-0.56349 -0.78873,-1.6441 -0.49741,-2.40137 0.29132,-0.75727 -0.0175,-1.37685 -0.68621,-1.37685 -0.69996,0 -0.95654,-0.67414 -0.60469,-1.58875 0.33616,-0.87382 0.28847,-2.10962 -0.10596,-2.74623 -0.71288,-1.15057 -0.79322,-1.64537 -1.12116,-6.90446 -0.20506,-3.28849 -2.12484,-3.70715 -2.29063,-0.49954 -0.0912,1.76516 -0.21654,1.86212 -0.58349,0.45154 -0.25701,-0.98799 -0.023,-2.33673 0.51991,-2.99718 0.65815,-0.80056 0.36909,-4.86405 -0.86718,-12.19051 -1.8115,-10.73549 -1.72783,-16.07909 0.23283,-14.87036 0.53644,0.33071 3.86864,-0.86361 7.4049,-2.65403 6.87779,-3.48226 6.87018,-3.46702 5.76104,-11.53887 l -0.66851,-4.86514 -1.25842,3.47687 c -0.87762,2.42476 -1.30278,2.87224 -1.40501,1.47875 l -0.1466,-1.99812 -0.86077,1.99812 c -0.85962,1.99543 -0.86087,1.99542 -0.93117,-0.007 -0.0387,-1.10259 0.36725,-3.52688 0.90215,-5.38731 1.15387,-4.01326 0.44573,-5.68587 -1.66683,-3.93698 -1.71315,1.41823 -3.7554,5.81995 -3.40217,7.33277 0.1297,0.55547 -0.27361,0.50294 -0.90834,-0.1183 -0.85372,-0.83558 -0.7846,-1.96932 0.2741,-4.49577 1.5663,-3.73779 3.31185,-5.47914 6.03284,-6.01834 1.57669,-0.31243 1.63033,-0.59152 0.42745,-2.224 -1.33145,-1.80697 -1.52292,-1.78845 -5.98001,0.57831 -6.26275,3.32559 -9.64694,7.52039 -8.69645,10.7795 0.40063,1.37371 0.73502,3.84639 0.74308,5.49484 0.0102,2.07951 -0.40383,1.31477 -1.35214,-2.49765 -0.75174,-3.02216 -1.13612,-6.27411 -0.85419,-7.22656 0.30518,-1.03096 -0.50738,-2.74917 -2.00797,-4.24601 -1.75152,-1.74714 -2.06954,-2.51429 -1.04229,-2.51429 0.81306,0 1.99167,1.12394 2.61915,2.49765 0.62747,1.37371 1.40654,2.48865 1.73126,2.47765 0.32473,-0.011 3.29463,-5.03016 6.5998,-11.15368 5.90851,-10.94677 6.08504,-11.15263 10.51642,-12.26313 6.55186,-1.64189 7.19768,-2.19559 13.44864,-11.53033 4.23066,-6.31777 4.71488,-7.34095 1.89124,-3.99625 -7.60973,9.01399 -9.22203,10.32507 -10.94409,8.89945 -1.04153,-0.86223 -1.37679,-2.22713 -1.00388,-4.08702 0.61926,-3.08858 -0.15824,-6.07057 -1.38552,-5.31397 -0.43362,0.26733 -0.3354,-1.42117 0.21828,-3.75222 1.57878,-6.64682 1.62717,-35.72 0.062,-37.28121 -0.70683,-0.70507 -1.28515,-1.7371 -1.28515,-2.2934 0,-0.55631 -0.47146,-1.302114 -1.04769,-1.657351 -0.70204,-0.432804 -0.87871,1.113331 -0.5355,4.686581 0.47142,4.90813 0.43983,5.01446 -0.39694,1.33622 -0.50002,-2.19794 -0.9351,-5.906952 -0.96685,-8.242258 -0.054,-3.97324 -2.0154,-6.306706 -2.0994,-2.497653 -0.10825,4.908916 -1.21109,14.475001 -1.95269,16.937731 -0.83861,2.78488 -0.84186,2.78582 -1.0272,0.29608 l -0.18592,-2.49766 -0.80189,2.49766 c -0.59595,1.85619 -0.82754,0.89401 -0.90173,-3.74648 -0.10664,-6.66983 -0.50015,-7.04692 -5.85883,-5.61444 -2.03224,0.54326 -2.25352,1.21564 -2.25352,6.84746 v 6.24505 l 3.97652,-0.22381 c 2.18709,-0.12309 3.73795,0.16124 3.44637,0.63186 -0.29159,0.47061 0.58564,0.85566 1.9494,0.85566 1.36375,0 2.6686,-0.33718 2.89965,-0.74929 0.23105,-0.41211 0.25334,-0.11087 0.0495,0.66942 -0.20381,0.78029 0.20809,1.78496 0.91532,2.23259 1.03737,0.65658 1.031,0.81683 -0.0329,0.82917 -0.72535,0.008 -2.97887,1.66184 -5.00782,3.67427 -2.02896,2.01244 -2.88939,3.07232 -1.91207,2.35529 0.97732,-0.71703 2.04223,-1.03906 2.36647,-0.71563 0.98702,0.98455 -5.96759,4.68426 -8.81281,4.68825 -2.75367,0.004 -2.89164,0.32957 -4.44512,10.49388 -0.16797,1.09896 -0.99746,4.4708 -1.84333,7.49296 -0.84586,3.02216 -1.54328,7.78803 -1.54982,10.59082 -0.0144,6.16995 -1.81579,11.98688 -3.26458,10.54171 -0.59927,-0.59777 -0.87537,-6.33915 -0.68828,-14.31231 0.5433,-23.15283 0.65225,-21.92267 -2.09936,-23.7029 -1.36013,-0.87998 -3.54807,-2.65194 -4.86209,-3.9377 -1.87808,-1.83768 -2.56652,-2.05144 -3.21841,-0.9993 -0.54383,0.87773 -0.23859,1.57227 0.88678,2.01776 1.34069,0.53072 1.16835,0.71003 -0.78785,0.81975 -2.30801,0.12945 -2.34719,0.20762 -0.50078,0.99906 1.68245,0.72117 1.48573,0.86987 -1.22887,0.92884 -2.36788,0.0515 -3.66005,-0.58144 -4.83302,-2.36714 -0.89375,-1.36064 -2.21012,-2.20422 -2.97982,-1.90959 -2.82306,1.0806 -3.33515,-0.72535 -1.16381,-4.10432 1.93369,-3.00914 6.40869,-5.37162 8.95356,-4.72684 0.41315,0.10467 0.75117,-0.96016 0.75117,-2.3663 0,-1.40614 0.4281,-2.2927 0.95132,-1.97014 0.52322,0.32256 1.43071,-0.30706 2.01665,-1.39916 0.58594,-1.0921 2.7494,-2.75381 4.80768,-3.69269 2.05829,-0.93889 4.09738,-1.89327 4.53131,-2.12085 0.43393,-0.22759 0.6468,2.43308 0.47304,5.9126 l -0.31591,6.32639 -8.42443,0.76354 c -6.74693,0.61151 -8.82864,1.19634 -10.4544,2.93703 -1.97441,2.11398 -1.97609,2.1516 -0.0611,1.37397 1.08286,-0.43973 3.84175,-1.02831 6.13085,-1.30796 3.78819,-0.46278 4.30183,-0.25097 5.71889,2.35826 0.85629,1.57669 1.57494,2.51454 1.597,2.08411 0.022,-0.43043 1.65774,0.831 3.63485,2.80317 l 3.59476,3.58578 -0.58795,9.68509 -0.58795,9.68509 1.88064,-7.49296 c 1.03435,-4.12113 2.17471,-9.14761 2.53412,-11.16997 0.61571,-3.46455 0.49246,-3.69545 -2.13315,-3.99624 -1.5676,-0.17959 -2.78662,-0.93076 -2.78662,-1.71714 0,-0.76885 -0.866,-1.70093 -1.92444,-2.07128 -1.81681,-0.63571 -1.79035,-0.76705 0.47325,-2.34857 1.31872,-0.92137 3.1988,-1.67521 4.17796,-1.67521 0.97915,0 1.78027,-0.47307 1.78027,-1.05127 0,-0.64051 2.05455,-0.93328 5.25821,-0.7493 4.38883,0.25205 5.23293,0.60475 5.10527,2.13317 -0.13518,1.61848 0.13689,1.56045 2.34217,-0.49953 l 2.49512,-2.33072 -6.13951,-0.84202 -6.1395,-0.84202 0.23885,-7.46296 c 0.13137,-4.10463 0.54029,-7.64879 0.90871,-7.87592 0.36843,-0.22713 0.4697,-1.45743 0.22506,-2.734004 -0.24465,-1.276571 0.50986,-5.147832 1.67667,-8.602802 1.8304,-5.419881 1.9924,-7.195096 1.18074,-12.938494 -0.5174,-3.6612 -1.09878,-7.331094 -1.29195,-8.15532 -0.2225,-0.949335 0.38294,-1.498592 1.65189,-1.498592 1.7046,0 2.40533,1.563367 4.70186,10.490144 1.4843,5.76958 2.73038,12.063666 2.76906,13.98686 l 0.0703,3.496714 1.33239,-2.497653 c 0.74124,-1.389508 0.95687,-2.918749 0.48601,-3.446762 -0.4655,-0.522009 -0.84637,-3.107081 -0.84637,-5.744603 0,-4.662286 0.0835,-4.795494 3.00469,-4.795494 2.82867,0 3.0047,0.229942 3.0047,3.924884 0,2.243404 -0.67729,4.600482 -1.58092,5.501855 -1.44019,1.436588 -1.26187,1.526393 2.00312,1.008798 3.63097,-0.575611 4.13786,-0.0498 2.94389,3.053848 -0.51066,1.327442 -0.81147,1.394497 -1.48701,0.331476 -0.67095,-1.055803 -0.85003,-1.008839 -0.86218,0.226104 -0.008,0.857283 1.36564,2.967666 3.05351,4.68974 2.94772,3.007471 3.05177,3.407891 2.63622,10.145741 -0.23795,3.85809 -0.15464,7.29199 0.18511,7.63089 0.33975,0.33891 0.49507,3.38909 0.34514,6.7782 l -0.2726,6.162 1.79488,-5.01619 c 4.78595,-13.37542 10.62098,-15.05283 15.22519,-4.37681 1.55284,3.60066 2.12834,6.62492 1.89327,9.94922 -0.18575,2.62684 -0.14581,4.58375 0.0888,4.34868 0.23456,-0.23507 1.50137,0.57989 2.81513,1.81102 l 2.38865,2.23841 -1.51389,-2.91074 c -2.05037,-3.94222 -2.99389,-12.34646 -2.14604,-19.1155 0.97969,-7.8216 1.95851,-5.86681 1.68412,3.36337 -0.23467,7.89419 1.46175,15.00817 4.33377,18.17378 0.78392,0.86406 1.08897,2.11386 0.67788,2.77735 -0.54555,0.88051 -1.72518,0.54358 -4.36753,-1.24745 l -3.62011,-2.45378 -3.27045,5.08383 c -2.88535,4.48519 -3.14163,5.42431 -2.17634,7.97524 0.70934,1.87457 0.73389,2.66934 0.0698,2.25994 -1.58507,-0.97717 0.14018,5.80258 2.01585,7.92176 1.29342,1.46134 1.34774,1.96576 0.28239,2.62254 -0.92501,0.57025 -0.98791,1.01733 -0.21057,1.49656 0.60967,0.37585 1.11852,0.0949 1.13077,-0.62441 0.0122,-0.71929 0.95561,-0.18385 2.09636,1.18986 1.35817,1.63554 1.8799,1.89417 1.51151,0.7493 -0.36238,-1.12619 -0.0392,-1.74836 0.90833,-1.74836 0.809,0 1.47091,0.39783 1.47091,0.88406 0,1.20303 9.16636,4.11125 12.95814,4.11125 3.21017,0 3.6274,-0.56702 2.14088,-2.90945 -1.4835,-2.33768 1.35724,-4.08534 6.61347,-4.06869 3.48706,0.0111 4.41149,0.28443 3.32662,0.98377 -1.24612,0.80329 -1.16071,0.97358 0.50079,0.99849 1.76036,0.0264 1.69967,0.18948 -0.50079,1.3458 -1.37715,0.72368 -2.32963,1.95339 -2.11661,2.73269 0.72692,2.65948 1.12568,6.41519 0.55416,5.21952 -0.31355,-0.65599 -1.32971,-0.95076 -2.25812,-0.65505 -0.98967,0.31521 -1.27367,0.18866 -0.68647,-0.30589 0.55086,-0.46395 1.02353,-2.75425 1.05037,-5.08955 0.0434,-3.77801 -0.20497,-4.24601 -2.25352,-4.24601 -1.77326,0 -2.30232,0.5604 -2.30232,2.43869 0,1.34128 0.4507,2.71655 1.00156,3.05615 4.958,3.05655 -8.80773,3.28502 -18.40504,0.30546 -3.26458,-1.01351 -6.70804,-1.5982 -7.65214,-1.2993 -1.90909,0.60441 -2.7354,-2.17355 -3.8648,-12.99302 l -0.62573,-5.99437 -3.21577,5.19634 c -3.59874,5.81518 -5.83264,7.543 -12.13292,9.38424 -3.73337,1.09108 -4.68462,1.9652 -6.889,6.33044 -1.40665,2.78552 -3.5026,6.41331 -4.65767,8.06176 l -2.10013,2.99718 3.30699,-2.74742 c 5.32528,-4.4242 9.16268,-3.21457 9.16268,2.88827 0,3.08889 1.8779,5.89475 2.11831,3.16506 0.26042,-2.95695 1.77684,7.09286 1.83023,12.12959 0.0449,4.23491 0.3248,5.17847 1.2596,4.24601 1.76644,-1.76203 3.81773,-1.45959 3.72687,0.54948 -0.0435,0.9616 -0.29826,1.21075 -0.56616,0.55366 -0.32684,-0.80167 -2.19543,-0.12361 -5.67992,2.06107 -2.85606,1.79067 -7.44636,4.21428 -10.20066,5.3858 -3.73825,1.59004 -4.9202,2.5872 -4.66221,3.9333 0.19008,0.9918 0.49414,1.95671 0.67569,2.14425 0.69716,0.72019 4.5849,-1.0907 12.39903,-5.77539 4.46232,-2.67523 8.11022,-4.57 8.10646,-4.2106 -0.0103,0.98461 -5.6951,4.5469 -13.23873,8.29584 -4.65189,2.31185 -6.74319,3.92119 -6.76056,5.20254 -0.0178,1.31387 0.45458,1.67161 1.61886,1.22595 1.24338,-0.47594 1.38855,-0.31939 0.59573,0.64241 -0.73489,0.89151 -0.63856,3.61172 0.3222,9.09888 2.16205,12.34797 8.42103,35.99035 9.75119,36.83366 1.89102,1.19889 5.36059,0.92766 6.55901,-0.51275 0.5991,-0.72006 1.75653,-5.42449 2.57208,-10.4543 0.81555,-5.0298 1.95803,-10.03083 2.53885,-11.11339 1.2766,-2.37939 1.40345,-8.09401 0.17967,-8.09401 -0.48201,0 -1.2002,1.46113 -1.59599,3.24695 -0.39579,1.78582 -0.94683,2.66568 -1.22455,1.95525 -0.83183,-2.12796 0.6222,-6.20126 2.21364,-6.20126 0.8158,0 1.48758,-0.56198 1.49286,-1.24883 0.005,-0.68685 0.90668,-9.98748 2.00313,-20.66806 1.09644,-10.68057 1.99353,-19.75422 1.99353,-20.16366 0,-0.40945 -0.90141,-1.02982 -2.00313,-1.37862 -1.10172,-0.3488 -2.00313,-1.14338 -2.00313,-1.76573 0,-0.80529 0.34654,-0.78588 1.20188,0.0673 2.04054,2.03544 2.69269,1.39012 4.3532,-4.30757 2.14398,-7.35658 5.67416,-11.48227 9.80782,-11.4623 3.67295,0.0178 4.66555,0.57996 6.97997,3.95348 2.19181,3.1948 2.21917,12.8046 0.1055,37.05223 -1.31902,15.13161 -1.36622,18.64637 -0.27766,20.67529 1.11915,2.08592 1.07945,2.61375 -0.27065,3.5985 -1.21091,0.88323 -1.75083,3.97276 -2.30092,13.16635 l -0.71875,12.01232 3.32975,1.61195 c 4.77955,2.31379 11.83484,7.63595 12.5349,9.4557 0.32895,0.85508 2.79552,3.74665 5.48128,6.42569 l 4.8832,4.871 13.75195,0.30845 13.75196,0.30846 -15.24388,0.21914 -15.24387,0.21914 -2.12208,-2.86309 c -2.80151,-3.77977 -9.39547,-7.43984 -11.94779,-6.63179 -1.09085,0.34536 -3.54208,2.52537 -5.44717,4.84447 -1.9051,2.3191 -4.42518,4.28879 -5.6002,4.37708 -1.74675,0.13125 -1.91921,-0.1005 -0.94563,-1.27066 0.65492,-0.78716 1.53933,-1.21631 1.96536,-0.95366 0.42602,0.26264 1.38904,-0.30428 2.14003,-1.25983 1.23563,-1.57219 1.19881,-1.60701 -0.3873,-0.3662 -0.964,0.75413 -1.75273,0.92379 -1.75273,0.377 0,-1.93741 8.95619,-9.24152 11.24522,-9.1709 2.11827,0.0654 2.1391,0.12355 0.30076,0.84019 -1.77322,0.69125 -1.69643,0.82311 0.75118,1.28983 1.49946,0.28592 2.7263,0.15551 2.7263,-0.28981 0,-1.15001 -5.72898,-5.28684 -10.93746,-7.89782 -3.86585,-1.93794 -4.91016,-2.07507 -8.23507,-1.0814 -3.40636,1.01803 -4.36075,2.12692 -9.05318,10.51879 l -5.24539,9.38079 -6.05004,-0.0847 c -3.32752,-0.0466 -6.7261,-0.62582 -7.55239,-1.28723 -0.82629,-0.66141 -3.477,-1.50188 -5.89046,-1.86772 -2.41346,-0.36584 -8.56033,-2.22394 -13.6597,-4.12911 -13.23313,-4.944 -14.05671,-4.75349 -12.6197,2.91921 0.6709,3.58215 0.56906,4.60653 -0.45795,4.60653 -0.88382,0 -1.42931,-1.73504 -1.64904,-5.24507 l -0.32834,-5.24508 -1.57926,3.49672 c -0.86859,1.92319 -1.85701,4.28348 -2.19648,5.24507 -0.51553,1.46034 -1.73612,1.71665 -7.40921,1.55586 l -6.79199,-0.1925 z m 59.66741,-3.25611 c 0.97621,-1.64845 1.60884,-2.99718 1.40586,-2.99718 -0.20298,0 -1.36871,1.34873 -2.59052,2.99718 -1.2218,1.64846 -1.85444,2.99719 -1.40586,2.99719 0.44858,0 1.61432,-1.34873 2.59052,-2.99719 z m -20.64401,-1.60266 c -0.33281,-0.33198 -1.19666,-0.36747 -1.91966,-0.0789 -0.79898,0.31893 -0.56165,0.55566 0.60511,0.6036 1.05582,0.0434 1.64737,-0.19275 1.31455,-0.52473 z m -3.735,-0.77847 c 0,-0.21065 -0.90203,-0.6183 -2.00451,-0.90589 -1.10248,-0.28758 -1.75194,-0.11523 -1.44323,0.38301 0.53909,0.87009 3.44774,1.31121 3.44774,0.52288 z m 49.20442,-2.36441 c 1.24581,-1.58456 1.21039,-1.6199 -0.37815,-0.3772 -1.66835,1.30514 -2.19891,2.12556 -1.37459,2.12556 0.20798,0 0.99671,-0.78676 1.75274,-1.74836 z m -56.29807,-6.4939 c -2.03496,-7.81487 -2.44905,-17.13273 -1.01009,-22.72864 0.49454,-1.9232 1.17416,-5.51982 1.51027,-7.99249 0.55893,-4.11196 0.50092,-4.2833 -0.67952,-2.00698 -1.84302,3.55405 -4.33088,3.69366 -5.56684,0.31239 -1.59324,-4.35867 -1.33801,-0.81121 0.83143,11.55625 1.09602,6.24814 1.99276,14.69221 1.99276,18.76459 0,6.74482 0.20073,7.48482 2.25352,8.30788 1.23944,0.49695 2.32125,0.93204 2.40404,0.96687 0.0828,0.0348 -0.69822,-3.19611 -1.73557,-7.17987 z m 20.61477,-0.0516 c 1.65259,-1.81428 2.32864,-2.39209 1.50235,-1.28403 -1.0796,1.44775 -0.58792,1.27088 1.74733,-0.62857 1.78733,-1.45377 4.10486,-2.91396 5.15008,-3.24487 2.47122,-0.78238 2.82567,-2.38323 2.89979,-13.09688 l 0.0617,-8.91842 -1.84766,10.21136 c -1.01622,5.61625 -2.13431,10.674 -2.48465,11.23944 -0.35034,0.56545 -2.43471,1.02808 -4.63195,1.02808 -3.04815,0 -4.58563,-0.63573 -6.48715,-2.68238 -1.3707,-1.47531 -2.25575,-3.29697 -1.96678,-4.04814 0.31399,-0.81618 0.0838,-1.09351 -0.57199,-0.68922 -0.74171,0.45726 -0.86552,-0.0522 -0.38201,-1.57181 0.48734,-1.53164 0.36191,-2.03043 -0.39348,-1.56474 -1.72988,1.06645 -1.33653,2.81346 1.71416,7.61328 3.78255,5.95127 4.43046,8.69239 2.34204,9.90842 -0.91277,0.53148 -1.20888,0.98001 -0.65802,0.99675 0.55086,0.0167 2.35367,-1.45399 4.00625,-3.26827 z m 20.54708,-3.18815 c 2.40123,-2.88471 2.40626,-2.92029 0.14262,-1.01024 -1.29046,1.08889 -2.81042,2.88398 -3.37769,3.9891 -1.0892,2.12192 -0.75357,1.81288 3.23507,-2.97886 z m -2.35638,-31.72734 c -0.27785,-0.68686 -0.50518,-0.12489 -0.50518,1.24882 0,1.37371 0.22733,1.93568 0.50518,1.24883 0.27784,-0.68686 0.27784,-1.8108 0,-2.49765 z m -58.58564,-55.40057 c 1.52055,-1.82757 -0.95575,-1.70093 -5.7413,0.2936 -2.09791,0.87437 -7.93658,1.83509 -12.97483,2.13492 -8.9627,0.53339 -9.18385,0.60696 -10.24379,3.40805 -0.992,2.62154 -0.87244,2.91569 1.41826,3.48918 3.88404,0.9724 12.12065,-0.34242 17.04688,-2.7212 2.74395,-1.32501 4.82467,-1.79955 5.39519,-1.23046 0.51077,0.50949 1.4912,3.31207 2.17875,6.22795 l 1.25008,5.3016 0.29617,-7.80374 c 0.1629,-4.29205 0.78146,-8.38701 1.37459,-9.0999 z m -29.77487,4.79552 c 0.30729,-0.49596 -0.86392,-1.39643 -2.60269,-2.00105 -3.12117,-1.08533 -3.1383,-1.07386 -1.34593,0.90174 1.9811,2.18361 3.08619,2.49127 3.94862,1.09931 z m 40.33047,-24.31291 c -0.23957,-1.24274 -0.44468,-0.46123 -0.45579,1.73671 -0.0111,2.19793 0.18489,3.21473 0.43557,2.25954 0.25069,-0.95519 0.25978,-2.7535 0.0202,-3.99625 z m 37.85186,-14.82237 c 7.2615,-9.68562 7.62076,-10.34402 7.03255,-12.88822 -0.44217,-1.91252 -0.33734,-2.1602 0.43342,-1.02407 0.74083,1.09201 1.02081,-0.17611 1.03199,-4.67418 0.0224,-9.00155 -4.52478,-12.73996 -5.64046,-4.63727 -0.21338,1.54965 -0.57452,3.94149 -0.80255,5.3152 -0.22802,1.37371 -0.47732,3.17202 -0.55399,3.99625 -0.097,1.04297 -0.40111,0.8911 -1.00018,-0.49953 l -0.86077,-1.99813 -0.15174,1.99813 c -0.12254,1.6136 -0.41651,1.42134 -1.52757,-0.99906 -0.75671,-1.64846 -1.39616,-2.40868 -1.421,-1.6894 -0.0248,0.71928 -0.49588,1.02993 -1.04674,0.69033 -0.55086,-0.3396 -1.00157,0.30824 -1.00157,1.43963 0,1.1314 0.52192,1.94469 1.15982,1.80732 0.63789,-0.13737 1.86604,0.96235 2.7292,2.44382 1.46949,2.5221 1.43426,2.8401 -0.55331,4.9953 -2.53589,2.74975 -4.30595,11.11456 -2.17221,10.2652 0.73723,-0.29346 2.69253,-2.33706 4.34511,-4.54132 z m -6.42517,-6.02452 c -0.52778,-1.31611 -0.98816,-1.86773 -1.02308,-1.22582 -0.0848,1.55915 1.08192,4.51726 1.58411,4.01633 0.21921,-0.21867 -0.0332,-1.47439 -0.56103,-2.79051 z m 16.97145,0.0491 c 1.52197,-2.83672 0.48385,-2.37382 -1.5209,0.67818 -0.94678,1.44136 -1.22639,2.31548 -0.62136,1.94248 0.60504,-0.373 1.56905,-1.5523 2.14226,-2.62066 z m -13.05019,-3.06388 c 0,-1.73929 -1.78187,-0.82957 -2.3083,1.17849 -0.44211,1.68639 -0.28333,1.84373 0.88475,0.87673 0.78295,-0.64816 1.42355,-1.57301 1.42355,-2.05522 z m 12.98966,-2.37532 c 0,-0.54948 -0.4369,-0.32469 -0.97089,0.49953 -0.53399,0.82423 -0.97089,1.94817 -0.97089,2.49766 0,0.54948 0.4369,0.32469 0.97089,-0.49954 0.53399,-0.82422 0.97089,-1.94816 0.97089,-2.49765 z m 1.02629,-12.00992 c -0.70531,-2.51283 -2.17047,-5.69498 -3.25592,-7.07146 -1.91179,-2.42437 -2.03586,-2.44641 -3.96541,-0.70456 -2.00804,1.81271 -5.27162,7.29767 -4.34215,7.29767 0.27543,0 1.19999,-1.34873 2.05457,-2.99718 1.91371,-3.69146 3.73288,-3.79454 6.43747,-0.3648 1.54904,1.96436 2.10177,4.18278 2.17807,8.74179 0.0951,5.68203 0.17477,5.88408 1.13901,2.88836 0.75507,-2.34591 0.68834,-4.46233 -0.24564,-7.78982 z m -116.70413,3.5701 c -2.039486,-2.00914 -7.483911,-3.54158 -7.483911,-2.10649 0,1.75147 3.758289,3.60434 7.984691,3.93652 1.09738,0.0863 0.9693,-0.38182 -0.50078,-1.83003 z m 5.8273,-0.58129 c -0.97412,-0.71052 -2.11413,-1.08039 -2.53335,-0.82195 -0.41922,0.25845 -0.76222,-0.006 -0.76222,-0.58812 0,-1.36861 1.69282,-1.36806 2.54096,8.2e-4 0.41565,0.67087 1.12781,0.41527 1.94358,-0.69757 1.20229,-1.64013 1.55697,-1.65084 5.35703,-0.16187 3.92131,1.53648 4.02708,1.52682 2.90501,-0.26541 -1.59428,-2.54647 -9.19721,-4.10741 -21.532224,-4.42074 -8.583498,-0.21804 -9.996324,-0.0486 -8.527534,1.02272 1.157587,0.84433 2.343015,0.97307 3.461589,0.37592 0.935622,-0.49948 3.523186,-0.90814 5.750143,-0.90814 3.334071,0 4.35152,0.48512 5.762226,2.74742 2.91894,4.68099 4.47521,6.13057 5.96824,5.55907 1.17971,-0.45157 1.11988,-0.78211 -0.33345,-1.84215 z m 46.28187,1.52815 c -0.34045,-0.54948 -0.15584,-0.99906 0.41024,-0.99906 0.56608,0 0.76982,-0.67437 0.45274,-1.49859 -0.70684,-1.83739 -3.36689,-1.99526 -3.36689,-0.19981 0,0.71432 0.54085,1.83827 1.20188,2.49765 1.4613,1.45765 2.14652,1.5628 1.30203,0.19981 z m 23.01728,-2.1714 c 3.26859,-1.48555 1.49602,-2.8442 -3.48677,-2.67255 -2.45842,0.0847 -2.8095,0.25306 -1.17538,0.56372 1.51005,0.28708 2.13796,0.94241 1.78417,1.86207 -0.66203,1.72091 -0.41259,1.7423 2.87798,0.24676 z m 5.02653,-3.82297 c 0.36897,-0.59551 -0.71971,-0.95883 -2.69519,-0.89947 -3.11595,0.0936 -3.16442,0.14743 -0.81029,0.89947 1.37715,0.43994 2.58999,0.84471 2.6952,0.89948 0.1052,0.0548 0.46983,-0.34999 0.81028,-0.89948 z m -23.85415,-7.18075 c -0.31972,-0.79698 -0.55705,-0.56025 -0.60511,0.6036 -0.0435,1.05318 0.19323,1.64325 0.52604,1.31127 0.33281,-0.33198 0.36839,-1.19367 0.0791,-1.91487 z m 7.82912,0.18732 c 0.34961,-0.56428 -0.47068,-0.99906 -1.88491,-0.99906 -1.37715,0 -2.78246,0.44958 -3.12292,0.99906 -0.34961,0.56428 0.47068,0.99906 1.88491,0.99906 1.37716,0 2.78247,-0.44957 3.12292,-0.99906 z m 20.80152,-15.641238 c -0.67809,-0.273666 -2.0302,-0.290325 -3.00469,-0.03702 -0.97449,0.253308 -0.41969,0.477218 1.23289,0.497578 1.65258,0.0204 2.44989,-0.18689 1.7718,-0.460558 z m -0.43766,-7.456791 c -0.46103,-3.362695 -1.28402,-7.521288 -1.82886,-9.241318 -0.90529,-2.857902 -0.96019,-2.890632 -0.63724,-0.37991 0.19437,1.511081 0.003,2.747419 -0.42628,2.747419 -0.42883,0 -1.23903,2.136497 -1.80045,4.747771 -0.56142,2.611274 -1.32304,5.533529 -1.69249,6.493899 -0.5694,1.480121 -0.0704,1.746128 3.27591,1.746128 h 3.94765 z m 6.50947,-7.623105 c 0.35603,-1.865694 0.2042,-3.246949 -0.35691,-3.246949 -0.53709,0 -0.97653,1.648451 -0.97653,3.663225 0,4.281774 0.4646,4.136735 1.33344,-0.416276 z m -9.66334,-8.42958 c -0.31972,-0.796984 -0.55705,-0.56025 -0.60511,0.603599 -0.0435,1.053177 0.19323,1.643248 0.52604,1.311268 0.33281,-0.33198 0.3684,-1.19367 0.0791,-1.914867 z M 15.947568,280.39144 c 0,-1.37371 0.227329,-1.93568 0.505175,-1.24883 0.277846,0.68686 0.277846,1.8108 0,2.49766 -0.277846,0.68685 -0.505175,0.12488 -0.505175,-1.24883 z m 7.933445,-0.58279 c 0.04806,-1.16385 0.285386,-1.40058 0.605112,-0.6036 0.289322,0.7212 0.25374,1.58289 -0.07907,1.91487 -0.332812,0.33198 -0.56953,-0.25809 -0.526041,-1.31127 z m 101.078937,-8.87314 c 0,-2.54466 3.23101,-5.12678 5.02852,-4.01864 1.77929,1.09692 1.02109,2.46566 -1.2316,2.22335 -1.48166,-0.15938 -2.34211,0.38671 -2.60493,1.65325 -0.31103,1.4988 0.0444,1.77726 1.71306,1.34199 1.15805,-0.30208 1.85296,-0.14158 1.54426,0.35666 -0.3087,0.49824 -1.43608,0.90589 -2.50529,0.90589 -1.39851,0 -1.94402,-0.691 -1.94402,-2.4625 z m 97.43821,-13.02295 c 0.008,-2.74742 0.20203,-3.75279 0.43225,-2.23415 0.23021,1.51863 0.22406,3.76652 -0.0137,4.9953 -0.23774,1.22879 -0.42609,-0.0137 -0.41858,-2.76115 z m -83.16592,2.43481 c -2.51832,-0.97428 -3.15233,-5.63439 -1.05164,-7.72984 1.64476,-1.64064 5.30646,-1.50817 6.76489,0.24473 2.98281,3.58509 -1.29785,9.19332 -5.71325,7.48511 z m 4.25665,-4.41618 c 0,-2.01173 -3.98844,-3.16061 -5.0461,-1.45355 -1.12867,1.82165 0.28144,3.61946 2.69955,3.44176 1.53688,-0.11295 2.34655,-0.79898 2.34655,-1.98821 z m 80.89873,1.48184 c 0,-2.47268 0.19532,-3.48423 0.43405,-2.24789 0.23872,1.23634 0.23872,3.25944 0,4.49578 -0.23873,1.23633 -0.43405,0.22478 -0.43405,-2.24789 z M 117.30967,256.9136 c -0.34406,-0.89436 -0.12527,-2.72139 0.48619,-4.06006 2.02057,-4.42358 7.6931,-2.1871 6.99058,2.75614 -0.2536,1.78449 -1.06155,2.37347 -3.58924,2.61646 -2.29405,0.22053 -3.44759,-0.16894 -3.88753,-1.31254 z m 6.31633,-1.07663 c 0.33347,-0.86684 -0.0392,-2.21997 -0.82818,-3.00696 -1.93335,-1.92852 -5.28031,0.30077 -4.29539,2.86102 0.8296,2.15651 4.31195,2.2557 5.12357,0.14594 z m 156.57644,-2.54106 c -4.06528,-2.17344 -2.23785,-2.45043 3.35411,-0.50841 2.88542,1.00207 3.43156,1.5008 2.17161,1.98308 -0.92581,0.35438 -1.75911,0.58923 -1.85177,0.5219 -0.0927,-0.0673 -1.74594,-0.9658 -3.67395,-1.99657 z M 69.624203,251.89435 c -0.265772,-1.38683 -0.09296,-2.76209 0.384023,-3.05615 0.476985,-0.29406 0.867245,0.58286 0.867245,1.94871 0,1.52501 0.676397,2.65968 1.752738,2.94026 1.388494,0.36194 1.308689,0.48097 -0.384023,0.57278 -1.533611,0.0832 -2.273161,-0.59586 -2.619983,-2.4056 z m 7.761437,-0.13764 c 1.652581,-0.86904 4.128229,-2.53696 5.501439,-3.70648 l 2.496746,-2.12641 -1.9936,2.35017 c -1.941213,2.28842 -6.597816,5.18323 -8.208368,5.10279 -0.440501,-0.022 0.551201,-0.75103 2.203783,-1.62007 z m -19.530507,-0.0609 c 0,-1.25707 2.862836,-3.74888 3.53582,-3.07758 0.265495,0.26484 -0.421453,1.29774 -1.526551,2.29534 -1.105098,0.9976 -2.009269,1.34961 -2.009269,0.78224 z m 128.279317,-0.85996 c 0.0481,-1.16385 0.28539,-1.40058 0.60512,-0.6036 0.28932,0.7212 0.25374,1.58289 -0.0791,1.91487 -0.33281,0.33198 -0.56953,-0.25809 -0.52604,-1.31127 z m 62.26832,0.89317 c 0.96401,-0.25129 2.54147,-0.25129 3.50548,0 0.964,0.25129 0.17527,0.4569 -1.75274,0.4569 -1.92801,0 -2.71675,-0.20561 -1.75274,-0.4569 z m 19.54218,-0.0179 c 1.24586,-0.23896 3.04868,-0.22989 4.00626,0.0202 0.95758,0.25005 -0.0618,0.44557 -2.2652,0.43448 -2.20344,-0.0111 -2.98691,-0.21568 -1.74106,-0.45465 z m -34.31526,-1.29152 c -0.34045,-0.54949 -0.14169,-0.99906 0.44168,-0.99906 0.58337,0 1.06067,0.44957 1.06067,0.99906 0,0.54948 -0.19875,0.99906 -0.44167,0.99906 -0.24292,0 -0.72023,-0.44958 -1.06068,-0.99906 z m -10.35828,-1.99812 c 0,-1.37371 0.22733,-1.93569 0.50517,-1.24883 0.27785,0.68685 0.27785,1.8108 0,2.49765 -0.27784,0.68686 -0.50517,0.12489 -0.50517,-1.24882 z m -84.7188,-0.5709 c -3.18018,-3.17223 -1.35201,-8.42066 2.93315,-8.42066 2.83448,0 4.50704,1.85376 4.50704,4.99531 0,4.66937 -4.23735,6.62019 -7.44019,3.42535 z m 4.88064,-3.42535 c 0,-2.85317 -3.1055,-4.05569 -4.0608,-1.57243 -0.90614,2.35545 0.37389,4.76167 2.33286,4.38535 1.083,-0.20805 1.72794,-1.25795 1.72794,-2.81292 z m -25.47346,2.51063 c -0.72204,-0.86783 -0.96699,-2.55491 -0.58905,-4.05699 0.55103,-2.18998 1.12469,-2.52532 3.86771,-2.26086 2.71863,0.2621 3.27226,0.76085 3.55131,3.19928 0.48731,4.25818 -4.12835,6.36568 -6.82997,3.11857 z m 4.98645,-0.99931 c 1.46982,-1.76661 0.65629,-4.5085 -1.33769,-4.5085 -0.77613,0 -1.97223,0.67436 -2.65799,1.49859 -0.99474,1.19559 -0.99474,1.80159 0,2.99718 1.56759,1.88411 2.43637,1.88688 3.99568,0.0127 z m 61.66244,-1.06729 c -0.37708,-2.00497 -0.48528,-3.8452 -0.24045,-4.08942 0.24482,-0.24421 0.75365,1.1964 1.13073,3.20136 0.37707,2.00497 0.48528,3.8452 0.24045,4.08942 -0.24483,0.24421 -0.75366,-1.1964 -1.13073,-3.20136 z m 49.5218,1.73538 c 0,-1.20742 1.90016,-2.61513 2.59475,-1.92229 0.25209,0.25147 -0.2286,1.0259 -1.0682,1.72097 -0.95187,0.788 -1.52655,0.8638 -1.52655,0.20132 z m 16.48003,-0.1074 c 0.30747,-0.49626 0.0561,-1.06951 -0.55859,-1.2739 -0.67548,-0.2246 -0.40564,-0.95003 0.68207,-1.83369 1.60857,-1.30681 1.73257,-1.28326 1.16765,0.22174 -0.34762,0.92609 -0.11677,1.85514 0.51301,2.06454 0.64348,0.21395 0.37669,0.67484 -0.60906,1.05216 -0.96477,0.36929 -1.50255,0.26541 -1.19508,-0.23085 z M 72.405354,244.06027 c 1.086576,-0.75021 3.102352,-1.6654 4.479504,-2.03375 1.439327,-0.38498 0.830998,0.19495 -1.430796,1.36402 -4.533986,2.3435 -5.91109,2.64602 -3.048708,0.66973 z m 8.986544,-1.63316 c -0.340451,-0.54949 -0.168297,-0.99906 0.382563,-0.99906 0.550861,0 1.280115,0.44957 1.620566,0.99906 0.34045,0.54948 0.168296,0.99906 -0.382564,0.99906 -0.55086,0 -1.280115,-0.44958 -1.620565,-0.99906 z M 238.57855,241.8958 c 1.0693,-0.80675 2.64676,-1.46405 3.50548,-1.46066 0.85872,0.003 0.27035,0.67775 -1.30748,1.49859 -3.63171,1.88934 -4.72739,1.87043 -2.198,-0.0379 z m 17.70071,1.14752 c 1.11509,-1.22877 6.89659,-2.52442 6.89659,-1.54553 0,0.51112 -0.56338,0.93546 -1.25196,0.94296 -0.68858,0.007 -2.37872,0.29867 -3.75587,0.64704 -1.37715,0.34837 -2.22709,0.32836 -1.88876,-0.0445 z m -30.86273,-8.6087 c 0,-3.02216 0.18776,-4.2585 0.41724,-2.74742 0.22948,1.51108 0.22948,3.98375 0,5.49484 -0.22948,1.51108 -0.41724,0.27474 -0.41724,-2.74742 z m 42.52842,4.28871 c 1.24586,-0.23897 3.04868,-0.2299 4.00626,0.0202 0.95758,0.25006 -0.0618,0.44558 -2.2652,0.43449 -2.20344,-0.0111 -2.98691,-0.21568 -1.74106,-0.45465 z m 7.33313,0.34499 c 1.01325,-0.87799 11.91984,-1.42074 11.39079,-0.56685 -0.3164,0.51065 -3.10265,0.92845 -6.19168,0.92845 -3.08904,0 -5.42863,-0.16272 -5.19911,-0.3616 z m -131.2884,-3.63464 c 1.37715,-0.43994 3.17996,-0.83782 4.00625,-0.88418 1.33542,-0.0749 1.33542,0.0233 0,0.88418 -0.82629,0.53265 -2.6291,0.93053 -4.00625,0.88417 l -2.50392,-0.0843 z m 6.82315,-1.68154 c 0.72301,-0.2886 1.58686,-0.2531 1.91967,0.0789 0.33281,0.33198 -0.25874,0.5681 -1.31455,0.52472 -1.16677,-0.0479 -1.4041,-0.28467 -0.60512,-0.6036 z m 8.65864,-2.36493 c 3.28182,-1.02634 6.12314,-1.71026 6.31406,-1.51982 0.52336,0.52204 -8.89817,3.58172 -10.70667,3.47703 -0.86588,-0.0501 1.1108,-0.93086 4.39261,-1.95721 z m -29.26816,-0.7705 c -1.24761,-0.17666 -1.99754,-0.75832 -1.66651,-1.29259 0.94321,-1.52233 -1.43385,-3.72584 -6.36785,-5.90293 -2.49123,-1.09923 -4.29053,-2.23699 -3.99845,-2.52834 0.29209,-0.29136 3.06596,0.58851 6.16417,1.95526 4.2075,1.85611 5.6331,3.00459 5.6331,4.5381 0,1.1292 0.45071,2.0531 1.00157,2.0531 0.55086,0 1.00156,-0.66282 1.00156,-1.47294 0,-2.31981 5.41067,-4.59865 19.02973,-8.01482 l 2.50391,-0.62808 -2.50391,1.50288 c -1.37715,0.82658 -4.75743,2.03903 -7.51174,2.69433 -6.65743,1.58392 -10.30372,3.51275 -10.69571,5.65784 -0.2178,1.19192 -1.05313,1.65579 -2.58987,1.43819 z m 48.11235,-6.17271 c 0,-2.47267 0.19532,-3.48422 0.43404,-2.24789 0.23873,1.23634 0.23873,3.25944 0,4.49578 -0.23872,1.23634 -0.43404,0.22479 -0.43404,-2.24789 z m 1.73034,1.16557 c 0,-1.74003 0.45929,-3.16369 1.02064,-3.16369 0.60591,0 0.75215,1.11641 0.35989,2.74742 -0.94332,3.9223 -1.38053,4.05413 -1.38053,0.41627 z m 46.35842,-1.6651 c 0.008,-2.74742 0.20203,-3.75278 0.43224,-2.23415 0.23022,1.51864 0.22407,3.76652 -0.0137,4.99531 -0.23773,1.22878 -0.42609,-0.0137 -0.41857,-2.76116 z m -72.58689,1.81518 c 0.723,-0.2886 1.58685,-0.2531 1.91966,0.0789 0.33281,0.33198 -0.25874,0.5681 -1.31455,0.52472 -1.16677,-0.0479 -1.40409,-0.28467 -0.60511,-0.6036 z m -3.81847,-1.02681 c 0,-0.57378 0.78873,-1.66026 1.75274,-2.4144 1.62129,-1.26832 1.64254,-1.2213 0.28341,0.62697 -0.80813,1.09897 -1.59686,2.18545 -1.75274,2.4144 -0.15587,0.22895 -0.28341,-0.0532 -0.28341,-0.62697 z m -77.884636,-7.97425 c -0.681424,-3.95223 -1.238953,-8.5604 -1.238953,-10.24037 0,-3.74719 -1.627836,-3.92631 -6.389448,-0.70307 -3.500529,2.36958 -9.178705,3.52319 -15.64497,3.17851 -1.928012,-0.10277 -5.447567,-0.26511 -7.821234,-0.36075 -2.373667,-0.0956 -4.075042,-0.5624 -3.780833,-1.03725 0.294208,-0.47485 4.940523,-0.78583 10.325145,-0.69107 5.384621,0.0948 10.691628,-0.25206 11.793349,-0.77071 2.384171,-1.12239 5.508604,-4.22534 5.508604,-5.47073 0,-0.4873 0.901408,-1.69972 2.003129,-2.69427 1.101721,-0.99456 2.003129,-1.34407 2.003129,-0.77671 0,0.56737 -0.676056,1.59125 -1.502347,2.2753 -2.31397,1.91562 -1.796878,2.8719 1.502347,2.77833 1.652581,-0.0469 3.004693,-0.49292 3.004693,-0.99121 0,-0.49829 0.393185,-0.66359 0.873745,-0.36733 1.92464,1.18652 2.922151,-14.2178 1.042116,-16.09314 -0.784068,-0.78211 -0.752725,-1.29332 0.111978,-1.8264 0.660446,-0.40716 1.594224,-0.12072 2.075061,0.63654 1.276782,2.01075 1.102169,6.16547 -0.651454,15.50056 -0.971711,5.17274 -1.223715,8.95503 -0.670832,10.06847 0.487049,0.98086 0.895714,4.48085 0.908144,7.77775 0.01566,4.15493 -0.142198,4.92136 -0.514443,2.49766 l -0.537043,-3.49672 -0.580465,3.99625 c -0.561325,3.86448 -0.621316,3.75931 -1.819418,-3.18964 z m 0.752719,-9.79816 c -0.645482,-4.46303 -0.736723,-4.60481 -0.856286,-1.33054 -0.118709,3.2509 0.726283,7.40297 1.346979,6.6187 0.127474,-0.16107 -0.09334,-2.54074 -0.490693,-5.28816 z m 114.189807,14.44106 c 0.82629,-0.55758 3.75586,-2.115 6.51017,-3.46092 2.7543,-1.34593 6.35993,-3.59471 8.01251,-4.99729 2.36276,-2.00533 1.32287,-1.6774 -4.86739,1.53492 -4.32965,2.2468 -8.04241,3.91518 -8.25059,3.70752 -0.20818,-0.20766 1.30609,-1.28877 3.36504,-2.40247 2.05896,-1.11369 5.8844,-3.23169 8.50099,-4.70667 l 4.75743,-2.68177 -0.006,2.28 c -0.007,2.38325 -1.42489,3.42262 -12.13633,8.894 -5.48988,2.80421 -8.89781,3.86541 -5.88549,1.83268 z m -73.83644,-1.58654 c -5.18868,-2.16719 -6.32938,-4.91811 -6.76255,-16.30851 -0.38207,-10.0468 -0.43271,-10.22644 -4.32597,-15.34465 -8.144932,-10.70757 -16.06678,-26.92933 -16.296538,-33.3708 -0.04627,-1.2972 -0.330789,-1.11187 -1.049164,0.68339 -0.974244,2.4347 -1.015614,2.41152 -3.566033,-1.99812 -8.464037,-14.63419 -10.047897,-21.64711 -6.747327,-29.87544 1.308666,-3.2625 1.398393,-4.88598 0.500782,-9.06094 -2.211185,-10.28463 -1.320903,-21.131294 2.621467,-31.938397 l 1.631207,-4.47158 1.256951,3.472519 1.256951,3.472519 0.176033,-4.495776 c 0.302754,-7.73217 1.174026,-9.491083 4.701374,-9.491083 1.712559,0 3.490868,-0.408814 3.951797,-0.908476 0.491219,-0.532498 0.112671,-0.648841 -0.914686,-0.28112 -0.964005,0.345045 -1.752737,0.191887 -1.752737,-0.340351 0,-1.108056 3.327885,-1.252901 7.88732,-0.343293 4.611063,0.919908 3.892151,2.676863 -0.773584,1.890562 -2.397268,-0.404003 -4.159174,-0.245138 -4.566149,0.411716 -0.364472,0.588255 -1.745466,1.069554 -3.068875,1.069554 -2.611815,0 -3.591618,2.395778 -5.107332,12.488267 l -0.750208,4.995307 -0.963903,-4.495776 -0.963904,-4.495776 -1.833196,6.993429 c -1.008258,3.846387 -1.843489,9.578501 -1.856069,12.738035 -0.02156,5.415 0.116,5.7446 2.397574,5.7446 1.331246,0 2.647776,-0.56197 2.925622,-1.24883 0.301788,-0.74604 0.53701,-0.54492 0.584246,0.49953 0.05853,1.29411 -0.701597,1.74836 -2.925622,1.74836 -3.406011,0 -3.522877,0.48867 -1.910447,7.98838 0.93897,4.36732 0.833857,5.61479 -0.740735,8.79096 -1.104066,2.22706 -1.83671,5.89014 -1.83932,9.19626 -0.0036,4.59896 0.639043,6.58953 3.941814,12.20912 2.170383,3.69285 4.094385,6.56641 4.27556,6.38569 0.181175,-0.18072 -0.604825,-4.56595 -1.746667,-9.74494 -1.42465,-6.46172 -1.795624,-10.1726 -1.182286,-11.82647 0.736606,-1.98626 1.471012,-0.0477 4.176025,11.02316 5.576133,22.82154 10.857545,34.43045 21.753739,47.81627 2.97931,3.66004 4.02528,5.64371 3.2333,6.13196 -0.84603,0.52157 -0.96896,3.40562 -0.44328,10.39977 0.71208,9.47409 0.79393,9.71851 3.88341,11.59743 1.73579,1.05565 3.60669,2.08438 4.15755,2.28608 0.55086,0.20169 0.77622,0.58907 0.50079,0.86083 -0.27543,0.27177 -1.95255,-0.11225 -3.72693,-0.85337 z M 84.579991,150.32614 c -0.319725,-0.79699 -0.557052,-0.56025 -0.605111,0.6036 -0.04349,1.05317 0.193229,1.64324 0.526041,1.31126 0.332811,-0.33197 0.368393,-1.19367 0.07907,-1.91486 z m -1.240607,-6.25107 c -0.377076,-2.00497 -0.885905,-3.44558 -1.130732,-3.20136 -0.244827,0.24421 -0.136623,2.08445 0.240453,4.08941 0.377075,2.00496 0.885905,3.44558 1.130731,3.20136 0.244827,-0.24421 0.136624,-2.08445 -0.240452,-4.08941 z m -2.003129,-8.99156 c -0.377076,-2.00496 -0.885905,-3.44557 -1.130732,-3.20136 -0.244827,0.24422 -0.136623,2.08445 0.240453,4.08942 0.377075,2.00496 0.885905,3.44557 1.130732,3.20136 0.244826,-0.24422 0.136623,-2.08445 -0.240453,-4.08942 z m -79.7187511,84.2727 c -2.07139096,-1.27699 1.5882949,-2.23371 5.6424266,-1.47505 3.2551865,0.60915 19.2340965,-0.93565 22.5513975,-2.18021 0.826291,-0.31 2.178403,-0.47399 3.004694,-0.36441 1.335419,0.17709 1.335419,0.0871 0,-0.80982 -0.826291,-0.55498 -3.160306,-0.74619 -5.186701,-0.42491 -2.996714,0.47512 -3.640801,0.28814 -3.451001,-1.00181 0.128344,-0.87228 0.555282,-1.90709 0.948752,-2.29957 1.466244,-1.46258 7.41063,-2.96447 9.223098,-2.33028 1.509274,0.5281 1.248264,0.78251 -1.330638,1.297 -3.836077,0.7653 -4.169224,2.23091 -0.704292,3.09837 5.905844,1.47857 1.204194,4.87048 -8.513298,6.14175 -8.150945,1.06633 -20.700582,1.26372 -22.1844381,0.34894 z M 179.69006,217.77563 c -0.29635,-1.00301 -0.77338,-3.62196 -1.06005,-5.81989 -0.40047,-3.07042 -0.1942,-2.72916 0.89035,1.473 0.77637,3.00808 1.2534,5.62703 1.06006,5.81989 -0.19334,0.19285 -0.594,-0.47 -0.89036,-1.473 z m 47.73982,-5.81989 c 0.006,-3.29691 0.1926,-4.52519 0.41551,-2.72953 0.22291,1.79566 0.21831,4.49313 -0.0102,5.99437 -0.22853,1.50124 -0.41091,0.0321 -0.40529,-3.26484 z m -190.106818,1.44379 c -1.863242,-0.74769 -1.838273,-0.80873 0.357547,-0.87404 1.708237,-0.0508 2.195826,-0.49874 1.76421,-1.6207 -0.34203,-0.88909 -0.174121,-1.29011 0.393626,-0.9401 1.164286,0.71776 1.319003,3.18191 0.238919,3.80519 -0.413145,0.23842 -1.652581,0.0718 -2.754302,-0.37035 z m -3.693269,-2.6258 c 0.723004,-0.2886 1.586854,-0.2531 1.919665,0.0789 0.332812,0.33198 -0.258737,0.5681 -1.314553,0.52472 -1.166766,-0.0479 -1.404093,-0.28467 -0.605112,-0.6036 z m 143.606767,-5.81142 c 0.0204,-1.64846 0.24488,-2.20187 0.49882,-1.22982 0.25394,0.97206 0.23724,2.32079 -0.0371,2.99719 -0.27436,0.67639 -0.48213,-0.11892 -0.46171,-1.76737 z m 51.18466,-4.49578 c 0,-3.02216 0.18776,-4.2585 0.41724,-2.74742 0.22949,1.51108 0.22949,3.98376 0,5.49484 -0.22948,1.51108 -0.41724,0.27474 -0.41724,-2.74742 z m -52.88226,-2.99718 c -0.38482,-2.27199 -0.48958,-4.34045 -0.23282,-4.59657 0.25677,-0.25613 0.76717,1.40771 1.13422,3.69741 0.36706,2.2897 0.47182,4.35816 0.23282,4.59657 -0.23901,0.23841 -0.74941,-1.42543 -1.13422,-3.69741 z m -45.22557,0.45644 c -0.87891,-2.28468 -0.0665,-2.58434 4.26064,-1.57158 l 3.90704,0.91442 -3.50547,0.21856 -3.50548,0.21856 3.00469,0.76266 3.0047,0.76265 -3.28652,0.1182 c -2.12072,0.0763 -3.4969,-0.42866 -3.8796,-1.42347 z m 49.82294,-1.01479 c -0.0497,-1.6808 0.50788,-3.87207 1.23904,-4.86948 1.23557,-1.68553 1.42175,-1.59101 2.63872,1.33968 0.72014,1.73423 1.02334,3.43846 0.67376,3.78716 -0.34958,0.3487 -0.6356,-0.0888 -0.6356,-0.97213 0,-3.0925 -1.93616,-2.76388 -2.87647,0.48821 l -0.94913,3.28256 z M 15.789426,195.36433 c 0,-0.60827 0.604252,-0.87465 1.342781,-0.59196 0.73853,0.28269 1.924327,0.15547 2.635104,-0.28272 0.830239,-0.51183 -0.22141,-1.0518 -2.941178,-1.51016 -2.328425,-0.3924 -3.851855,-1.09415 -3.3854,-1.55944 0.466455,-0.46529 2.603779,-0.451 4.749607,0.0318 4.484718,1.00894 6.443743,3.16095 3.822184,4.19872 -2.730817,1.08102 -6.223098,0.92041 -6.223098,-0.2862 z m 53.082916,-0.28575 c 0,-0.21595 0.699465,-0.66038 1.554366,-0.98762 0.891317,-0.34117 1.293342,-0.17368 0.942455,0.39265 -0.588177,0.94931 -2.496821,1.40412 -2.496821,0.59497 z m -20.10792,-0.85618 c -0.878641,-2.86378 -0.514633,-3.74648 1.544964,-3.74648 2.415627,0 4.985814,2.22051 3.864655,3.33887 -0.613883,0.61235 -5.239859,0.96091 -5.409619,0.40761 z m 156.399758,-1.33209 c 0.0481,-1.16385 0.28538,-1.40058 0.60511,-0.6036 0.28932,0.7212 0.25374,1.58289 -0.0791,1.91487 -0.33281,0.33198 -0.56953,-0.25809 -0.52604,-1.31127 z m -43.99748,-4.70769 c -0.12164,-3.8741 0.32004,-5.26025 2.30796,-7.2432 1.35211,-1.34873 3.49295,-2.42064 4.75743,-2.38202 2.16685,0.0662 2.18386,0.1173 0.29591,0.889 -1.61802,0.66136 -1.24779,0.88795 1.92571,1.1786 2.3839,0.21834 4.10698,0.94912 4.38185,1.85843 0.36559,1.20941 0.19692,1.2576 -0.87407,0.24976 -1.53977,-1.44899 -5.79559,-1.62195 -7.85875,-0.31939 -0.78304,0.49436 -1.74071,2.84776 -2.12816,5.22977 l -0.70446,4.33094 -0.27579,-3.99625 -0.27579,-3.99624 -0.7007,4.49577 -0.70071,4.49578 z m 68.18832,1.29423 c 0,-1.92319 0.20612,-2.70995 0.45804,-1.74835 0.25192,0.96159 0.25192,2.53512 0,3.49671 -0.25192,0.9616 -0.45804,0.17484 -0.45804,-1.74836 z m -193.534305,0.49954 c 3.291729,-1.87702 4.91872,-1.89817 2.444949,-0.0318 -1.069292,0.80675 -2.620223,1.46519 -3.446513,1.46319 -0.871302,-0.002 -0.450606,-0.60335 1.001564,-1.43141 z m 138.294965,-1.08232 c 0.0481,-1.16385 0.28539,-1.40058 0.60511,-0.6036 0.28932,0.7212 0.25374,1.58289 -0.0791,1.91487 -0.33281,0.33198 -0.56953,-0.25809 -0.52604,-1.31127 z m -142.301223,0.0323 c 0,-0.30278 1.668222,-1.2458 3.707159,-2.09559 3.136634,-1.3073 3.444912,-1.69148 2.003129,-2.49632 -0.937217,-0.52318 -1.70403,-1.87524 -1.70403,-3.00458 0,-1.99135 0.07507,-1.98231 2.486608,0.29941 3.253573,3.07843 3.15808,4.47058 -0.433741,6.32334 -2.94491,1.51906 -6.059125,2.01954 -6.059125,0.97374 z m -24.6345002,-1.2924 c 0.4216442,-0.68053 -0.6543846,-0.84021 -3.1364696,-0.46546 -2.6766161,0.40413 -3.48627005,0.25613 -2.7767455,-0.50757 0.5508604,-0.59292 2.9625999,-1.39056 5.359421,-1.77254 3.9163433,-0.62413 4.3210693,-0.50395 3.9947563,1.18622 -0.199705,1.03439 -1.2000333,2.04149 -2.2229514,2.238 -1.094368,0.21023 -1.5956806,-0.0691 -1.2180108,-0.67865 z m 34.4224902,-1.74502 c 0.253646,-1.32354 0.914522,-2.40644 1.468615,-2.40644 0.562417,0 0.448261,-0.67209 -0.258424,-1.52147 -1.058438,-1.27215 -0.996474,-1.41834 0.378146,-0.89217 1.832994,0.70163 2.192916,2.95638 0.626109,3.9223 -0.559846,0.34514 -0.787786,0.99893 -0.506534,1.45287 0.281251,0.45394 -0.09173,1.05619 -0.828859,1.33835 -0.957453,0.36649 -1.208513,-0.17428 -0.879053,-1.89344 z m -25.145311,-0.0753 c -1.361732,-1.35833 -0.595463,-2.33114 1.836201,-2.33114 1.557989,0 2.503911,0.56613 2.503911,1.49859 0,1.49849 -3.080167,2.08935 -4.340112,0.83255 z m 38.393304,-2.33114 c -1.106984,-0.7136 -0.448045,-0.96847 2.503911,-0.96847 2.951956,0 3.610894,0.25487 2.503911,0.96847 -0.826291,0.53265 -1.953051,0.96846 -2.503911,0.96846 -0.550861,0 -1.677621,-0.43581 -2.503911,-0.96846 z m 204.6647,-0.82797 c 2.07296,-2.28487 2.13334,-3.56417 0.13205,-2.79812 -1.2446,0.4764 -1.33033,0.22013 -0.46554,-1.3917 0.58299,-1.08661 0.86384,-1.97564 0.62411,-1.97564 -0.80434,0 6.14576,-6.47854 8.39431,-7.82475 1.48733,-0.89047 2.55552,-0.99905 3.22812,-0.32814 0.6726,0.67092 -0.66871,1.84885 -4.05346,3.55974 -2.78228,1.40637 -5.37143,3.06179 -5.75367,3.67872 -0.38224,0.61693 0.48807,0.34846 1.93402,-0.5966 1.44595,-0.94505 3.43024,-1.50927 4.40954,-1.25382 0.9793,0.25545 2.34838,-0.1419 3.04241,-0.883 2.01888,-2.15581 4.58223,-1.58301 8.66315,1.93585 2.96851,2.55965 3.65913,3.75039 3.13344,5.40254 -0.69178,2.17416 -3.60274,4.01028 -3.60274,2.27247 0,-0.53224 0.48205,-0.96771 1.07122,-0.96771 2.44146,0 0.24098,-4.49702 -3.07435,-6.28291 -2.37976,-1.28191 -2.88114,-1.37836 -1.56131,-0.30035 1.06929,0.87338 2.30873,1.58796 2.7543,1.58796 0.44558,0 0.81014,0.66025 0.81014,1.46723 0,1.82426 -2.53008,1.04498 -6.00939,-1.85091 -1.37715,-1.14622 -1.94053,-1.43889 -1.25196,-0.65037 0.68858,0.78852 1.25196,1.7873 1.25196,2.21951 0,0.99152 -6.6679,3.80984 -9.01376,3.80984 -0.967,0 -2.31925,0.67437 -3.00501,1.4986 -0.68576,0.82422 -1.71221,1.49859 -2.281,1.49859 -0.56879,0 -0.28825,-0.82216 0.62342,-1.82703 z m 9.65364,-4.72899 c 2.48278,-0.71883 2.48331,-0.72172 0.28091,-1.53441 -2.30285,-0.84975 -7.82834,1.21149 -6.58153,2.45519 0.64706,0.64544 1.13983,0.57342 6.30062,-0.92078 z m -221.830074,4.5579 c -0.744484,-1.2016 0.226386,-2.99719 1.620566,-2.99719 0.55086,0 0.723014,0.44958 0.382563,0.99906 -0.34045,0.54949 0.08366,0.99906 0.942455,0.99906 0.858801,0 1.561456,0.44958 1.561456,0.99907 0,0.54948 -0.874808,0.99906 -1.944019,0.99906 -1.069211,0 -2.22257,-0.44958 -2.563021,-0.99906 z m 234.502944,-6.72775 -4.87095,-5.66886 2.36704,-2.04395 c 1.30188,-1.12418 2.36705,-2.68086 2.36705,-3.45929 0,-0.77844 0.67605,-1.63831 1.50234,-1.91083 1.33542,-0.44044 1.33542,-0.29251 0,1.33129 -1.40394,1.70713 -1.32194,1.78196 1.25196,1.1425 2.13304,-0.52994 2.7543,-0.32781 2.7543,0.89614 0,1.06553 -0.73418,1.47859 -2.25352,1.26786 -1.67903,-0.23288 -2.17849,0.13314 -1.95922,1.43579 0.18231,1.08305 -0.34077,1.74836 -1.37459,1.74836 -2.45872,0 0.0813,2.7858 2.90576,3.18697 1.75097,0.2487 2.22182,1.04815 2.38896,4.05622 0.1145,2.06057 0.1145,3.73303 0,3.71658 -0.11449,-0.0165 -2.4001,-2.5809 -5.07913,-5.69878 z m -208.876381,2.89304 c -0.68779,-1.28194 -1.052885,-2.52794 -0.811322,-2.7689 0.786287,-0.78432 2.929277,2.50392 2.489505,3.81993 -0.270597,0.80977 -0.886915,0.42377 -1.678183,-1.05103 z m -27.128909,-0.1929 c 0,-0.53223 0.676056,-0.9677 1.502346,-0.9677 0.826291,0 1.502347,0.17669 1.502347,0.39264 0,0.21595 -0.676056,0.65142 -1.502347,0.96771 -0.82629,0.31628 -1.502346,0.13959 -1.502346,-0.39265 z m 205.32071,-1.13421 c 0,-0.45791 0.42411,-0.83255 0.94246,-0.83255 0.51835,0 1.17458,0.37464 1.45829,0.83255 0.2837,0.4579 -0.1404,0.83255 -0.94246,0.83255 -0.80206,0 -1.45829,-0.37465 -1.45829,-0.83255 z M 61.030764,175.84196 c 0.475414,-2.46246 3.768014,-3.09931 3.410197,-0.6596 -0.145698,0.99343 -1.051987,1.95945 -2.013976,2.14672 -1.238864,0.24117 -1.646143,-0.19262 -1.396221,-1.48712 z m -33.656866,-1.2489 c -1.17217,-0.45788 -1.513487,-1.01738 -0.864658,-1.41738 0.589595,-0.36348 1.62895,0.009 2.309676,0.82672 1.371798,1.64879 1.319026,1.67036 -1.445018,0.59066 z m 227.338732,-1.97907 c 0.52331,-0.48284 2.7543,-1.16393 4.95774,-1.51355 3.89545,-0.61808 3.93701,-0.59478 1.50235,0.84248 -2.70168,1.5949 -8.06525,2.15206 -6.46009,0.67107 z M 17.792555,171.49375 c 0,-0.54948 0.477303,-0.99906 1.060674,-0.99906 0.58337,0 0.782123,0.44958 0.441673,0.99906 -0.340451,0.54948 -0.817754,0.99906 -1.060674,0.99906 -0.24292,0 -0.441673,-0.44958 -0.441673,-0.99906 z m 111.260485,-0.39517 c -0.94318,-1.13362 -0.92013,-1.40152 0.10767,-1.25105 1.38385,0.2026 2.27603,1.51301 1.53403,2.25315 -0.24283,0.24223 -0.9816,-0.20871 -1.6417,-1.0021 z m 83.71073,-1.26993 c -0.36724,-0.36632 -0.66771,-1.13061 -0.66771,-1.69841 0,-0.62601 0.4665,-0.56703 1.18518,0.14986 0.65185,0.65023 0.95232,1.41451 0.66771,1.69841 -0.28461,0.2839 -0.81794,0.21646 -1.18518,-0.14986 z m -90.72954,-5.85812 c -3.54413,-3.83531 -4.17363,-5.09834 -3.63794,-7.2991 1.09701,-4.50674 1.84227,-17.87136 1.15001,-20.62267 -0.36062,-1.43321 -1.65626,-3.02888 -2.87922,-3.54593 -2.00778,-0.84886 -1.93197,-0.91738 0.78114,-0.70605 l 3.00469,0.23405 v 14.27213 c 0,11.57858 0.28222,14.44629 1.49535,15.19493 2.41371,1.48953 3.17337,-2.26455 3.33467,-16.47927 0.11347,-9.99943 -0.27044,-14.36704 -1.66853,-18.98216 -2.06707,-6.82349 -4.1499,-10.49712 -5.93888,-10.47485 -0.804,0.01 -0.70945,0.38172 0.27348,1.07512 1.33542,0.94207 1.33542,1.00975 0,0.60912 -0.82629,-0.24789 -1.40756,-0.90295 -1.29171,-1.4557 0.46475,-2.21735 -4.21477,-4.69523 -12.99687,-6.88204 -11.07316,-2.75731 -14.640192,-3.02325 -10.50014,-0.78285 1.514866,0.81977 2.754302,1.9954 2.754302,2.6125 0,0.65992 -0.721826,0.47612 -1.752738,-0.44633 -0.964005,-0.86257 -3.219637,-1.9438 -5.012514,-2.40273 -3.952243,-1.01166 -4.532297,-2.49069 -1.497655,-3.81873 1.239436,-0.54241 2.25352,-1.64316 2.25352,-2.4461 0,-3.165469 5.150288,-18.077616 6.051645,-17.521938 0.53641,0.330691 0.959307,-0.843941 0.959307,-2.664556 0,-2.192395 0.330474,-2.926309 1.011704,-2.246782 0.68123,0.679528 0.68123,2.747408 0,6.330542 -1.806329,9.500931 -0.949362,9.752629 1.882372,0.552867 4.883967,-15.867061 7.059947,-17.594137 7.237747,-5.744603 0.0639,4.258499 0.24864,7.068359 0.41053,6.244133 0.16189,-0.824225 0.83934,-4.870424 1.50543,-8.991552 1.70878,-10.572212 1.74592,-10.615924 8.83139,-10.394381 3.30215,0.103248 6.6031,0.560875 7.33544,1.016948 2.37108,1.476606 4.13175,1.297479 6.64726,-0.676279 2.9714,-2.33146 5.6597,-2.57107 4.83645,-0.431075 -0.45912,1.193458 0.23423,1.09033 3.35842,-0.499531 4.19244,-2.133477 5.42131,-2.463323 4.67259,-1.254184 -0.25519,0.412113 1.54221,0.792906 3.99422,0.846207 2.45202,0.0533 4.86159,0.502879 5.35461,0.999061 1.55656,1.566547 3.00029,13.483319 3.00814,24.829671 0.01,14.202552 1.87039,12.991382 2.70801,-1.762816 0.33128,-5.835314 0.93873,-10.402268 1.3499,-10.148787 1.61555,0.99597 1.79664,-2.707676 0.36716,-7.509235 -1.65446,-5.557224 -1.30115,-7.004335 1.7101,-7.004335 1.10172,0 1.76482,0.384633 1.47355,0.85474 -0.29127,0.470107 0.5124,0.65605 1.78593,0.413206 3.00886,-0.573742 5.63638,2.084284 5.63638,5.701816 0,1.556936 -0.69231,8.83046 -1.53846,16.163385 -1.66973,14.470188 -2.29729,15.734078 -7.91744,15.945488 -3.62907,0.13651 -4.5724,0.29631 -6.56913,1.11284 -0.82629,0.3379 -3.22883,0.90135 -5.33898,1.25212 -2.44942,0.40716 -5.16543,1.91471 -7.51173,4.16947 -2.02131,1.94244 -2.88637,3.27811 -1.92237,2.96815 0.96401,-0.30996 1.75274,-0.0793 1.75274,0.51245 0,0.64887 -0.99397,0.82717 -2.50391,0.44914 -1.5699,-0.39303 -2.50391,-0.20363 -2.50391,0.50775 0,0.64275 -0.86838,0.9081 -2.00313,0.6121 -1.10172,-0.28739 -2.00313,-0.22666 -2.00313,0.13496 0,0.9791 9.29427,5.70069 10.48842,5.32823 0.56627,-0.17662 0.45771,0.25894 -0.24124,0.96791 -1.03596,1.05083 -2.11596,0.83323 -5.84396,-1.17746 -4.6573,-2.51189 -6.40635,-4.54832 -6.40635,-7.45894 0,-1.05146 0.68708,-1.51649 1.94217,-1.3145 1.10816,0.17834 3.36615,-1.00834 5.25821,-2.76344 3.00283,-2.78545 7.94844,-4.88213 13.33169,-5.65194 1.81457,-0.25948 2.03442,-1.17881 2.33553,-9.766112 0.18282,-5.213817 -0.20722,-13.224399 -0.86675,-17.801294 -1.15939,-8.045756 -1.27832,-8.301805 -3.58748,-7.723692 -1.38549,0.346867 -2.38834,0.155686 -2.38834,-0.45531 0,-0.719714 -0.65911,-0.70138 -2.08139,0.0579 -1.14476,0.611129 -2.74584,0.856806 -3.55795,0.545949 -0.81211,-0.310856 -2.55121,0.137179 -3.86466,0.995634 -1.31345,0.858455 -3.20532,1.458656 -4.20417,1.333781 -0.99884,-0.124875 -2.60481,0.114937 -3.56881,0.532916 -0.96401,0.417979 -2.54147,0.453425 -3.50548,0.07877 -1.74117,-0.676697 -8.98878,-1.786583 -12.71159,-1.94663 -2.62309,-0.11277 -3.36152,3.319307 -5.03346,23.394334 -0.20593,2.472677 -0.13402,6.576987 0.15981,9.120697 0.47643,4.12447 0.96284,4.8652 4.49521,6.84555 9.7938,5.49066 13.41358,16.54213 12.59171,38.44349 -0.30307,8.07632 -0.12733,14.89116 0.40864,15.8465 0.54538,0.97211 0.57406,2.32914 0.0683,3.23067 -0.7153,1.27499 -1.64271,0.72058 -5.15783,-3.08334 z m -15.62058,-60.16319 c -0.40759,-2.06056 -1.02113,-8.6562 -1.36342,-14.656971 l -0.62235,-10.910493 -2.81223,10.130239 c -1.54673,5.571631 -3.058493,11.643935 -3.35947,13.493995 -0.532778,3.27492 -0.432052,3.39131 3.8138,4.40676 2.39857,0.57365 4.52386,1.09699 4.72289,1.16297 0.19902,0.066 0.0284,-1.56593 -0.37922,-3.6265 z m 2.18302,0.49953 c -0.27784,-0.68685 -0.50517,-0.12488 -0.50517,1.24883 0,1.37371 0.22733,1.93568 0.50517,1.24883 0.27785,-0.68686 0.27785,-1.8108 0,-2.49766 z m -18.962732,1.64429 c -0.332811,-0.33198 -1.19666,-0.36747 -1.919665,-0.0789 -0.79898,0.31892 -0.561653,0.55566 0.605112,0.6036 1.055816,0.0434 1.647365,-0.19275 1.314553,-0.52473 z m 5.211737,-8.637717 -0.06734,-7.243195 -1.773916,6.493899 c -1.886909,6.907543 -1.823737,7.992493 0.465364,7.992493 1.130088,0 1.428626,-1.57161 1.375895,-7.243197 z m 1.75309,3.059627 c -0.319726,-0.796985 -0.557053,-0.560251 -0.605112,0.6036 -0.04349,1.05318 0.193229,1.64325 0.526041,1.31127 0.332812,-0.33198 0.368393,-1.19367 0.07907,-1.91487 z m 67.885375,-3.336364 c -0.0207,-2.732584 -0.42789,-5.86749 -0.90489,-6.966458 -0.73722,-1.698472 -0.98577,-1.398821 -1.65741,1.998123 -0.43457,2.197935 -0.8161,5.490338 -0.84785,7.31645 -0.046,2.645139 0.29865,3.249049 1.69502,2.970209 1.39374,-0.2783 1.74503,-1.36761 1.71513,-5.318324 z m -56.82782,-5.717631 c -0.22218,-1.785822 -0.40395,-0.324695 -0.40395,3.246949 0,3.571645 0.18177,5.032772 0.40395,3.24695 0.22217,-1.785822 0.22217,-4.708077 0,-6.493899 z m 59.46143,5.15947 -0.96669,-2.412051 -0.0635,2.580908 c -0.0349,1.4195 0.26515,2.908726 0.66682,3.309391 1.18933,1.186357 1.40508,-0.878941 0.36335,-3.478248 z m -1.41104,-7.095152 c -0.31972,-0.796983 -0.55705,-0.560249 -0.60511,0.6036 -0.0435,1.053177 0.19323,1.643248 0.52604,1.311268 0.33281,-0.33198 0.36839,-1.19367 0.0791,-1.914868 z m 3.31606,-7.258334 c 1.27456,-10.02755 0.67286,-12.535569 -3.00738,-12.535569 h -2.79625 l 1.8861,7.243195 c 1.03735,3.983757 1.89381,8.779252 1.90325,10.656655 0.0276,5.478036 0.9476,3.027814 2.01428,-5.364281 z m -73.42557,4.26115 c -0.319725,-0.796984 -0.557052,-0.56025 -0.605111,0.6036 -0.04349,1.053177 0.193229,1.643248 0.526041,1.311268 0.332811,-0.33198 0.368393,-1.19367 0.07907,-1.914868 z M 1.7675239,163.78278 c 0,-0.61444 -0.2735723,-1.8283 -0.6079384,-2.69746 -0.33495343,-0.8707 -0.09597,-1.58031 0.5322161,-1.58031 1.6829328,0 2.5218109,2.95496 1.210277,4.26322 -0.8276298,0.82556 -1.1345547,0.82949 -1.1345547,0.0146 z M 253.1602,164.11726 c 0,-0.21069 1.11312,-0.59532 2.4736,-0.85474 1.36048,-0.25943 2.23529,-0.0871 1.94402,0.38306 -0.51288,0.82779 -4.41762,1.2447 -4.41762,0.47168 z M 5.5086205,161.90468 c -1.1722648,-1.16934 -0.85765,-3.42051 0.6944031,-4.96868 1.8199856,-1.81544 3.5770159,-1.83475 3.5770159,-0.0393 0,1.94036 -3.3772191,5.89996 -4.271419,5.008 z m 3.0764243,-4.92376 c -0.3083688,-0.30759 -0.8684041,0.24688 -1.2445229,1.23218 -0.5435337,1.42386 -0.4284904,1.53862 0.5606705,0.55927 0.6844876,-0.6777 0.9922212,-1.48385 0.6838524,-1.79145 z m 7.2043812,3.46419 c 0,-0.58191 0.450704,-0.78017 1.001565,-0.44057 0.55086,0.3396 1.001564,0.81571 1.001564,1.05803 0,0.24231 -0.450704,0.44057 -1.001564,0.44057 -0.550861,0 -1.001565,-0.47611 -1.001565,-1.05803 z m 55.686984,-0.54047 c -0.35645,-0.92657 -0.422738,-1.90946 -0.147308,-2.18421 0.275431,-0.27474 0.792423,0.25858 1.148872,1.18515 0.356449,0.92657 0.422738,1.90946 0.147307,2.1842 -0.27543,0.27474 -0.792422,-0.25857 -1.148871,-1.18514 z m 212.73229,0.59943 c 0,-0.54948 0.4773,-0.99906 1.06067,-0.99906 0.58337,0 0.78213,0.44958 0.44168,0.99906 -0.34046,0.54949 -0.81776,0.99907 -1.06068,0.99907 -0.24292,0 -0.44167,-0.44958 -0.44167,-0.99907 z m -15.02347,-4.80552 c 0,-0.52569 0.92715,-1.19765 2.06032,-1.49324 1.31063,-0.34188 1.91821,-0.11163 1.66975,0.63277 -0.47962,1.43699 -3.73007,2.18681 -3.73007,0.86047 z m -46.99446,-4.76881 c 0.0481,-1.16385 0.28539,-1.40059 0.60512,-0.6036 0.28932,0.72119 0.25374,1.58289 -0.0791,1.91486 -0.33281,0.33198 -0.56953,-0.25809 -0.52604,-1.31126 z m 47.66187,-0.16651 c 0.3197,-1.2657 1.3384,-2.24789 2.33146,-2.24789 1.98257,0 4.33963,2.33743 3.35125,3.32334 -0.3539,0.35302 -1.22353,-0.13793 -1.93251,-1.09098 -1.21195,-1.62917 -1.37966,-1.6133 -2.80352,0.26529 -1.48731,1.96231 -1.50428,1.95783 -0.94668,-0.24976 z m -50.20208,-0.18074 c -0.31692,-0.51151 -0.11817,-1.21241 0.44168,-1.55755 0.55984,-0.34514 1.0179,0.0734 1.0179,0.93003 0,1.75488 -0.601,2.01327 -1.45958,0.62752 z m -63.23649,-4.92281 c 2.04128,-2.28914 2.59907,-2.5855 2.59907,-1.38091 0,0.41731 -1.01408,1.38015 -2.25352,2.13965 -2.24551,1.37599 -2.24674,1.3733 -0.34555,-0.75874 z m 124.78994,-1.14059 c -1.224,-0.78903 -1.1,-0.9713 0.66925,-0.98376 1.19439,-0.008 2.9972,-0.27679 4.00626,-0.59639 1.67885,-0.53174 1.66954,-0.44689 -0.10951,0.99906 -2.26034,1.83713 -2.55866,1.8751 -4.566,0.58109 z m 0,-2.99718 c 0.82629,-0.53266 2.6291,-0.96847 4.00625,-0.96847 1.98204,0 2.19079,0.20186 1.00157,0.96847 -0.82629,0.53265 -2.62911,0.96846 -4.00626,0.96846 -1.98203,0 -2.19078,-0.20185 -1.00156,-0.96846 z m -116.61787,-2.29098 c 0.37612,-0.98529 0.93615,-1.53977 1.24452,-1.23217 0.30837,0.3076 6.4e-4,1.11375 -0.68385,1.79144 -0.98916,0.97935 -1.1042,0.86459 -0.56067,-0.55927 z M 180.046,136.5266 c 0.58962,-1.09897 1.29739,-1.99812 1.57282,-1.99812 0.27543,0 0.0184,0.89915 -0.57126,1.99812 -0.58962,1.09897 -1.29739,1.99812 -1.57282,1.99812 -0.27543,0 -0.0184,-0.89915 0.57126,-1.99812 z m -5.00783,-1.87579 c 0,-0.4822 0.74985,-1.49375 1.66633,-2.24789 1.51096,-1.24332 1.55436,-1.16157 0.46554,0.87673 -1.24185,2.32478 -2.13187,2.89721 -2.13187,1.37116 z m -67.10481,-18.14422 c -1.15897,-0.77703 -0.88147,-0.9344 1.21408,-0.68852 1.49404,0.1753 3.03394,0.63545 3.42201,1.02255 1.09342,1.09069 -2.94507,0.79972 -4.63609,-0.33403 z m 40.23997,-1.5654 c 0.87393,-0.87175 2.36481,-1.4294 3.31306,-1.23923 1.18692,0.23803 0.69184,0.73187 -1.58896,1.58499 -3.02521,1.13156 -3.175,1.10152 -1.7241,-0.34576 z m 81.2019,-1.89253 c 0.0111,-2.19794 0.21622,-2.97945 0.45579,-1.73671 0.23957,1.24275 0.23047,3.04106 -0.0202,3.99625 -0.25069,0.95519 -0.44669,-0.0616 -0.43558,-2.25954 z m 1.75055,-0.30804 c 0,-4.11683 -0.0165,-4.13495 -3.25508,-3.57912 -2.23027,0.38278 -2.82726,0.25697 -1.8962,-0.39962 0.88783,-0.6261 0.99597,-1.18203 0.31195,-1.60372 -0.57582,-0.35498 -1.5539,0.15079 -2.17352,1.12395 -0.88982,1.39751 -0.99723,0.82451 -0.51108,-2.72641 0.83309,-6.084975 2.0407,-6.988091 4.2254,-3.15998 1.88823,3.30863 3.98032,4.37515 2.85763,1.45679 -0.36036,-0.93675 -0.8578,-3.74661 -1.10542,-6.244132 l -0.45021,-4.540946 1.51667,4.995307 c 1.55698,5.128051 2.29708,17.002981 1.13212,18.165021 -0.35874,0.35785 -0.65226,-1.21137 -0.65226,-3.48714 z M 98.919276,112.0496 c -3.271061,-1.86524 -2.126478,-1.88617 2.138534,-0.0391 1.85354,0.80272 2.69401,1.46116 1.86772,1.46319 -0.82629,0.002 -2.6291,-0.6388 -4.006254,-1.42408 z m 93.340744,-5.99437 c 0.0204,-1.64845 0.24488,-2.20187 0.49882,-1.22981 0.25394,0.97205 0.23724,2.32078 -0.0371,2.99718 -0.27435,0.6764 -0.48212,-0.11892 -0.46171,-1.76737 z m 60.16807,-3.18999 c 0.97449,-0.25331 2.3266,-0.23665 3.00469,0.037 0.67809,0.27366 -0.11922,0.48091 -1.7718,0.46055 -1.65258,-0.0204 -2.20738,-0.24427 -1.23289,-0.49757 z m -19.20104,-12.729113 -5.11097,-3.430836 0.5241,2.68154 c 0.51203,2.619703 0.49667,2.628951 -0.66591,0.401055 -0.87005,-1.667319 -0.89189,-2.577859 -0.0812,-3.386481 0.81065,-0.808623 1.95357,-0.396924 4.25074,1.531188 3.83599,3.219704 6.11009,3.48747 3.30625,0.389298 -1.11889,-1.236339 -2.80624,-3.82141 -3.74967,-5.744603 -2.99034,-6.095813 -8.58647,-20.867492 -8.60241,-22.707137 -0.0108,-1.245078 -0.249,-1.402876 -0.80338,-0.532177 -0.47133,0.740259 -0.83037,-0.251587 -0.89335,-2.46787 -0.11368,-4.000473 -1.32465,-5.327259 -10.79412,-11.826472 -6.61723,-4.541624 -7.49665,-4.323223 -3.29442,0.81815 1.90873,2.335306 4.06498,5.369955 4.79167,6.743665 1.25225,2.367225 1.22444,2.419396 -0.5326,0.999061 -1.70196,-1.375807 -1.79292,-1.336863 -1.11021,0.475309 0.409,1.085645 -2.60695,-1.611821 -6.70212,-5.994369 -4.09517,-4.382548 -10.4152,-10.193379 -14.04452,-12.912958 -3.62931,-2.719579 -6.39629,-5.146647 -6.14883,-5.393486 0.80828,-0.806263 8.7892,5.198831 16.23211,12.213544 7.28317,6.864166 10.18899,8.201782 4.03499,1.8574 -2.21766,-2.286272 -2.64411,-3.122943 -1.33804,-2.625202 1.33847,0.510094 1.69847,0.377828 1.19284,-0.438257 -1.63181,-2.633737 3.9895,0.08742 13.67746,6.620954 4.63799,3.127847 6.37371,4.818836 5.5086,5.366643 -0.88431,0.559973 -0.66239,0.828065 0.74004,0.893997 1.10172,0.05179 1.46299,0.313203 0.80283,0.580909 -0.80528,0.32655 -0.91848,1.204778 -0.34397,2.668545 0.47098,1.199995 2.27596,6.677585 4.01108,12.172422 4.22988,13.395367 5.80154,16.330104 10.76225,20.096153 3.17285,2.408746 3.83358,3.345902 2.67239,3.790381 -2.4461,0.936309 -2.89395,0.782894 -8.29158,-2.840366 z m 6.91281,1.432713 c -1.96143,-1.264409 -3.28731,-1.264409 -2.50391,0 0.34045,0.549484 1.38114,0.992177 2.31263,0.983763 1.45956,-0.01318 1.48599,-0.149148 0.19128,-0.983763 z m -31.0485,-41.461047 c -0.70785,-0.850783 -1.51236,-1.32209 -1.78779,-1.047348 -0.27543,0.274742 0.0784,1.195626 0.78623,2.04641 0.70786,0.850783 1.51236,1.322089 1.78779,1.047348 0.27543,-0.274742 -0.0784,-1.195626 -0.78623,-2.04641 z m -21.03285,24.583892 c 0,-4.184358 2.60902,-6.591732 3.6165,-3.336995 0.29479,0.952333 0.96906,2.536563 1.49837,3.520511 1.27811,2.375922 0.3199,3.705841 -2.67007,3.705841 -2.17336,0 -2.4448,-0.431826 -2.4448,-3.889357 z M 97.948385,76.58292 c 0,-0.824226 0.4369,-2.172959 0.970891,-2.997184 0.863014,-1.332082 0.97089,-1.332082 0.97089,0 0,0.824225 -0.4369,2.172958 -0.97089,2.997184 -0.863015,1.332081 -0.970891,1.332081 -0.970891,0 z m 1.536066,-7.699638 c -0.543533,-1.423861 -0.42849,-1.538617 0.560669,-0.55927 0.68449,0.677697 0.99222,1.483847 0.68385,1.791445 -0.30836,0.307598 -0.8684,-0.246881 -1.244519,-1.232175 z M 231.01728,59.657095 c -1.97518,-1.640783 -2.09169,-1.995696 -0.66414,-2.023103 1.47564,-0.02833 1.56493,-0.397394 0.60471,-2.499564 -0.6196,-1.35648 -1.43623,-2.275411 -1.81473,-2.042071 -0.37849,0.233341 -0.68818,-0.230334 -0.68818,-1.030388 0,-0.800055 0.27842,-1.454645 0.6187,-1.454645 0.99783,0 4.30731,6.075975 3.66076,6.72091 -0.32432,0.323512 -0.0786,1.202406 0.54592,1.953097 1.8734,2.251668 0.30806,2.511582 -2.26304,0.375764 z m -32.98392,-9.750419 c -2.87263,-1.9607 -3.92882,-3.309357 -3.95013,-5.043955 -0.0266,-2.168145 2.50865,-1.359128 5.4996,1.754944 3.46435,3.606966 2.35777,5.955872 -1.54947,3.289011 z m 3.04549,0.388033 c 0,-0.171938 -1.35211,-1.604783 -3.00469,-3.1841 -1.65259,-1.579316 -3.0047,-2.541117 -3.0047,-2.137334 0,0.403783 1.19258,1.836627 2.65016,3.1841 2.50201,2.312987 3.35923,2.858398 3.35923,2.137334 z m 21.58722,-3.505995 -2.9511,-3.67435 3.51774,3.264517 c 1.93475,1.795484 3.89839,2.919428 4.36363,2.497653 0.46525,-0.421775 0.52169,-0.204891 0.12543,0.481963 -1.06841,1.851934 -1.80507,1.47749 -5.0557,-2.569783 z M 10.338667,45.112486 c 0.34812,-2.197935 1.140379,-5.482034 1.760575,-7.297999 1.307587,-3.828675 6.581692,-7.552381 9.250169,-6.530949 1.047995,0.401148 1.533324,0.28374 1.180572,-0.285598 -1.046739,-1.689426 0.762136,-3.314953 3.030429,-2.723263 1.965772,0.512776 1.578056,1.084807 -3.82381,5.641596 -4.784041,4.035618 -6.23448,5.954702 -7.104037,9.399396 -1.061528,4.205176 -2.833771,6.743875 -2.864733,4.103667 -0.01122,-0.95672 -0.290059,-0.9055 -1.038723,0.190804 -0.7364573,1.078428 -0.8459263,0.378156 -0.390442,-2.497654 z m 2.128684,-1.685916 c -0.319726,-0.796984 -0.557053,-0.56025 -0.605112,0.6036 -0.04349,1.053177 0.19323,1.643248 0.526041,1.311268 0.332812,-0.33198 0.368394,-1.19367 0.07907,-1.914868 z m 5.443905,-9.053993 c 1.158488,-0.961597 1.585221,-1.748358 0.948295,-1.748358 -1.590361,0 -6.082126,4.60754 -6.042965,6.198722 0.01869,0.759461 0.642658,0.468618 1.51009,-0.703884 0.813031,-1.098968 2.426092,-2.784884 3.58458,-3.74648 z M 119.27922,40.11718 c 0.004,-3.846387 0.18547,-5.297486 0.40228,-3.224667 0.21682,2.07282 0.21318,5.219864 -0.008,6.99343 -0.22126,1.773566 -0.39866,0.07762 -0.39421,-3.768763 z m 1.85089,0.999061 c 0.004,-5.088039 0.13777,-5.536451 0.8874,-2.965752 0.51097,1.752297 0.50918,4.278442 -0.004,5.994368 -0.74667,2.495461 -0.88672,2.015202 -0.88315,-3.028616 z m 12.84392,4.685382 c 0,-0.483441 0.9173,-1.707056 2.03845,-2.719146 1.12115,-1.012089 1.80237,-2.453851 1.51382,-3.203915 -0.31061,-0.807423 -0.0816,-1.090651 0.5613,-0.694287 0.59726,0.368206 3.4003,-1.519149 6.22897,-4.194122 2.82867,-2.674973 4.19502,-3.739643 3.03634,-2.365934 -1.15869,1.37371 -1.93447,2.959954 -1.72396,3.524989 0.21051,0.565034 -1.98226,3.2625 -4.87283,5.994368 -2.89057,2.731868 -3.94176,3.510595 -2.33598,1.730505 1.60577,-1.780091 2.6744,-3.481106 2.37472,-3.780034 -0.29967,-0.298929 -1.95696,1.060758 -3.68285,3.021526 -1.72589,1.960768 -3.13798,3.16949 -3.13798,2.68605 z m 10.03573,-7.706709 c 1.9354,-2.326184 0.55443,-2.764556 -1.51687,-0.481513 -1.0001,1.102336 -1.353,2.004248 -0.78421,2.004248 0.56879,0 1.60427,-0.685231 2.30108,-1.522735 z m 16.56469,7.049346 c 2.25003,-1.697582 1.21471,-2.013272 -1.62715,-0.496154 -1.06551,0.568817 -1.93729,0.802743 -1.93729,0.519836 0,-0.282907 1.84994,-1.455783 4.11096,-2.606391 2.26103,-1.150607 3.8119,-1.609322 3.44637,-1.019366 -0.36553,0.589957 -0.0746,1.074329 0.64647,1.076383 0.72109,0.0021 -0.16462,0.901209 -1.96823,1.998122 -3.82445,2.325944 -5.49103,2.655106 -2.67113,0.52757 z m 76.56072,-1.530366 c 0,-0.549483 0.4773,-0.999061 1.06067,-0.999061 0.58337,0 0.78213,0.449578 0.44168,0.999061 -0.34045,0.549484 -0.81776,0.999062 -1.06068,0.999062 -0.24292,0 -0.44167,-0.449578 -0.44167,-0.999062 z M 148.49672,40.61671 c 0.99704,-1.098967 2.03815,-1.998123 2.31358,-1.998123 0.27543,0 -0.31498,0.899156 -1.31202,1.998123 -0.99704,1.098968 -2.03816,1.998123 -2.31359,1.998123 -0.27543,0 0.31498,-0.899155 1.31203,-1.998123 z m 66.57491,-1.275859 c -1.94403,-1.770954 -5.54966,-4.902697 -8.01252,-6.959428 -4.06836,-3.397488 -4.2031,-3.643573 -1.47322,-2.690573 1.65258,0.576915 5.25667,3.158851 8.00909,5.737633 4.58178,4.29274 4.6778,4.33774 1.13697,0.532868 -3.59623,-3.864412 -4.14208,-6.441724 -1.32483,-6.255443 0.7762,0.05132 0.72504,0.265029 -0.14646,0.611832 -0.95761,0.381065 -0.44772,1.450553 1.78911,3.7526 1.72063,1.770804 3.34622,4.417734 3.61242,5.882068 0.2662,1.464334 0.3625,2.65026 0.21402,2.635393 -0.14849,-0.01487 -1.86055,-1.475995 -3.80458,-3.24695 z m 31.07762,-0.331936 c 8.01963,-4.595704 14.24122,-7.546923 13.54663,-6.425869 -0.69162,1.116263 -15.87541,9.042551 -17.28026,9.020692 -0.42538,-0.0066 1.25476,-1.174289 3.73363,-2.594823 z m -55.33644,-8.609002 c -2.61658,-0.543969 -4.75743,-1.353737 -4.75743,-1.799486 0,-0.445748 1.46479,-0.441991 3.25509,0.0084 10.74619,2.703155 11.56547,2.109992 4.40704,-3.190724 -3.93069,-2.910624 -3.84218,-3.050831 0.76508,-1.21192 1.34664,0.537489 1.70156,0.417375 1.19285,-0.403687 -0.98072,-1.582862 0.37506,-1.414537 3.40028,0.422158 l 2.50391,1.520194 -3.00469,-0.63282 -3.0047,-0.632821 2.81625,2.942869 c 2.40839,2.516667 2.57784,3.034129 1.17004,3.573001 -1.93821,0.741904 -2.49456,0.704038 -8.74372,-0.595114 z m 72.58958,-0.346939 c 0.95089,-0.993077 2.00357,-1.531597 2.3393,-1.196711 0.33573,0.334886 -0.44228,1.147404 -1.72889,1.805595 -2.23635,1.144044 -2.26321,1.117247 -0.61041,-0.608884 z m -45.29694,-1.425 c 0.82629,-0.532656 1.95305,-0.968465 2.50391,-0.968465 0.55086,0 0.3255,0.435809 -0.50079,0.968465 -0.82629,0.532655 -1.95305,0.968464 -2.50391,0.968464 -0.55086,0 -0.32551,-0.435809 0.50079,-0.968464 z m 6.28268,-2.997184 c 1.40061,-1.098968 2.92618,-1.988126 3.39015,-1.975908 1.09379,0.0288 -3.88246,3.922537 -5.05047,3.951815 -0.48744,0.01222 0.25971,-0.87694 1.66032,-1.975907 z m 55.94164,-1.453098 c 2.5489,-0.700937 5.14045,-1.586425 5.759,-1.967751 0.61854,-0.381326 1.12462,-0.307525 1.12462,0.164003 0,1.160894 -6.07274,3.27813 -9.08519,3.167512 -1.59835,-0.05869 -0.84321,-0.526463 2.20157,-1.363764 z m -61.97393,-1.233704 c 0.964,-0.251291 2.54147,-0.251291 3.50547,0 0.96401,0.251292 0.17528,0.456894 -1.75274,0.456894 -1.92801,0 -2.71674,-0.205602 -1.75273,-0.456894 z m 6.25977,-0.310382 c 0.34045,-0.549484 1.38114,-0.992178 2.31263,-0.983763 1.45956,0.01318 1.48599,0.149148 0.19129,0.983763 -1.96144,1.264409 -3.28732,1.264409 -2.50392,0 z m -25.09209,-3.831857 c -4.37774,-2.107521 -9.19897,-4.139186 -10.71384,-4.51481 -3.85288,-0.955359 -3.45775,-2.041923 1.87654,-5.1602129 3.45204,-2.0179741 4.28064,-2.9283481 3.25509,-3.576349 -0.75667,-0.4781037 -0.92505,-0.8692795 -0.37419,-0.8692795 0.55086,0 1.62966,0.3967296 2.39733,0.8816214 1.04405,0.6594606 0.0732,1.6350731 -3.85262,3.8716145 l -5.2484,2.9899935 3.85263,1.242233 c 2.11894,0.683228 7.00755,2.700607 10.86357,4.483065 3.85602,1.782459 7.68701,3.485048 8.5133,3.783534 1.04908,0.378964 0.882,0.566497 -0.55376,0.621573 -1.13086,0.04338 -5.6379,-1.645462 -10.01565,-3.752983 z m 79.17657,-3.733474 c -4.19324,-2.053531 -5.80336,-3.198383 -4.00625,-2.8486 4.22929,0.823176 12.51955,4.492775 12.51955,5.541652 0,1.320908 -0.89508,1.037761 -8.5133,-2.693052 z M 263.61767,8.1969058 c -1.87568,-1.3978565 -1.86423,-1.4288053 0.32496,-0.8784681 1.24802,0.3137386 2.51405,0.9657445 2.81341,1.4489019 0.84714,1.3672734 -0.98521,1.0342233 -3.13837,-0.5704338 z M 173.3045,4.9572219 c 0.97449,-0.2533054 2.3266,-0.2366468 3.00469,0.037019 0.67809,0.273666 -0.11922,0.4809159 -1.7718,0.4605554 -1.65258,-0.020361 -2.20738,-0.2442691 -1.23289,-0.4975746 z m -6.52923,-0.9683801 c 0.68857,-0.2771519 1.81533,-0.2771519 2.50391,0 0.68857,0.2771518 0.12519,0.5039125 -1.25196,0.5039125 -1.37715,0 -1.94053,-0.2267607 -1.25195,-0.5039125 z m -10.76682,-1.3364637 -4.50704,-0.6989559 4.00626,-0.031849 c 2.20344,-0.017517 5.35837,0.3113452 7.01095,0.7308049 2.64546,0.6714734 2.70533,0.7588461 0.50078,0.7308049 -1.37715,-0.017517 -4.53208,-0.3463792 -7.01095,-0.7308049 z"
     id="path43" /></svg>
