<?xml version="1.0" standalone="no"?>
<!DOCTYPE svg PUBLIC "-//W3C//DTD SVG 20010904//EN"
 "http://www.w3.org/TR/2001/REC-SVG-20010904/DTD/svg10.dtd">
<svg version="1.0" xmlns="http://www.w3.org/2000/svg"
 width="150.000000pt" height="150.000000pt" viewBox="0 0 150.000000 150.000000"
 preserveAspectRatio="xMidYMid meet">
<metadata>
Created by potrace 1.16, written by Peter Selinger 2001-2019
</metadata>
<g transform="translate(0.000000,150.000000) scale(0.100000,-0.100000)"
fill="#000000" stroke="none">
<path d="M500 1045 l0 -85 90 0 90 0 0 -215 0 -216 83 3 82 3 0 235 0 235 -22
3 -23 3 0 -215 0 -216 -35 0 -35 0 -2 213 -3 212 -92 3 -93 3 0 34 0 35 245 0
245 0 0 25 0 25 -265 0 -265 0 0 -85z"/>
<path d="M1028 972 l-58 -3 0 -174 0 -175 160 0 160 0 0 -25 0 -25 -161 0
c-147 0 -160 -1 -157 -17 3 -16 20 -18 178 -18 l175 0 0 60 0 60 -157 3 -158
3 0 139 0 140 25 0 25 0 0 -116 c0 -101 2 -115 16 -112 14 3 17 20 16 132 -1
70 -2 129 -4 130 -2 0 -29 0 -60 -2z"/>
<path d="M366 962 c-3 -5 33 -30 79 -57 75 -43 82 -50 67 -61 -27 -21 -39 -17
-126 32 l-80 47 -53 -29 -53 -28 0 -112 0 -112 46 -26 c26 -14 52 -26 58 -26
6 0 46 20 88 45 84 49 94 51 121 31 17 -13 11 -18 -67 -62 -79 -45 -96 -64
-59 -64 24 0 193 100 193 114 0 6 -24 25 -53 40 l-53 29 -40 -26 -41 -25 -36
21 c-33 19 -37 25 -37 62 0 36 4 42 36 60 35 19 35 19 78 -4 l42 -23 52 26
c29 14 52 32 52 39 0 14 -170 117 -194 117 -8 0 -17 -4 -20 -8z m-31 -96 c17
-12 16 -14 -13 -32 -31 -17 -32 -21 -32 -81 0 -60 1 -63 32 -79 l32 -17 -23
-18 c-23 -19 -24 -19 -62 3 l-39 22 0 87 c0 84 1 88 28 108 32 24 51 26 77 7z"/>
<path d="M580 802 c0 -7 5 -12 11 -12 8 0 7 -5 -1 -15 -7 -9 -11 -18 -8 -20 3
-3 11 2 18 10 11 13 11 19 -3 33 -11 10 -17 12 -17 4z"/>
<path d="M588 718 c10 -13 10 -17 0 -21 -7 -2 -11 -7 -8 -10 3 -3 12 -2 20 3
13 8 12 12 -4 27 -16 14 -17 14 -8 1z"/>
<path d="M224 475 c-15 -11 -17 -17 -8 -32 13 -20 44 -30 44 -14 0 6 -7 11
-15 11 -21 0 -19 28 3 32 11 2 13 6 6 10 -6 4 -20 1 -30 -7z"/>
<path d="M507 460 c6 -27 11 -36 17 -29 2 2 6 15 9 29 5 21 3 26 -13 26 -16 0
-18 -5 -13 -26z"/>
<path d="M682 455 c0 -31 1 -35 8 -20 5 11 9 14 9 8 1 -18 21 -16 21 2 0 8 -6
15 -14 15 -8 0 -17 8 -19 18 -3 9 -5 -1 -5 -23z"/>
<path d="M877 483 c-11 -10 -8 -53 3 -53 6 0 10 14 10 30 0 31 -2 35 -13 23z"/>
<path d="M1151 458 c-1 -28 3 -38 14 -38 8 0 15 5 15 10 0 6 -4 10 -9 10 -5 0
-12 12 -14 28 -3 22 -4 20 -6 -10z"/>
<path d="M1270 456 c0 -29 4 -36 19 -36 29 0 31 24 5 49 l-24 23 0 -36z"/>
<path d="M285 450 c-4 -7 -3 -16 3 -22 14 -14 45 -2 40 15 -6 16 -34 21 -43 7z"/>
<path d="M351 438 c0 -16 2 -18 6 -8 3 8 11 18 17 22 7 5 4 8 -6 8 -12 0 -18
-7 -17 -22z"/>
<path d="M405 450 c-8 -14 3 -30 21 -30 8 0 14 9 14 20 0 21 -24 28 -35 10z"/>
<path d="M564 449 c-3 -6 -2 -15 4 -21 13 -13 32 -2 32 18 0 16 -26 19 -36 3z"/>
<path d="M625 450 c-7 -12 2 -30 15 -30 5 0 8 9 7 20 -1 21 -12 26 -22 10z"/>
<path d="M740 445 c0 -18 20 -20 21 -2 0 6 4 3 9 -8 8 -19 9 -19 9 3 1 16 -5
22 -19 22 -11 0 -20 -7 -20 -15z"/>
<path d="M812 443 c2 -10 10 -18 18 -18 8 0 16 8 18 18 2 12 -3 17 -18 17 -15
0 -20 -5 -18 -17z"/>
<path d="M910 446 c0 -8 5 -18 10 -21 13 -8 42 14 34 26 -9 15 -44 10 -44 -5z"/>
<path d="M977 453 c-10 -16 12 -53 28 -47 23 9 20 54 -4 54 -11 0 -22 -3 -24
-7z"/>
<path d="M1048 429 c2 -16 6 -29 7 -29 2 0 10 13 18 29 13 27 13 29 -7 29 -19
0 -21 -5 -18 -29z"/>
<path d="M1204 449 c-9 -15 12 -33 30 -26 9 4 16 13 16 22 0 17 -35 21 -46 4z"/>
</g>
</svg>
