<?xml version="1.0" standalone="no"?>
<!DOCTYPE svg PUBLIC "-//W3C//DTD SVG 20010904//EN"
 "http://www.w3.org/TR/2001/REC-SVG-20010904/DTD/svg10.dtd">
<svg version="1.0" xmlns="http://www.w3.org/2000/svg"
 width="420.000000pt" height="349.000000pt" viewBox="0 0 420.000000 349.000000"
 preserveAspectRatio="xMidYMid meet">
<metadata>
Created by potrace 1.16, written by Peter Selinger 2001-2019
</metadata>
<g transform="translate(0.000000,349.000000) scale(0.100000,-0.100000)"
fill="#000000" stroke="none">
<path d="M645 3340 c-124 -26 -190 -97 -233 -253 -13 -48 -17 -103 -16 -242 0
-162 2 -192 28 -300 39 -169 44 -301 16 -430 -30 -142 -38 -342 -16 -420 57
-197 195 -240 545 -169 40 8 75 13 77 12 1 -2 -16 -24 -39 -48 -261 -278 -420
-539 -487 -798 -25 -96 -21 -116 40 -211 110 -170 269 -273 519 -336 56 -14
135 -27 174 -28 l72 -2 7 85 c30 336 208 859 520 1528 l72 154 24 -49 c49 -95
186 -402 267 -598 189 -456 306 -858 318 -1095 l2 -45 46 -3 c61 -4 272 47
375 91 168 71 281 168 364 313 l43 76 -18 76 c-19 86 -68 220 -110 303 -71
140 -236 362 -393 528 -23 24 -42 45 -42 46 0 2 24 -3 53 -11 28 -8 108 -21
177 -30 252 -33 361 20 406 196 20 76 14 254 -12 380 -33 164 -26 338 22 510
8 30 18 116 21 190 9 208 -17 353 -80 446 -53 79 -98 103 -221 118 -38 5 -123
-16 -192 -49 -83 -38 -169 -94 -274 -179 -88 -72 -351 -331 -435 -431 -33 -38
-76 -87 -95 -108 l-35 -38 -45 17 c-66 24 -211 29 -290 11 -35 -9 -70 -12 -76
-9 -7 4 -28 27 -49 51 -127 154 -329 362 -463 479 -237 207 -431 300 -567 272z
m155 -42 c109 -32 286 -151 446 -300 178 -164 461 -472 444 -483 -5 -3 -10
-15 -10 -27 0 -17 -6 -15 -47 19 -93 76 -150 113 -254 162 -57 27 -158 75
-224 106 -433 204 -595 376 -483 514 25 30 49 32 128 9z m-160 7 c0 -4 -7 -20
-16 -36 -73 -142 81 -302 475 -496 98 -49 208 -101 244 -117 75 -32 222 -126
280 -177 l38 -34 -15 -44 c-9 -24 -19 -68 -22 -97 -7 -59 -3 -55 -99 -75 -56
-11 -242 -8 -360 6 -22 2 -11 -2 25 -11 134 -30 294 -30 411 2 13 4 17 -7 22
-59 7 -70 21 -110 50 -144 l20 -22 -41 -48 c-146 -172 -312 -284 -535 -358
-204 -68 -469 -90 -552 -48 -50 26 -69 46 -97 108 -21 45 -23 65 -23 195 1
112 6 171 24 259 28 134 25 242 -9 406 -36 173 -42 236 -37 380 8 219 48 324
144 386 44 27 73 37 73 24z m2558 -48 c50 -74 17 -168 -92 -261 -94 -81 -336
-221 -476 -276 -148 -58 -324 -160 -410 -237 l-25 -23 -13 26 c-13 24 -9 29
87 137 387 436 683 665 861 666 40 1 48 -3 68 -32z m104 -3 c100 -64 146 -233
135 -489 -3 -71 -13 -159 -22 -195 -48 -189 -56 -348 -25 -486 26 -115 37
-310 21 -385 -17 -81 -58 -141 -117 -170 -43 -21 -62 -24 -154 -23 -310 4
-627 126 -832 320 -53 51 -108 111 -131 143 -14 21 -15 27 -3 40 8 9 24 45 37
81 26 76 31 226 10 300 l-13 45 38 33 c61 53 170 121 253 159 383 175 579 289
677 394 73 78 94 168 55 234 l-20 35 27 -6 c15 -3 44 -17 64 -30z m-1199 -754
c45 -18 59 -29 64 -49 3 -14 8 -30 12 -36 31 -52 39 -187 15 -279 -26 -103
-39 -122 -92 -137 -78 -23 -253 -18 -340 9 -67 21 -75 26 -89 60 -21 48 -29
204 -14 271 6 29 21 75 32 101 19 44 26 51 68 64 70 23 88 25 191 21 69 -2
111 -9 153 -25z m-298 -531 c27 -6 60 -12 71 -14 36 -8 35 -31 -5 -117 -97
-209 -118 -254 -188 -418 -224 -521 -353 -931 -378 -1200 -4 -41 -9 -78 -11
-81 -2 -3 -37 0 -78 7 -343 59 -554 188 -661 402 l-27 54 22 86 c64 257 240
539 499 802 64 64 86 80 141 99 158 56 292 147 433 293 66 69 107 105 117 102
8 -3 37 -10 65 -15z m352 -19 c48 -76 200 -213 319 -288 55 -34 226 -112 248
-112 20 0 212 -211 332 -365 105 -136 218 -366 254 -519 l21 -85 -25 -48 c-53
-106 -136 -195 -246 -265 -104 -65 -297 -130 -436 -144 l-61 -6 -8 78 c-32
342 -235 923 -574 1637 -28 59 -51 109 -51 111 0 2 31 6 69 10 38 3 80 10 93
15 37 15 45 13 65 -19z"/>
<path d="M2245 2203 c20 -20 112 -35 230 -38 127 -4 126 -3 -60 21 -66 9 -133
18 -150 21 -20 4 -27 2 -20 -4z"/>
</g>
</svg>
