<?xml version="1.0" encoding="UTF-8" standalone="no"?>
<svg
   version="1.0"
   width="736.000000pt"
   height="736.000000pt"
   viewBox="0 0 736.000000 736.000000"
   preserveAspectRatio="xMidYMid meet"
   id="svg1"
   sodipodi:docname="output.svg"
   xml:space="preserve"
   inkscape:version="1.4.2 (ebf0e940d0, 2025-05-08)"
   xmlns:inkscape="http://www.inkscape.org/namespaces/inkscape"
   xmlns:sodipodi="http://sodipodi.sourceforge.net/DTD/sodipodi-0.dtd"
   xmlns="http://www.w3.org/2000/svg"
   xmlns:svg="http://www.w3.org/2000/svg"><defs
     id="defs1" /><sodipodi:namedview
     id="namedview1"
     pagecolor="#ffffff"
     bordercolor="#000000"
     borderopacity="0.25"
     inkscape:showpageshadow="2"
     inkscape:pageopacity="0.0"
     inkscape:pagecheckerboard="0"
     inkscape:deskcolor="#d1d1d1"
     inkscape:document-units="pt"
     inkscape:zoom="0.81419837"
     inkscape:cx="494.96537"
     inkscape:cy="453.82061"
     inkscape:window-width="1920"
     inkscape:window-height="1008"
     inkscape:window-x="0"
     inkscape:window-y="0"
     inkscape:window-maximized="1"
     inkscape:current-layer="svg1" /><metadata
     id="metadata1">
Created by potrace 1.16, written by Peter Selinger 2001-2019
</metadata><path
     style="fill:#000000"
     d="m 16.483815,735.93429 c 0.257988,-0.6875 2.191996,-5.975 4.297796,-11.75 2.105799,-5.775 11.647506,-26.025 21.203793,-45 9.556288,-18.975 18.259805,-36.75 19.34115,-39.5 2.586853,-6.5787 4.200364,-24.3722 3.373569,-37.20309 -0.759578,-11.78776 0.12993,-15.59515 4.644963,-19.88196 4.613262,-4.38008 7.515099,-11.00257 8.288137,-18.91495 1.289766,-13.20133 6.627664,-41.00095 9.138796,-47.59458 2.052005,-5.38808 3.853691,-7.9007 9.847719,-13.73359 6.504862,-6.32999 7.533332,-7.84913 9.075582,-13.40541 2.0592,-7.41868 6.67273,-13.94198 11.5334,-16.30762 5.52962,-2.69122 14.07279,-5.45738 16.90655,-5.47411 4.38697,-0.0259 5.15629,-1.26314 6.00203,-9.65253 0.67611,-6.70673 1.35903,-8.80843 4.26369,-13.12161 3.96381,-5.88592 9.31358,-10.44718 15.4227,-13.14953 2.38467,-1.05485 6.79269,-4.63344 10.07268,-8.17735 14.04805,-15.17841 18.19614,-18.76573 23.53114,-20.35006 2.84032,-0.84348 8.7055,-1.53361 13.03374,-1.53361 h 7.86953 l 1.54344,-3.69398 c 2.34897,-5.62187 8.24741,-13.83736 17.20767,-23.96727 7.42826,-8.39792 8.62602,-9.33124 14.37514,-11.20147 3.44943,-1.12211 8.07169,-2.34178 10.27169,-2.71036 2.2,-0.36858 6.1375,-1.57084 8.75,-2.67168 l 4.75,-2.00153 v -6.62344 c 0,-7.08465 -3.10122,-18.05619 -7.58316,-26.82778 l -2.45389,-4.80249 0.48302,12.5 c 0.26566,6.875 0.6115,13.61096 0.76853,14.96879 0.18088,1.56411 -0.26417,2.57546 -1.2145,2.75988 -1.03847,0.20152 -2.54441,-2.25035 -4.8944,-7.96879 -7.30983,-17.78757 -10.12351,-25.98307 -11.23855,-32.73493 l -1.16123,-7.03151 -4.60291,2.62062 c -5.45762,3.10724 -13.14273,5.35758 -18.35291,5.37407 -4.37988,0.0139 -5.09008,-2.05652 -1.2981,-3.78426 5.60612,-2.55432 7.4679,-12.23928 5.04635,-26.25108 -1.84189,-10.65767 -4.64399,-20.94932 -5.70444,-20.9514 -0.3884,-7.6e-4 -0.8384,3.22512 -1,7.16862 -0.4902,11.96282 -4.10488,9.82325 -5.74578,-3.40099 -0.84405,-6.80232 -0.89059,-6.46647 -0.72499,5.23098 0.17361,12.26291 0.13429,12.50606 -2.07304,12.81955 -1.2375,0.17576 -2.25,0.1224 -2.25,-0.11857 0,-0.24097 -1.76774,-7.58477 -3.92831,-16.31955 -6.62157,-26.76973 -7.3617,-32.05512 -6.84507,-48.88143 0.48361,-15.75069 0.28398,-14.84718 8.45572,-38.27167 0.766,-2.19574 -7.23075,7.88161 -12.29021,15.48791 -2.11594,3.18107 -4.98668,8.93376 -6.37941,12.78376 -1.39274,3.85 -3.15849,7.13521 -3.92389,7.30047 -3.3877,0.73144 1.68987,-29.1988 7.01406,-41.34505 2.51766,-5.74362 10.78842,-18.06523 14.40965,-21.46719 4.3647,-4.10043 3.36135,-4.98823 -5.63749,-4.98823 -6.62665,0 -9.20836,-0.4862 -14,-2.63656 -3.8574,-1.7311 -5.87505,-3.22543 -5.87505,-4.35124 0,-1.50328 1.14039,-1.70219 9.25,-1.61343 8.64165,0.0946 9.56252,-0.0961 14.00181,-2.89877 2.6135,-1.65 6.33648,-5.29815 8.27329,-8.107 3.55206,-5.15134 11.1306,-25.896298 15.97801,-43.737034 3.09582,-11.394076 5.80087,-14.892681 14.85442,-19.212147 15.28373,-7.291901 33.02269,-18.797285 36.48949,-23.666864 5.47385,-7.688749 16.08507,-17.995097 21.49756,-20.879928 5.69916,-3.03762 6.66024,-3.227676 16.1081,-3.185421 5.52603,0.02471 11.33836,0.558933 12.9163,1.187151 1.57794,0.628219 5.91737,1.574555 9.64318,2.102971 6.45743,0.915827 7.39881,0.767092 20.13103,-3.180654 11.57726,-3.5896399 14.5559,-4.1360907 22.35681,-4.1014952 11.53917,0.051174 22.28485,3.1470442 37.0701,10.6800372 11.01887,5.614043 14.69563,8.441278 35.12653,27.010445 5.39186,4.900532 13.86706,12.154322 18.83379,16.119534 21.39155,17.078041 26.51802,26.615095 29.01078,53.970405 0.70061,7.6884 3.37724,18.38844 7.02251,28.07303 4.15539,11.03985 17.06334,30.3679 23.82633,35.67697 4.02759,3.16173 6.90639,3.41544 12.65502,1.1153 5.30474,-2.12254 6.92582,-0.81744 4.36641,3.5153 -2.18084,3.69185 -7.74284,6.1295 -15.66147,6.8639 -3.1625,0.2933 -5.75,0.67255 -5.75,0.84277 0,0.17022 1.10466,3.82022 2.4548,8.11111 2.59594,8.25021 3.10587,12.97821 2.75921,25.58301 -0.16716,6.07785 -0.56449,7.91587 -1.81493,8.39571 -2.01103,0.77171 -3.36102,-1.2878 -3.39353,-5.1771 -0.0138,-1.65 -1.13818,-5.39098 -2.49864,-8.3133 -2.51324,-5.39856 -8.35951,-14.1867 -9.43763,-14.1867 -0.32543,0 -0.58808,7.7625 -0.58366,17.25 0.007,15.36677 -0.22926,17.85045 -2.16546,22.75 -5.1036,12.91462 -6.58217,17.84109 -7.05409,23.50376 -0.4809,5.77035 -0.27543,6.44095 5.28542,17.25 3.18218,6.18543 6.15989,11.24624 6.61714,11.24624 0.45726,0 0.83137,0.9 0.83137,2 0,5.59837 -7.84579,-0.86666 -18.09324,-14.90904 l -5.40676,-7.40905 -0.64569,8.90905 c -0.65505,9.03824 -2.70375,18.49304 -5.54673,25.59836 -1.22027,3.04974 -2.03577,3.8489 -3.68719,3.61325 -1.9999,-0.28537 -2.1488,-1.01284 -2.62039,-12.80257 -0.46681,-11.67035 -0.57972,-12.23451 -1.70115,-8.5 -2.25284,7.50221 -3.28373,16.98714 -3.29129,30.28212 -0.009,14.96495 0.96746,18.63978 5.8793,22.13732 3.44951,2.45627 4.22086,6.08056 1.29411,6.08056 -1.00047,0 -5.69676,-3.96272 -10.43621,-8.80604 -7.00298,-7.15646 -8.54276,-8.32723 -8.21994,-6.25 0.21848,1.40582 0.66182,4.65675 0.98522,7.22427 0.32339,2.56753 1.1683,5.14985 1.87757,5.7385 0.70927,0.58864 10.47472,3.38161 21.70099,6.20659 30.93253,7.78386 40.75518,13.25001 52.05711,28.96894 l 4.35429,6.05603 7.57063,-0.62222 c 6.24594,-0.51335 8.53557,-0.26119 13.08529,1.44108 3.03307,1.13481 6.60128,3.22652 7.92937,4.64824 1.32809,1.42171 4.43971,3.75057 6.91471,5.17523 2.475,1.42467 6.31946,3.81444 8.54323,5.31062 2.22378,1.49618 5.82378,3.21329 8,3.8158 2.17623,0.60252 5.72233,2.10742 7.88023,3.34422 3.62406,2.07714 4.35668,3.31396 9.60058,16.20779 l 5.67712,13.95904 9.70445,1.71231 c 12.80451,2.25931 14.72551,2.99724 23.81091,9.14668 6.67396,4.51727 7.92629,5.83979 9.26918,9.7887 0.89678,2.63708 3.27005,6.22769 5.61822,8.5 5.3636,5.19034 7.40469,9.37131 10.32249,21.14461 2.42228,9.77386 5.37543,31.44074 5.83214,42.78961 l 0.24145,6 7.68826,1.07632 c 4.22854,0.59197 8.35824,1.63235 9.17711,2.31195 3.60565,2.99242 4.91397,10.13441 5.55382,30.31781 0.58147,18.34157 0.77833,19.89954 2.843,22.5 5.80218,7.30787 23.40201,40.10054 23.04321,42.93498 -0.2899,2.2902 -6.88201,-8.48031 -18.14184,-29.64106 -1.60963,-3.025 -4.31873,-7.44736 -6.02023,-9.82746 l -3.09362,-4.32746 -0.78973,-18.67254 c -1.17556,-27.79523 -3.29671,-33.17254 -13.08532,-33.17254 -1.88356,0 -4.83091,-0.28125 -6.54966,-0.625 -3.00717,-0.60143 -3.125,-0.81626 -3.125,-5.69781 0,-7.77569 -2.83615,-30.0724 -5.17415,-40.67719 -2.96773,-13.46114 -5.29331,-18.74367 -10.82806,-24.59586 -3.07765,-3.25415 -5.25986,-6.66368 -5.98241,-9.34704 -0.83123,-3.08694 -1.53886,-4.0702 -2.62836,-3.65212 -0.81999,0.31466 -1.2521,0.18575 -0.96025,-0.28648 0.68362,-1.10613 -9.86812,-8.51957 -14.99169,-10.53286 -2.16429,-0.85045 -8.10787,-2.20993 -13.20794,-3.02107 -5.10008,-0.81114 -9.68128,-1.72721 -10.18044,-2.03571 -0.49916,-0.30849 -2.79181,-5.39119 -5.09479,-11.29488 -6.4396,-16.50795 -7.16549,-17.65428 -12.64746,-19.97293 -2.64244,-1.11765 -5.85829,-2.35205 -7.14633,-2.74312 -3.11859,-0.94685 -18.00089,-10.02279 -21.15567,-12.90175 -3.99125,-3.64229 -10.1498,-6.7806 -13.45388,-6.85591 -1.67671,-0.0382 -5.79734,0.28253 -9.15695,0.71278 l -6.10838,0.78226 -4.61193,-6.46305 c -11.47159,-16.07598 -21.23344,-21.53534 -52.43347,-29.32362 -11.80261,-2.94622 -21.57351,-5.49443 -21.71311,-5.6627 -1.73797,-2.09485 -2.7631,-6.48064 -3.24178,-13.86919 -0.70298,-10.85053 0.12877,-11.30569 6.81132,-3.72736 l 4.59428,5.21011 -0.44007,-12.95975 c -0.72492,-21.34865 4.69512,-46.91615 9.02734,-42.58393 0.43589,0.43589 0.88965,6.67733 1.00836,13.86986 0.1187,7.19253 0.5334,12.51771 0.92154,11.83374 2.1371,-3.7659 5.9959,-20.25573 6.50034,-27.77795 0.68202,-10.17038 1.92492,-11.44635 6.03048,-6.1909 6.22555,7.96923 12.53101,15.92007 12.99773,16.38943 0.27344,0.275 -1.5791,-3.55 -4.11676,-8.5 -2.53766,-4.95 -4.61474,-10.37985 -4.61572,-12.06634 -0.003,-5.89357 2.123,-15.002 5.50777,-23.59218 4.22358,-10.71901 5.44286,-20.0506 4.74157,-36.28911 -0.51655,-11.96086 -0.45027,-12.55237 1.40653,-12.55237 1.9744,0 7.56651,7.13089 12.35129,15.75 1.29764,2.3375 2.79154,4.25 3.3198,4.25 1.57485,0 -0.005,-11.77059 -2.81871,-21 -3.89471,-12.77547 -4.56454,-11.50855 6.29898,-11.91385 1.26996,-0.0474 2.05684,-0.49418 1.74862,-0.99289 -0.30822,-0.49871 0.2917,-0.68391 1.33316,-0.41156 1.04145,0.27234 3.0443,-0.10777 4.45078,-0.8447 2.49661,-1.3081 2.44959,-1.34404 -1.98332,-1.5156 -5.88409,-0.22772 -11.00831,-3.75871 -17.02665,-11.73267 -2.5275,-3.3488 -5.0413,-5.95783 -5.58621,-5.79783 -0.54492,0.15999 -0.73021,-0.3881 -0.41175,-1.21798 0.31845,-0.82988 0.0791,-1.81781 -0.53183,-2.1954 -0.71945,-0.44464 -0.82579,-0.22532 -0.30182,0.62248 0.55142,0.89222 0.41971,1.06841 -0.41366,0.55336 -0.67248,-0.41561 -0.9832,-1.37974 -0.6905,-2.14251 0.2927,-0.76277 0.0247,-1.27975 -0.59561,-1.14885 -0.62029,0.1309 -2.17169,-1.562 -3.44756,-3.762 -2.56653,-4.4255 -2.94771,-5.98579 -1.19816,-4.90451 0.72104,0.44563 0.88283,0.27394 0.4309,-0.45729 -0.39798,-0.64395 -1.21339,-0.86811 -1.81203,-0.49814 -0.71078,0.43929 -0.89265,-0.076 -0.52416,-1.48507 0.3461,-1.32349 0.17227,-1.91548 -0.44961,-1.53114 -0.64299,0.39739 -0.75259,-0.19662 -0.29961,-1.62385 0.46118,-1.45303 0.34748,-2.02377 -0.32087,-1.61071 -1.12282,0.69395 -2.63408,-2.84415 -1.79485,-4.20204 0.28235,-0.45686 -0.11192,-2.03588 -0.87615,-3.50895 -0.76424,-1.47306 -1.10121,-2.6783 -0.74882,-2.6783 0.35238,0 0.13586,-0.50483 -0.48116,-1.12185 -0.61702,-0.61702 -0.85555,-1.81584 -0.53006,-2.66405 0.41873,-1.0912 0.20701,-1.30438 -0.72399,-0.72899 -1.01825,0.62931 -1.16068,0.1952 -0.62986,-1.91974 0.3845,-1.53198 0.29389,-2.49066 -0.20619,-2.18158 -0.49067,0.30324 -2.34619,-4.91736 -4.12339,-11.60136 -4.49135,-16.891831 -6.32991,-21.378567 -12.59771,-30.742739 -3.00682,-4.492228 -5.46695,-8.444665 -5.46695,-8.783192 0,-0.546018 -14.46856,-15.611915 -30,-31.238542 C 430.68327,28.561519 413.87742,18.17129 395.2683,12.695938 382.69162,8.9955055 374.28111,9.4426834 358.21091,14.666241 c -10.298,3.347326 -12.21497,3.672207 -18.58746,3.150134 -3.90791,-0.320159 -9.73995,-1.268352 -12.9601,-2.107095 -3.22015,-0.838743 -9.07207,-1.524987 -13.00426,-1.524987 -11.08577,0 -16.53873,3.287723 -29.58935,17.840147 -12.44315,13.875048 -24.29782,22.341018 -42.29129,30.202174 -4.61932,2.018135 -6.68834,3.670629 -9.25,7.387835 -1.81485,2.633525 -3.29973,5.435463 -3.29973,6.226531 0,2.30524 -6.724,25.06806 -10.14482,34.34331 -6.59938,17.8937 -18.69425,28.24902 -31.22177,26.7313 l -4.13341,-0.50077 3.5,1.61168 c 2.40299,1.10652 6.39928,1.6189 12.75006,1.63473 l 9.25006,0.0231 -6e-5,2.68918 c -4e-5,1.69697 -1.46476,4.38152 -3.96984,7.27591 -9.23261,10.66744 -14.50599,20.73187 -17.96865,34.29379 -3.11981,12.2191 -2.74925,13.89012 1.51279,6.82188 6.73873,-11.17564 15.47246,-21.58076 18.1142,-21.58076 2.02357,0 1.62318,2.36399 -2.6104,15.4124 -4.69706,14.47689 -6.31247,25.06724 -5.48947,35.98801 0.73106,9.70082 3.53759,25.57724 6.8234,38.59959 l 2.39704,9.5 0.10644,-15.5 c 0.0585,-8.525 0.38537,-17.1875 0.72628,-19.25 0.92786,-5.61355 3.11221,-4.74093 3.75481,1.5 0.29731,2.8875 1.11719,10.65 1.82196,17.25 l 1.28138,12 0.5,-7.5 c 0.44127,-6.61895 0.73082,-7.5 2.46485,-7.5 3.82781,0 9.97143,26.84135 9.32581,40.74427 -0.32231,6.94069 -0.84699,9.34065 -2.5438,11.63571 l -2.13774,2.89145 4.61098,-1.3877 c 2.53603,-0.76324 6.52911,-2.51181 8.87351,-3.88571 3.8002,-2.22707 9.40639,-3.39276 9.40639,-1.95586 0,5.2106 6.8201,27.56258 10.45093,34.25154 1.41232,2.60188 1.47097,2.4362 1.52004,-4.2937 0.10705,-14.6802 1.91881,-17.70675 6.43519,-10.75 6.17502,9.5116 11.60731,33.61929 8.77014,38.92058 -1.24688,2.32983 -6.69902,4.55952 -16.6763,6.81989 -11.08693,2.51177 -14.53827,4.68648 -22.69898,14.30279 -8.97151,10.57172 -13.20497,16.65042 -15.78035,22.65854 -2.17541,5.07502 -0.37697,4.57579 -18.21606,5.05663 -7.47682,0.20154 -10.9382,2.54219 -22.90813,15.49093 -6.24042,6.75072 -11.07586,11.01665 -14.39648,12.7009 -11.66101,5.91457 -19.17886,15.0615 -20.08764,24.44056 -1.13697,11.73405 -1.1866,11.85918 -4.70426,11.85918 -1.7607,0 -6.80281,1.18559 -11.20469,2.63464 -10.55455,3.47444 -15.5592,8.47928 -18.56224,18.56293 -1.85095,6.21514 -2.84807,7.71196 -9.751471,14.63841 -6.751856,6.77439 -7.966859,8.56596 -9.962264,14.68969 -2.230703,6.84585 -6.088181,27.68612 -8.232081,44.47433 -1.509116,11.81742 -2.547455,14.48425 -7.971485,20.47365 l -4.743089,5.23748 -0.494818,22.39444 -0.494819,22.39443 -4.692381,11.41161 c -2.58081,6.27638 -6.136766,13.92638 -7.902125,17 -1.765359,3.07362 -4.538703,8.51339 -6.162986,12.08839 -1.624283,3.575 -3.521843,7.19719 -4.216798,8.0493 -4.255675,5.21805 -23.638926,48.41521 -23.647641,52.7007 -0.0014,0.6875 -0.875687,1.25 -1.942864,1.25 -1.135761,0 -1.745821,-0.51831 -1.471253,-1.25 z M 208.91184,270.99679 c -0.31923,-0.79773 -0.55619,-0.56077 -0.60417,0.60417 -0.0434,1.05417 0.19293,1.64479 0.52522,1.3125 0.33229,-0.33229 0.36782,-1.19479 0.079,-1.91667 z m 2.04028,-31.0625 c -0.22183,-1.7875 -0.40332,-0.325 -0.40332,3.25 0,3.575 0.18149,5.0375 0.40332,3.25 0.22183,-1.7875 0.22183,-4.7125 0,-6.5 z M 495.74087,105.54833 C 494.8104,99.733824 493.01318,93.221084 491.36312,89.684293 488.067,82.619317 480.54132,73.285576 473.64485,67.709173 l -4.91613,-3.975119 5,5.597134 c 10.67308,11.94773 19.96768,30.388265 22.10332,43.853102 0.39255,2.475 0.88779,3.98882 1.10053,3.36404 0.21274,-0.62478 -0.32353,-5.57478 -1.1917,-11 z M 467.22872,62.83928 c 0,-0.189756 -1.0125,-1.202256 -2.25,-2.25 l -2.25,-1.904987 1.90499,2.25 c 1.79022,2.114445 2.59501,2.705241 2.59501,1.904987 z m -8,-6.95882 c 0,-0.167109 -1.6875,-1.854609 -3.75,-3.75 l -3.75,-3.446167 3.44617,3.75 c 3.20762,3.490418 4.05383,4.209787 4.05383,3.446167 z m -201,680.78913 c 0,-0.28308 1.4625,-1.4064 3.25,-2.49626 4.70088,-2.86617 12.14917,-2.65681 17.25,0.48488 3.17525,1.95568 3.55965,2.4701 1.86431,2.49487 -1.17463,0.0172 -3.42463,-0.64101 -5,-1.46263 -1.57537,-0.82161 -4.21431,-1.49384 -5.86431,-1.49384 -1.65,0 -4.28893,0.67223 -5.8643,1.49384 -2.84196,1.48218 -5.6357,1.96757 -5.6357,0.97914 z m 241.47808,-5.40006 c 0.1897,-4.80459 0.61647,-5.78377 3.78722,-8.68955 9.99041,-9.15553 25.7347,-2.32216 25.7347,11.16941 0,4.69732 -1.61466,4.34447 -2.26373,-0.49468 -1.1699,-8.72228 -10.0048,-14.70684 -17.16456,-11.6269 -3.08224,1.3259 -7.57171,5.05863 -7.57171,6.29544 0,0.36357 0.54,0.12104 1.2,-0.53896 1.48253,-1.48252 5.8,-1.58747 5.8,-0.14098 0,0.58246 -0.47262,0.76692 -1.05027,0.40991 -0.57765,-0.357 -2.57599,0.0749 -4.44075,0.95979 -2.61484,1.24082 -3.4882,2.34809 -3.81759,4.84009 -0.2349,1.77715 -0.33089,0.79455 -0.21331,-2.18357 z m 16.92706,1.41033 c -0.96506,-1.47288 -2.86343,-3.09951 -4.21859,-3.61474 -1.35516,-0.51523 -2.17584,-1.22487 -1.82373,-1.57698 0.99241,-0.99241 5.44569,1.75496 7.21048,4.44836 0.87258,1.33173 1.36151,2.64632 1.08651,2.92132 -0.275,0.275 -1.2896,-0.70508 -2.25467,-2.17796 z M 244.28014,664.35153 c -1.87955,-1.00801 -4.12253,-2.92036 -4.98439,-4.24966 -1.33999,-2.06674 -0.99071,-1.94609 2.41082,0.83276 2.18781,1.78731 4.55031,3.24966 5.25,3.24966 0.69968,0 1.27215,0.45 1.27215,1 0,1.29844 0.0416,1.30722 -3.94858,-0.83276 z m 7.94858,1.44939 c 0,-0.21085 0.90062,-0.61888 2.00138,-0.90674 1.10076,-0.28785 1.7492,-0.11534 1.44099,0.38337 -0.53825,0.87091 -3.44237,1.31245 -3.44237,0.52337 z m 5,-1.45611 c 0,-0.46172 1.13487,-1.35657 2.52193,-1.98855 2.10676,-0.95991 2.4129,-1.60367 1.85966,-3.91052 -0.92332,-3.84995 -3.24307,-8.35409 -5.66917,-11.0075 -1.1295,-1.23534 -1.76274,-2.53696 -1.40719,-2.8925 0.89454,-0.89454 3.69477,1.57694 3.69477,3.261 0,0.75765 0.37777,1.37755 0.83949,1.37755 1.24227,0 3.16051,4.702 3.16051,7.74706 0,3.36206 1.36963,1.96936 2.96148,-3.01137 1.05643,-3.30549 0.94328,-4.30098 -0.92831,-8.16717 -3.79684,-7.84324 -11.31758,-10.50471 -18.83985,-6.66714 -5.06351,2.58321 -8.72133,9.4574 -7.85923,14.76995 0.2971,1.83077 0.15802,3.32867 -0.30906,3.32867 -1.22021,0 -2.31417,-7.49593 -1.48973,-10.20782 1.07935,-3.55042 5.2629,-8.63646 8.46674,-10.29323 3.61306,-1.86839 10.0333,-1.92885 14.32677,-0.13492 7.8337,3.27313 11.60765,13.01527 8.07591,20.84727 -2.07579,4.60329 -9.40472,10.01868 -9.40472,6.94922 z m -18.99626,-12.71939 c -0.007,-4.00581 5.63754,-8.50211 10.46877,-8.33877 l 3.02749,0.10237 -3.24383,0.77007 c -3.90172,0.92626 -5.97363,2.53297 -8.41449,6.5252 -1.5484,2.53255 -1.83478,2.67919 -1.83794,0.94113 z m 294.4587,-0.50486 c -3.91247,-1.13779 -8.14963,-5.61098 -8.93835,-9.43627 -0.56663,-2.74818 -0.43398,-2.66424 1.5804,1 2.69392,4.90035 4.142,6.05201 9.89551,7.86992 4.82902,1.52581 2.52779,2.03941 -2.53756,0.56635 z m 10.53756,-0.93627 c 0,-0.55 0.50798,-1 1.12883,-1 0.78304,0 0.91623,-1.60267 0.4348,-5.23187 -0.77777,-5.86313 0.40599,-5.89194 1.35833,-0.0331 l 0.61071,3.75716 2.35972,-3.81812 c 7.08965,-11.47129 -6.45913,-26.76884 -17.78381,-20.07919 -3.61327,2.13442 -7.10858,7.40397 -7.10858,10.71695 0,1.47847 -0.45,2.68812 -1,2.68812 -1.84808,0 -1.0216,-6.67163 1.25145,-10.10211 1.23829,-1.86884 4.34783,-4.43863 6.91008,-5.71064 4.01077,-1.99113 5.19264,-2.16667 8.49855,-1.26225 5.94379,1.62607 9.82927,4.4791 11.82359,8.68182 3.45685,7.28478 1.11956,17.99564 -4.56885,20.93723 -3.32915,1.72157 -3.91482,1.78978 -3.91482,0.45595 z m -1.05059,-13.91666 c -0.85282,-0.87084 -2.99468,-2.66648 -4.75968,-3.99032 -1.765,-1.32385 -3.02225,-2.59383 -2.79389,-2.82219 0.70127,-0.70127 8.6632,4.71944 9.27547,6.315 0.81822,2.13224 0.0862,2.34375 -1.7219,0.49751 z m -16.919,-3.13334 c -0.0426,-2.17046 1.99419,-3.9616 4.41959,-3.88661 1.98789,0.0615 1.98441,0.0898 -0.11459,0.93618 -1.19053,0.48004 -2.63935,1.68902 -3.21959,2.68662 -0.84529,1.45327 -1.06104,1.50571 -1.08541,0.26381 z M 222.46994,579.42208 c -0.74552,-0.51329 1.18361,-0.69001 4.73117,-0.4334 5.73185,0.4146 6.13714,0.28609 9.40571,-2.98248 5.12807,-5.12807 6.69821,-13.33569 3.36157,-17.57191 -0.54151,-0.6875 -3.03931,-1.25 -5.55067,-1.25 h -4.56612 l 2.19491,2.04487 c 2.89097,2.69335 5.59605,6.87463 4.89869,7.57199 -0.30494,0.30494 -1.11236,-0.48806 -1.79427,-1.76221 -0.68191,-1.27416 -2.29337,-3.14536 -3.58102,-4.15823 -2.60677,-2.05048 -3.11736,-4.69642 -0.90629,-4.69642 0.7892,0 2.65581,-0.46418 4.14802,-1.03152 2.60333,-0.98978 2.63631,-1.08966 0.8151,-2.4682 -1.04391,-0.79017 -1.54229,-1.45098 -1.10752,-1.46847 1.60038,-0.0644 6.9464,4.54898 8.30697,7.16853 1.79992,3.46545 1.79872,10.13752 -0.002,13.59932 -2.83003,5.43923 -5.99559,7.38725 -12.77616,7.86221 -3.47537,0.24343 -6.88531,0.0526 -7.57764,-0.42408 z m -5.95197,-3.48779 c -1.13266,-1.2375 -2.35758,-3.375 -2.72206,-4.75 -0.60718,-2.29062 -0.56372,-2.33249 0.51891,-0.5 0.64988,1.1 2.33056,3.2375 3.73484,4.75 1.40429,1.5125 2.0975,2.75 1.54047,2.75 -0.55703,0 -1.9395,-1.0125 -3.07216,-2.25 z m 19.55519,-4.5 c 0.34561,-2.92674 0.59684,-3.31443 1.14438,-1.76597 0.7576,2.14257 0.20435,5.51597 -0.90465,5.51597 -0.37541,0 -0.48329,-1.6875 -0.23973,-3.75 z m -20.65677,-14.71483 c 0.36336,-2.18879 6.22172,-6.55732 8.71022,-6.49513 0.91052,0.0227 0.30708,0.70939 -1.39789,1.59062 -1.65,0.85282 -4.04366,2.7473 -5.31926,4.20996 -1.96603,2.25436 -2.26958,2.36014 -1.99307,0.69455 z m 341.56233,0.80255 c 0.6875,-0.27741 1.8125,-0.27741 2.5,0 0.6875,0.27741 0.125,0.50439 -1.25,0.50439 -1.375,0 -1.9375,-0.22698 -1.25,-0.50439 z m -9.13595,-4.05856 c -1.98773,-2.04646 -3.59983,-4.18396 -3.58245,-4.75 0.0174,-0.56604 1.03076,0.0958 2.25196,1.47084 1.22119,1.375 3.51766,3.5125 5.10325,4.75 1.81508,1.4166 2.3196,2.25 1.3621,2.25 -0.83645,0 -3.14714,-1.67438 -5.13486,-3.72084 z m 18.1606,3.16216 c -0.26857,-0.26858 -0.25618,-1.70267 0.0275,-3.18687 0.4457,-2.3315 0.60721,-2.43812 1.1875,-0.78386 1.10655,3.15454 4.01031,-3.87943 4.01031,-9.71445 0,-6.30431 -3.80337,-12.03672 -9.1611,-13.80753 -4.67244,-1.54431 -7.90652,-0.70614 -12.35877,3.20299 -4.33984,3.81042 -5.79752,6.38995 -5.69278,10.07398 0.0489,1.71984 -0.32673,2.5591 -0.968,2.16277 -1.53839,-0.95078 -0.28582,-8.28659 1.91921,-11.23998 3.73662,-5.0048 7.01502,-6.64837 13.26144,-6.64837 7.07918,0 10.43392,2.07734 13.82136,8.55855 3.71897,7.11554 1.73383,17.96841 -3.83149,20.94688 -0.9498,0.50831 -1.94664,0.70446 -2.21522,0.43589 z m 0.89202,-7.10798 c -0.36667,-0.36667 -0.66667,-1.43873 -0.66667,-2.38236 0,-0.94362 -1.87953,-3.59521 -4.17673,-5.89242 -3.37428,-3.37428 -3.68257,-3.95157 -1.60463,-3.0048 3.08252,1.40449 6.19664,5.41776 7.13588,9.19624 0.69179,2.78299 0.523,3.29419 -0.68785,2.08334 z m -21.66667,-10.08845 c 0,-0.55 0.675,-1.5602 1.5,-2.24489 0.83674,-0.69443 1.5,-0.80271 1.5,-0.24489 0,0.55 -0.675,1.5602 -1.5,2.24489 -0.83674,0.69444 -1.5,0.80272 -1.5,0.24489 z m 7.5,-2.24489 -2,-0.85943 2,-0.055 c 1.1,-0.0302 2.675,0.38125 3.5,0.9144 1.33334,0.86167 1.33334,0.96327 0,0.9144 -0.825,-0.0302 -2.4,-0.44171 -3.5,-0.9144 z m -170,-9 c 0.33992,-0.55 0.81648,-1 1.05902,-1 0.24254,0 0.44098,0.45 0.44098,1 0,0.55 -0.47655,1 -1.05901,1 -0.58246,0 -0.78091,-0.45 -0.44099,-1 z m -198.5,-1.74985 c 0,-0.47734 0.65262,-1.7414 1.45027,-2.80902 1.39917,-1.87274 1.43014,-1.86131 0.87929,0.32446 -0.56886,2.25723 -2.32956,4.13507 -2.32956,2.48456 z m 190.2,-3.45015 c -1.61405,-1.61405 -1.46296,-4.86818 0.3365,-7.24754 0.81008,-1.07115 1.22722,-2.72155 0.92697,-3.66757 -0.71842,-2.26353 1.74379,-1.91229 4.57856,0.65315 1.76594,1.59815 2.02713,2.62803 1.50097,5.91843 -0.84048,5.2561 -4.35282,7.33371 -7.343,4.34353 z m 4.85022,-3.43208 c 0.55039,-1.44764 0.7195,-3.51811 0.3758,-4.60103 -0.5609,-1.76721 -0.82579,-1.63865 -2.58538,1.25477 -1.9456,3.19928 -1.8746,5.97834 0.15273,5.97834 0.58087,0 1.50646,-1.18443 2.05685,-2.63208 z m -49.05022,-0.36792 c -0.825,-0.53315 -1.05,-0.96937 -0.5,-0.96937 0.55,0 1.675,0.43622 2.5,0.96937 0.825,0.53316 1.05,0.96938 0.5,0.96938 -0.55,0 -1.675,-0.43622 -2.5,-0.96938 z m 40.00616,-9.48381 c -1.31206,-3.45098 -1.28099,-8.13415 0.0707,-10.65986 0.77675,-1.45135 0.74436,-3.87293 -0.11619,-8.68828 -1.01528,-5.68117 -0.95983,-7.23435 0.37208,-10.42207 1.08703,-2.60163 2.19173,-3.74598 3.6162,-3.74598 1.73116,0 2.05102,0.63301 2.05102,4.05902 0,2.45137 -0.39607,3.81423 -1,3.44098 -0.55,-0.33992 -1.01761,-1.82897 -1.03914,-3.30901 -0.0377,-2.59094 -0.0952,-2.56183 -1.54597,0.78315 -1.20953,2.78871 -1.2931,4.36708 -0.42357,8 1.39796,5.84067 0.9955,11.21566 -0.95048,12.6941 -0.84573,0.64253 -1.21215,1.49378 -0.81427,1.89166 1.20599,1.20599 4.69611,-3.85713 4.86653,-7.0599 l 0.15964,-3 1.00253,3.55571 c 0.62772,2.22633 2.07595,4.17176 3.87363,5.20349 3.42424,1.96524 3.99735,6.21302 0.94592,7.01099 -1.24729,0.32617 -1.76022,0.0736 -1.45669,-0.71743 0.78664,-2.04996 -4.02385,-1.23388 -5.11813,0.86827 -1.54568,2.9693 -3.38628,3.00827 -4.49384,0.0952 z m 2.11793,-2.78285 c -0.98761,-0.98027 -1.10248,-0.86541 -0.55979,0.55979 0.37553,0.98622 0.93469,1.54122 1.24258,1.23333 0.30788,-0.30788 6.3e-4,-1.11479 -0.68279,-1.79312 z m 9.87591,-0.9 c 0,-1.19167 -0.29609,-1.87057 -0.65799,-1.50868 -0.36189,0.3619 -1.24218,0.17315 -1.95619,-0.41942 -0.71401,-0.59258 -1.77526,-0.78258 -2.35832,-0.42223 -1.5127,0.9349 -0.11113,2.76307 1.61151,2.10203 0.79019,-0.30323 1.69281,0.11609 2.00584,0.93182 0.8098,2.11032 1.35515,1.83525 1.35515,-0.68352 z m -6.07028,-4.27447 c 0.0387,-0.51762 -0.56481,-0.0726 -1.34104,0.98897 -0.77623,1.06156 -1.1486,2.3552 -0.8275,2.87476 0.54297,0.87854 2.00952,-1.73443 2.16854,-3.86373 z m -10.85077,6.8578 c 0.048,-1.16494 0.28494,-1.4019 0.60417,-0.60417 0.28887,0.72188 0.25334,1.58438 -0.0789,1.91667 -0.33229,0.33229 -0.56864,-0.25833 -0.52522,-1.3125 z m 1.37993,-5.4832 c -0.36253,-0.58659 -0.44468,-1.281 -0.18255,-1.54313 0.26213,-0.26212 0.74307,0.21781 1.06875,1.06653 0.67618,1.76211 0.0999,2.07206 -0.8862,0.4766 z m 13.75362,-3.12097 c -0.69873,-0.69873 -1.2125,-3.93875 -1.2125,-7.64648 0,-3.53869 -0.5111,-8.13991 -1.13579,-10.22493 -2.36673,-7.89944 2.35561,-8.84747 5.4573,-1.09558 1.21174,3.02843 1.37148,5.25184 0.71234,9.91503 -0.46732,3.30615 -0.77861,6.80161 -0.69176,7.76769 0.19697,2.19095 -1.51881,2.89505 -3.12959,1.28427 z m 1.77219,-11.12151 c -0.008,-2.85504 -0.35958,-5.73262 -0.78035,-6.39461 -0.42078,-0.66199 -0.75139,1.87937 -0.73469,5.64747 0.0167,3.76811 0.36785,6.64568 0.78035,6.39461 0.4125,-0.25107 0.74311,-2.79243 0.73469,-5.64747 z m 3.17321,10.30901 c 0,-1.375 0.22697,-1.9375 0.50438,-1.25 0.27742,0.6875 0.27742,1.8125 0,2.5 -0.27741,0.6875 -0.50438,0.125 -0.50438,-1.25 z m -10.07895,-9.58333 c 0.048,-1.16494 0.28494,-1.4019 0.60417,-0.60417 0.28887,0.72188 0.25334,1.58438 -0.0789,1.91667 -0.33229,0.33229 -0.56864,-0.25833 -0.52522,-1.3125 z m -23.49485,-14.05811 c -0.52667,-1.37247 -0.38034,-1.43434 0.89301,-0.37756 1.73525,1.44013 1.91584,2.019 0.62988,2.019 -0.49115,0 -1.17646,-0.73865 -1.52289,-1.64144 z m 307.4159,-5.35856 c 0,-0.55 0.47656,-1 1.05902,-1 0.58246,0 0.7809,0.45 0.44098,1 -0.33992,0.55 -0.81647,1 -1.05901,1 -0.24254,0 -0.44099,-0.45 -0.44099,-1 z m -316.44236,-5.90674 c -0.30822,-0.49871 0.34022,-0.67122 1.44098,-0.38337 2.33499,0.61062 2.63015,1.29011 0.5604,1.29011 -0.79254,0 -1.69316,-0.40803 -2.00138,-0.90674 z m 29.00912,-0.26935 c -0.23496,-0.72815 -0.94018,-13.02391 -1.56715,-27.32391 -1.371,-31.26976 -1.31423,-30.5 -2.24961,-30.5 -0.4125,0 -0.75,-0.74115 -0.75,-1.64701 0,-0.90585 -1.68726,-3.70608 -3.74947,-6.22274 -2.06221,-2.51666 -3.62527,-5.11657 -3.47348,-5.77758 0.1518,-0.66102 -0.18594,-1.48734 -0.75053,-1.83628 -0.57507,-0.35541 -1.02652,0.2711 -1.02652,1.4246 0,1.13246 -0.5625,2.05434 -1.25,2.04863 -2.4043,-0.02 -52.05616,-15.94439 -53.11646,-17.03561 -0.63037,-0.64874 -3.63354,-27.42236 -3.63354,-32.39343 0,-8.79818 4.49689,-8.7723 17.06532,0.0982 5.18907,3.66234 13.37218,9.31325 18.18468,12.55757 4.8125,3.24433 8.75,6.08375 8.75,6.30983 0,0.84861 -3.6224,-0.95 -7,-3.47568 -3.97473,-2.97219 -11.653,-8.17027 -23.2847,-15.76339 -6.26523,-4.08993 -8.37262,-5.00569 -9.78266,-4.25107 -2.65652,1.42173 -3.13488,4.08173 -2.00272,11.13641 0.55851,3.48015 1.2303,10.14216 1.49287,14.80446 0.34648,6.15238 0.91,8.79325 2.05498,9.63049 1.32045,0.96553 11.71004,4.48059 47.02223,15.90879 2.2,0.712 4.13797,1.16166 4.3066,0.99924 0.39738,-0.38273 -7.55605,-13.4781 -9.57882,-15.77157 -0.85187,-0.96587 -1.2699,-2.03507 -0.92897,-2.37601 0.34094,-0.34093 2.51784,2.35717 4.83756,5.99578 2.31972,3.63861 4.39619,6.43714 4.61439,6.21894 0.56482,-0.56482 -2.60522,-6.50115 -5.51766,-10.33258 -1.35876,-1.7875 -2.07956,-3.24913 -1.60179,-3.24806 0.96206,0.002 5.63708,6.79724 9.97465,14.49806 1.54897,2.75 4.4473,7.0843 6.44074,9.63178 2.87319,3.67173 3.96943,4.4387 5.28887,3.70031 1.06393,-0.59541 1.66443,-0.57068 1.66443,0.0685 0,0.55 -0.7875,1.45868 -1.75,2.01928 -1.52497,0.88822 -1.42732,1.0232 0.75946,1.04969 2.84877,0.0345 5.9656,-3.74893 4.05908,-4.92723 -0.73187,-0.45232 -0.33346,-1.34333 1.15783,-2.58945 1.2505,-1.04491 1.71113,-1.25928 1.02363,-0.47637 -2.37202,2.70119 -1.24064,3.11837 2,0.73747 1.7875,-1.31328 6.625,-3.16409 10.75,-4.11291 13.03476,-2.99822 20.05664,-5.36247 41,-13.80459 4.125,-1.66276 8.01144,-3.43492 8.63653,-3.93813 1.58688,-1.27746 2.35821,-10.47928 2.57084,-30.66978 0.10027,-9.52127 0.54464,-17.53533 0.98747,-17.80902 0.44284,-0.27368 0.85841,-2.60855 0.92348,-5.18859 0.0651,-2.58004 0.46483,-6.04099 0.88835,-7.69099 0.77576,-3.02227 0.39011,16.42061 -0.91241,46 -0.3875,8.8 -0.55973,16.195 -0.38274,16.43334 0.177,0.23833 0.85432,-0.0992 1.50515,-0.75 1.68417,-1.68418 3.26693,-1.47096 1.84038,0.24792 -0.65331,0.78719 -2.40406,1.39668 -3.89057,1.35441 -1.4865,-0.0423 -4.08621,0.63858 -5.77713,1.51299 -7.59297,3.92648 -35.2449,13.68112 -44.67718,15.76055 -3.38493,0.74624 -5.28488,1.58684 -4.57636,2.02472 0.66631,0.41181 -0.27671,0.67389 -2.0956,0.58241 -2.55018,-0.12827 -3.37577,0.2685 -3.60716,1.73356 -0.34981,2.21478 -2.23084,3.61493 -3.96332,2.95011 -2.0609,-0.79084 -2.66461,2.77298 -0.7371,4.35127 1.65056,1.35151 1.62188,1.41624 -0.43392,0.9793 l -2.20129,-0.46786 0.20129,29.12228 c 0.18696,27.04926 0.0765,29.14686 -1.55173,29.46755 -0.96416,0.1899 -1.94526,-0.25049 -2.18022,-0.97864 z m 2.31809,-24.57391 c -0.12257,-13.0625 -0.41614,-25.8753 -0.65239,-28.47289 -0.38844,-4.27103 -0.57821,-4.57421 -1.9835,-3.16892 -1.28445,1.28445 -1.38454,2.48878 -0.57707,6.94361 0.5373,2.9643 1.05685,10.24031 1.15457,16.16892 0.22449,13.6207 1.29735,32.27928 1.85604,32.27928 0.23386,0 0.32491,-10.6875 0.20235,-23.75 z m 7.24271,-40 c 1.24387,-1.58605 1.2085,-1.62142 -0.37756,-0.37755 -1.66574,1.30637 -2.19548,2.12755 -1.37244,2.12755 0.20765,0 0.99515,-0.7875 1.75,-1.75 z m -23.94422,-11.46666 c -0.71757,-0.71757 -1.18334,-0.77661 -1.18334,-0.15 0,0.56833 0.3,1.33333 0.66667,1.7 0.36667,0.36666 0.89917,0.43416 1.18333,0.15 0.28417,-0.28417 -0.0158,-1.04917 -0.66666,-1.7 z m 56.81666,73.83911 c 0,-0.20766 0.7875,-0.99516 1.75,-1.75 1.58606,-1.24387 1.62143,-1.2085 0.37756,0.37755 -1.30637,1.66575 -2.12756,2.19548 -2.12756,1.37245 z m 209.8125,-1.30556 c 0.72188,-0.28887 1.58438,-0.25335 1.91667,0.079 0.33229,0.33229 -0.25833,0.56864 -1.3125,0.52522 -1.16494,-0.048 -1.4019,-0.28494 -0.60417,-0.60417 z m -234.1375,-1.56689 c -1.55643,-1.13956 -1.50705,-1.26895 0.55887,-1.46446 4.83205,-0.4573 6.27782,-1.03435 6.58946,-2.63001 0.4034,-2.06557 -1.40267,-2.19413 -2.18495,-0.15553 -0.90401,2.35581 -3.56414,1.75704 -4.8635,-1.09474 -1.06088,-2.32839 -1.25677,-2.40537 -1.90827,-0.75 -0.58409,1.48409 -0.73978,1.31399 -0.79632,-0.87007 -0.12298,-4.75001 6.56095,-6.57746 9.37301,-2.56268 2.12332,3.03146 1.95421,6.37999 -0.4433,8.77749 -2.3121,2.31211 -3.92952,2.50389 -6.325,0.75 z m 4.76737,-0.65674 c 0.30821,-0.49871 -0.34023,-0.67122 -1.44099,-0.38337 -2.33498,0.61062 -2.63014,1.29011 -0.56039,1.29011 0.79254,0 1.69316,-0.40803 2.00138,-0.90674 z m 0.0566,-8.09501 c -0.33932,-0.54904 -1.82789,-0.94605 -3.30793,-0.88225 -1.69306,0.073 -2.04202,0.2856 -0.94099,0.57333 1.1112,0.29038 1.75,1.42436 1.75,3.1065 v 2.64919 l 1.55794,-2.22427 c 0.85686,-1.22334 1.2803,-2.67347 0.94098,-3.2225 z m 218.31358,9.31864 c 0.72188,-0.28887 1.58438,-0.25335 1.91667,0.079 0.33229,0.33229 -0.25833,0.56864 -1.3125,0.52522 -1.16494,-0.048 -1.4019,-0.28494 -0.60417,-0.60417 z m -255.98163,-1.56689 c -2.59647,-2.09204 -2.83001,-4.48137 -0.70241,-7.18617 3.42991,-4.36043 8.69088,-2.73978 6.4935,2.00033 -1.40866,3.03871 -3.20069,3.12186 -4.0053,0.18584 -0.51437,-1.87694 -0.77987,-2.00129 -1.60132,-0.75 -1.0545,1.60631 -1.3933,3.7113 -0.44465,2.76265 0.31388,-0.31388 1.75267,0.0425 3.19732,0.79202 1.90438,0.988 2.98482,1.06543 3.92931,0.28158 1.63664,-1.3583 1.72549,0.34094 0.10268,1.96375 -1.5588,1.55881 -5.00309,1.5341 -6.96913,-0.05 z m 4.16913,-0.13337 c 0,-0.21085 -0.90062,-0.61888 -2.00138,-0.90674 -1.10076,-0.28785 -1.7492,-0.11534 -1.44098,0.38337 0.53825,0.87091 3.44236,1.31245 3.44236,0.52337 z m -82,-12.61663 c -0.825,-0.53315 -1.05,-0.96937 -0.5,-0.96937 0.55,0 1.675,0.43622 2.5,0.96937 0.825,0.53316 1.05,0.96938 0.5,0.96938 -0.55,0 -1.675,-0.43622 -2.5,-0.96938 z m 75.21747,-5.25 c -2.41544,-2.93871 -1.79581,-7.32495 1.3235,-9.36879 3.52337,-2.30861 6.71658,-0.70699 8.19508,4.11042 0.6278,2.04557 0.87188,3.44964 0.5424,3.12015 -0.32948,-0.32948 -1.22744,0.29808 -1.99546,1.39458 -1.57775,2.25256 -6.45563,2.7023 -8.06552,0.74364 z m 6.58253,-0.95 c 0.66,-0.66 1.19311,-2.3475 1.18469,-3.75 -0.0113,-1.8839 -0.24836,-2.18186 -0.90748,-1.14068 -0.49069,0.77512 -0.65744,2.02101 -0.37054,2.76865 0.40994,1.06829 -0.0161,1.1549 -1.9897,0.40452 -2.92582,-1.11239 -4.1816,-0.34727 -2.58585,1.5755 1.37983,1.66259 3.0961,1.71479 4.66888,0.14201 z m -4.24236,-0.70674 c -0.30822,-0.49871 0.34022,-0.67122 1.44098,-0.38337 2.33499,0.61062 2.63015,1.29011 0.5604,1.29011 -0.79254,0 -1.69316,-0.40803 -2.00138,-0.90674 z m 0.71636,-3.89626 c 0.38124,1.04359 0.73979,1.05414 1.801,0.053 0.87507,-0.82553 0.98858,-1.58642 0.33427,-2.24073 -1.17047,-1.17047 -5.42698,1.4396 -5.37746,3.29744 0.0175,0.65631 0.64704,0.38194 1.399,-0.60971 1.01384,-1.33701 1.49022,-1.46624 1.84319,-0.5 z m 27.926,5.603 c -1.82907,-1.82907 -1.43192,-6.56807 0.73177,-8.73176 4.34017,-4.34017 10.87971,1.6606 8.20561,7.52959 -0.8358,1.83439 -1.87956,2.40217 -4.41594,2.40217 -1.82679,0 -3.86144,-0.54 -4.52144,-1.2 z m 7.58738,-1.6471 c 0.34848,-1.05725 0.0103,-1.11498 -1.57171,-0.26832 -1.59089,0.85142 -2.1422,0.74927 -2.61571,-0.48468 -0.91532,-2.38529 -0.71531,-4.58922 0.35637,-3.92689 0.52598,0.32507 0.70088,1.25673 0.38866,2.07036 -0.40228,1.04832 -0.0982,1.29917 1.04367,0.86098 1.98212,-0.76061 2.12469,-3.99338 0.20854,-4.72867 -3.31247,-1.27112 -6.21317,3.81861 -3.77188,6.61834 1.75055,2.00758 5.28135,1.92401 5.96206,-0.14112 z m -149.78738,-12.1529 c -1.29268,-0.8354 -1.26629,-0.97149 0.19099,-0.98468 0.93004,-0.008 1.96909,0.43468 2.30901,0.98468 0.78219,1.2656 -0.54162,1.2656 -2.5,0 z m 247.5,-1 c 0.33992,-0.55 1.06804,-1 1.61804,-1 0.55,0 0.72188,0.45 0.38196,1 -0.33992,0.55 -1.06803,1 -1.61803,1 -0.55,0 -0.72189,-0.45 -0.38197,-1 z m -244,-1 c -0.33992,-0.55 -0.14147,-1 0.44099,-1 0.58246,0 1.05901,0.45 1.05901,1 0,0.55 -0.19844,1 -0.44098,1 -0.24254,0 -0.7191,-0.45 -1.05902,-1 z m 131.76904,0.30701 c 0.97296,-0.25354 2.32296,-0.23687 3,0.0371 0.67703,0.27392 -0.11904,0.48136 -1.76904,0.46098 -1.65,-0.0204 -2.20393,-0.24449 -1.23096,-0.49804 z m 37.54346,-5.99012 c 0.72188,-0.28887 1.58438,-0.25335 1.91667,0.079 0.33229,0.33229 -0.25833,0.56864 -1.3125,0.52522 -1.16494,-0.048 -1.4019,-0.28494 -0.60417,-0.60417 z m -58.8125,-1.31689 -2.5,-0.80064 2.75,-0.0997 c 1.5125,-0.0548 2.75,0.35032 2.75,0.90032 0,0.55 -0.1125,0.95515 -0.25,0.90032 -0.1375,-0.0548 -1.375,-0.45997 -2.75,-0.90032 z M 200.49776,406.4913 c 0.97296,-0.25354 2.32296,-0.23687 3,0.0371 0.67703,0.27392 -0.11904,0.48136 -1.76904,0.46098 -1.65,-0.0204 -2.20393,-0.24449 -1.23096,-0.49804 z m 202.23096,-3.30701 c 1.1,-0.47268 2.675,-0.85943 3.5,-0.85943 0.94548,0 0.76064,0.31772 -0.5,0.85943 -1.1,0.47269 -2.675,0.85943 -3.5,0.85943 -0.94548,0 -0.76064,-0.31771 0.5,-0.85943 z m 40,-1 c 0.33992,-0.55 1.06804,-1 1.61804,-1 0.55,0 0.72188,0.45 0.38196,1 -0.33992,0.55 -1.06803,1 -1.61803,1 -0.55,0 -0.72189,-0.45 -0.38197,-1 z m 3.58334,-1.36454 c 0.22916,-0.2005 1.54166,-0.90033 2.91666,-1.55517 2.35727,-1.12264 2.38918,-1.10183 0.55887,0.36455 -1.59299,1.27625 -4.84786,2.39128 -3.47553,1.19062 z m -29.58334,-1.63546 c 1.1,-0.47268 2.675,-0.85943 3.5,-0.85943 0.94548,0 0.76064,0.31772 -0.5,0.85943 -1.1,0.47269 -2.675,0.85943 -3.5,0.85943 -0.94548,0 -0.76064,-0.31771 0.5,-0.85943 z m 29.5,-10.37755 c 0,-0.20766 0.7875,-0.99516 1.75,-1.75 1.58606,-1.24387 1.62143,-1.2085 0.37756,0.37755 -1.30637,1.66575 -2.12756,2.19548 -2.12756,1.37245 z M 320.6876,379.11776 c -0.36253,-0.58659 -0.44468,-1.281 -0.18255,-1.54313 0.26213,-0.26212 0.74307,0.21781 1.06875,1.06653 0.67618,1.76211 0.0999,2.07206 -0.8862,0.4766 z m 37.66087,-6.88689 c -4.89832,-2.50062 -9.96662,-5.34828 -11.26289,-6.32813 -1.29627,-0.97986 2.95516,0.98312 9.44763,4.36217 6.49247,3.37906 11.98097,5.96725 12.19668,5.75155 0.2157,-0.2157 -1.72132,-1.4902 -4.30449,-2.83222 -14.03798,-7.29306 -32.85803,-19.10324 -48.02499,-30.13718 -17.30991,-12.59293 -21.37407,-17.21981 -29.16287,-33.20062 -3.08514,-6.32999 -5.58146,-10.35362 -6.0017,-9.67367 -0.75525,1.22204 -5.00712,-5.01561 -5.00712,-7.34564 0,-1.95093 -2.1829,-3.64284 -4.7,-3.64284 -2.57257,0 -3.09369,-1.48145 -0.82707,-2.35123 1.90818,-0.73224 7.58669,4.0323 6.90939,5.79732 -0.28527,0.74338 -0.0892,1.61707 0.43582,1.94151 0.52497,0.32445 1.19732,-0.3387 1.49412,-1.47366 0.45019,-1.72154 0.8725,-1.88542 2.54795,-0.98875 1.10457,0.59115 2.75043,1.07481 3.65746,1.07481 1.41922,0 1.35424,-0.38341 -0.46604,-2.75 -10.66382,-13.86426 -19.12178,-29.25 -16.07952,-29.25 0.60879,0 4.80161,2.99359 9.31739,6.65243 5.81983,4.71541 7.15004,5.51614 4.56848,2.75 -7.84572,-8.40666 -14.80683,-27.23723 -14.8432,-40.15243 -0.013,-4.61584 0.23069,-5.25 2.01734,-5.25 1.11767,0 3.53481,0.62787 5.37143,1.39526 2.95611,1.23514 3.32538,1.21668 3.21788,-0.16084 -0.12811,-1.64173 7.41393,-4.17794 12.53474,-4.21513 2.43271,-0.0177 2.71401,0.40133 3.34383,4.98071 0.54705,3.97748 1.07108,5 2.56246,5 1.35144,0 1.70433,-0.4885 1.26419,-1.75 -0.5641,-1.61675 -0.4794,-1.6269 1.1124,-0.13326 1.50665,1.41373 2.30925,1.45517 6.39197,0.33004 2.56794,-0.70768 6.40247,-1.57673 8.52117,-1.93122 4.55637,-0.76234 4.10616,-1.7459 -0.9539,-2.08394 -6.80138,-0.45437 -7.20558,-4.43162 -0.45038,-4.43162 3.03374,0 3.801,-0.36378 3.69098,-1.75 -0.11644,-1.4672 0.71045,-1.74305 5.11694,-1.70699 3.92047,0.0321 4.80972,-0.20354 3.5,-0.9274 -0.96571,-0.53373 -2.22623,-1.60175 -2.80117,-2.37338 -0.85803,-1.15154 -2.38077,-1.21789 -8.49764,-0.37022 -8.04284,1.11456 -9.11561,0.74014 -9.54989,-3.3331 -0.23702,-2.22311 0.12507,-2.55362 2.91109,-2.65722 l 3.18178,-0.11832 -3,-0.63617 c -2.63342,-0.55845 -3.03905,-1.11276 -3.31958,-4.53637 -0.17578,-2.1451 -0.0664,-4.9089 0.24301,-6.14177 0.51073,-2.03492 0.90899,-2.16115 4.31959,-1.36918 2.06634,0.47983 5.38938,0.88315 7.38454,0.89627 4.25999,0.028 5.44419,1.18992 6.39425,6.27385 0.69866,3.73869 0.69063,3.74976 -2.66052,3.67106 -1.84871,-0.0434 -2.68629,-0.30408 -1.86129,-0.57923 0.825,-0.27516 2.175,-0.72177 3,-0.99248 1.31692,-0.43211 1.30936,-0.63604 -0.062,-1.67077 -0.85908,-0.64822 -1.85746,-1.96608 -2.21861,-2.92858 -0.47295,-1.26044 -1.76154,-1.75 -4.60624,-1.75 -2.17228,0 -4.66141,-0.27314 -5.53139,-0.60699 -1.28415,-0.49277 -1.58179,0.16581 -1.58179,3.5 0,4.16208 1.03136,5.00626 3.89845,3.19092 0.86444,-0.54734 1.87579,-0.44602 2.64851,0.26531 0.982,0.90398 0.78932,1.29023 -0.89844,1.80108 -1.20562,0.36492 0.78011,0.69407 4.52476,0.75 5.71959,0.0854 7.13449,0.48777 9.90056,2.81526 2.59583,2.18425 3.01582,2.32046 2.1465,0.69612 -0.64895,-1.21258 -0.72932,-2.58814 -0.20115,-3.44274 0.5574,-0.90189 0.38945,-1.98113 -0.45848,-2.94612 -0.73597,-0.83756 -1.64896,-2.98534 -2.02887,-4.77284 -0.69041,-3.24843 -0.68878,-3.25 3.38871,-3.25 2.2437,0 4.07945,0.37207 4.07945,0.82681 0,0.45474 -1.35,0.62867 -3,0.3865 -3.65648,-0.53666 -4.04846,1.63833 -0.99488,5.52033 1.3642,1.7343 1.69262,2.92564 1.02745,3.72712 -0.65485,0.78905 -0.32636,2.89215 0.99488,6.36936 2.363,6.21891 2.47585,8.16988 0.47255,8.16988 -0.825,0 -1.49311,-0.7875 -1.48468,-1.75 0.0132,-1.50678 0.15963,-1.54153 1.05375,-0.25 0.85652,1.23722 0.98283,1.14963 0.72099,-0.5 -0.17459,-1.1 -0.91644,-2 -1.64854,-2 -0.73211,0 -2.41121,-1.35 -3.73134,-3 -1.32013,-1.65 -2.40248,-2.38976 -2.40521,-1.64392 -0.003,0.74585 1.12003,2.24101 2.49503,3.32258 2.95114,2.32137 3.13081,3.622 0.75,5.4293 -2.30843,1.75235 -3.25,1.72107 -3.25,-0.10796 0,-1.08729 -1.03177,-1.46808 -3.75,-1.384 -2.0625,0.0638 -3.02877,0.30904 -2.14726,0.54497 1.11592,0.29867 1.45547,1.19927 1.11792,2.96507 -0.47678,2.49413 -0.40811,2.52462 4.14727,1.8415 3.82084,-0.57297 4.63207,-0.42237 4.63207,0.8599 0,0.85499 -0.45695,1.83694 -1.01544,2.18211 -1.22869,0.75937 -34.05345,6.23468 -38.98456,6.50279 -8.7197,0.4741 -10.83818,0.0849 -10.32015,-1.89608 0.35944,-1.37451 -0.38323,-2.32067 -2.74726,-3.5 -5.07553,-2.53201 -5.85259,-2.17138 -5.38781,2.50045 1.70893,17.17797 6.98261,29.14842 17.35063,39.38329 3.90008,3.85 7.09411,7.7875 7.09783,8.75 0.004,0.9625 -0.24782,1.75 -0.55898,1.75 -1.3937,0 -5.58655,-2.80406 -13.93426,-9.31883 -4.95,-3.86311 -8.31073,-6.15924 -7.46828,-5.1025 0.84244,1.05673 2.62076,3.94633 3.95182,6.42133 4.77073,8.87079 15.22102,21 18.09319,21 0.5078,0 0.92327,0.43886 0.92327,0.97525 0,0.62707 -0.89255,0.6359 -2.5,0.0247 -3.66028,-1.39163 -3.05446,-0.24821 0.75,1.41556 1.91502,0.83748 2.54216,1.4548 1.52675,1.50287 -1.49152,0.0706 -7.27077,-2.17146 -13.01318,-5.04846 -2.45163,-1.22829 -2.78852,-1.09857 -2.06224,0.79408 0.42935,1.11888 0.25527,1.42716 -0.53139,0.94098 -0.69464,-0.42931 -1.16994,-0.11367 -1.16994,0.77694 0,0.825 0.45,1.77811 1,2.11803 0.55,0.33992 1,0.11492 1,-0.5 0,-2.54438 2.41847,0.70312 5.8605,7.86943 9.09091,18.92729 16.55792,26.43069 47.81126,48.04428 9.90128,6.84734 19.41872,11.91762 21.21613,11.3026 0.76334,-0.2612 1.79618,0.25467 2.2952,1.14636 0.49902,0.8917 4.2798,3.26577 8.40174,5.27571 6.88708,3.35829 7.79899,3.5632 11.25242,2.52853 7.62697,-2.28509 17.81143,-10.88803 34.24392,-28.92626 13.62347,-14.95472 22.64067,-24.80315 24.26758,-26.50465 1.55893,-1.63039 5.37969,-9.24122 8.65275,-17.236 3.04192,-7.43021 8.9985,-28.76874 8.9985,-32.23575 0,-1.3992 -0.19457,-1.40886 -1.75,-0.0869 -1.98324,1.68558 -8.53222,4.82264 -10.06779,4.82264 -2.45457,0 -1.5688,-2.847 2.22131,-7.13966 3.68345,-4.17186 5.89258,-7.94282 10.99241,-18.76398 1.93157,-4.09854 1.99069,-4.65437 0.35407,-3.32887 -0.6875,0.5568 -5.975,3.41725 -11.75,6.35656 -15.18484,7.72862 -17.35162,7.39763 -9.40833,-1.43723 7.91359,-8.80181 13.26444,-22.22206 14.98338,-37.57917 l 0.7155,-6.39235 -3.22216,1.89235 c -4.50818,2.64763 -5.69452,4.2347 -2.7438,3.67064 1.68849,-0.32278 2.34208,0.0114 2.34208,1.1975 0,2.34526 -4.03202,4.09706 -12.66667,5.50333 -4.125,0.67181 -9.94514,1.62634 -12.93366,2.12118 -7.74034,1.28164 -21.54699,1.00098 -28.56634,-0.58069 -5.29947,-1.19414 -5.59135,-1.37715 -2.5,-1.56744 l 3.5,-0.21545 -3.5,-0.73672 c -3.25521,-0.68519 -3.13281,-0.74592 1.75,-0.86836 5.02125,-0.1259 7.66939,-2.06348 3,-2.19502 l -2.25,-0.0634 2.25,-0.90439 c 1.2375,-0.49741 2.25,-1.19267 2.25,-1.54502 0,-0.96341 -5.385,0.5811 -6.10871,1.75209 -0.85073,1.3765 -9.74965,1.86228 -10.54485,0.57562 -0.34874,-0.56428 0.44314,-1.8542 1.75974,-2.86651 2.38496,-1.83373 2.38571,-1.84063 0.20284,-1.86278 -1.20504,-0.0122 -2.44264,-0.42943 -2.75023,-0.92711 -0.31783,-0.51427 1.16755,-0.67326 3.44099,-0.36833 2.56831,0.34448 4.00022,0.14268 4.00022,-0.56374 0,-0.63107 -0.74628,-0.8206 -1.75,-0.44444 -1.54139,0.57767 -1.58401,0.45184 -0.3575,-1.05555 0.76588,-0.94127 1.63587,-1.46803 1.93332,-1.17058 0.29745,0.29745 1.12882,-0.85763 1.84749,-2.56684 0.71867,-1.70921 2.20612,-3.34286 3.30544,-3.63034 1.09932,-0.28748 1.7457,-0.93214 1.43641,-1.43258 -0.32199,-0.52099 1.28565,-0.69289 3.76125,-0.40218 3.22057,0.37819 3.6858,0.28704 1.82359,-0.35732 -1.68881,-0.58436 -0.0664,-0.74635 5,-0.49922 4.96188,0.24203 6.65396,0.0791 5,-0.48144 -2.60452,-0.8827 -1.78628,-1.64289 2.5,-2.32264 1.5749,-0.24976 2.06536,-1.21869 2.3075,-4.55855 0.16913,-2.33276 -0.01,-4.24138 -0.39733,-4.24138 -1.3113,0 -12.90105,4.33083 -14.16017,5.29134 -1.96399,1.49822 -1.46573,2.55905 1,2.12905 1.2375,-0.2158 0.7875,0.11643 -1,0.73828 -1.7875,0.62186 -3.25,1.51556 -3.25,1.98599 0,0.47044 -0.63416,0.85534 -1.40925,0.85534 -1.96829,0 1.87183,-7.89514 4.20652,-8.64844 0.9365,-0.30217 4.57906,-1.65354 8.09456,-3.00304 8.76416,-3.36432 9.42404,-2.94436 8.93631,5.68727 -0.31807,5.62904 -0.12679,6.90906 0.9696,6.48833 0.75121,-0.28826 1.58059,-0.52412 1.84307,-0.52412 0.26247,0 0.1836,-0.4751 -0.17529,-1.05579 -0.70241,-1.13652 3.12211,-11.68566 4.93515,-13.6126 0.60463,-0.64262 2.22433,-1.31762 3.59933,-1.5 2.46025,-0.32633 2.51488,-0.18053 3.4357,9.16839 l 0.9357,9.5 0.78935,-5.5 c 1.30727,-9.10864 2.23498,-11.38413 4.90318,-12.02647 l 2.43607,-0.58647 -2.25,-0.59991 c -2.08209,-0.55514 -2.25,-1.16424 -2.25,-8.16214 0,-6.08226 0.27485,-7.45677 1.40436,-7.02333 1.55454,0.59653 5.6014,10.60034 5.84474,14.44817 0.0852,1.34758 0.45889,2.67515 0.83037,2.95015 0.89129,0.65982 6.92053,18.30366 6.92053,20.25211 0,2.26628 -4.44682,2.68868 -11.87707,1.1282 -3.64261,-0.765 -7.29793,-1.11692 -8.12293,-0.78203 -0.825,0.33488 -8.925,1.43201 -18,2.43805 -17.05979,1.89123 -24,3.54195 -24,5.70836 0,0.69042 -0.525,1.25531 -1.16666,1.25531 -0.64167,0 -0.87754,0.28913 -0.52417,0.6425 0.35338,0.35338 1.29033,0.10485 2.08212,-0.55228 0.7918,-0.65713 3.38768,-1.28375 5.76863,-1.3925 l 4.32901,-0.19772 1.08528,4.5 c 1.28047,5.30928 1.95129,5.52598 13.99973,4.52235 8.11577,-0.67604 8.11906,-0.67748 7.61296,-3.32497 -0.50238,-2.62806 -0.51403,-2.63134 -1.49942,-0.42301 -1.10663,2.48004 -3.24221,3.11363 -2.31044,0.68546 0.41076,-1.0704 0.0621,-1.45166 -1.14301,-1.25 -1.14373,0.19139 -1.84123,-0.46373 -2.04895,-1.92448 -0.23605,-1.66006 0.31316,-2.37229 2.19317,-2.84414 1.37944,-0.34622 2.98366,-0.33557 3.56492,0.0237 0.61174,0.37808 1.05683,-0.21401 1.05683,-1.40586 0,-1.13246 0.5625,-2.08414 1.25,-2.11485 3.46708,-0.15488 11.51636,-0.20388 13.5,-0.0822 2.55841,0.15694 3.14143,3.73738 1,6.14117 -0.6875,0.77173 0.70991,-0.30492 3.10534,-2.39257 4.45741,-3.88466 10.02689,-6.8014 11.38476,-5.96219 1.29925,0.80298 0.83562,11.1239 -0.82833,18.43975 -2.11918,9.3173 -5.49465,17.71853 -9.39908,23.39343 -1.76301,2.56244 -3.03799,4.82646 -2.83329,5.03116 0.20469,0.20469 4.84004,-1.82165 10.30076,-4.50298 9.43844,-4.63448 11.51984,-5.15904 11.51984,-2.90323 0,2.82232 -10.24846,22.23986 -13.17448,24.96139 l -3.32552,3.09312 5.38658,-3.13509 c 2.96261,-1.72431 5.95577,-2.91668 6.65146,-2.64971 0.69569,0.26696 1.4921,-0.38348 1.76981,-1.44542 0.2777,-1.06195 1.24025,-1.93081 2.139,-1.93081 1.29157,0 1.10159,0.57428 -0.90638,2.73978 -1.39726,1.50688 -2.54047,3.75043 -2.54047,4.98565 0,2.09814 -0.5318,4.80103 -2.90693,14.77457 -2.3234,9.75632 -4.41453,16.13176 -7.1295,21.7365 -1.60555,3.31447 -2.68336,6.40787 -2.39513,6.87424 0.65336,1.05715 -1.51689,5.27415 -2.30745,4.48359 -0.71397,-0.71398 -3.26099,1.30672 -3.26099,2.58713 0,0.51512 0.5625,0.61287 1.25,0.21723 0.6875,-0.39563 0.89948,-0.33417 0.47106,0.1366 -0.42842,0.47076 -1.51972,0.96466 -2.42511,1.09754 -0.9054,0.13288 -2.04359,0.95176 -2.52933,1.81972 -0.48574,0.86796 -1.86944,2.53759 -3.07489,3.71028 -1.79664,1.74781 -1.86691,2.0175 -0.38979,1.49612 1.13611,-0.40102 1.56062,-0.24557 1.14885,0.42068 -0.3592,0.5812 -1.2664,0.82137 -2.01601,0.53372 -1.33472,-0.51218 -5.8496,4.63849 -4.8991,5.589 0.26212,0.26212 -0.42617,1.29357 -1.52955,2.2921 -1.10337,0.99854 -2.00613,1.45104 -2.00613,1.00555 0,-0.44548 -0.9,0.005 -2,1 -2.19554,1.98694 -2.74324,4.07178 -0.75,2.85492 0.6875,-0.41972 -1.40182,2.2644 -4.64294,5.9647 -3.24112,3.7003 -6.15309,6.46768 -6.47104,6.14973 -0.31795,-0.31795 -0.14113,-0.90323 0.39294,-1.30062 0.53408,-0.39739 2.99093,-2.96043 5.45967,-5.69563 2.46874,-2.7352 -0.10753,-0.49272 -5.72506,4.9833 -5.61753,5.47601 -9.7738,10.22826 -9.23616,10.56054 0.91248,0.56394 -1.14419,2.7871 -6.9493,7.51188 -1.33204,1.08415 -2.0569,1.3503 -1.61081,0.59145 0.557,-0.94749 0.37589,-1.23466 -0.5781,-0.91667 -0.76406,0.25469 -1.39609,0.87557 -1.40451,1.37974 -0.0263,1.57324 -1.54894,3.4181 -2.7937,3.38486 -0.65504,-0.0175 -0.31748,-0.69249 0.75014,-1.5 2.70515,-2.04607 1.2688,-1.83277 -2.71108,0.4026 -1.97573,1.10969 -6.05117,2.04401 -10.01754,2.29657 -6.3456,0.40406 -7.14109,0.19383 -15.59276,-4.12079 z m 39.79192,-7.79658 c 0.23192,-0.1375 0.20341,-0.46826 -0.0634,-0.73502 -0.26676,-0.26676 -2.02926,1.1948 -3.91667,3.24791 l -3.43165,3.73292 3.49501,-2.9979 c 1.92225,-1.64885 3.68475,-3.11041 3.91666,-3.24791 z m 26.21589,-28 c 1.24387,-1.58605 1.2085,-1.62142 -0.37756,-0.37755 -0.9625,0.75484 -1.75,1.54234 -1.75,1.75 0,0.82303 0.82119,0.2933 2.12756,-1.37245 z m 18.84182,-22.75 c 0,-0.55 -0.43622,-0.325 -0.96938,0.5 -0.53315,0.825 -0.96937,1.95 -0.96937,2.5 0,0.55 0.43622,0.325 0.96937,-0.5 0.53316,-0.825 0.96938,-1.95 0.96938,-2.5 z M 293.22872,279.85861 c 0,-0.17913 -1.2375,-1.41663 -2.75,-2.75 l -2.75,-2.42432 2.42432,2.75 c 2.26588,2.57029 3.07568,3.20859 3.07568,2.42432 z m 143.12756,-27.42432 c 1.24387,-1.58605 1.2085,-1.62142 -0.37756,-0.37755 -1.66574,1.30637 -2.19548,2.12755 -1.37244,2.12755 0.20765,0 0.99515,-0.7875 1.75,-1.75 z m -152.26677,-21.32597 -2.36079,-2.07597 2.5,0.60004 c 7.97254,1.91356 8,1.91222 8,-0.39048 0,-1.7766 -0.42671,-2.08379 -2.25,-1.61973 l -2.25,0.57265 2.25,-1.15808 c 3.6498,-1.87857 2.62873,-3.08715 -2,-2.3673 -7.05135,1.0966 -7.5882,1.3856 -7.05837,3.79963 0.93533,4.26153 1.26128,4.71521 3.38777,4.71521 2.11936,0 2.11703,-0.0221 -0.21861,-2.07597 z m 37.86838,-2.52819 c -0.33229,-0.3323 -1.19479,-0.36782 -1.91667,-0.0789 -0.79773,0.31923 -0.56077,0.55618 0.60417,0.60417 1.05417,0.0434 1.64479,-0.19293 1.3125,-0.52522 z m 4,-1 c -0.33229,-0.3323 -1.19479,-0.36782 -1.91667,-0.0789 -0.79773,0.31923 -0.56077,0.55618 0.60417,0.60417 1.05417,0.0434 1.64479,-0.19293 1.3125,-0.52522 z m 72.53987,-9.05177 c -0.67704,-0.27393 -2.02704,-0.2906 -3,-0.0371 -0.97297,0.25355 -0.41904,0.47766 1.23096,0.49804 1.65,0.0204 2.44607,-0.18706 1.76904,-0.46098 z m 31.1018,-1.13508 c 0.26888,-0.43505 -1.05456,-0.61082 -2.94098,-0.39059 -1.88642,0.22023 -3.42986,0.57618 -3.42986,0.79101 0,0.75258 5.88692,0.38258 6.37084,-0.40042 z m 2.41103,-3.87477 c 1.25502,-0.78214 1.973,-1.92184 1.59549,-2.53266 -0.39997,-0.64717 -0.23347,-0.83066 0.39904,-0.43975 1.1053,0.68311 2.82914,-1.08961 1.93198,-1.98677 -0.80037,-0.80036 -10.72334,-1.48382 -11.80825,-0.81331 -0.64226,0.39694 -0.58041,1.11858 0.17376,2.0273 0.84189,1.01442 0.85554,1.41097 0.0486,1.41097 -0.61735,0 -1.12245,1.11375 -1.12245,2.475 0,2.24807 0.29799,2.42028 3.25,1.87816 1.7875,-0.32827 4.27684,-1.23679 5.53187,-2.01894 z m -3.96937,-3.01733 c 0.72188,-0.28887 1.58438,-0.25335 1.91667,0.0789 0.33229,0.33229 -0.25833,0.56864 -1.3125,0.52522 -1.16494,-0.048 -1.4019,-0.28494 -0.60417,-0.60417 z m 13.43127,4.01876 c -0.69092,-0.27856 -1.00505,-0.91288 -0.69806,-1.4096 0.30699,-0.49673 -0.17793,-0.62067 -1.07761,-0.27543 -1.30918,0.50238 -1.36947,0.79653 -0.30194,1.47323 0.73361,0.46504 1.78384,0.81689 2.33384,0.78189 0.55,-0.035 0.4347,-0.29154 -0.25623,-0.57009 z m -122.36877,-2.36606 c 4.29455,-0.0232 5.21271,-0.27058 3.88187,-1.04584 -2.61828,-1.52525 -14.99035,-0.74764 -15.5611,0.97804 -0.36131,1.09243 0.25559,1.25794 2.7953,0.75 1.79242,-0.35848 5.79018,-0.66547 8.88393,-0.6822 z m 77.69321,-8.90076 c 2.71249,-0.54342 8.53179,-1.23388 12.93179,-1.53436 7.62025,-0.52039 12.26554,-1.08891 17.25,-2.11113 1.2375,-0.25379 2.25,-1.17263 2.25,-2.04187 0,-1.28127 -0.88313,-1.4923 -4.66552,-1.11483 -2.71726,0.27117 -5.16442,1.14789 -5.86024,2.09948 -1.52258,2.08226 -3.42529,2.08308 -4.94692,0.002 -1.05171,-1.43831 -2.01316,-1.49467 -8.11024,-0.47545 -11.80419,1.97326 -12.32423,2.16661 -14.61435,5.43366 -1.22352,1.74545 -1.53648,2.62384 -0.69545,1.95197 0.84102,-0.67186 3.74844,-1.66618 6.46093,-2.2096 z m 50.43179,-3.20903 c 0,-0.62711 -1.16759,-4.6603 -2.59464,-8.96265 -1.85053,-5.57905 -3.16996,-8.00505 -4.60067,-8.45914 -2.77777,-0.88163 -3.94579,0.63424 -4.53816,5.88969 -0.46505,4.12592 -0.30955,4.53912 1.86304,4.95079 2.07096,0.3924 1.99142,0.47895 -0.62957,0.68501 -2.97278,0.23372 -2.97731,0.24313 -0.5,1.0365 2.26691,0.72599 2.30019,0.80994 0.35699,0.90032 -1.17865,0.0548 -2.40203,0.77468 -2.71861,1.59968 -0.43037,1.12153 0.15852,1.5 2.33399,1.5 1.60028,0 3.18771,0.45 3.52763,1 0.85805,1.38835 7.5,1.26419 7.5,-0.1402 z m -19.75,-5.56553 c -1.2375,-0.23835 -3.2625,-0.23835 -4.5,0 -1.2375,0.23835 -0.225,0.43337 2.25,0.43337 2.475,0 3.4875,-0.19502 2.25,-0.43337 z m 0.75,-7.3776 c 0,-6.90972 -1.42437,-7.54729 -4.12075,-1.84451 -3.44853,7.29356 -3.40425,7.92784 0.55337,7.92784 h 3.56738 z m 10.69921,-13.54509 c -0.61248,-1.99563 -1.28929,-3.10131 -1.50404,-2.45708 -0.56387,1.6916 0.68545,6.0855 1.73028,6.0855 0.48805,0 0.38624,-1.63279 -0.22624,-3.62842 z m -2.03693,-7.62158 c -0.27741,-0.6875 -0.50438,-0.125 -0.50438,1.25 0,1.375 0.22697,1.9375 0.50438,1.25 0.27742,-0.6875 0.27742,-1.8125 0,-2.5 z M 318.85226,374.64563 c -0.96498,-2.51469 -0.68031,-3.16355 0.49854,-1.13633 0.58369,1.00375 0.85059,2.03565 0.59313,2.29312 -0.25747,0.25747 -0.74872,-0.26308 -1.09167,-1.15679 z m 1.4702,-3.15496 c -0.91478,-2.00772 -1.44284,-2.35955 -2.05496,-1.36913 -0.63782,1.03202 -1.07383,0.86577 -1.93129,-0.73641 -1.57847,-2.9494 -1.31185,-4.05512 0.42432,-1.75971 2.05138,2.71217 1.82914,0.54865 -0.56846,-5.53412 -1.12016,-2.84187 -1.80775,-5.39594 -1.52798,-5.67571 0.47607,-0.47607 1.00621,0.71505 3.68019,8.2687 0.5841,1.65 1.74089,4.26866 2.57065,5.81924 0.82976,1.55057 1.31291,3.01498 1.07367,3.25422 -0.23925,0.23925 -0.98901,-0.78094 -1.66614,-2.26708 z m 129.90626,1.30061 c 0,-0.21615 0.69838,-0.661 1.55194,-0.98854 0.88993,-0.3415 1.29132,-0.17385 0.94098,0.39301 -0.58725,0.9502 -2.49292,1.40544 -2.49292,0.59553 z m -19.39926,-8.10699 c 0.35301,-2.2 1.08467,-4.45 1.62591,-5 0.64644,-0.65691 0.737,0.2008 0.26394,2.5 -1.07646,5.23193 -2.66553,7.33404 -1.88985,2.5 z m -2.5673,1.5 c -0.0151,-0.275 0.89819,-5.225 2.02946,-11 1.13126,-5.775 2.26495,-12.06255 2.51931,-13.97234 0.25436,-1.90978 0.93426,-3.93478 1.5109,-4.5 0.72783,-0.71342 0.88263,-0.26321 0.50624,1.47234 -0.29819,1.375 -1.5207,7.675 -2.71669,14 -1.77452,9.38461 -3.71539,16.44373 -3.84922,14 z m 19.62816,-2.61829 c -1.56113,-0.84603 -2.61545,-1.76119 -2.34293,-2.0337 0.53348,-0.53349 6.68133,2.39046 6.68133,3.17767 0,0.81785 -1.3991,0.44893 -4.3384,-1.14397 z m 0.8384,-2.85562 c -2.2,-1.35502 -3.74702,-2.47771 -3.43783,-2.49488 0.92443,-0.0513 8.93783,3.9762 8.93783,4.49213 0,0.98161 -1.61674,0.39451 -5.5,-1.99725 z m -99.5,0.47391 c -0.90129,-0.58246 -1.02463,-0.97548 -0.30901,-0.98468 0.65504,-0.008 1.46909,0.43468 1.80901,0.98468 0.76731,1.24153 0.42113,1.24153 -1.5,0 z m -36.33333,-0.66666 c -0.36667,-0.36667 -0.66667,-1.13167 -0.66667,-1.7 0,-0.62661 0.46577,-0.56757 1.18334,0.15 0.65083,0.65083 0.95083,1.41583 0.66666,1.7 -0.28416,0.28416 -0.81666,0.21666 -1.18333,-0.15 z m 89.88403,-0.60485 c 0.26836,-0.69933 1.49173,-1.88348 2.71861,-2.63144 2.12746,-1.297 2.1185,-1.23815 -0.19362,1.27151 -2.70692,2.9382 -3.24101,3.22585 -2.52499,1.35993 z m 29.5643,-3.22849 c 0.0464,-1.1 0.44465,-3.125 0.885,-4.5 0.78459,-2.44987 0.80234,-2.43984 0.88501,0.5 0.0464,1.65 -0.35185,3.675 -0.88501,4.5 -0.79859,1.23573 -0.95451,1.14764 -0.885,-0.5 z m -91.12994,-1.54615 c -1.36678,-1.05016 -2.03506,-1.90507 -1.48506,-1.89981 1.32306,0.0127 4.97756,2.80174 4.41206,3.36724 -0.24306,0.24306 -1.56021,-0.41728 -2.927,-1.46743 z m -28.98506,-2.45385 c -0.58077,-1.52755 -0.83095,-3.00237 -0.55595,-3.27737 0.275,-0.275 0.97518,0.74982 1.55595,2.27737 0.58078,1.52756 0.83096,3.00238 0.55596,3.27738 -0.275,0.275 -0.97518,-0.74982 -1.55596,-2.27738 z m -33,1.1135 c 0,-0.21257 1.32624,-0.58115 2.94719,-0.81905 1.62095,-0.23791 2.7194,-0.064 2.44098,0.3865 -0.49551,0.80176 -5.38817,1.19453 -5.38817,0.43255 z m 30,-1.1135 c -0.70675,-0.85158 -1.06,-1.77333 -0.785,-2.04833 0.275,-0.275 1.07825,0.19675 1.785,1.04833 0.70675,0.85159 1.06,1.77333 0.785,2.04833 -0.275,0.275 -1.07825,-0.19674 -1.785,-1.04833 z m 108,0.84897 c 0,-0.51869 1.90107,-2.7219 4.22461,-4.89602 2.32353,-2.17412 3.33603,-2.86739 2.25,-1.5406 -4.02781,4.9207 -6.47461,7.35315 -6.47461,6.43662 z m -137.5,-2.34897 c 0.33992,-0.55 0.81648,-1 1.05902,-1 0.24254,0 0.44098,0.45 0.44098,1 0,0.55 -0.47655,1 -1.05901,1 -0.58246,0 -0.78091,-0.45 -0.44099,-1 z m 56.52896,0.0391 c -0.80907,-0.51167 -1.21069,-1.19065 -0.8925,-1.50885 0.3182,-0.3182 1.14777,0.10734 1.84349,0.94563 1.44259,1.73822 1.16598,1.90204 -0.95099,0.56322 z m -50.87106,-3.03906 c 0,-1.375 0.22697,-1.9375 0.50438,-1.25 0.27742,0.6875 0.27742,1.8125 0,2.5 -0.27741,0.6875 -0.50438,0.125 -0.50438,-1.25 z m 148.8421,-0.19684 c 0,-0.8416 0.43456,-3.82158 0.96568,-6.62218 0.53112,-2.8006 1.0731,-6.68702 1.20439,-8.63649 0.13129,-1.94947 0.59673,-3.54449 1.03432,-3.54449 1.14788,0 0.99133,2.47539 -0.72318,11.43529 -1.45172,7.58659 -2.48121,10.64361 -2.48121,7.36787 z m -152,-0.68512 c 0,-0.55 0.45,-1.27812 1,-1.61804 0.55,-0.33992 1,-0.16803 1,0.38197 0,0.55 -0.45,1.27811 -1,1.61803 -0.55,0.33992 -1,0.16804 -1,-0.38196 z m 48,-1.11804 c -0.90129,-0.58246 -1.02463,-0.97548 -0.30901,-0.98468 0.65504,-0.008 1.46909,0.43468 1.80901,0.98468 0.76731,1.24153 0.42113,1.24153 -1.5,0 z m -3.79633,-4.04548 c -0.67134,-1.07498 -0.81495,-1.95452 -0.31913,-1.95452 0.89778,0 2.44392,3.00488 1.85115,3.59765 -0.17127,0.17127 -0.86067,-0.56814 -1.53202,-1.64313 z m 111.79633,-14.95452 c 0,-0.55 0.47656,-1 1.05902,-1 0.58246,0 0.7809,0.45 0.44098,1 -0.33992,0.55 -0.81647,1 -1.05901,1 -0.24254,0 -0.44099,-0.45 -0.44099,-1 z m -88.81025,-5.74678 c 0.35361,-1.83612 6.07526,-5.12326 9.06025,-5.20519 3.16773,-0.0869 1.9589,3.48193 -1.78392,5.26676 -4.69841,2.24051 -7.71475,2.21499 -7.27633,-0.0616 z m 6.81025,-1.75322 c 1.375,-0.78602 2.05,-1.42913 1.5,-1.42913 -0.55,0 -2.125,0.64311 -3.5,1.42913 -1.375,0.78602 -2.05,1.42913 -1.5,1.42913 0.55,0 2.125,-0.64311 3.5,-1.42913 z m 30.5,-0.55737 c -2.2,-0.45505 -6.5875,-0.8533 -9.75,-0.885 -5.17051,-0.0518 -5.75,-0.27091 -5.75,-2.17393 0,-2.04077 0.35696,-2.10197 9.99962,-1.71467 7.48067,0.30046 10.40738,0.80939 11.61832,2.02034 1.68717,1.68717 1.1335,3.89459 -0.92695,3.69563 -0.65504,-0.0633 -2.99099,-0.48731 -5.19099,-0.94237 z m 0.75,-2.60491 c -0.6875,-0.27741 -1.8125,-0.27741 -2.5,0 -0.6875,0.27741 -0.125,0.50439 1.25,0.50439 1.375,0 1.9375,-0.22698 1.25,-0.50439 z m -7.48834,-1.0248 c -0.95608,-0.25029 -2.75608,-0.25937 -4,-0.0202 -1.24391,0.2392 -0.46166,0.44398 1.73834,0.45508 2.2,0.0111 3.21775,-0.1846 2.26166,-0.4349 z m -97.8587,0.61761 c -6.99124,-1.09646 -10.19084,-3.20938 -20.60578,-13.60741 l -9.57494,-9.55938 1.62804,-4.63187 1.62804,-4.63187 -0.39294,4.24211 c -0.37955,4.09746 -0.14902,4.49118 6.76084,11.54688 11.32155,11.56051 15.8261,14.81596 20.9817,15.16354 l 4.43453,0.29897 -2.91151,-5.53488 c -1.60134,-3.04418 -2.76058,-5.98769 -2.5761,-6.54113 0.18448,-0.55345 1.88118,1.97509 3.77044,5.61897 2.19355,4.23077 3.07717,6.93819 2.44487,7.49114 -0.54458,0.47625 -3.05882,0.54147 -5.58719,0.14493 z m 17.74768,-1.02559 c -2.58768,-3.02219 -1.43135,-3.36488 1.35307,-0.40099 1.28971,1.37283 1.91649,2.49605 1.39285,2.49605 -0.52364,0 -1.75931,-0.94277 -2.74592,-2.09506 z m -3.98397,-4.5716 c -0.36667,-0.36667 -0.65298,-1.37917 -0.63626,-2.25 0.025,-1.30031 0.22011,-1.25711 1.09167,0.24167 1.07677,1.85169 0.7646,3.22834 -0.45541,2.00833 z m -21.16667,-6.33334 c -1.00159,-1.10674 -1.59607,-2.23726 -1.32107,-2.51226 0.275,-0.275 1.31948,0.40552 2.32107,1.51226 1.00159,1.10675 1.59608,2.23726 1.32108,2.51226 -0.275,0.275 -1.31949,-0.40551 -2.32108,-1.51226 z m 15.73206,-1.75 c -2.58891,-3.73899 -3.43046,-5.25 -2.92396,-5.25 0.23437,0 1.61731,1.8 3.07321,4 2.95891,4.47122 2.82982,5.55245 -0.14925,1.25 z m -14.30774,-0.88571 c -2.2301,-2.42457 -2.25349,-2.54696 -0.29197,-1.52778 1.1728,0.60936 2.39617,1.79543 2.71862,2.63571 0.81818,2.13215 0.36197,1.92386 -2.42665,-1.10793 z m -7.92432,-2.84558 c -4.19977,-2.69568 -12,-10.13994 -12,-11.45238 0,-0.51474 2.44566,1.50976 5.43479,4.49889 2.98913,2.98913 6.02663,5.43357 6.75,5.43208 0.72337,-0.001 -0.70979,-1.7823 -3.18479,-3.95736 -2.475,-2.17507 -4.02882,-3.97385 -3.45294,-3.9973 0.57587,-0.0234 2.8047,1.75736 4.95294,3.95736 2.14825,2.2 3.47707,4.01431 2.95295,4.03181 -0.52412,0.0175 -0.0858,0.68784 0.97405,1.48966 3.18833,2.41212 1.33201,2.41 -2.427,-0.003 z m 6.48361,-2.54523 c -0.34893,-0.56458 -1.24598,-0.90208 -1.99344,-0.75 -0.74746,0.15209 -1.31248,0.0515 -1.25561,-0.22348 0.0569,-0.275 -0.43847,-1.5125 -1.10076,-2.75 -0.66229,-1.2375 -0.96725,-2.25 -0.67768,-2.25 0.56978,0 6.54388,6.06945 6.54388,6.64832 0,0.7195 -0.90301,0.31763 -1.51639,-0.67484 z m 177.51639,-2.89814 c 0,-1.19606 0.63891,-3.38981 1.4198,-4.875 1.41994,-2.70062 10.5802,-12.19465 10.5802,-10.96571 0,1.7996 -4.39569,7.75619 -6.12989,8.3066 -1.75182,0.55601 -3.87011,4.07325 -3.87011,6.426 0,0.97979 8.71262,-1.48383 10.50329,-2.96996 0.67165,-0.55742 2.40666,-3.29844 3.85557,-6.09115 2.32686,-4.48492 2.47187,-5.30971 1.24217,-7.06534 -0.87643,-1.25128 -1.63799,-1.58998 -2.05564,-0.91422 -0.36488,0.59039 -1.15661,1.07344 -1.75939,1.07344 -0.60278,0 -0.27258,-0.90984 0.7338,-2.02187 1.73247,-1.91436 1.74071,-2.20863 0.15499,-5.53393 -0.92113,-1.93163 -1.67479,-4.21993 -1.67479,-5.08511 0,-1.01973 -0.55318,-1.36079 -1.57265,-0.96958 -1.11616,0.42831 -1.47502,0.0965 -1.2363,-1.14301 0.65746,-3.41393 2.98997,-1.66766 4.8581,3.6371 1.68225,4.77691 2.74918,6.72421 6.41362,11.70575 0.66191,0.89982 0.22118,2.65277 -1.41041,5.60973 -5.33994,9.67763 -6.14323,10.2691 -16.85684,12.41182 -2.81032,0.56206 -3.19552,0.37697 -3.19552,-1.53556 z m -185.81688,-6.47039 c 0.17429,-0.87767 -1.03312,-2.68249 -2.68312,-4.01072 -3.84966,-3.09892 -2.60105,-4.51443 1.44243,-1.63522 3.05249,2.17356 4.00865,5.33516 1.99069,6.58233 -0.61942,0.38282 -0.93398,-0.01 -0.75,-0.93639 z m -20.81716,-2.40932 c -3.0301,-1.95871 -4.59717,-12.68463 -2.77881,-19.01981 l 1.34208,-4.67582 -0.5546,6.50245 c -0.43715,5.12534 -0.117,7.65411 1.51166,11.9404 2.17114,5.71399 2.23249,6.38584 0.47967,5.25278 z m 2.18242,-3.94563 c -0.31579,-2.6125 -1.01837,-7.50188 -1.56127,-10.86529 -1.28998,-7.99166 -1.1486,-9.70489 0.44435,-5.38471 0.70979,1.925 1.61848,7.4375 2.01931,12.25 0.76426,9.17609 0.0865,12.18057 -0.90239,4 z m 107.767,3.74302 c -2.00285,-0.80696 -4.31538,-3.80875 -4.31538,-5.60159 0,-0.40703 1.10211,0.29532 2.44912,1.56077 1.46189,1.37337 3.09521,2.0529 4.05194,1.68577 0.93005,-0.35689 1.34637,-0.20012 0.99186,0.37349 -0.33602,0.5437 0.0761,0.98854 0.91584,0.98854 1.16329,0 1.32863,-0.53568 0.69447,-2.25 -0.45779,-1.2375 -1.23078,-2.25682 -1.71778,-2.26515 -0.487,-0.008 -2.01045,-1.15174 -3.38545,-2.54091 -2.70024,-2.72807 -2.70024,-2.72792 -0.12835,-19.69394 l 0.87164,-5.75 0.30096,6 0.30095,6 0.71098,-6 c 0.52193,-4.4047 0.62678,-3.12872 0.39432,4.79904 -0.30875,10.52975 -0.24351,10.9074 2.61643,15.14502 3.8365,5.68461 3.89887,8.5782 0.18307,8.49256 -1.5125,-0.0349 -3.73308,-0.45948 -4.93462,-0.9436 z m 1.28662,-9.15086 c -0.8811,-1.25794 -1.602,-1.95594 -1.602,-1.55109 0,1.11493 2.36861,4.67366 2.81415,4.22812 0.21442,-0.21442 -0.33105,-1.41908 -1.21215,-2.67703 z m -0.89626,-10.09216 c -0.23836,-1.2375 -0.43337,-0.225 -0.43337,2.25 0,2.475 0.19501,3.4875 0.43337,2.25 0.23835,-1.2375 0.23835,-3.2625 0,-4.5 z m 13.76719,17.2062 c -0.90914,-1.47102 1.40311,-3.9562 3.6809,-3.9562 2.38476,0 3.61971,2.89659 1.74189,4.08561 -1.90152,1.20404 -4.63905,1.13871 -5.42279,-0.12941 z m 4.25624,-1.56036 c -0.33229,-0.3323 -1.19479,-0.36782 -1.91667,-0.079 -0.79773,0.31923 -0.56077,0.55618 0.60417,0.60417 1.05417,0.0434 1.64479,-0.19293 1.3125,-0.52522 z m -115.72917,0.7222 c 0,-0.55 0.45,-1.27812 1,-1.61804 0.55,-0.33992 1,-0.16803 1,0.38197 0,0.55 -0.45,1.27811 -1,1.61803 -0.55,0.33992 -1,0.16804 -1,-0.38196 z m 199,0.0634 c 0,-1.20855 1.8972,-2.61759 2.5907,-1.92409 0.2517,0.2517 -0.22824,1.02686 -1.06653,1.72258 -0.95038,0.78875 -1.52417,0.86461 -1.52417,0.20151 z m -1.92105,-2.76479 c 0.048,-1.16494 0.28494,-1.4019 0.60417,-0.60417 0.28887,0.72188 0.25334,1.58438 -0.0789,1.91667 -0.33229,0.33229 -0.56864,-0.25833 -0.52522,-1.3125 z m 0.94795,-3.1109 c -0.0334,-1.48185 4.61403,-6.99405 5.31109,-6.29937 0.27948,0.27851 -0.79514,2.07851 -2.38803,4 -1.59288,1.92148 -2.90826,2.9562 -2.92306,2.29937 z m -97.36023,-1.97243 c -1.61654,-1.61654 -0.51403,-3.3278 2.08333,-3.23366 l 2.75,0.0997 -2.5,0.80064 c -2.45604,0.78657 -2.44725,0.80266 0.5,0.91564 2.32218,0.089 2.66109,0.33401 1.5,1.08436 -1.76284,1.13924 -3.40138,1.26528 -4.33333,0.33334 z m 114.96362,-1.58334 c -1.07616,-4.01567 -0.6704,-6.40372 1.4076,-8.28428 1.54309,-1.39648 1.89255,-2.58739 1.43932,-4.90499 -0.46835,-2.39492 -0.35613,-2.73443 0.51587,-1.56073 0.95338,1.28323 1.07054,1.23947 0.81068,-0.30282 -0.42735,-2.53634 -2.16487,-2.25365 -3.03518,0.49381 -0.52401,1.65426 -0.57972,1.45832 -0.19647,-0.69099 0.29423,-1.65 0.50147,-4.26701 0.46054,-5.81559 -0.16855,-6.37759 3.53579,-13.80975 5.38873,-10.81162 0.26699,0.43199 2.1074,3.84282 4.08981,7.57961 4.14519,7.81359 4.12572,7.94191 -3.01119,19.84268 -4.15066,6.92122 -6.80595,8.42434 -7.86971,4.45492 z m 11.35843,-16.39845 c 0.006,-0.63165 -1.32515,-3.68905 -2.95856,-6.79423 -2.78053,-5.28585 -3.01086,-5.4824 -3.61305,-3.08307 -0.35376,1.40949 -0.30731,3.79189 0.10321,5.29423 1.51768,5.554 1.01322,10.6735 -1.38339,14.03923 -1.38679,1.94756 -2.06442,3.93886 -1.68068,4.93886 0.47657,1.24194 1.79184,-0.25537 5.08208,-5.78549 2.44151,-4.10359 4.44418,-7.97788 4.45039,-8.60953 z M 352.9247,224.7867 c -2.35242,-9.0523 -4.34281,-13.69433 -5.73161,-13.36734 -0.61886,0.14571 -1.8148,-0.86007 -2.65765,-2.23507 l -1.53244,-2.5 2.11286,2.36079 c 1.16208,1.29843 2.11286,1.94578 2.11286,1.43856 0,-0.50722 -0.9,-1.88826 -2,-3.06897 -1.1,-1.18071 -2,-2.61175 -2,-3.18009 0,-0.56834 -0.9,-1.5954 -2,-2.28236 -1.1,-0.68696 -2,-1.63739 -2,-2.11207 0,-1.31767 7.21806,5.27345 9.64649,8.80863 2.69062,3.91686 6.57951,16.76553 6.15827,20.34657 -0.23147,1.96779 -0.79703,0.83907 -2.10878,-4.20865 z m -52.69598,3.33858 c 0,-0.58246 0.45,-0.78091 1,-0.44099 0.55,0.33992 1,0.81648 1,1.05902 0,0.24254 -0.45,0.44098 -1,0.44098 -0.55,0 -1,-0.47655 -1,-1.05901 z m -31.35154,-6.62586 c -1.70733,-1.70734 0.44169,-21.85839 2.53978,-23.81513 0.7576,-0.70656 0.87631,0.17375 0.40454,3 -0.36723,2.2 -0.94079,7.2625 -1.27458,11.25 l -0.60687,7.25 2.89433,-0.0997 c 1.59189,-0.0548 4.01934,-0.45997 5.39434,-0.90032 l 2.5,-0.80064 -2.69098,-0.0997 c -3.58321,-0.13273 -4.32984,-1.62147 -1.72739,-3.4443 1.69423,-1.18668 1.90259,-1.84697 1.04714,-3.31842 -0.58737,-1.01033 -1.08163,-1.27446 -1.09836,-0.58696 -0.0167,0.6875 -0.49624,1.25 -1.06559,1.25 -0.67745,0 -0.71034,-0.60697 -0.0952,-1.75641 0.62619,-1.17005 0.47604,-3.08966 -0.44976,-5.75 -1.60453,-4.61072 -1.80121,-6.8473 -0.53324,-6.06365 0.48765,0.30139 1.17456,2.08273 1.52646,3.95853 0.35191,1.87581 1.27399,3.93688 2.04909,4.58015 0.77509,0.64327 1.70559,2.5188 2.06778,4.16784 0.3622,1.64905 1.28835,4.20545 2.05812,5.6809 2.00902,3.85075 1.90522,3.99614 -3.33809,4.67597 -2.6125,0.33872 -5.69569,0.8081 -6.85154,1.04306 -1.15585,0.23496 -2.39335,0.13539 -2.75,-0.22126 z m 9.35154,-6.31513 c 0.825,-0.53315 1.05,-0.96937 0.5,-0.96937 -0.55,0 -1.675,0.43622 -2.5,0.96937 -0.825,0.53316 -1.05,0.96938 -0.5,0.96938 0.55,0 1.675,-0.43622 2.5,-0.96938 z m 5.5384,3.06213 c -0.3188,-0.51583 -0.58245,-2.20333 -0.58589,-3.75 -0.003,-1.54667 -0.33167,-6.56818 -0.72938,-11.15892 -0.39772,-4.59073 -0.46085,-8.77058 -0.14029,-9.28854 0.32313,-0.52211 2.42316,-0.64748 4.71277,-0.28136 3.91694,0.62634 4.28656,0.99512 7.16716,7.15082 1.67048,3.56973 3.03723,6.8899 3.03723,7.37815 0,0.48825 0.9,1.78772 2,2.88772 3.75304,3.75304 2.65162,5.42028 -4.47372,6.77195 -7.7638,1.47278 -10.21695,1.53757 -10.98788,0.29018 z m 14.13052,-4.48145 c -0.49212,-1.38182 -9.52736,-0.94305 -11.32642,0.55004 -2.55256,2.11843 -1.31628,2.47757 5.1844,1.50606 3.90068,-0.58295 6.37203,-1.41025 6.14202,-2.0561 z m -5.66892,-2.58068 c 1.97959,-0.63397 2.08367,-0.80064 0.5,-0.80064 -1.1,0 -3.125,0.36029 -4.5,0.80064 -1.97958,0.63398 -2.08366,0.80064 -0.5,0.80064 1.1,0 3.125,-0.36029 4.5,-0.80064 z m -1.75,-2.05258 c 2.0625,-0.57278 3.75,-1.38605 3.75,-1.80727 0,-0.42121 -1.09829,-3.04249 -2.44065,-5.82507 -1.79401,-3.71881 -3.11874,-5.18886 -5,-5.54848 -2.4771,-0.47353 -2.55891,-0.32499 -2.54569,4.62207 0.0146,5.45565 0.8169,9.61488 1.85297,9.60576 0.34836,-0.003 2.32087,-0.47422 4.38337,-1.04701 z m 96.26709,-9.19742 c 0.18753,-1.2375 0.65039,-3.2625 1.02857,-4.5 0.47937,-1.5686 0.27373,-2.25463 -0.67903,-2.26531 -1.06964,-0.012 -1.04248,-0.22025 0.12501,-0.95836 1.17242,-0.74123 1.23098,-1.20371 0.27363,-2.16106 -0.95735,-0.95735 -1.62102,-0.85329 -3.10117,0.48622 -1.78046,1.6113 -1.95898,1.59547 -3.27362,-0.29038 -0.79445,-1.13961 -4.60537,-3.02324 -8.89048,-4.39428 -9.02507,-2.88763 -10.23928,-5.01108 -3.81265,-6.66766 9.56439,-2.4654 10.81268,-3.0804 10.81182,-5.32672 -0.002,-5.01042 -2.10671,-23.65373 -3.34994,-29.67245 -1.28018,-6.19758 -1.47772,-6.50018 -4.24594,-6.50383 -1.59681,-0.002 -3.45257,-0.35799 -4.12392,-0.79086 -0.67728,-0.4367 -2.6093,-0.0689 -4.34026,0.82618 -3.3897,1.75288 -6.55937,1.28948 -5.297,-0.77442 0.42288,-0.69139 -0.70812,-0.0196 -2.51334,1.49293 -1.86691,1.56419 -4.48995,2.75 -6.08305,2.75 -1.54045,0 -3.36103,0.675 -4.04572,1.5 -1.91816,2.31124 -3.22267,1.77525 -1.82538,-0.75 0.68475,-1.2375 1.13261,-2.80484 0.99526,-3.48298 -0.17324,-0.85533 0.6491,-1.05322 2.6848,-0.64608 2.13237,0.42647 4.18525,-0.14607 7.51002,-2.09451 4.26356,-2.49861 7.47738,-2.69795 6.04155,-0.37473 -0.34451,0.55742 0.75081,0.30133 2.43403,-0.5691 3.42853,-1.77296 6.15972,-2.05916 6.15972,-0.64547 0,0.51542 1.54319,0.68671 3.42932,0.38063 3.29086,-0.53403 3.47015,-0.40029 4.44086,3.31287 1.45985,5.58418 2.93412,17.27097 3.72491,29.52797 l 0.68766,10.65859 -6.12226,1.71782 c -3.36725,0.9448 -5.91746,2.04921 -5.66714,2.45423 0.25032,0.40503 2.60422,1.28987 5.23089,1.96632 2.62667,0.67644 5.67576,1.62441 6.77576,2.10658 1.1,0.48218 3.575,1.00295 5.5,1.15727 4.35528,0.34916 4.93391,2.74207 2.38026,9.84353 -1.83658,5.10734 -3.46097,6.63182 -2.86317,2.68706 z m -7.02259,-3.1831 c 2.18495,-1.88821 4.16349,-3.24224 4.39677,-3.00897 0.66352,0.66352 -5.72424,6.44207 -7.12124,6.44207 -0.68649,0 0.53952,-1.54489 2.72447,-3.4331 z m -44.4945,1.27412 c 0,-0.4541 -2.23734,-2.2916 -4.97188,-4.08333 -2.73453,-1.79173 -5.20569,-3.84699 -5.49147,-4.56725 -1.2535,-3.15928 -2.54212,-24.75697 -2.15929,-36.19044 l 0.41853,-12.5 2.81332,0.21719 c 1.54732,0.11946 3.12669,-0.28985 3.5097,-0.90957 0.51023,-0.82559 1.52296,-0.78439 3.78873,0.15413 3.54199,1.46714 4.23637,3.52008 0.84236,2.49046 -1.2375,-0.37542 -2.475,-0.68403 -2.75,-0.68581 -0.275,-0.002 -1.9625,0.05 -3.75,0.11518 l -3.25,0.11842 v 6 c 0,5.04179 0.27948,6.00245 1.75,6.01532 1.4934,0.0131 1.53005,0.15566 0.25,0.97246 -1.21427,0.77483 -1.46455,3.23025 -1.31393,12.89039 0.25203,16.16433 1.04128,18.64165 7.79724,24.47432 5.70449,4.9249 6.58826,6.31418 4.01669,6.31418 -0.825,0 -1.5,-0.37154 -1.5,-0.82565 z m 30.93719,-7.57365 c -5.17494,-4.36759 -6.86138,-6.31098 -6.90538,-7.95751 -0.0175,-0.65457 2.28347,1.25793 5.11325,4.25 2.82978,2.99208 5.62598,5.44014 6.21377,5.44014 0.58778,0 -0.93999,-1.78723 -3.39506,-3.97162 -4.55623,-4.05388 -4.80473,-5.28073 -0.49807,-2.45889 3.1644,2.07339 5.54125,5.80123 4.6344,7.26856 -0.4957,0.80205 -2.1322,-0.0128 -5.16291,-2.57068 z m -83.92187,-3.94782 c 0.008,-2.10075 0.42737,-4.47087 0.931,-5.26693 0.63194,-0.99886 0.85961,-0.22415 0.73469,2.5 -0.0996,2.17106 0.26899,3.94738 0.81899,3.94738 0.55,0 0.8875,-0.3375 0.75,-0.75 -0.1375,-0.4125 0.233,-0.75 0.82333,-0.75 2.06619,0 0.38456,3.5031 -1.83354,3.81955 -1.98666,0.28344 -2.23806,-0.11211 -2.22447,-3.5 z m 22.61072,1.88438 c -0.57099,-0.92388 0.26928,-10.53761 2.33401,-26.70393 l 0.76631,-6 0.13682,4.80902 c 0.0789,2.77355 0.5416,4.55885 1.09315,4.21797 0.52598,-0.32507 0.74356,-1.36413 0.48351,-2.30901 -0.26004,-0.94489 0.42281,0.082 1.51745,2.28202 1.09465,2.2 2.00978,4.9 2.03363,6 0.0238,1.1 0.89104,5.26352 1.92709,9.25226 1.03604,3.98873 1.56498,7.44924 1.17541,7.69001 -1.77715,1.09834 -10.88541,1.70331 -11.46738,0.76166 z m 9.25857,-2.8155 c 0.21153,-0.17837 -0.092,-1.57623 -0.67452,-3.10636 -0.58251,-1.53014 -1.63844,-5.88398 -2.34651,-9.67522 l -1.2874,-6.89314 -1.2688,4.89314 c -0.69784,2.69124 -1.27748,7.4694 -1.28809,10.61815 l -0.0193,5.725 3.25,-0.61864 c 1.7875,-0.34025 3.42307,-0.76457 3.63461,-0.94293 z m -28.72671,-3.38843 c 0,-1.375 0.22697,-1.9375 0.50438,-1.25 0.27742,0.6875 0.27742,1.8125 0,2.5 -0.27741,0.6875 -0.50438,0.125 -0.50438,-1.25 z m 76.50877,1.33334 c -0.36667,-0.36667 -0.66667,-1.13167 -0.66667,-1.7 0,-0.62661 0.46577,-0.56757 1.18334,0.15 0.65083,0.65083 0.95083,1.41583 0.66666,1.7 -0.28416,0.28416 -0.81666,0.21666 -1.18333,-0.15 z m 24.43223,-11.58334 c 0.0544,-2.8875 0.44103,-7.725 0.8592,-10.75 0.69484,-5.02644 0.77243,-4.6605 0.90111,4.25 0.0774,5.3625 0.47829,9.75101 0.89079,9.75225 0.4125,0.001 0.67971,-4.38627 0.5938,-9.75 l -0.1562,-9.75225 1.33082,8.5 c 2.01022,12.8393 1.99145,13 -1.51842,13 -2.96494,0 -2.99884,-0.0614 -2.9011,-5.25 z m 14.9011,2.38649 c 0,-1.02493 0.46672,-4.28743 1.03714,-7.25 0.57043,-2.96257 1.24769,-9.62625 1.50503,-14.80819 0.48243,-9.71436 0.83614,-11.11044 2.40985,-9.51163 2.01852,2.05071 8.55247,29.67629 7.60373,32.14865 -0.32608,0.84975 -2.53489,1.28468 -6.52436,1.28468 -5.21747,0 -6.03139,-0.25147 -6.03139,-1.86351 z m 9.9312,-3.38649 c -0.0378,-1.7875 -1.12598,-7.3 -2.41807,-12.25 -1.80892,-6.92992 -2.38065,-8.19497 -2.48571,-5.5 -0.075,1.925 -0.6975,7.22691 -1.38324,11.78203 -0.68573,4.55511 -1.0362,8.49261 -0.77882,8.75 0.25739,0.25738 1.96798,0.46797 3.80131,0.46797 3.10813,0 3.32868,-0.21957 3.26453,-3.25 z m 13.40448,3 c 0.30388,-1.2375 0.86064,-4.6125 1.23724,-7.5 1.22075,-9.35959 4.38361,-5.06229 4.41608,6 0.0104,3.53143 -0.17018,3.75 -3.0974,3.75 -2.72058,0 -3.03948,-0.28073 -2.55592,-2.25 z m 3.38905,-7.98209 c -0.22256,-1.79735 -0.40924,-0.56791 -0.41486,2.73209 -0.006,3.3 0.17649,4.77056 0.40466,3.26791 0.22817,-1.50265 0.23277,-4.20265 0.0102,-6 z m 85.25522,2.70793 c -0.69572,-0.83829 -1.07129,-1.71783 -0.83459,-1.95452 0.23669,-0.2367 0.97963,0.44917 1.65097,1.52416 1.45182,2.32472 0.96763,2.57996 -0.81638,0.43036 z m -5.70422,-8.18781 c -5.91622,-9.50073 -7.49548,-12.40161 -7.01376,-12.88332 0.43638,-0.43639 3.05524,3.37713 6.24603,9.09529 0.6138,1.1 1.93657,3.25155 2.93947,4.78121 1.0029,1.52967 1.59538,3.00928 1.31664,3.28802 -0.27875,0.27875 -1.84852,-1.64779 -3.48838,-4.2812 z m -198.08078,-2.78803 c 0.0204,-1.65 0.2445,-2.20393 0.49804,-1.23097 0.25355,0.97297 0.23687,2.32297 -0.0371,3 -0.27392,0.67704 -0.48137,-0.11903 -0.46099,-1.76903 z m 28.80505,-13.5 c 0,-0.55 0.70156,-1 1.55902,-1 0.85746,0 1.2809,0.45 0.94098,1 -0.33992,0.55 -1.04147,1 -1.55901,1 -0.51754,0 -0.94099,-0.45 -0.94099,-1 z m 158.97995,-1.52416 c -0.69572,-0.83829 -1.07129,-1.71783 -0.83459,-1.95452 0.23669,-0.2367 0.97963,0.44917 1.65097,1.52416 1.45182,2.32472 0.96763,2.57996 -0.81638,0.43036 z m -158.97995,-3.05914 c -2.34367,-1.30047 -2.36696,-1.38814 -0.37244,-1.40196 1.17015,-0.008 2.68775,0.66026 3.37244,1.48526 1.50784,1.81684 0.36732,1.78516 -3,-0.0833 z m 153,-8.4167 c -1.12235,-2.2 -1.5815,-4 -1.02032,-4 0.56118,0 1.02032,0.60615 1.02032,1.34699 0,0.74085 0.9,2.3847 2,3.65301 2.26814,2.61518 2.39902,3 1.02033,3 -0.53882,0 -1.89797,-1.8 -3.02033,-4 z m -3.26878,-6.91984 c -0.43498,-1.66334 -0.30483,-2.05377 0.43723,-1.31171 0.58111,0.58111 0.8598,1.64682 0.61932,2.36826 -0.24965,0.74895 -0.70294,0.29566 -1.05655,-1.05655 z m -12.9374,-19.06991 c -1.5308,-2.21394 -2.09373,-3.67883 -1.29608,-3.37274 1.5212,0.58374 5.90416,7.38736 4.71854,7.32454 -0.39395,-0.0209 -1.93406,-1.79918 -3.42246,-3.9518 z m -9.63592,0.98975 c 0,-1.375 0.22697,-1.9375 0.50438,-1.25 0.27742,0.6875 0.27742,1.8125 0,2.5 -0.27741,0.6875 -0.50438,0.125 -0.50438,-1.25 z m 2.3421,-8.999997 c -0.99548,-1.1 -1.35997,-2 -0.80997,-2 0.55,0 1.81449,0.9 2.80997,2 0.99549,1.1 1.35998,2 0.80998,2 -0.55,0 -1.81449,-0.9 -2.80998,-2 z m -12.5,-2.059017 c 0,-0.58246 0.45,-0.780902 1,-0.440983 0.55,0.339918 1,0.816476 1,1.059017 0,0.24254 -0.45,0.440983 -1,0.440983 -0.55,0 -1,-0.476558 -1,-1.059017 z m -45.37646,-3.479643 c -0.96498,-2.514693 -0.68031,-3.163554 0.49854,-1.136337 0.58369,1.003751 0.85059,2.035659 0.59313,2.293128 -0.25747,0.257469 -0.74872,-0.263087 -1.09167,-1.156791 z m 38.87646,-9.46134 c -0.33992,-0.55 -0.14147,-1 0.44099,-1 0.58246,0 1.05901,0.45 1.05901,1 0,0.55 -0.19844,1 -0.44098,1 -0.24254,0 -0.7191,-0.45 -1.05902,-1 z m -42.99445,-6.993869 c -0.99854,-1.103372 -1.35088,-2.006131 -0.78298,-2.006131 1.25825,0 3.7524,2.858364 3.08047,3.530297 -0.26508,0.26508 -1.29895,-0.420794 -2.29749,-1.524166 z m 35.05001,-3.561687 c -0.94345,-1.439884 -1.51536,-2.817972 -1.27092,-3.062416 0.24445,-0.244445 1.21636,0.733643 2.15981,2.173527 0.94345,1.439885 1.51536,2.817972 1.27091,3.062417 -0.24444,0.244444 -1.21635,-0.733643 -2.1598,-2.173528 z m -4.34341,-5.476354 c -1.44205,-2.309087 -1.51505,-2.96809 -0.32878,-2.96809 0.80497,0 2.3708,4.079167 1.78912,4.660851 -0.13651,0.136506 -0.79366,-0.625237 -1.46034,-1.692761 z m 15.53785,-8.414691 c -1.5125,-1.895598 -2.75,-3.753544 -2.75,-4.12877 0,-0.375225 -1.4625,-2.353716 -3.25,-4.396647 -1.7875,-2.04293 -3.95488,-4.572471 -4.8164,-5.6212 -0.86152,-1.04873 -3.70822,-3.860078 -6.32601,-6.24744 -2.61778,-2.387362 -4.52717,-4.57309 -4.24309,-4.857174 0.86132,-0.861323 17.35167,16.216791 20.1355,20.853192 0.55,0.916011 2.04315,3.055787 3.3181,4.755057 3.18029,4.238729 1.34623,3.922112 -2.0681,-0.357018 z m -10.75,1.446601 c -0.825,-0.533156 -1.05,-0.969375 -0.5,-0.969375 0.55,0 1.675,0.436219 2.5,0.969375 0.825,0.533156 1.05,0.969374 0.5,0.969374 -0.55,0 -1.675,-0.436218 -2.5,-0.969374 z m -14.1852,-2.034843 c -3.12308,-1.649548 -6.83102,-5.017752 -4.20399,-3.818801 4.6294,2.112813 8.38919,4.371082 8.38919,5.038856 0,1.030934 0.17091,1.080756 -4.1852,-1.220055 z m 7.6852,-0.965157 c -0.33992,-0.55 -0.14147,-1 0.44099,-1 0.58246,0 1.05901,0.45 1.05901,1 0,0.55 -0.19844,1 -0.44098,1 -0.24254,0 -0.7191,-0.45 -1.05902,-1 z m -16.5,-5 c -0.90129,-0.58246 -1.02463,-0.975487 -0.30901,-0.984687 0.65504,-0.0084 1.46909,0.434687 1.80901,0.984687 0.76731,1.241525 0.42113,1.241525 -1.5,0 z m 2,-2 c -0.90129,-0.58246 -1.02463,-0.975487 -0.30901,-0.984687 0.65504,-0.0084 1.46909,0.434687 1.80901,0.984687 0.76731,1.241525 0.42113,1.241525 -1.5,0 z"
     id="path1" /></svg>
