<?xml version="1.0" standalone="no"?>
<!DOCTYPE svg PUBLIC "-//W3C//DTD SVG 20010904//EN"
 "http://www.w3.org/TR/2001/REC-SVG-20010904/DTD/svg10.dtd">
<svg version="1.0" xmlns="http://www.w3.org/2000/svg"
 width="154.000000pt" height="120.000000pt" viewBox="0 0 154.000000 120.000000"
 preserveAspectRatio="xMidYMid meet">
<metadata>
Created by potrace 1.16, written by Peter Selinger 2001-2019
</metadata>
<g transform="translate(0.000000,120.000000) scale(0.100000,-0.100000)"
fill="#000000" stroke="none">
<path d="M560 980 c-3 -8 -3 -55 0 -105 5 -79 6 -85 14 -52 8 37 -5 186 -14
157z"/>
<path d="M699 970 c-51 -27 -54 -51 -13 -84 39 -31 43 -53 12 -65 -28 -10 -48
-4 -48 14 0 8 -5 17 -10 20 -7 4 -10 -6 -8 -29 2 -39 -20 -72 -62 -88 -15 -7
-20 -12 -12 -15 26 -10 62 8 77 37 11 20 23 30 39 30 13 0 34 9 48 19 24 19
25 19 41 1 14 -17 29 -19 109 -17 89 2 93 3 93 25 0 12 -4 21 -10 20 -5 -2 -9
-6 -8 -10 2 -5 -4 -8 -12 -8 -8 0 -15 5 -15 11 0 6 -7 4 -15 -5 -16 -15 -45
-12 -45 6 0 5 -6 3 -14 -5 -27 -27 -72 -9 -121 48 -25 29 -45 56 -45 59 0 4
20 15 45 26 25 11 45 22 45 25 0 11 -36 3 -71 -15z"/>
<path d="M902 911 c2 -7 7 -12 11 -12 12 1 9 15 -3 20 -7 2 -11 -2 -8 -8z"/>
<path d="M890 880 c0 -5 5 -10 10 -10 6 0 10 5 10 10 0 6 -4 10 -10 10 -5 0
-10 -4 -10 -10z"/>
<path d="M922 881 c2 -7 7 -12 11 -12 12 1 9 15 -3 20 -7 2 -11 -2 -8 -8z"/>
<path d="M1193 620 c-43 -19 -68 -60 -42 -69 23 -7 69 -58 69 -76 0 -13 -9
-16 -52 -13 -49 3 -53 5 -56 31 -2 15 -8 27 -13 27 -7 0 -8 -12 -4 -30 6 -27
4 -30 -18 -30 -19 0 -28 8 -36 30 -15 44 -39 36 -56 -18 -5 -19 -2 -25 15 -29
27 -7 21 -23 -20 -50 -29 -20 -30 -23 -11 -23 33 0 61 18 71 46 9 23 13 24
100 24 69 0 92 3 96 14 7 18 -17 65 -50 95 -30 29 -23 44 30 61 19 6 34 16 34
21 0 12 -8 11 -57 -11z m-163 -146 c0 -16 -16 -19 -25 -4 -8 13 4 32 16 25 5
-4 9 -13 9 -21z"/>
<path d="M380 618 c0 -7 5 -47 11 -89 7 -42 9 -88 5 -103 -6 -26 -9 -27 -59
-24 l-52 3 1 38 c1 41 -10 39 -21 -5 -15 -59 88 -95 135 -48 19 19 20 29 14
118 -6 109 -9 122 -24 122 -5 0 -10 -6 -10 -12z"/>
<path d="M445 545 c2 -47 7 -90 10 -95 3 -5 36 -8 73 -7 72 2 86 14 59 51 -13
17 -15 17 -52 -8 -61 -42 -70 -34 -73 62 -2 45 -7 82 -12 82 -6 0 -8 -34 -5
-85z m130 -75 c3 -5 2 -10 -4 -10 -5 0 -13 5 -16 10 -3 6 -2 10 4 10 5 0 13
-4 16 -10z"/>
<path d="M623 545 c7 -114 17 -121 17 -12 0 52 -4 89 -11 93 -8 5 -10 -18 -6
-81z"/>
<path d="M1064 568 c-3 -4 -4 -8 -2 -9 33 -7 59 -6 56 3 -5 14 -47 18 -54 6z"/>
<path d="M767 504 c-21 -43 -9 -67 32 -62 32 4 40 38 17 74 -22 32 -29 30 -49
-12z m43 -14 c9 -16 8 -22 -5 -26 -21 -9 -37 8 -29 29 8 23 21 21 34 -3z"/>
<path d="M1285 530 c-3 -5 1 -10 9 -10 18 0 48 -39 39 -53 -3 -5 -21 -7 -39
-5 -23 3 -34 0 -34 -9 0 -9 15 -13 45 -13 43 0 45 2 45 28 0 48 -46 93 -65 62z"/>
<path d="M928 504 c-4 -3 -4 -19 -1 -35 6 -33 -15 -64 -57 -82 -24 -10 -25
-11 -3 -14 34 -6 61 14 73 55 11 36 2 91 -12 76z"/>
</g>
</svg>
