<?xml version="1.0" encoding="UTF-8" standalone="no"?>
<svg
   version="1.0"
   width="490.000000pt"
   height="385.000000pt"
   viewBox="0 0 490.000000 385.000000"
   preserveAspectRatio="xMidYMid meet"
   id="svg51"
   sodipodi:docname="output.svg"
   xml:space="preserve"
   inkscape:version="1.4.2 (ebf0e940d0, 2025-05-08)"
   xmlns:inkscape="http://www.inkscape.org/namespaces/inkscape"
   xmlns:sodipodi="http://sodipodi.sourceforge.net/DTD/sodipodi-0.dtd"
   xmlns="http://www.w3.org/2000/svg"
   xmlns:svg="http://www.w3.org/2000/svg"><defs
     id="defs51" /><sodipodi:namedview
     id="namedview51"
     pagecolor="#ffffff"
     bordercolor="#000000"
     borderopacity="0.25"
     inkscape:showpageshadow="2"
     inkscape:pageopacity="0.0"
     inkscape:pagecheckerboard="0"
     inkscape:deskcolor="#d1d1d1"
     inkscape:document-units="pt"
     inkscape:zoom="2.2012142"
     inkscape:cx="305.74035"
     inkscape:cy="205.56836"
     inkscape:window-width="1920"
     inkscape:window-height="1008"
     inkscape:window-x="0"
     inkscape:window-y="0"
     inkscape:window-maximized="1"
     inkscape:current-layer="svg51" /><metadata
     id="metadata1">
Created by potrace 1.16, written by Peter Selinger 2001-2019
</metadata><path
     style="fill:#000000;stroke-width:2.76691"
     d="M 227.1152,380.00362 C 213.34363,377.19871 204.42362,374.10457 189.98681,367.12465 136.50123,341.26535 99.726085,288.48217 83.728729,214.61295 75.388445,176.10094 73.923832,152.3584 74.393771,63.285915 L 74.641283,16.37024 244.6893,16.613561 414.73731,16.856883 v 66.399834 c 0,69.027493 -0.39521,78.235773 -4.58475,106.817133 -13.98428,95.40204 -60.29391,161.41654 -129.881,185.14563 -19.87666,6.77791 -36.16825,8.2442 -53.15637,4.78414 z m 16.83155,-26.20306 v -25.36849 l -6.68314,-0.66365 c -7.35391,-0.73027 -21.08417,-4.88237 -29.19486,-8.82868 -8.52029,-4.14561 -21.38233,-12.81029 -22.04973,-14.85415 -0.34158,-1.04601 -1.40785,-1.90187 -2.36949,-1.90187 -0.96166,0 -2.01479,-0.25886 -2.3403,-0.57524 -1.14041,-1.1084 0.4928,-3.27402 2.46915,-3.27402 1.70988,0 1.8089,-0.2185 0.69185,-1.52671 -0.90096,-1.05515 -2.49596,-1.41623 -5.16364,-1.16895 -3.65732,0.33901 -4.11504,0.0611 -8.71849,-5.29366 -5.46997,-6.36267 -6.04155,-8.37006 -2.38327,-8.37006 2.34021,0 2.47521,-0.28869 2.47521,-5.29274 v -5.29275 h -5.24747 c -2.8861,0 -5.7119,0.4514 -6.27953,1.00311 -1.41409,1.37444 -2.21451,0.27957 -8.12014,-11.10742 -9.65204,-18.61062 -16.17654,-40.01116 -20.12054,-65.99596 -2.08456,-13.73393 -2.25442,-18.13416 -2.28168,-59.10519 l -0.0296,-44.266565 57.67277,-0.248229 57.67275,-0.248239 v -2.347754 c 0,-2.153732 -0.42957,-2.371793 -5.19797,-2.638624 l -5.19798,-0.29087 -0.49504,-5.77388 c -0.29509,-3.44187 -0.81856,-5.288064 -1.29604,-4.571023 -0.44056,0.661603 -1.66579,1.202886 -2.72276,1.202886 -1.64603,0 -1.92174,0.690337 -1.92174,4.811592 0,4.70465 -0.0661,4.811583 -2.97028,4.811583 h -2.97026 v -5.966353 c 0,-4.640502 -0.26401,-5.709751 -1.18812,-4.811592 -0.65346,0.63512 -1.99008,1.15477 -2.97026,1.15477 -1.47853,0 -1.78216,0.819769 -1.78216,4.811592 v 4.811583 h -5.44549 c -5.19531,0 -5.4455,-0.114294 -5.4455,-2.485981 0,-3.014649 -2.32518,-2.684699 -2.79161,0.396137 -0.24215,1.599515 -0.99711,2.089844 -3.2178,2.089844 -2.37852,0 -2.90141,-0.404182 -2.90141,-2.242765 0,-3.019133 3.63213,-22.445023 4.43176,-23.70255 0.34957,-0.549733 1.89823,-0.999558 3.44147,-0.999558 2.97793,0 3.93613,1.307153 4.11391,5.612047 0.079,1.914115 0.34585,1.526678 1.04834,-1.522182 l 0.94232,-4.089865 h 4.83375 c 2.65858,0 5.13313,0.470804 5.49898,1.046183 0.47905,0.75334 0.96652,0.75334 1.7416,0 1.37733,-1.338688 9.26985,-1.367654 10.11588,-0.03705 0.44173,0.694687 1.05988,0.671669 1.98414,-0.0739 0.73836,-0.595597 2.36948,-0.941405 3.62468,-0.768457 2.19169,0.301964 2.29339,0.705627 2.56436,10.1782 0.2596,9.070623 0.43859,9.863735 2.2277,9.863735 1.8554,0 1.94556,-0.735768 1.94556,-15.878233 V 48.132408 h -3.46533 -3.46532 V 36.816089 c 0,-10.680492 0.12519,-11.394713 2.22771,-12.711566 1.22523,-0.76738 2.81923,-1.27789 3.54219,-1.134456 0.85855,0.17032 1.20197,-0.510798 0.99006,-1.963771 l -0.32437,-2.224548 h -83.1675 -83.167591 l 0.006,64.4752 c 0.004,44.936682 0.394698,68.703692 1.288988,78.428802 8.873358,96.49533 43.250033,162.78925 102.563453,197.78916 18.1267,10.69627 43.57312,19.17576 58.76403,19.58187 l 4.20786,0.11239 z m -34.318,10.03548 c -6.21116,-2.74105 -8.25591,-5.17171 -8.25591,-9.81418 0,-3.31275 0.58999,-4.51703 3.53582,-7.21735 1.94471,-1.78265 4.14611,-3.24116 4.89203,-3.24116 2.6414,0 2.64464,2.11636 0.007,4.79189 -2.29776,2.33106 -2.50979,3.00566 -1.5134,4.81518 0.63729,1.15739 3.0163,2.9241 5.28671,3.92603 4.87432,2.15103 8.3122,2.42701 4.37552,0.35121 -4.57664,-2.4132 -3.15368,-6.18579 2.33319,-6.18579 2.40994,0 3.45427,-2.60621 4.36823,-10.90112 0.52841,-4.79588 1.17966,-6.71851 2.51023,-7.41061 2.51291,-1.30715 2.48708,-1.32053 4.79935,2.48852 2.59043,4.26733 2.58534,4.72358 -0.0658,5.87333 -1.53462,0.66557 -2.63951,2.68962 -3.88879,7.12386 -1.5575,5.52823 -1.58465,6.36656 -0.25263,7.79815 1.80266,1.93735 0.71702,4.43195 -3.24801,7.46336 -3.3142,2.53381 -9.32965,2.58987 -14.88397,0.13858 z m 8.51567,-2.33974 c -6.99906,-1.83443 -11.18467,-4.61773 -12.41149,-8.25317 -0.9915,-2.93815 -1.13567,-3.02975 -1.66604,-1.05854 -1.43829,5.34578 5.70465,10.68086 14.13749,10.55937 l 4.45542,-0.0641 z m 6.3906,-4.57322 c -0.86579,-0.92987 -1.33128,-2.07264 -1.03441,-2.53948 0.29685,-0.46687 -0.80132,-0.65754 -2.4404,-0.42371 l -2.98013,0.42511 3.13533,1.85323 c 2.42799,1.43514 3.01155,2.3312 2.58663,3.97176 -0.53018,2.04697 -0.50048,2.05578 0.87922,0.26106 1.25234,-1.62901 1.23436,-2.0653 -0.14625,-3.54803 z m 5.48086,-18.03369 c -0.0383,-0.34032 -0.45249,-1.48488 -0.9205,-2.54343 -0.67999,-1.53801 -0.86489,-1.60213 -0.92049,-0.31926 -0.0383,0.88293 -0.34197,2.29521 -0.67489,3.13845 -0.44301,1.12208 -0.17759,1.37356 0.9901,0.93804 0.87746,-0.32726 1.56405,-0.87348 1.52578,-1.2138 z m 1.40044,20.09914 c 0.32354,-1.57237 0.89331,-5.75291 1.26618,-9.29007 0.68946,-6.54082 2.69633,-9.98438 5.81873,-9.98438 1.78825,0 1.8601,2.04457 0.36922,10.50665 -1.41478,8.0302 -3.25959,11.62664 -5.96389,11.62664 -1.77688,0 -1.99315,-0.4149 -1.49024,-2.85884 z m 5.59779,-12.89513 c 0.4657,-2.07652 0.45892,-3.35413 -0.0154,-2.88694 -0.46787,0.46093 -1.04641,3.00326 -1.28567,5.64964 -0.23925,2.64634 -0.23234,3.94547 0.0154,2.88694 0.24768,-1.05856 0.82621,-3.60089 1.28565,-5.64964 z m -52.96785,-0.27678 c -3.81183,-1.34924 -8.12743,-3.54536 -9.59022,-4.88025 -1.46278,-1.33491 -3.69048,-2.92512 -4.95046,-3.53384 -1.25996,-0.60872 -2.78408,-2.57864 -3.3869,-4.37761 -0.60282,-1.79897 -1.98929,-3.59206 -3.08104,-3.9846 -2.70137,-0.97127 -6.2203,-5.49183 -6.21232,-7.98061 0.007,-2.30671 1.73606,-4.99577 7.38129,-11.4821 2.94042,-3.37853 4.61367,-4.50692 6.6831,-4.50692 4.09938,0 3.51425,2.37662 -2.14102,8.69623 l -4.90164,5.47745 2.02423,2.11181 c 1.54068,1.60733 2.6977,1.968 4.84356,1.50993 4.82251,-1.02949 6.89585,0.8282 6.89585,6.17852 0,2.96815 0.53916,5.09482 1.48513,5.85787 1.09628,0.88431 1.48515,0.90232 1.48515,0.0687 0,-1.41508 6.01706,-3.91797 9.41905,-3.91797 3.52949,0 7.41246,4.00993 7.41246,7.65477 0,3.64367 -1.88264,3.81849 -5.54965,0.51534 -1.47478,-1.32842 -2.94575,-2.15768 -3.26882,-1.84276 -0.93104,0.90758 4.76403,5.22044 6.89352,5.22044 2.17985,0 2.6241,2.78481 0.73685,4.6191 -1.71669,1.66853 -4.35948,1.36397 -12.17812,-1.40351 z m 7.92074,-1.67829 c -4.29896,-1.8444 -6.76475,-4.88669 -6.21717,-7.6708 0.33249,-1.69059 0.0886,-2.21215 -0.86805,-1.85538 -0.73181,0.27296 -1.33056,1.29046 -1.33056,2.26115 0,0.97068 -0.46512,2.04429 -1.03363,2.38579 -1.60222,0.96242 -5.94423,-2.27645 -7.00075,-5.22218 -0.66526,-1.85484 -1.60577,-2.62597 -3.14072,-2.57509 -1.58342,0.0524 -2.2838,-0.56448 -2.52527,-2.22439 -0.18377,-1.26334 0.16792,-2.59855 0.78153,-2.96713 0.61362,-0.36862 -0.29194,-0.6702 -2.01235,-0.6702 -3.3046,0 -6.42601,-2.87988 -7.12729,-6.57584 -0.34168,-1.80068 -0.41666,-1.81223 -1.16459,-0.17921 -1.16623,2.5463 1.02737,6.44967 4.2991,7.64996 2.04568,0.75048 3.05411,1.97151 3.69115,4.46922 0.54954,2.15462 1.55838,3.56317 2.70438,3.77583 1.00533,0.18659 3.01025,1.60358 4.4554,3.14895 2.78211,2.97507 12.82675,7.39669 16.98386,7.47623 2.37425,0.0455 2.35406,-0.006 -0.49504,-1.22694 z m 1.48513,-8.75467 c -0.67789,-0.79393 -1.93146,-1.44349 -2.7857,-1.44349 -1.24334,0 -1.16979,0.28182 0.36876,1.41289 2.51444,1.84845 3.98509,1.86708 2.41694,0.0305 z m -18.59593,-9.31718 c -0.61991,-0.60255 -0.75791,0.0303 -0.38955,1.78625 0.42251,2.01409 0.67147,2.25608 0.96,0.93305 0.21426,-0.98242 -0.0425,-2.20613 -0.57045,-2.7193 z M 164.73951,314.2127 c 1.27894,-1.32318 2.10259,-2.40581 1.83031,-2.40581 -0.27225,0 -1.54145,1.08263 -2.82039,2.40581 -1.27895,1.32316 -2.10259,2.40578 -1.83031,2.40578 0.27225,0 1.54144,-1.08262 2.82039,-2.40578 z m 4.45542,-5.29275 c 0.9856,-1.05855 1.56925,-1.92464 1.29697,-1.92464 -0.27225,0 -1.30145,0.86609 -2.28707,1.92464 -0.98563,1.05854 -1.56928,1.92463 -1.297,1.92463 0.27227,0 1.30147,-0.86609 2.2871,-1.92463 z m -23.08697,2.85768 c -4.25835,-2.52338 -7.53716,-9.34096 -6.17147,-12.83222 1.14048,-2.91555 5.71865,-5.42253 9.9025,-5.42253 3.87416,0 3.89448,1.91491 0.0429,4.04509 -1.63022,0.90163 -2.96402,2.0774 -2.96402,2.61288 0,1.48314 5.9766,7.77678 7.38501,7.77678 0.68164,0 1.65308,-1.40212 2.15876,-3.11583 1.02521,-3.47446 5.43631,-5.80482 7.39122,-3.90477 1.56351,1.51964 0.2122,4.75083 -3.78544,9.0516 -2.82975,3.04434 -4.15052,3.74223 -7.07669,3.73931 -1.9787,-0.002 -5.07595,-0.87962 -6.88279,-1.95031 z m 6.25543,-1.44644 c -4.24456,-2.04619 -7.76132,-7.41313 -7.21747,-11.01465 0.41641,-2.75767 0.34791,-2.82328 -1.37008,-1.31214 -0.99462,0.87486 -1.80675,2.28138 -1.80471,3.12559 0.007,2.80703 3.9525,7.88059 7.19395,9.25021 4.277,1.80714 6.96334,1.76601 3.19831,-0.0491 z m 5.57177,-1.17067 c 1.23155,-1.52627 1.19654,-1.56032 -0.37381,-0.36332 -0.95296,0.7264 -1.73264,1.48422 -1.73264,1.68405 0,0.79203 0.81304,0.28226 2.10645,-1.32073 z m 3.27496,-5.91636 c -0.62147,-0.60404 -2.38876,1.84006 -2.3645,3.26999 0.009,0.52928 0.66587,0.12794 1.45974,-0.89206 0.79388,-1.01991 1.20102,-2.08997 0.90476,-2.37793 z m -3.12921,-5.68823 c -0.6672,-0.412 -1.3355,-1.81273 -1.48512,-3.11279 -0.23521,-2.04358 0.13023,-2.36373 2.69822,-2.36373 2.37738,0 3.03698,0.4585 3.30443,2.29698 0.4402,3.02608 -1.99281,4.7385 -4.51753,3.17954 z m -25.02428,-2.71041 c 0,-0.86039 2.78462,-4.08904 6.18806,-7.17478 6.19935,-5.62066 6.64705,-8.1148 0.52949,-2.94983 -6.66827,5.62994 -10.93405,6.37927 -14.61806,2.56785 -1.26781,-1.31169 -2.63086,-4.0182 -3.02899,-6.01448 l -0.72388,-3.62962 -0.11386,3.12754 c -0.073,2.00628 -0.61726,3.12753 -1.51802,3.12753 -3.10269,0 -4.53638,-1.24907 -4.53638,-3.95224 0,-2.33483 0.40304,-2.78399 2.49805,-2.78399 2.45407,0 2.46876,-0.0434 0.83361,-2.46901 -0.91545,-1.35794 -1.75351,-3.89469 -1.86234,-5.63716 -0.10885,-1.74251 -1.12336,-4.06769 -2.25446,-5.16705 -1.98905,-1.93327 -4.14846,-7.62806 -4.15979,-10.97026 -0.003,-0.89598 -0.9263,-3.14586 -2.05166,-4.99975 -1.12539,-1.85386 -2.29576,-5.72107 -2.6008,-8.5938 -0.4712,-4.43743 -0.24548,-5.5236 1.50046,-7.22058 1.85931,-1.80716 1.89485,-2.04826 0.37309,-2.53101 -2.08294,-0.66077 -8.455951,-11.72669 -7.562638,-13.13158 0.358138,-0.5632 1.605008,-0.79786 2.770848,-0.52146 1.16582,0.2764 2.98454,-0.12167 4.04158,-0.88435 1.05704,-0.76277 2.48954,-1.38688 3.18334,-1.38688 1.99788,0 8.26099,5.79917 8.26099,7.64907 0,3.45715 -6.01201,6.45587 -7.33404,3.65816 -0.31264,-0.66161 -0.29441,-0.12029 0.0405,1.20289 0.87291,3.44892 0.94518,3.46303 5.85661,1.1438 5.18143,-2.44669 8.62347,-2.68196 10.31173,-0.70481 1.75334,2.0534 0.88037,2.78423 -6.84414,5.72983 -6.60684,2.51939 -6.9803,2.82523 -6.96595,5.70459 0.0213,4.27392 0.85728,5.08194 5.92382,5.72567 3.10999,0.39516 5.12651,1.32598 6.68312,3.08489 1.22608,1.38542 2.22924,2.08733 2.22924,1.55976 0,-0.52756 -0.44554,-1.22681 -0.9901,-1.55394 -0.54454,-0.32708 -0.99008,-1.89705 -0.99008,-3.4888 0,-2.58944 0.28661,-2.86204 2.72274,-2.58958 1.94951,0.21796 2.81262,0.91941 3.03914,2.46969 0.174,1.19088 0.68328,2.16521 1.13168,2.16521 1.46731,0 2.03351,2.98397 0.94227,4.9658 -0.81111,1.47304 -1.67236,1.79192 -3.58177,1.32615 -1.85539,-0.45262 -2.87177,-0.11647 -3.88024,1.28279 -0.7515,1.04282 -2.70244,2.18126 -4.33542,2.52986 -3.32317,0.70943 -3.55774,1.25517 -1.63687,3.80841 1.26896,1.68672 1.65489,1.60415 8.13584,-1.74071 7.45004,-3.845 9.48214,-4.22488 11.2879,-2.11011 1.67328,1.95962 1.02728,2.59761 -6.20846,6.13156 -8.29027,4.04902 -9.96852,5.82679 -8.65954,9.17308 0.54654,1.39718 1.67307,2.54036 2.50336,2.54036 1.03666,0 1.51952,0.97987 1.54114,3.12754 0.0174,1.72014 0.64911,3.91958 1.40398,4.88763 1.60444,2.05759 3.56763,1.34845 7.45846,-2.69411 3.49844,-3.63488 8.71605,-6.56822 10.49973,-5.90295 1.20399,0.44906 1.38203,1.47338 0.85255,4.90515 -0.5583,3.61851 -0.4044,4.33759 0.92831,4.33759 2.85848,0 1.68934,3.10599 -2.50091,6.6439 -8.22588,6.94532 -14.71325,9.69071 -14.71325,6.22654 z m 15.12764,-10.89862 c -0.18933,-0.23869 -2.22251,1.4694 -4.51816,3.79574 l -4.1739,4.22971 4.51815,-3.79574 c 2.48498,-2.08766 4.36323,-3.99103 4.17391,-4.22971 z m -16.80846,1.8661 c -2.03986,-0.79844 -5.24982,-5.44335 -5.24982,-7.59667 0,-0.53203 -1.11386,-2.56266 -2.47522,-4.51248 -3.33551,-4.77727 -3.12975,-6.44686 1.2376,-10.04241 2.04206,-1.68121 2.73966,-2.5788 1.55024,-1.99469 -1.18944,0.58411 -3.06902,1.06199 -4.17682,1.06199 -1.31889,0 -1.83073,0.46471 -1.48272,1.34616 0.29229,0.74035 0.0555,1.63199 -0.52613,1.98141 -1.84532,1.10848 -1.14456,5.08515 1.41765,8.04474 1.36136,1.57252 2.47688,3.66271 2.47892,4.64483 0.002,0.98216 0.88656,3.19312 1.96562,4.91325 1.47707,2.35461 2.63842,3.11246 4.69924,3.06655 2.58035,-0.0576 2.61254,-0.10993 0.56144,-0.91268 z m 12.79135,-6.72486 c 1.4105,0 3.28478,-2.68865 2.44397,-3.50589 -0.19434,-0.18903 -1.90494,1.06398 -3.80132,2.78411 -1.89638,1.72016 -2.71524,2.58625 -1.8197,1.92468 0.89556,-0.66161 2.32524,-1.2029 3.17705,-1.2029 z m -26.37263,-18.52461 c -1.76057,-2.63539 -1.954,-13.33943 -0.26111,-14.44965 0.64179,-0.4209 0.0199,-0.50778 -1.38179,-0.19314 -3.30175,0.74133 -4.70404,-0.94344 -5.50342,-6.61195 -0.44288,-3.1404 -0.22351,-4.93829 0.74127,-6.07495 1.25256,-1.47572 1.16906,-1.51017 -0.97204,-0.40108 -2.12151,1.09898 -2.30028,1.70629 -1.89618,6.44243 0.28227,3.30825 1.2336,6.26427 2.58985,8.04723 1.17904,1.55 2.1437,4.14875 2.1437,5.77499 0,4.09055 2.54718,9.63122 4.42771,9.63122 1.38472,0 1.39721,-0.24141 0.11201,-2.16521 z m 7.34136,-10.22959 c 0,-0.42862 -0.77968,-1.46515 -1.73264,-2.30338 -1.6172,-1.42248 -1.73266,-1.31048 -1.73266,1.68062 0,2.75382 0.24375,3.07783 1.73266,2.30334 0.95296,-0.4957 1.73264,-1.25197 1.73264,-1.68058 z m -5.75903,-1.28611 c -0.71044,-0.69054 -1.17159,-0.74735 -1.17159,-0.14432 0,1.28448 1.17089,2.42254 1.83166,1.7803 0.28135,-0.27344 -0.0157,-1.00963 -0.66007,-1.63594 z m 2.78877,-20.48132 c 1.36138,-0.7564 2.02968,-1.37527 1.48514,-1.37527 -0.54456,0 -2.10394,0.61887 -3.46532,1.37527 -1.36138,0.75639 -2.02968,1.37529 -1.48514,1.37529 0.54456,0 2.10394,-0.6189 3.46532,-1.37529 z m -14.3148,-3.24099 c -0.6726,-2.05973 0.99896,-6.95394 2.74318,-8.03189 0.77469,-0.47879 0.55312,-0.73163 -0.64968,-0.74134 -1.02419,-0.009 -2.06179,0.86406 -2.36405,1.98749 -0.35032,1.30203 -1.12921,1.85211 -2.22726,1.57303 -1.49383,-0.37969 -1.44955,-9.6e-4 0.38385,3.28259 2.25508,4.03887 3.03515,4.7511 2.11396,1.93012 z m 7.38416,-4.08996 c 0,-0.52929 -0.44554,-0.69467 -0.99008,-0.36758 -0.54456,0.32712 -0.9901,1.02779 -0.9901,1.55708 0,0.52927 0.44554,0.69466 0.9901,0.36756 0.54454,-0.32712 0.99008,-1.02778 0.99008,-1.55706 z M 172.66023,88.655053 c -6.41602,-3.212145 -7.93964,-3.741324 -8.45208,-2.935441 -0.31656,0.497855 -4.06532,0.905203 -8.33055,0.905203 -7.44624,0 -7.7797,-0.09575 -8.3762,-2.405781 -0.773,-2.993518 -2.32026,-3.129252 -2.74236,-0.240589 -0.30134,2.062234 -0.74015,2.165212 -9.22719,2.165212 h -8.91082 V 73.152383 60.161109 l 5.14252,-0.288983 c 4.59619,-0.258324 5.32008,-0.02454 6.8141,2.190607 1.23731,1.835417 1.51387,3.598025 1.06449,6.78465 -0.3339,2.367751 -0.2214,4.305 0.24998,4.305 0.47139,0 1.17196,-2.449615 1.55684,-5.443593 0.97027,-7.548036 1.27085,-8.028839 5.01915,-8.028839 3.16575,0 3.33017,0.184399 4.07903,4.571013 l 0.78029,4.570995 0.51799,-4.330425 c 0.4854,-4.058166 0.70471,-4.330425 3.48823,-4.330425 h 2.97028 l 0.28217,9.863765 c 0.27942,9.768264 0.30578,9.863734 2.72274,9.863734 2.38287,0 2.44094,-0.176488 2.45518,-7.457952 0.0191,-9.771103 1.27226,-12.181081 6.52977,-12.55777 5.20762,-0.373081 6.4643,1.140508 7.26244,8.747237 l 0.62701,5.975744 0.80399,-5.773908 c 1.05363,-7.566743 2.00479,-9.142008 5.52008,-9.142008 2.18554,0 2.9685,0.514406 3.29563,2.165213 l 0.42909,2.165211 0.13482,-2.165211 c 0.10022,-1.609177 0.74662,-2.165213 2.51714,-2.165213 2.11555,0 2.46044,0.552023 3.07988,4.929534 0.72543,5.126568 -0.39289,7.171588 -3.34463,6.116138 -1.0006,-0.357809 -1.18864,0.134214 -0.73002,1.910294 0.33976,1.315718 0.89834,5.001477 1.24128,8.190575 l 0.62354,5.798323 h -3.04245 c -2.29868,0 -3.1198,-0.479821 -3.35883,-1.962751 -0.4362,-2.706005 -2.22686,-2.844742 -2.61296,-0.202403 -0.19485,1.333636 -1.00388,2.165212 -2.10648,2.165212 -0.98454,0 -2.34472,0.649573 -3.02263,1.443484 -1.34532,1.575505 -2.66342,1.731757 -4.95046,0.586753 z M 136.61418,82.29262 c 1.11672,-1.656532 1.39476,-3.232556 0.89128,-5.052152 -0.40245,-1.454533 -0.66154,-5.111326 -0.57574,-8.126196 0.16789,-5.899386 -1.15808,-7.588838 -5.69542,-7.256646 -2.06062,0.150853 -2.13803,0.567246 -2.13803,11.499557 v 11.343018 h 2.94742 c 2.052,0 3.44057,-0.731466 4.57049,-2.407581 z m -6.13362,-0.868924 c -0.29355,-0.743524 -0.39096,-2.800495 -0.21644,-4.571013 0.24494,-2.485192 0.82299,-3.288977 2.5354,-3.525418 3.05526,-0.421889 5.01144,3.621053 3.40753,7.042511 -1.23203,2.628174 -4.84261,3.292672 -5.72648,1.05392 z m 3.23177,-4.662616 c -0.27464,-0.661583 -0.49939,-0.120299 -0.49939,1.202886 0,1.323185 0.22473,1.864498 0.49939,1.202896 0.27469,-0.661583 0.27469,-1.744209 0,-2.405782 z m -3.23584,-5.933192 c -1.11698,-2.829163 0.0397,-6.817513 1.97717,-6.817513 2.55413,0 4.00165,2.540362 3.20511,5.624962 -0.72125,2.793076 -4.23146,3.600845 -5.18228,1.192551 z m 16.21773,8.277732 c 2.0824,0.233775 2.83173,0.953482 3.31962,3.18877 0.55655,2.54986 0.63714,2.606059 0.6902,0.481159 0.0772,-3.090865 -1.54089,-10.781102 -1.69211,-8.042061 -0.24238,4.39005 -5.01393,3.523398 -5.17279,-0.939548 -0.0925,-2.59913 -0.23202,-2.41042 -0.94846,1.283086 -0.46198,2.381724 -1.05024,5.629552 -1.30727,7.217364 l -0.4673,2.886969 1.44431,-3.18877 c 1.19531,-2.639095 1.90792,-3.136757 4.1338,-2.886969 z m 15.07503,4.696172 c 0,-0.494121 -1.22524,-1.035434 -2.72276,-1.202896 l -2.72274,-0.304506 -0.54878,-10.104304 -0.54875,-10.104333 -0.19382,11.307219 -0.19382,11.307229 h 3.46532 c 1.90592,0 3.46532,-0.404298 3.46532,-0.898409 z m 13.39176,-5.256962 c 0.71829,-6.519233 -0.0815,-13.736347 -1.74385,-15.73735 -1.57279,-1.893079 -4.53064,-1.408812 -5.87765,0.962326 -0.67651,1.190857 -1.23003,5.413011 -1.23003,9.382577 0,8.665651 1.32696,11.547818 5.3167,11.547818 2.78034,0 2.87473,-0.164219 3.53483,-6.155371 z m -6.37987,3.844733 c -0.73699,-0.863082 -1.04784,-4.412856 -0.86381,-9.863734 0.2825,-8.367093 0.33061,-8.515454 2.76271,-8.515454 2.43211,0 2.48025,0.14839 2.76274,8.515454 0.26923,7.974611 -0.52849,11.212046 -2.76274,11.212046 -0.41118,0 -1.26569,-0.60675 -1.8989,-1.348312 z m 2.88901,-8.812817 c 0,-3.321292 -0.37538,-5.124028 -0.99011,-4.754787 -1.74179,1.046307 -1.15008,10.104334 0.66007,10.104334 0.1815,0 0.33004,-2.407284 0.33004,-5.349547 z m 16.33803,3.906062 c -0.77449,-4.125297 -1.30768,-5.555088 -1.37567,-3.688868 -0.17498,4.803077 -4.96185,5.227064 -5.17532,0.45838 -0.0859,-1.918146 -0.31524,-1.597137 -0.93303,1.305864 -0.45056,2.117097 -0.80043,4.931863 -0.77754,6.255048 l 0.0416,2.405802 0.68303,-2.405802 c 0.81579,-2.873362 5.73985,-4.006826 6.5509,-1.507921 0.26917,0.829372 0.72267,2.219477 1.00777,3.089132 1.17275,3.57746 1.16101,0.388526 -0.0219,-5.911635 z m -35.4635,-2.586226 c -0.31606,-0.767669 -0.55066,-0.539648 -0.59819,0.581413 -0.043,1.014445 0.19103,1.582817 0.52002,1.26303 0.329,-0.319749 0.36418,-1.149776 0.0781,-1.844443 z m -4.1798,-7.911051 c -0.78938,-5.116309 -2.93229,-5.912376 -3.93778,-1.462856 -0.36736,1.625651 -0.40275,3.213493 -0.0786,3.528498 0.32409,0.314986 0.58926,-0.135293 0.58926,-1.000944 0,-1.003436 0.53813,-1.372946 1.48514,-1.019748 0.81682,0.30467 1.48512,1.662363 1.48512,3.017142 0,1.354778 0.25618,2.214203 0.56931,1.909862 0.31314,-0.304314 0.26254,-2.541709 -0.11241,-4.971954 z m 35.75026,-0.569354 c 0.77894,0 1.41627,0.721728 1.41627,1.603854 0,0.882127 0.26515,1.346128 0.58926,1.031142 1.07967,-1.049387 -0.72496,-6.484263 -2.15306,-6.484263 -0.77356,0 -1.40647,0.378903 -1.40647,0.842028 0,0.463105 -0.16267,2.087005 -0.36148,3.608668 -0.1988,1.521663 -0.1678,2.008854 0.069,1.082624 0.23669,-0.926239 1.06766,-1.684053 1.84661,-1.684053 z M 90.798549,81.769533 c 0.325402,-2.670409 1.32483,-8.733003 2.22095,-13.472441 l 1.629324,-8.617141 h 3.256526 c 3.450711,0 4.352081,1.099938 4.598961,5.612038 0.0983,1.796462 0.32133,1.411536 0.74259,-1.281614 0.54826,-3.505372 0.86741,-3.849266 3.57233,-3.849266 h 2.97026 l 0.28149,9.803014 0.28146,9.803022 2.6888,0.301311 c 2.25861,0.253147 2.68879,0.763194 2.68879,3.188261 v 2.88694 l -8.09429,0.27835 c -7.780018,0.267591 -8.106763,0.192858 -8.415759,-1.924653 -0.389968,-2.672343 -2.178862,-2.559819 -2.618038,0.164768 -0.238948,1.482429 -1.060178,1.962751 -3.355702,1.962751 h -3.03932 z m 3.809532,-0.437459 c 0.56536,-3.046328 5.968609,-2.667898 6.869849,0.481158 l 0.6885,2.405802 0.0973,-2.405802 c 0.11955,-2.954784 -2.542249,-17.951987 -3.435597,-19.356901 -1.024626,-1.61138 -2.202824,0.25614 -2.80154,4.441004 -0.314454,2.197864 -0.241306,2.896005 0.170473,1.627258 1.536263,-4.733211 3.741625,-1.57332 4.069364,5.830705 0.097,2.192273 -0.295759,2.646351 -2.289211,2.646351 -1.734836,0 -2.501108,-0.604219 -2.745858,-2.165212 -0.18672,-1.190866 -0.811952,0.55593 -1.389414,3.881774 -0.57746,3.325823 -0.721686,5.707566 -0.320522,5.29275 0.401176,-0.414854 0.890142,-1.62033 1.086596,-2.678887 z m 18.646729,2.469718 c 0,-0.494121 -1.22524,-1.035434 -2.72274,-1.202896 l -2.72276,-0.304506 -0.54685,-10.585462 -0.54684,-10.585502 -0.19573,11.788388 -0.19573,11.788387 h 3.4653 c 1.90594,0 3.46532,-0.404298 3.46532,-0.898409 z m -9.22454,-10.829834 c -0.31607,-0.767688 -0.55069,-0.539638 -0.59819,0.581384 -0.043,1.014454 0.191,1.582828 0.52002,1.263041 0.32899,-0.319759 0.36416,-1.149748 0.0781,-1.844425 z m 9.22454,2.057029 v -2.93495 l 5.69302,0.28858 c 5.38937,0.273221 5.70974,0.42977 6.0063,2.934978 0.31132,2.629598 0.27523,2.646371 -5.69302,2.646371 h -6.0063 z m 7.68474,0.349167 c -0.94661,-0.240868 -2.72877,-0.249596 -3.96036,-0.01905 -1.23157,0.230234 -0.45708,0.427269 1.72112,0.437931 2.1782,0.01088 3.18587,-0.177586 2.23924,-0.418501 z M 106.7982,52.682168 c -0.80526,-0.438008 -1.46411,-1.640952 -1.46411,-2.673181 0,-1.694061 -0.72312,-1.876815 -7.425673,-1.876815 h -7.425678 v -4.374163 c 0,-5.163655 2.988134,-8.764932 8.096584,-9.757966 2.684987,-0.521932 2.887177,-0.730918 1.262925,-1.305402 -1.063601,-0.376199 -2.379371,-0.354344 -2.923921,0.0486 -0.54455,0.402913 -2.023902,0.352073 -3.287456,-0.112957 -1.63759,-0.602708 -2.206278,-1.469072 -1.980182,-3.016708 0.288948,-1.977859 0.846112,-2.171168 6.257728,-2.171168 5.789443,0 5.941693,0.0664 5.985833,2.610187 0.025,1.435612 0.35906,2.915164 0.74256,3.287918 0.3835,0.372744 0.69728,2.121196 0.69728,3.88544 0,2.780026 0.33003,3.207727 2.47522,3.207727 2.14486,0 2.47524,-0.427845 2.47524,-3.205495 0,-2.400412 0.59795,-3.516536 2.38081,-4.443929 3.26821,-1.70003 4.54981,-0.613584 4.54981,3.856945 0,3.150932 0.33498,3.792479 1.98018,3.792479 1.64407,0 1.98018,-0.641547 1.98018,-3.779421 0,-2.976589 0.57838,-4.221817 2.72276,-5.862028 l 2.72274,-2.082597 -3.52881,0.642827 c -4.10367,0.747537 -6.43489,-1.091584 -5.40014,-4.260262 0.56525,-1.730986 1.35994,-1.934247 6.76489,-1.730235 5.46438,0.206253 6.15776,0.458793 6.43364,2.343173 0.21225,1.449913 0.78677,1.93389 1.83257,1.543835 2.27225,-0.847494 3.27163,1.477733 3.28856,7.651388 0.0117,4.270406 0.35412,5.53332 1.50029,5.53332 0.92407,0 1.48514,-0.908859 1.48514,-2.4058 0,-2.660007 3.12974,-6.255048 5.4455,-6.255048 1.10009,0 1.48512,1.122695 1.48512,4.330424 0,4.203601 0.0902,4.330424 3.07761,4.330424 2.78334,0 3.01858,-0.228626 2.46014,-2.391135 -0.43974,-1.702925 -0.0256,-2.966331 1.43868,-4.389597 3.18581,-3.096436 5.3967,-2.093943 5.41547,2.455534 0.0117,2.855414 0.4505,3.904955 1.73266,4.144948 1.50523,0.281746 1.7169,-0.563504 1.7169,-6.855891 0,-6.566521 0.20765,-7.309506 2.44037,-8.731405 3.86425,-2.460923 4.49025,-1.939704 4.49025,3.738589 v 5.292732 h 6.46739 c 7.47635,0 12.85998,1.842721 13.80077,4.723742 0.46993,1.439068 1.48448,2.012483 3.56072,2.012483 2.53097,0 2.90355,-0.351332 2.90355,-2.737809 0,-2.969651 2.63074,-5.923039 5.27594,-5.923039 1.30107,0 1.6547,0.925479 1.6547,4.330424 0,3.977572 0.20168,4.330424 2.47522,4.330424 2.4569,0 2.47524,-0.06418 2.47524,-8.660848 0,-7.618545 0.20852,-8.657174 1.73264,-8.630248 0.95298,0.01694 2.51236,0.605875 3.46532,1.308982 1.47559,1.088707 1.73266,2.94031 1.73266,12.479513 V 48.13221 h -28.21757 -28.21756 v 2.435969 c 0,4.514882 -6.05506,4.183912 -6.75197,-0.369048 -0.17401,-1.136822 -0.91201,-2.066921 -1.63998,-2.066921 -0.80975,0 -1.13389,0.705003 -0.83498,1.816017 0.64027,2.379645 -0.94917,3.232122 -6.50791,3.490389 -5.03391,0.233776 -7.03724,-0.762375 -7.03724,-3.499609 0,-1.61697 -0.83225,-1.806797 -7.92074,-1.806797 -7.18037,0 -7.92072,0.174584 -7.92072,1.867818 0,1.027331 -0.55692,2.214694 -1.2376,2.638624 -1.63968,1.02122 -9.30716,1.051119 -11.15955,0.04369 z m 3.48635,-2.087409 c 0,-0.233506 -0.44554,-0.692021 -0.9901,-1.019122 -0.54454,-0.32712 -0.99008,-0.136111 -0.99008,0.424372 0,0.560511 0.44554,1.019093 0.99008,1.019093 0.54456,0 0.9901,-0.190953 0.9901,-0.424343 z m 5.94054,-0.537955 c 0,-0.529282 -0.19649,-0.962325 -0.43662,-0.962325 -0.24014,0 -0.71196,0.433043 -1.04852,0.962325 -0.33656,0.529256 -0.14008,0.962298 0.4366,0.962298 0.5767,0 1.04854,-0.433042 1.04854,-0.962298 z m 29.7027,0.537955 c 0,-0.233506 -0.44554,-0.692021 -0.99008,-1.019122 -0.54456,-0.32712 -0.9901,-0.136111 -0.9901,0.424372 0,0.560511 0.44554,1.019093 0.9901,1.019093 0.54454,0 0.99008,-0.190953 0.99008,-0.424343 z m 66.12938,-13.441416 c 0.16974,-5.046831 -0.13567,-8.985179 -0.74258,-9.57505 -0.7145,-0.694475 -1.03093,1.414297 -1.03093,6.870651 0,7.488325 -0.11497,7.900715 -2.35559,8.447293 -1.29558,0.316043 -3.63466,0.432561 -5.19798,0.25892 -2.47878,-0.275329 -2.91939,-0.808106 -3.44444,-4.164983 -0.52106,-3.331386 -0.62097,-3.454379 -0.74256,-0.914201 -0.18764,3.919467 -1.76774,5.244625 -6.25364,5.244625 -3.11579,0 -3.98191,-0.460468 -5.21086,-2.770336 -1.9072,-3.584648 -3.11062,-3.965879 -12.51915,-3.965879 h -7.83975 v -5.485205 c 0,-8.38324 -1.8375,-4.976254 -2.18166,4.045098 l -0.29356,7.695164 h -3.96036 c -3.95224,0 -3.9615,-0.0086 -4.51026,-4.330425 -0.46189,-3.637421 -0.65378,-3.94542 -1.19906,-1.924632 -0.35704,1.323185 -0.78402,3.271876 -0.9488,4.330424 -0.24839,1.595358 -1.05958,1.924633 -4.74148,1.924633 h -4.44184 l -0.55374,-4.330425 c -0.57324,-4.48298 -1.60104,-3.785281 -2.12645,1.443476 -0.26925,2.67957 -0.57458,2.886949 -4.25045,2.886949 h -3.96036 l -0.29277,-6.495636 c -0.29587,-6.564501 -0.60221,-7.134491 -3.03074,-5.638868 -0.93642,0.576707 -1.0114,1.026667 -0.2475,1.485528 0.60268,0.362033 1.0958,1.744055 1.0958,3.071157 0,2.064544 -0.39312,2.368954 -2.72276,2.108416 -2.15948,-0.241494 -2.70321,-0.782046 -2.62831,-2.612892 0.0887,-2.165713 0.012,-2.198961 -1.2376,-0.537819 -2.21357,2.942322 -1.56825,4.154513 2.38077,4.472184 2.95036,0.237345 3.71284,0.693916 3.71284,2.223297 0,1.764254 -0.66005,1.924633 -7.92072,1.924633 h -7.92072 l -0.56244,-3.849266 c -0.56989,-3.900452 -1.53531,-3.240553 -2.11176,1.443475 -0.2667,2.167136 -0.73805,2.405791 -4.75148,2.405791 -4.44384,0 -4.45621,-0.0096 -4.76548,-3.654233 -0.27651,-3.258568 -0.54453,-3.585496 -2.47523,-3.019374 -2.872809,0.842373 -4.531825,2.387064 -1.824749,1.699008 2.746399,-0.698055 3.991759,2.1387 1.851949,4.218498 -1.982087,1.92649 -4.406155,1.019786 -4.896329,-1.831424 -0.380056,-2.210739 -0.390194,-2.208574 -1.692084,0.360946 -2.989668,5.900665 -5.925166,5.634219 59.070483,5.361691 l 59.18597,-0.248142 z m -44.67742,5.525698 c -0.36302,-0.352842 -0.66006,-1.65197 -0.66006,-2.886949 0,-2.160632 0.29189,-2.245402 7.73149,-2.245402 8.32304,0 11.88497,1.385245 10.77713,4.191263 -0.51092,1.294095 -2.13475,1.582636 -8.90667,1.582636 -4.555,0 -8.57886,-0.288696 -8.94189,-0.641548 z m -39.99731,-1.914307 c -0.67031,-0.263589 -2.00693,-0.279649 -2.97026,-0.0357 -0.96333,0.243976 -0.41489,0.459669 1.21877,0.479282 1.63364,0.01963 2.42182,-0.180011 1.75149,-0.443618 z m 88.51173,6.7259 c -0.36303,-0.352872 -0.66005,-5.057926 -0.66005,-10.455714 0,-8.471581 0.28071,-10.161023 2.05204,-12.349726 4.17934,-5.164137 4.87858,-3.665532 4.87858,10.455704 v 12.991274 h -2.80525 c -1.54289,0 -3.10227,-0.288686 -3.46532,-0.641538 z m 4.29039,-11.982169 c 0,-6.170394 -0.35524,-9.409763 -0.99008,-9.028415 -0.55325,0.332345 -0.9901,4.8405 -0.9901,10.217905 0,6.170402 0.35526,9.409772 0.9901,9.028425 0.55326,-0.332345 0.99008,-4.84051 0.99008,-10.217915 z m 4.44204,11.640374 c -0.37698,-0.592865 -0.38872,-3.001024 -0.0262,-5.351444 0.57683,-3.73857 1.14234,-4.512985 4.51786,-6.186733 2.12217,-1.052283 4.54454,-1.913239 5.38307,-1.913239 2.18026,0 1.88349,2.652779 -0.4556,4.072592 -2.52068,1.530025 -2.50276,2.306326 0.0684,2.959815 1.64382,0.41781 1.98611,1.152875 1.73266,3.720923 -0.30878,3.128866 -0.42982,3.206689 -5.4253,3.488147 -3.01599,0.169945 -5.39029,-0.153846 -5.7949,-0.790061 z m 8.42914,-2.350921 c 0,-0.77529 -0.93307,-1.894965 -2.07348,-2.488185 -1.43267,-0.745237 -1.90878,-1.690751 -1.54053,-3.059425 0.30331,-1.127335 0.16339,-1.610139 -0.3247,-1.120503 -0.47171,0.4732 -1.16467,2.484269 -1.53992,4.469047 -0.66908,3.53888 -0.62271,3.608686 2.39818,3.608686 2.04523,0 3.08045,-0.473719 3.08045,-1.40962 z M 191.14191,29.206609 c -1.27304,-1.237347 -0.64308,-4.110044 1.07262,-4.891118 3.05994,-1.393039 10.33186,-0.864622 11.43404,0.830865 2.07957,3.199057 0.14913,4.701801 -6.03999,4.701801 -3.19364,0 -6.10362,-0.288695 -6.46667,-0.641548 z m 3.79535,-2.245402 c 0.33656,-0.529274 0.14008,-0.962316 -0.4366,-0.962316 -0.5767,0 -1.04853,0.433042 -1.04853,0.962316 0,0.529275 0.19649,0.962317 0.43662,0.962317 0.24013,0 0.71197,-0.433042 1.04851,-0.962317 z m 6.43558,0 c 0,-0.529274 -0.47181,-0.962316 -1.04851,-0.962316 -0.57668,0 -0.77317,0.433042 -0.43661,0.962316 0.33654,0.529275 0.80838,0.962317 1.04852,0.962317 0.24013,0 0.4366,-0.433042 0.4366,-0.962317 z m 58.26979,350.733963 c 41.81353,-7.70938 81.14246,-35.06697 107.39406,-74.70433 20.78187,-31.3786 34.17963,-70.43755 41.20775,-120.13435 3.29114,-23.27223 4.01766,-42.10657 4.01766,-104.154351 V 19.262675 h -83.16757 -83.16759 v 10.585482 10.585482 h 2.97025 c 2.60919,0 2.97027,-0.335194 2.97027,-2.757171 0,-1.516447 0.89108,-3.858226 1.9802,-5.203949 2.59834,-3.210586 2.52914,-3.414577 -1.1013,-3.247414 -3.4266,0.157781 -5.53981,-1.988425 -4.5146,-4.58513 0.52362,-1.326226 1.76592,-1.568432 6.8407,-1.333694 5.43375,0.251338 6.23764,0.53703 6.49802,2.309357 0.2321,1.579354 0.82866,1.923797 2.72276,1.571877 2.39027,-0.444119 2.42559,-0.350966 2.42559,6.397721 0,6.663417 0.0669,6.848403 2.47521,6.848403 2.45571,0 2.47524,-0.06794 2.47524,-8.604053 0,-5.218652 0.42845,-8.861434 1.08894,-9.258179 0.5989,-0.359761 2.2697,0.200855 3.71282,1.245796 2.38232,1.724973 2.65055,2.577421 2.91311,9.25817 0.27896,7.097459 0.3754,7.358266 2.72271,7.358266 1.98062,0 2.43359,-0.481052 2.43359,-2.584349 0,-2.746538 3.42592,-7.038816 5.61809,-7.038816 0.91499,0 1.31254,1.457351 1.31254,4.811582 0,4.70466 0.066,4.811583 2.97028,4.811583 h 2.97027 v -9.142007 c 0,-9.835145 0.53025,-10.655029 4.70293,-7.271687 2.07518,1.68261 2.22772,2.569962 2.22772,12.959257 v 11.15297 h -6.36985 c -6.21288,0 -6.37753,0.06515 -6.6831,2.64636 -0.24642,2.080567 -0.89697,2.711626 -3.04335,2.95156 -2.10239,0.235142 -2.92928,-0.207591 -3.5966,-1.924643 -0.47659,-1.226405 -0.66976,-2.554584 -0.4293,-2.951559 0.24053,-0.396956 -8.27708,-0.721718 -18.92796,-0.721718 h -19.36518 v 5.77389 c 0,6.652869 -2.03208,5.929457 16.33647,5.815807 5.99007,-0.03704 11.42005,0.271971 12.06669,0.686681 3.14525,2.017285 4.39528,14.093752 2.23971,21.637775 -1.30371,4.56264 -2.23487,4.785533 -18.39024,4.401943 l -12.82988,-0.304611 0.39647,2.616423 0.39646,2.616423 56.74048,0.270594 c 31.20722,0.148937 56.9771,0.500857 57.2664,0.782373 1.09961,1.06999 0.84237,82.29493 -0.28944,91.38942 -3.08283,24.77194 -6.37607,39.75764 -12.47716,56.77668 -13.77692,38.43076 -40.83355,68.61049 -72.90341,81.31847 -8.47101,3.3567 -20.34883,6.25232 -25.647,6.25232 h -2.90555 v 25.50138 25.50141 h 2.86089 c 1.5735,0 6.45816,-0.66327 10.8548,-1.47389 z m -8.76525,-12.96086 c -2.01239,-1.95596 -2.58952,-6.83279 -1.34359,-11.35381 0.9305,-3.37655 3.72555,-2.24816 4.31387,1.74158 0.59484,4.03391 2.90349,4.69543 8.48136,2.43022 l 3.73341,-1.51615 -2.64207,-2.68036 c -3.09194,-3.13679 -3.6568,-8.51208 -0.99863,-9.50349 2.06075,-0.7686 5.86737,3.59831 7.40242,8.49198 0.7538,2.40308 1.59602,3.39404 2.70728,3.1855 8.21764,-1.54214 8.32988,-1.68944 4.58335,-6.01704 -2.58241,-2.98293 -3.34565,-8.1999 -1.373,-9.38487 0.63322,-0.38036 3.29034,1.71576 6.24468,4.92626 3.23619,3.51683 5.58415,5.32303 6.33405,4.87259 0.90372,-0.54287 0.83025,-1.21729 -0.3041,-2.79139 -3.11695,-4.32519 -1.28712,-12.58816 3.15075,-14.2281 5.35715,-1.97964 9.99413,1.45443 5.27707,3.90811 -1.07661,0.56002 -2.44697,1.90716 -3.04522,2.99362 -1.93991,3.52313 2.54486,0.40232 5.02345,-3.49563 2.4725,-3.88832 3.99956,-3.89384 5.4081,-0.0191 0.83413,2.29446 0.38999,3.72878 -3.10454,10.02569 -4.39673,7.92264 -8.99295,11.94254 -13.1903,11.5363 -1.71857,-0.16639 -3.5023,0.74001 -5.70554,2.899 -2.5429,2.49188 -3.8728,3.07844 -6.43556,2.8385 -2.47891,-0.23214 -3.30389,-0.8061 -3.54667,-2.46768 -0.38904,-2.66248 -1.75059,-2.8242 -2.43273,-0.2889 -1.3892,5.16336 -14.41733,7.90251 -18.53784,3.89759 z m 10.64297,-1.4593 c 2.0638,-0.80261 4.26206,-2.2525 4.88502,-3.222 1.07574,-1.67426 0.95057,-1.67033 -2.49478,0.0785 -2.58585,1.31263 -4.90401,1.71156 -8.07378,1.38944 l -4.44646,-0.45187 2.32842,1.83258 c 2.80654,2.20884 3.05146,2.22056 7.80158,0.37325 z m 16.53104,-2.98436 c 0.87649,-0.3269 2.06051,-1.44228 2.63115,-2.4786 0.92911,-1.68736 0.82956,-1.7761 -0.9525,-0.84912 -1.09453,0.56935 -2.89641,1.03515 -4.00425,1.03515 -1.38359,0 -1.83576,0.45193 -1.44428,1.44348 0.62447,1.58166 1.36101,1.74756 3.76988,0.84909 z m 7.95841,-5.97372 c 3.83056,1.69636 7.67213,-1.14175 11.7468,-8.67838 4.34091,-8.02904 4.47897,-8.81886 0.85171,-4.87313 -1.9193,2.0878 -3.73428,3.04485 -5.94055,3.13249 -3.53963,0.14049 -4.2534,1.49663 -1.19668,2.27354 3.18394,0.80927 2.401,3.96421 -1.42375,5.73693 -3.05709,1.41693 -3.63713,1.42915 -5.69301,0.11975 -2.16422,-1.37829 -2.28908,-1.33658 -2.28908,0.76442 0,1.26532 0.37205,1.86062 0.86399,1.38243 0.49199,-0.47817 1.81848,-0.41709 3.08057,0.14185 z m -21.291,-5.4841 c -0.68883,-0.8067 -1.5102,-1.2162 -1.82522,-0.91001 -0.31503,0.30624 0.0825,0.95963 0.88364,1.452 2.09599,1.28838 2.36986,1.13071 0.94158,-0.54199 z m 16.8514,0.1724 c 0,-0.18249 -1.00249,-1.15696 -2.22772,-2.16521 l -2.2277,-1.83321 1.88609,2.1652 c 1.77248,2.03478 2.56933,2.60332 2.56933,1.83322 z m 10.3124,-11.93752 c 1.03159,-1.19085 1.61556,-2.16521 1.2978,-2.16521 -0.99786,0 -3.68948,2.97535 -3.68948,4.07838 0,0.57969 0.11619,0.87352 0.25792,0.65301 0.14201,-0.2204 1.10207,-1.37532 2.13362,-2.56618 z m -39.90162,10.43345 c -1.95072,-1.20075 -0.60187,-5.86245 1.69628,-5.86245 3.09302,0 5.43737,2.32629 4.68042,4.64434 -0.71408,2.18669 -3.83471,2.78282 -6.3767,1.21811 z m 57.54792,-7.23264 c -2.15619,-2.66426 -3.8154,-9.40375 -2.73387,-11.10461 1.10113,-1.7317 2.51091,-1.08913 3.5742,1.62915 1.41872,3.62679 2.93646,4.28324 5.84453,2.5278 6.08561,-3.67349 7.60728,-7.96106 3.47491,-9.79108 -1.95815,-0.86715 -2.47523,-1.80407 -2.47523,-4.48487 0,-2.92657 0.32106,-3.38875 2.35397,-3.38875 3.51763,0 4.66487,-1.99287 3.97271,-6.90099 -0.94007,-6.66618 2.46695,-9.13497 8.45386,-6.12588 5.07803,2.55232 5.64759,8.37314 1.06715,10.90642 -1.63021,0.9016 -2.96683,2.33 -2.97025,3.17421 -0.003,0.84418 -0.82251,2.25286 -1.82013,3.13037 -1.4537,1.27867 -1.72691,2.61473 -1.37598,6.72797 0.70144,8.2212 -4.06153,14.46125 -11.99306,15.71223 -2.75761,0.43494 -3.66858,0.0938 -5.37281,-2.01197 z m 11.28014,-4.75826 c 5.44454,-5.29182 5.72768,-7.38044 0.32306,-2.38341 -2.792,2.58147 -4.88753,3.70027 -6.93061,3.70027 -2.80202,0 -3.6823,0.87133 -2.26855,2.24541 1.65282,1.60644 4.89837,0.30388 8.8761,-3.56227 z m 4.01379,-16.17258 c 1.26032,-1.15081 2.29149,-2.94138 2.29149,-3.97905 0,-1.66528 -0.24079,-1.58912 -2.05204,0.64893 -1.1286,1.39454 -2.68799,2.53557 -3.46529,2.53557 -0.77731,0 -1.41328,0.64954 -1.41328,1.44346 0,2.05983 1.97516,1.78355 4.63912,-0.64891 z m 8.39409,-9.71026 c 1.34598,-2.11674 -0.25539,-2.54141 -2.25489,-0.59798 -1.11134,1.08018 -2.63179,1.736 -3.37878,1.45741 -0.86378,-0.32219 -1.16565,-0.0191 -0.82931,0.83297 0.40717,1.03124 1.13144,1.11686 3.14725,0.37193 1.44009,-0.53217 2.93216,-1.46111 3.31573,-2.06433 z m -4.61745,-4.55673 c 0.33657,-0.52927 0.16643,-0.96232 -0.37817,-0.96232 -0.54457,0 -1.26545,0.43305 -1.60202,0.96232 -0.33653,0.52926 -0.16643,0.9623 0.37818,0.9623 0.54455,0 1.26546,-0.43304 1.60201,-0.9623 z m -21.10518,14.67532 c 0.261,-2.20512 0.84983,-2.69664 3.53107,-2.94793 2.9976,-0.28091 3.2178,-0.0998 3.2178,2.64637 0,2.73798 -0.25146,2.94794 -3.53107,2.94794 -3.26799,0 -3.50775,-0.19722 -3.2178,-2.64638 z m 44.08821,-12.74037 c -0.48974,-1.82021 -0.69361,-1.84176 -4.14851,-0.43873 -1.99841,0.81158 -4.47227,1.21683 -5.49748,0.90056 -2.78172,-0.85812 -6.90143,-6.06679 -6.90143,-8.72569 0,-2.86777 2.45579,-3.1065 4.19013,-0.40732 1.57049,2.44423 3.19174,2.42861 6.79554,-0.0654 3.15908,-2.18638 3.72477,-3.78374 1.33992,-3.78374 -2.11959,0 -4.59949,-6.12866 -3.7738,-9.32625 0.36556,-1.41561 1.70972,-4.07063 2.98705,-5.90007 1.27732,-1.82944 2.3224,-4.34846 2.3224,-5.59777 0,-1.35333 0.58627,-2.27151 1.45031,-2.27151 2.74773,0 3.70906,-3.5285 2.50153,-9.18184 -1.66886,-7.81334 0.69126,-12.95143 5.94906,-12.95143 5.65612,0 7.93652,6.06563 5.42684,14.43474 -0.87292,2.91103 -1.89861,6.78988 -2.27928,8.61974 -0.50319,2.4186 -1.33115,3.47361 -3.03244,3.86397 -1.5722,0.36073 -2.70974,1.63748 -3.46612,3.89037 -1.00682,2.99878 -0.91533,3.45751 0.86504,4.33787 2.50441,1.23832 3.16857,7.11018 1.23118,10.88484 -1.28714,2.50775 -1.24263,2.67908 0.68143,2.6242 1.6143,-0.0461 2.12543,0.61613 2.36874,3.06878 0.17428,1.75677 -0.15128,3.12753 -0.74257,3.12753 -0.57904,0 -1.05282,0.63433 -1.05282,1.40961 0,1.5141 -2.92168,3.40198 -5.26492,3.40198 -0.78912,0 -1.66654,-0.86145 -1.9498,-1.91431 z m -4.64559,-3.38888 c 2.67736,-1.34566 7.89996,-7.57256 7.89996,-9.4191 0,-0.44169 -2.19878,1.39102 -4.88617,4.07267 -2.84443,2.83836 -5.76488,4.87572 -6.98907,4.87572 -1.15658,0 -1.82753,0.43304 -1.49098,0.96232 0.8402,1.32133 2.08133,1.20971 5.46626,-0.49161 z m 5.11024,-14.42431 c 1.61791,-1.32319 2.51647,-2.40578 1.99684,-2.40578 -0.51966,0 -1.49949,0.64954 -2.17739,1.44349 -1.53939,1.80281 -4.95045,1.89398 -4.95045,0.1323 0,-0.72113 1.33662,-2.9459 2.97025,-4.94389 1.63368,-1.99802 2.9703,-4.642 2.9703,-5.87549 0,-1.4389 0.92479,-2.7137 2.58018,-3.55673 1.74812,-0.89022 3.18497,-2.98301 4.4554,-6.48942 2.22884,-6.15138 2.3737,-8.20909 0.31884,-4.52759 -0.81242,1.45552 -1.90843,2.64637 -2.4356,2.64637 -0.52715,0 -0.95846,0.83286 -0.95846,1.8508 0,1.01794 -1.11388,3.13739 -2.47524,4.70993 -1.36138,1.5725 -2.47522,3.27273 -2.47522,3.77828 0,0.50555 -1.32851,2.82475 -2.95227,5.15382 -3.15168,4.52071 -3.72019,7.46875 -1.80017,9.33492 1.56557,1.52167 1.53254,1.53004 4.93299,-1.25101 z m 4.45616,-0.66158 c -0.31607,-0.76767 -0.55066,-0.53965 -0.59819,0.5814 -0.043,1.01443 0.19114,1.5828 0.52,1.26305 0.32903,-0.31979 0.36418,-1.14978 0.0783,-1.84445 z m 3.01417,-35.33604 c 1.58749,-0.89827 1.5457,-0.99583 -0.43788,-1.02229 -2.45801,-0.0327 -4.28364,2.56485 -4.16195,5.92196 0.0715,1.97192 0.23996,1.87529 1.4628,-0.83909 0.76009,-1.68716 2.17177,-3.51442 3.13703,-4.06058 z m 15.58056,10.73682 c 2.29028,-8.78136 1.41821,-12.94435 -2.24576,-10.72038 -2.68839,1.63184 -6.40812,-0.19558 -9.13844,-4.48932 -2.53671,-3.98936 -2.45505,-5.05551 0.48707,-6.35843 2.2345,-0.98954 2.31543,-1.24132 0.99006,-3.08042 -2.19673,-3.04837 -1.76542,-5.84576 1.99126,-12.91467 1.88899,-3.55453 3.65717,-7.22059 3.9293,-8.14682 0.58409,-1.9882 2.47236,-2.16469 4.87686,-0.45582 1.49588,1.06314 1.58944,1.83009 0.69586,5.7056 -0.79985,3.46882 -0.68815,5.95889 0.49584,11.05458 1.06182,4.57005 1.24032,7.30732 0.58491,8.96971 -0.80008,2.02931 -0.47016,2.87545 2.17307,5.57353 2.4805,2.53191 3.11605,4.00455 3.11485,7.21736 -0.002,4.80016 -3.53246,10.29146 -6.61691,10.29146 -1.71983,0 -1.92326,-0.40235 -1.33797,-2.64638 z m 5.1468,-8.17968 c -0.27477,-0.66161 -0.49937,-0.12029 -0.49937,1.20289 0,1.32319 0.2248,1.86447 0.49937,1.20289 0.27475,-0.66157 0.27475,-1.74421 0,-2.40578 z m -1.52295,-3.86533 c -0.97784,-0.9433 -1.09156,-0.83277 -0.55425,0.53872 0.37182,0.94903 0.92544,1.48314 1.23027,1.18685 0.30484,-0.29629 6.3e-4,-1.07278 -0.67602,-1.72557 z m -6.33562,-2.68475 c 0.29285,-1.08849 1.03084,-1.79436 1.63994,-1.56861 0.72718,0.26951 1.0679,-1.11634 0.99211,-4.03541 -0.23883,-9.19848 -0.59271,-10.44757 -1.40941,-4.97371 -0.43051,2.88534 -1.37738,5.7001 -2.10419,6.25505 -1.5827,1.20848 -2.12633,6.30174 -0.6726,6.30174 0.5619,0 1.26127,-0.89057 1.55415,-1.97906 z m -4.67823,-3.79485 c 0,-0.52925 -0.44554,-0.9623 -0.9901,-0.9623 -0.54452,0 -0.99006,0.43305 -0.99006,0.9623 0,0.52929 0.44554,0.96233 0.99006,0.96233 0.54456,0 0.9901,-0.43304 0.9901,-0.96233 z m 2.46823,-3.83823 c 0.34686,-0.5455 -0.0505,-0.70682 -0.93167,-0.37819 -1.71526,0.63972 -2.02909,1.32948 -0.60489,1.32948 0.51241,0 1.20386,-0.42807 1.53656,-0.95129 z m 1.2582,-10.10865 c 1.23272,-0.52557 2.05742,-1.42128 1.83274,-1.99047 -0.22481,-0.56916 -0.068,-2.84564 0.34848,-5.05886 0.41642,-2.2132 0.62444,-4.02401 0.46233,-4.02401 -0.16222,0 -1.91674,3.09337 -3.89915,6.87415 -2.75789,5.25977 -3.43039,7.46325 -2.86362,9.3826 0.72177,2.44422 0.75528,2.4222 1.30932,-0.85967 0.38018,-2.25204 1.31129,-3.68477 2.8099,-4.32374 z m -27.10869,30.68415 c -0.7169,-2.77619 0.69319,-4.18787 4.2076,-4.2124 2.86032,-0.0191 3.85541,4.45748 1.28752,5.79322 -3.00859,1.56502 -4.81714,1.04473 -5.49512,-1.58082 z M 283.5923,85.014581 c -1.88694,-2.331559 -2.05598,-3.616223 -1.80454,-13.713002 l 0.27757,-11.14047 9.65337,-0.266783 c 8.5722,-0.236777 9.65337,-0.0816 9.65337,1.386824 0,1.552438 0.0769,1.551187 1.25939,-0.01905 1.04004,-1.382464 2.54874,-1.623987 8.66327,-1.386823 l 7.40392,0.287155 0.60207,3.849266 c 0.42126,2.693149 0.64426,3.078075 0.74257,1.281613 0.30845,-5.636971 0.24361,-5.612037 14.55354,-5.612037 11.19793,0 13.34914,0.23977 14.11691,1.573213 0.81394,1.413615 1.12022,1.364816 3.01946,-0.481157 2.50689,-2.436548 4.82972,-2.601498 7.83389,-0.556316 1.23341,0.839651 2.20049,1.05112 2.20049,0.481168 0,-0.655366 4.04809,-1.016908 11.38605,-1.016908 10.17179,0 11.38939,0.179491 11.41752,1.684073 0.0299,1.603855 0.094,1.603855 1.34678,0 0.72339,-0.92623 2.49137,-1.684073 3.92887,-1.684073 3.21568,0 3.28431,1.094616 0.63341,10.104333 -1.08911,3.701551 -1.98019,9.03238 -1.98019,11.84629 v 5.116175 l -3.21778,-0.301532 c -3.12364,-0.292727 -3.22461,-0.442348 -3.45034,-5.113144 -0.34918,-7.224947 -2.35286,-14.915897 -3.88598,-14.915897 -1.02549,0 -1.32699,2.309406 -1.32699,10.165306 V 86.74807 l -3.21779,-0.301532 -3.21778,-0.301561 -0.50571,-10.104304 c -0.60862,-12.161334 -2.1441,-10.857241 -1.7498,1.486115 l 0.27532,8.618189 -3.96036,0.214953 c -2.17819,0.118384 -5.17818,0.492186 -6.66661,0.830873 -1.48842,0.338687 -3.49335,0.297279 -4.4554,-0.0919 -0.96204,-0.389286 -3.30856,-0.763194 -5.21448,-0.830874 -3.39788,-0.120568 -3.47676,-0.216588 -4.05235,-4.934634 l -0.58702,-4.811564 -0.15548,5.052153 -0.15548,5.052162 h -8.91082 -8.91082 l -0.11477,-4.089836 c -0.0632,-2.249415 -0.3033,-3.22377 -0.53361,-2.165212 -0.23043,1.058538 -0.63267,2.898969 -0.89413,4.089835 -0.38189,1.739475 -1.14931,2.165213 -3.90294,2.165213 -3.56959,0 -3.73116,-0.227502 -4.78594,-6.736206 -0.21443,-1.323185 -0.45055,-0.328188 -0.52473,2.211124 l -0.1347,4.616925 -6.14712,-0.286501 c -5.60124,-0.261057 -6.20797,-0.500154 -6.83194,-2.692292 l -0.68484,-2.405801 -0.0988,2.646371 c -0.0851,2.277572 -0.51266,2.64638 -3.06897,2.64638 -1.63365,0 -2.97027,-0.500155 -2.97027,-1.111457 0,-0.665018 -0.72731,-0.471727 -1.81062,0.481159 -2.74372,2.413364 -6.63354,1.991639 -9.03845,-0.979947 z m 7.23077,-1.036136 c 0.25231,-0.396956 -0.79259,-0.721728 -2.32226,-0.721728 -1.52965,0 -2.57464,0.324772 -2.32226,0.721728 0.25231,0.396955 1.29745,0.721756 2.32226,0.721756 1.02481,0 2.06983,-0.324801 2.32226,-0.721756 z M 306.1232,72.855018 c -0.16727,-9.037529 -0.25343,-9.570008 -0.53669,-3.311303 -0.27085,5.985533 -0.64335,7.457934 -1.88688,7.457934 -1.01064,0 -1.33898,0.533008 -0.9442,1.532875 0.33285,0.843085 0.87358,2.572253 1.20161,3.842626 1.32757,5.141032 2.35397,0.629066 2.16616,-9.522132 z m 15.28791,7.514758 c 0.24529,-1.587841 0.2596,-2.345656 0.0316,-1.684054 -0.22789,0.661583 -1.04986,1.202886 -1.82676,1.202886 -1.43895,0 -1.96491,2.991612 -0.73597,4.186068 1.02284,0.994159 2.03376,-0.485633 2.53102,-3.7049 z m 13.62397,3.432016 c 0,-0.494121 -1.22526,-1.035434 -2.72276,-1.202896 -2.41995,-0.270594 -2.7559,-0.744881 -3.02066,-4.264274 -0.28338,-3.766498 -0.13837,-3.997819 2.97025,-4.739843 l 3.26819,-0.780101 -3.21778,-0.373274 c -3.01593,-0.34985 -3.21779,-0.609232 -3.21779,-4.134054 0,-3.416137 0.29485,-3.84353 3.21779,-4.663819 l 3.21778,-0.903048 -3.71282,-0.0867 -3.71285,-0.0867 v 11.066623 11.06665 h 3.46531 c 1.90593,0 3.46534,-0.404288 3.46534,-0.898409 z m 11.85008,-7.853686 c -0.87141,-2.566345 -1.65011,-3.402204 -2.87865,-3.089951 -2.43994,0.620146 -4.20433,-1.978628 -3.84103,-5.657373 0.23968,-2.427876 0.8315,-3.261849 2.47578,-3.489378 2.50623,-0.346791 4.7272,2.844328 3.96118,5.691418 -0.27056,1.005179 -0.0876,1.584917 0.40605,1.288321 1.30255,-0.78245 1.10116,-5.616975 -0.29037,-6.969462 -0.65345,-0.635119 -2.65841,-1.154771 -4.4554,-1.154771 h -3.26728 l 0.15548,10.826062 c 0.11002,7.648771 0.32783,9.416383 0.74255,6.022822 0.45561,-3.727976 1.01567,-4.882372 2.50176,-5.156785 2.61739,-0.483343 4.49132,2.332587 4.66922,7.016433 0.12321,3.242506 0.22201,3.420554 0.58178,1.04827 0.23826,-1.571684 -0.10413,-4.440734 -0.76113,-6.375606 z m 12.4718,6.385402 c 1.94618,-2.886939 1.11619,-7.794331 -1.55309,-9.182819 -4.74577,-2.468602 -6.51359,-7.159943 -3.58752,-9.520245 1.73394,-1.39867 4.55705,-0.377209 4.65904,1.685795 0.0518,1.048002 0.25035,1.164586 0.58864,0.345828 0.61749,-1.49416 -1.39937,-4.057473 -3.19254,-4.057473 -2.2474,0 -4.40489,2.915964 -4.40489,5.953429 0,2.129472 0.96531,3.7884 3.53641,6.077347 2.93156,2.60988 3.48192,3.701935 3.21779,6.384865 -0.39471,4.009569 -3.5674,4.491141 -5.47275,0.8307 -0.68875,-1.323185 -1.25883,-1.836042 -1.26685,-1.139633 -0.0282,2.387882 2.0359,4.988899 3.95778,4.988899 1.05736,0 2.64046,-1.065025 3.51798,-2.366693 z M 375.9084,63.727494 c 1.89718,-0.890278 1.54843,-1.039187 -2.56578,-1.095464 -2.93711,-0.04013 -4.52693,0.303573 -4.14943,0.897207 0.33652,0.529255 1.25391,0.962297 2.03858,0.962297 1.14072,0 1.46887,2.07386 1.63699,10.344903 l 0.21021,10.344922 0.31685,-10.211786 c 0.29299,-9.441085 0.4826,-10.289521 2.5125,-11.242079 z m 10.93735,7.500266 c 0.3552,-1.323185 0.39838,-1.888826 0.0959,-1.25695 -0.30244,0.631848 -1.26102,0.883599 -2.13021,0.559424 -1.26915,-0.473363 -1.45417,-0.131211 -0.93964,1.738117 0.35235,1.280141 0.70774,4.709231 0.78966,7.620257 l 0.14902,5.292751 0.6947,-5.773908 c 0.38206,-3.175655 0.9853,-6.856496 1.34054,-8.179691 z m -88.73387,7.469174 c -0.23686,-1.197055 -0.43959,-0.444254 -0.45055,1.672842 -0.0112,2.117088 0.18269,3.096495 0.43057,2.176423 0.24782,-0.92007 0.25681,-2.65224 0.0196,-3.849265 z m 12.90258,-11.077871 c -0.19645,-3.043326 -0.35724,-0.553332 -0.35724,5.53332 0,6.086652 0.16082,8.576666 0.35724,5.533339 0.19646,-3.043326 0.19646,-8.023323 0,-11.066659 z m 54.45498,0 c -0.19646,-3.043326 -0.35724,-0.553332 -0.35724,5.53332 0,6.086652 0.16081,8.576666 0.35724,5.533339 0.19647,-3.043326 0.19647,-8.023323 0,-11.066659 z m -80.19905,-0.481158 c -0.20011,-2.778671 -0.36362,-0.505216 -0.36362,5.052181 0,5.557378 0.16362,7.830822 0.36362,5.052152 0.20011,-2.778699 0.20011,-7.325634 0,-10.104333 z m 6.93063,0 c -0.20009,-2.778671 -0.36364,-0.505216 -0.36364,5.052181 0,5.557378 0.16364,7.830822 0.36364,5.052152 0.20011,-2.778699 0.20011,-7.325634 0,-10.104333 z m 2.97142,-0.930051 c -0.20066,-2.796433 -0.3669,-0.754004 -0.36949,4.538747 -0.003,5.292751 0.16166,7.580736 0.36481,5.084429 0.20319,-2.496317 0.20544,-6.826741 0.006,-9.623176 z m 41.84281,11.756112 c 0,-1.411401 -0.66006,-1.924614 -2.47523,-1.924614 -1.81516,0 -2.47524,0.513213 -2.47524,1.924614 0,1.41141 0.66008,1.924642 2.47524,1.924642 1.81517,0 2.47523,-0.513232 2.47523,-1.924642 z m 18.3946,-0.744641 c -1.70488,-1.587129 -1.72597,-1.566641 -0.47358,0.460296 0.72092,1.166798 1.52389,1.914307 1.78435,1.66116 0.26046,-0.253137 -0.32937,-1.207823 -1.31077,-2.121456 z m -37.54071,-2.382888 c -0.27475,-0.661583 -0.49937,-0.120299 -0.49937,1.202915 0,1.323185 0.22482,1.864469 0.49937,1.202886 0.27477,-0.661603 0.27477,-1.744199 0,-2.405801 z m 33.9015,-0.352959 c -1.63338,-1.912882 -2.77174,-1.638854 -2.18902,0.526965 0.30213,1.122908 1.05891,1.649546 1.91276,1.331096 1.08399,-0.404318 1.14829,-0.836792 0.27617,-1.858061 z m -52.21873,-5.244134 c 1.05974,-0.676806 -0.0851,-6.672434 -1.27396,-6.672434 -0.47646,0 -0.83116,2.273483 -0.78816,5.052153 0.043,2.778708 0.33257,4.402608 0.64352,3.608697 0.31093,-0.793902 0.94929,-1.688712 1.4186,-1.988416 z m 17.35393,-1.620281 c -0.24893,-0.92623 -0.4528,-0.1683 -0.4528,1.684053 0,1.85247 0.20376,2.610285 0.4528,1.684055 0.24896,-0.926239 0.24896,-2.441869 0,-3.368108 z m 5.94418,0.980629 c -0.25091,-0.936295 -0.47294,-0.403229 -0.49312,1.184583 -0.0196,1.587823 0.18525,2.353904 0.45641,1.702386 0.27111,-0.651536 0.28773,-1.950663 0.0367,-2.886969 z m 38.91747,2.146909 c 0,-0.843903 -0.9011,-1.443485 -2.16942,-1.443485 -2.1201,0 -2.12571,0.03224 -0.24754,1.412883 2.41025,1.771885 2.41693,1.771962 2.41693,0.03051 z m -24.75224,-2.4058 c 0,-1.411382 -0.66006,-1.924624 -2.47523,-1.924624 -3.12248,0 -3.32501,2.594001 -0.24754,3.170121 1.22524,0.229406 2.33911,0.476 2.47526,0.548096 0.1361,0.07198 0.24753,-0.735036 0.24753,-1.793593 z m 6.59627,-1.202896 c -0.27477,-0.661583 -0.4994,-0.120299 -0.4994,1.202896 0,1.323185 0.2248,1.864488 0.4994,1.202914 0.27475,-0.661611 0.27475,-1.744199 0,-2.40581 z m -19.80183,-3.849266 c -0.27475,-0.661575 -0.4994,-0.12029 -0.4994,1.202895 0,1.323186 0.22482,1.864498 0.4994,1.202915 0.27477,-0.661603 0.27477,-1.744199 0,-2.40581 z m -7.90008,0.06034 c -0.31608,-0.767669 -0.55069,-0.539648 -0.5982,0.581412 -0.043,1.014416 0.19112,1.582789 0.52004,1.263031 0.32897,-0.319778 0.36415,-1.149776 0.0783,-1.844443 z m 67.8874,-10.080055 c -0.68067,-0.267052 -1.2376,-1.531892 -1.2376,-2.810975 0,-2.23777 -0.26185,-2.325591 -6.93065,-2.325591 h -6.93063 V 37.214863 c 0,-9.354554 0.25934,-11.145492 1.81062,-12.510114 0.99583,-0.875949 2.55523,-1.592625 3.46532,-1.592625 1.42363,0 1.65469,1.20942 1.65469,8.660849 0,7.625012 0.20825,8.660849 1.74222,8.660849 1.30752,0 1.73983,-0.78041 1.73268,-3.127529 -0.009,-2.841307 0.29132,-3.15559 3.27828,-3.434161 3.62156,-0.337745 8.09819,1.953156 8.09819,4.144226 0,0.763088 0.91709,1.864479 2.038,2.447546 2.93805,1.528284 2.34726,7.060305 -0.80041,7.494791 -1.58023,0.218234 -2.2277,0.957351 -2.2277,2.543422 0,2.779054 -2.52847,4.007913 -5.69301,2.766803 z m 7.27098,-8.169499 c 0.38761,-0.60957 -0.014,-1.619205 -0.89272,-2.243642 -0.87862,-0.624428 -2.04951,-2.29091 -2.60199,-3.703273 -0.77808,-1.989098 -1.62378,-2.538408 -3.75177,-2.436903 -2.338,0.111542 -2.41509,0.193214 -0.51738,0.548366 2.61588,0.48955 4.853,3.887972 3.4543,5.247426 -0.51415,0.49975 -3.78559,0.778043 -7.26988,0.618424 l -6.335,-0.290206 -0.56102,-7.698533 -0.561,-7.698533 -0.18158,9.382587 -0.18158,9.382586 h 9.34743 c 5.98444,0 9.60096,-0.398745 10.05216,-1.108299 z m -85.70453,-8.274287 c 0.03,-10.908936 0.11761,-11.368346 2.48411,-13.042719 1.34917,-0.954531 2.89458,-1.470276 3.43423,-1.146109 0.56641,0.340245 0.9812,5.853839 0.9812,13.042728 v 12.45332 h -3.46534 -3.46532 z m 3.6691,-5.292741 c -0.20011,-2.778689 -0.36365,-0.505216 -0.36365,5.052162 0,5.557378 0.16362,7.830851 0.36365,5.052162 0.20011,-2.778689 0.20011,-7.325635 0,-10.104324 z m 9.17096,11.837351 c 0,-4.245973 0.34907,-5.019454 3.21779,-7.130334 1.76979,-1.302255 4.10888,-2.568875 5.19797,-2.814727 1.08911,-0.245863 0.5065,-0.308192 -1.29469,-0.138545 -4.72568,0.44511 -6.13098,-0.376998 -6.13098,-3.586689 V 26.86954 l 6.18807,0.2865 c 6.03008,0.279179 6.18707,0.354066 6.14904,2.932872 -0.0225,1.455504 0.31269,2.646371 0.74257,2.646371 0.42988,0 0.7816,1.73217 0.7816,3.849266 0,3.207719 0.33,3.849266 1.98019,3.849266 1.41721,0 1.98017,-0.641547 1.98017,-2.256642 0,-3.708969 2.94121,-5.44189 9.23627,-5.44189 5.57892,0 5.61508,0.01857 5.61508,2.886949 0,2.726561 -0.22002,2.886951 -3.96036,2.886951 -2.1782,0 -3.96036,0.433041 -3.96036,0.962316 0,0.529274 1.98924,0.962316 4.42056,0.962316 3.46736,0 4.65883,-0.432666 5.52538,-2.006449 1.23614,-2.244949 8.17086,-5.63853 11.58852,-5.67095 2.12637,-0.02021 2.2277,0.329015 2.2277,7.677399 v 7.698543 H 342.9558 318.20352 Z m 46.53425,-2.454765 c 0,-5.329789 -0.38533,-5.94088 -2.80577,-4.449607 -1.05481,0.649891 -0.99102,0.936594 0.31698,1.424441 2.70874,1.010287 1.48894,4.895294 -1.64765,5.247598 -2.24953,0.252675 -2.7082,-0.111898 -3.02678,-2.405792 l -0.37549,-2.703589 -1.17459,2.692456 c -1.1276,2.584637 -1.41855,2.680975 -7.26624,2.40579 -4.50467,-0.211978 -6.37504,-0.725383 -7.17956,-1.970718 -1.58228,-2.449162 0.36866,-4.92502 4.44991,-5.647219 l 3.36278,-0.595059 -3.02855,-0.126679 c -4.06926,-0.170214 -6.76649,1.922545 -6.82473,5.295233 -0.0452,2.620081 -0.27,2.757779 -4.503,2.757779 -4.44386,0 -4.45622,-0.0096 -4.76552,-3.654234 -0.27643,-3.258567 -0.54452,-3.585496 -2.47521,-3.019375 -2.80862,0.823551 -4.56222,2.394783 -1.92448,1.724347 2.43321,-0.618442 3.5819,0.895763 2.70853,3.570349 -0.9835,3.011829 -5.95384,2.218735 -5.82503,-0.929492 0.0888,-2.165713 0.0111,-2.198951 -1.23762,-0.53781 -1.42867,1.899016 -1.74581,4.529075 -0.67199,5.572775 0.36305,0.352852 10.3877,0.641547 22.27702,0.641547 h 21.61699 z M 261.55989,323.36857 c 3.96949,-1.08147 9.98428,-3.22192 13.36624,-4.7566 l 6.14901,-2.79029 -5.94055,-0.16994 c -3.26731,-0.0935 -9.2821,-0.23896 -13.36622,-0.32335 l -7.42567,-0.15332 -0.28116,-9.20384 c -0.25342,-8.29914 -0.0783,-9.38223 1.78191,-11.01851 2.97266,-2.61476 8.6599,-2.40334 11.00294,0.40904 1.01894,1.22302 1.90533,3.15007 1.96974,4.2823 0.0868,1.52527 0.27925,1.33702 0.7426,-0.72663 0.85004,-3.7856 5.12448,-6.7963 8.48513,-5.97648 5.05445,1.23298 6.23909,3.47662 6.40075,12.12248 0.0974,5.20412 -0.28602,8.44053 -1.11556,9.41875 -1.98785,2.34408 14.29849,-7.83409 17.47368,-10.92022 0.85764,-0.83359 1.55934,-2.7167 1.55934,-4.18467 0,-3.37334 2.93746,-5.99989 7.06285,-6.31532 2.29331,-0.17538 4.29047,-1.38548 7.07518,-4.28706 2.13393,-2.22354 3.59947,-4.31535 3.25672,-4.64847 -0.34272,-0.33312 -4.33815,-0.49262 -8.87866,-0.35445 -6.1258,0.18631 -8.36435,-0.075 -8.67743,-1.01339 -0.23211,-0.69551 -0.25118,-3.97112 -0.0424,-7.27907 l 0.37958,-6.01448 6.59516,-0.18849 6.59519,-0.18849 -6.68312,-0.33664 c -5.36788,-0.27033 -6.68312,-0.6445 -6.68312,-1.90097 0,-5.24951 9.14045,-7.06941 12.79933,-2.54839 l 2.05204,2.53557 2.05204,-2.53557 c 2.72305,-3.36469 7.95265,-3.4845 11.27197,-0.25832 l 2.34304,2.2773 4.44148,-9.2541 c 2.44283,-5.08977 5.63446,-12.50193 7.09256,-16.47146 2.61441,-7.11764 8.73506,-28.97587 8.21476,-29.33687 -0.14707,-0.10204 -8.34849,2.34464 -18.22508,5.43729 l -17.95743,5.62298 -7.63636,13.05466 c -4.20001,7.18008 -8.14878,13.23555 -8.77502,13.45661 -1.72188,0.60785 -27.60804,5.20841 -38.14668,6.77958 -5.10703,0.76137 -9.58371,1.56346 -9.94818,1.78239 -1.13836,0.68381 -2.53442,-0.80381 -3.57116,-3.80537 -0.64507,-1.86758 -1.77672,-2.99553 -3.20493,-3.19448 -1.67737,-0.2335 -2.20782,-0.94919 -2.20782,-2.97838 0,-1.49411 -0.91886,-3.47858 -2.08552,-4.50407 -3.14075,-2.76075 -5.52846,-7.93162 -7.89208,-17.09128 l -2.13117,-8.25888 -4.37289,2.92423 c -5.84125,3.90617 -13.80948,7.37288 -18.6694,8.12243 -3.18077,0.4906 -4.50021,0.20077 -6.6831,-1.46817 -2.22858,-1.70382 -2.71989,-2.84261 -2.71989,-6.30439 0,-4.68099 2.6007,-11.86421 6.43019,-17.76033 1.49363,-2.29967 2.02417,-3.85759 1.31373,-3.85759 -0.65546,0 -0.38817,-0.57109 0.59397,-1.26912 1.58119,-1.12375 0.83739,-1.51312 -6.49387,-3.39938 -14.19471,-3.65215 -20.3139,-8.2999 -19.04519,-14.46556 1.06636,-5.18227 7.26871,-8.45498 23.90194,-12.61204 l 4.22554,-1.05609 -2.44093,-3.11043 c -1.34252,-1.71076 -3.83806,-6.0123 -5.54566,-9.55899 -3.94894,-8.20196 -4.24498,-14.68628 -0.79453,-17.40314 4.47288,-3.5219 15.52755,-0.61402 27.18107,7.14987 l 4.07895,2.71749 0.59926,-4.24945 c 0.96247,-6.82509 4.51611,-16.07654 7.64873,-19.91262 2.48642,-3.04473 2.90085,-4.38526 2.90085,-9.38258 v -5.83032 h 8.01865 c 9.27185,0 13.89792,1.66347 16.49097,5.92999 0.93933,1.54553 2.82619,3.0388 4.19304,3.31835 5.3839,1.10114 11.42362,3.68224 13.6265,5.82334 1.27323,1.23751 2.4733,2.25002 2.66686,2.25002 0.19365,0 14.31921,-6.70814 31.39037,-14.90698 l 31.03845,-14.906974 -109.53711,-0.0086 -109.53708,-0.0086 -0.59999,2.64638 c -1.27006,5.601914 0.11725,76.427784 1.75611,89.654214 3.36953,27.19363 10.31444,52.21663 19.87687,71.61791 4.6141,9.36155 4.6835,9.44172 6.24749,7.21736 2.17427,-3.09223 3.2063,-3.66097 6.67402,-3.67803 3.73917,-0.0191 7.39845,2.38115 7.39845,4.85142 0,1.64856 -0.79157,1.89239 -6.6831,2.05854 l -6.68312,0.1885 6.68312,0.33664 6.6831,0.33666 v 7.10646 c 0,6.35666 -0.20843,7.13894 -1.97554,7.41399 -1.75746,0.27357 -1.52304,0.82044 2.12381,4.95424 3.06404,3.47316 4.60261,4.51884 6.09192,4.14031 2.0949,-0.53247 8.51063,1.63164 8.75217,2.95224 0.0775,0.42396 0.26561,2.27871 0.41794,4.12166 0.30708,3.71506 2.06165,5.40767 11.8172,11.40005 l 5.94054,3.64902 -0.3088,-9.23749 c -0.28039,-8.38837 -0.1166,-9.40653 1.78191,-11.07645 2.69734,-2.37258 8.20372,-2.38488 10.8874,-0.0246 1.86026,1.63628 2.03543,2.71937 1.7819,11.0185 l -0.28116,9.20386 -5.94053,0.48116 -5.94055,0.48115 4.95044,2.04031 c 20.2709,8.35457 32.43841,9.64882 48.80103,5.19094 z m -40.38523,-17.14425 c 0,-10.1452 0.64239,-11.63844 5.64354,-13.11836 2.66262,-0.78791 7.87865,1.65251 8.58162,4.01505 0.27731,0.93205 0.42029,5.37549 0.31769,9.8743 l -0.18656,8.1797 -7.17814,0.28273 -7.17816,0.28274 z m 11.88108,1.73331 v -5.77391 h -4.95046 -4.95044 v 5.77391 5.77391 h 4.95044 4.95046 z m -1.03204,-11.11578 c -1.48718,-1.74166 -7.02231,-1.5317 -7.6375,0.28971 -0.28637,0.84784 0.96893,1.2029 4.25285,1.2029 4.09739,0 4.50549,-0.18004 3.38465,-1.49261 z m -58.37337,-20.15951 v -7.21737 h 7.42568 7.42567 v 7.21737 7.21739 h -7.42567 -7.42568 z m 12.67539,-0.2406 0.29926,-5.05218 h -5.49723 -5.49724 v 5.34306 5.34302 l 5.19797,-0.29087 5.19797,-0.29088 z m 19.0075,0.2406 v -7.21737 h 7.42566 7.42568 v 7.21737 7.21739 h -7.42568 -7.42566 z m 12.87116,0 v -5.29275 h -5.4455 -5.44548 v 5.29275 5.29274 h 5.44548 5.4455 z m 2.97028,0.0423 v -7.25955 h 7.46905 7.46905 l -0.29089,6.9768 -0.29091,6.9768 -7.17814,0.28274 -7.17816,0.28274 z m 11.88108,-0.0423 v -5.29275 h -4.95046 -4.95044 v 5.29275 5.29274 h 4.95044 4.95046 z m 20.79192,0.0218 v -7.19572 l 13.98468,0.0191 c 7.69154,0.0109 14.22613,-0.21603 14.52129,-0.50282 0.29518,-0.28688 -2.43362,-0.52161 -6.06392,-0.52161 -5.87636,0 -6.60063,-0.20513 -6.60063,-1.87006 0,-4.81103 9.33939,-6.60581 12.70893,-2.44227 1.64959,2.03829 1.93664,3.76047 1.80453,10.82606 l -0.15716,8.4022 -6.84199,0.28805 c -4.80418,0.20241 -7.08506,-0.0843 -7.65806,-0.96232 -0.62757,-0.96161 -0.81954,-0.97258 -0.83119,-0.0475 -0.0111,0.85407 -2.16846,1.20291 -7.44084,1.20291 h -7.42567 z m 12.67539,-0.26215 0.29926,-5.05218 h -5.49723 -5.49723 v 5.34304 5.34302 l 5.19797,-0.29087 5.19796,-0.29085 z m 15.04715,0.24059 v -5.29274 h -4.95046 -4.95046 v 5.29274 5.29275 h 4.95046 4.95046 z m -0.71357,-10.79191 c -0.89515,-2.26732 -5.23159,-2.62256 -7.31343,-0.59914 -1.88164,1.82884 -1.8435,1.8528 2.95106,1.8528 3.58399,0 4.72759,-0.32865 4.36237,-1.25366 z m -107.2063,1.16874 c 0,-2.60325 3.77334,-5.29272 7.42568,-5.29272 3.65234,0 7.42567,2.68947 7.42567,5.29272 0,1.1548 -1.48514,1.44347 -7.42567,1.44347 -5.94055,0 -7.42568,-0.28867 -7.42568,-1.44347 z m 10.8232,-0.9623 c 0.7314,-1.64739 -4.55431,-2.90633 -6.29775,-1.50001 -0.84336,0.6803 -1.35785,1.51264 -1.14333,1.84962 0.63418,0.99617 6.97585,0.69821 7.44108,-0.34961 z m 20.85969,0.9623 c 0,-2.60325 3.77332,-5.29272 7.42566,-5.29272 3.65236,0 7.42568,2.68947 7.42568,5.29272 0,1.1548 -1.48512,1.44347 -7.42568,1.44347 -5.94054,0 -7.42566,-0.28867 -7.42566,-1.44347 z m 11.41652,-0.52909 c 0.28601,-0.44979 -0.43991,-1.31713 -1.61312,-1.9274 -2.34653,-1.2206 -7.42045,0.27319 -6.39667,1.88321 0.69715,1.09637 7.31752,1.13289 8.00979,0.0442 z m 4.42492,0.10257 c 0,-4.66628 8.94276,-6.52467 12.69859,-2.63892 3.66597,3.79279 2.82843,4.50897 -5.27291,4.50897 -6.6934,0 -7.42568,-0.18439 -7.42568,-1.87005 z m 11.14743,-0.78461 c -0.70257,-1.79204 -5.00854,-2.55256 -6.70487,-1.18422 -2.51594,2.02947 -1.64124,2.82885 2.85372,2.60799 3.00545,-0.14759 4.18105,-0.58229 3.85115,-1.42377 z m 21.52557,0.78461 c 0,-4.47269 9.14543,-6.56271 12.87117,-2.94153 3.86651,3.75805 2.67417,4.81158 -5.4455,4.81158 -6.69338,0 -7.42567,-0.18439 -7.42567,-1.87005 z m 11.35531,-0.006 c 0.31967,-0.50273 -0.37868,-1.41336 -1.55193,-2.02363 -2.4226,-1.26018 -7.40549,0.29666 -6.33545,1.97945 0.77645,1.2211 7.11642,1.25662 7.88738,0.0442 z m -48.5647,46.52109 c 1.1602,-0.43271 1.56611,-1.92919 1.56611,-5.77388 v -5.18979 h -5.4455 -5.44548 v 5.13234 c 0,2.82282 0.29702,5.42107 0.66005,5.77391 0.82498,0.80185 6.56689,0.8399 8.66482,0.0573 z m 48.51445,0 c 1.1602,-0.43271 1.56611,-1.92919 1.56611,-5.77388 v -5.18979 h -5.4455 -5.44548 v 5.13234 c 0,2.82282 0.29701,5.42107 0.66005,5.77391 0.82498,0.80185 6.56688,0.8399 8.66482,0.0573 z m 16.41748,-5.18976 v -5.77391 h -4.95046 -4.95046 v 5.13234 c 0,2.82282 0.29703,5.42107 0.66005,5.77391 0.36305,0.35286 2.59077,0.64155 4.95046,0.64155 h 4.29041 z m -65.346,-11.06663 c -0.67789,-0.79395 -2.23729,-1.44349 -3.46532,-1.44349 -1.22801,0 -2.78741,0.64954 -3.4653,1.44349 -1.06616,1.24857 -0.59831,1.44345 3.4653,1.44345 4.06364,0 4.53148,-0.19476 3.46532,-1.44345 z m 48.51444,0 c -0.6779,-0.79395 -2.23729,-1.44349 -3.46531,-1.44349 -1.22802,0 -2.78742,0.64954 -3.46532,1.44349 -1.06614,1.24857 -0.59831,1.44345 3.46532,1.44345 4.06363,0 4.53145,-0.19476 3.46531,-1.44345 z m 15.84146,0 c -0.67791,-0.79395 -2.46007,-1.44349 -3.96036,-1.44349 -1.5003,0 -3.28246,0.64954 -3.96036,1.44349 -1.06896,1.25187 -0.54332,1.44345 3.96036,1.44345 4.50365,0 5.02932,-0.19149 3.96036,-1.44345 z m 28.7126,0 c 0.74633,-0.87403 0.82609,-1.44349 0.20236,-1.44349 -1.81877,0 -4.16258,1.14168 -4.16258,2.02759 0,1.37691 2.61526,0.99116 3.96036,-0.5841 z m 5.17335,-18.52462 c 0.75208,-6.1746 0.14398,-6.9768 -5.28881,-6.9768 h -4.83496 v 5.29275 5.29275 h 4.84211 4.84213 z m 12.02317,-1.68405 3.61561,-5.29275 h -4.90213 c -2.69618,0 -5.19704,0.46382 -5.55749,1.03065 -1.07543,1.69129 0.52455,9.55485 1.94413,9.55485 0.70636,0 2.91129,-2.38176 4.89988,-5.29275 z m 1.39386,-7.91686 c -2.02767,-0.20678 -5.59199,-0.20977 -7.92072,-0.006 -2.32874,0.20323 -0.66973,0.37246 3.68667,0.37595 4.35639,0.003 6.26172,-0.16285 4.23405,-0.36958 z m -158.81445,-2.07978 c 1.39314,-0.17349 -1.46161,-2.99453 -3.03031,-2.99453 -2.24459,0 -5.3747,1.92675 -4.74329,2.91973 0.48509,0.76286 2.12182,0.77862 7.7736,0.0748 z m 144.43196,-0.0353 c 1.75722,-0.18985 -2.21423,-2.95944 -4.24367,-2.95944 -0.90062,0 -2.3431,0.75782 -3.20551,1.68404 -1.46936,1.57807 -1.32327,1.67541 2.32175,1.5466 2.13942,-0.0756 4.44674,-0.19776 5.12743,-0.27114 z m 14.92479,-1.22177 c -1.8629,-2.00075 -3.56532,-2.1778 -6.46036,-0.67192 -2.83444,1.4744 -0.52044,2.84406 4.38611,2.59616 3.49347,-0.17649 3.60514,-0.28009 2.07425,-1.92424 z M 274.1445,251.12039 c 9.80188,-1.64411 19.30088,-3.23059 21.10886,-3.52552 3.72469,-0.6076 3.90291,-0.83289 13.0367,-16.47891 l 6.44815,-11.04554 5.4455,-1.72612 c 2.99501,-0.94933 10.79199,-3.29354 17.32658,-5.20935 6.53459,-1.91579 12.23386,-3.81397 12.665,-4.21815 0.63108,-0.59159 -40.4796,-39.35531 -44.11888,-41.60017 -3.09148,-1.90695 0.99775,-3.43276 17.2247,-6.42707 23.98921,-4.42663 31.77821,-5.93009 33.78346,-6.521 1.60148,-0.47195 1.73265,-2.76413 1.73265,-30.27756 0,-20.40693 -0.33142,-29.766979 -1.05402,-29.766979 -0.57972,0 -16.44557,7.361719 -35.25747,16.359409 -18.81189,8.99766 -34.77134,16.35937 -35.46543,16.35937 -0.69413,0 -1.96739,-1.04634 -2.82952,-2.3252 -1.54501,-2.29184 -10.76218,-6.33564 -14.44101,-6.33564 -1.06421,0 -2.7228,-1.44561 -3.91849,-3.41529 -2.5602,-4.21753 -7.18579,-6.20789 -14.42704,-6.20789 h -5.4773 v 5.20265 c 0,4.76955 0.16866,5.15974 2.02773,4.68725 4.43178,-1.1264 9.76843,6.86845 12.77673,19.14097 l 1.57283,6.41642 5.92014,-3.80041 c 10.17021,-6.52872 20.66698,-8.23176 25.34968,-4.11286 4.11753,3.6218 1.40231,15.32803 -5.97136,25.74467 l -3.0122,4.25524 3.68783,0.6304 c 7.68462,1.31361 15.93576,4.57615 19.88701,7.86339 3.44604,2.86693 4.09767,3.98061 4.09767,7.00329 0,3.75734 -2.75337,7.18155 -7.81385,9.71766 -3.25496,1.63124 -14.95271,4.82215 -17.67784,4.82215 -1.22697,0 -2.23086,0.20813 -2.23086,0.46247 0,0.25423 1.55435,2.82415 3.45413,5.71066 10.93539,16.61527 9.65164,27.50314 -3.09467,26.24633 -4.94155,-0.48725 -14.50401,-4.44623 -20.10898,-8.32539 l -2.76048,-1.91049 -0.58818,4.17066 c -1.4802,10.49637 -9.80609,23.95138 -13.88062,22.43168 -2.38511,-0.88956 -2.01352,-3.06548 1.27767,-7.48139 2.98211,-4.0012 6.41638,-13.06375 7.31352,-19.29941 0.51715,-3.59421 -0.23658,-4.62742 -7.81847,-10.71875 -2.23031,-1.79179 -2.28927,-1.76064 -11.90068,6.28928 l -3.17568,2.65975 1.49385,6.48227 c 1.94192,8.42653 4.79997,14.89199 7.78977,17.62195 1.39382,1.2727 2.39521,3.28026 2.39521,4.80192 0,1.99503 0.59389,2.75977 2.50528,3.22604 1.77872,0.43392 2.67882,1.45478 3.10387,3.52037 0.52094,2.53154 0.93478,2.84319 3.18778,2.40068 1.42401,-0.27969 10.60883,-1.85372 20.41073,-3.49784 z m -19.72176,-15.48628 c 2.31862,-4.35792 1.21621,-4.15737 -1.25549,0.22832 -1.17585,2.08651 -1.72341,3.54464 -1.21678,3.2403 0.50665,-0.30434 1.61917,-1.86525 2.47227,-3.4687 z m -41.12757,-11.32369 c 2.75711,-1.01825 7.69577,-3.50824 10.9748,-5.53334 l 5.96184,-3.682 -0.65757,-7.69538 c -0.36167,-4.23251 -1.10771,-7.96584 -1.6579,-8.29634 -0.55018,-0.33048 -4.38641,-0.89912 -8.52496,-1.26361 -8.79233,-0.7744 -8.65744,-0.87383 -14.62795,10.78238 -7.69044,15.01399 -4.67188,20.56451 8.53174,15.68829 z m 68.77007,0.38536 c -6.12354,-1.65265 -6.78372,-1.63992 -2.97029,0.0573 1.63367,0.72705 4.08412,1.31222 5.4455,1.30038 1.49916,-0.0137 0.52305,-0.54844 -2.47521,-1.35761 z m 9.53214,-0.21823 c 1.25694,-1.55776 1.21035,-1.57819 -0.62134,-0.27224 -1.08909,0.77647 -2.16584,1.53429 -2.39271,1.68405 -0.22678,0.14976 0.0527,0.27223 0.62134,0.27223 0.5686,0 1.64535,-0.75781 2.39271,-1.68404 z m -33.11301,-1.38334 c -0.31607,-0.76767 -0.55068,-0.53965 -0.59819,0.58141 -0.043,1.01443 0.19112,1.58279 0.52003,1.26304 0.32898,-0.31978 0.36416,-1.14979 0.0783,-1.84445 z m 30.35247,-3.54459 c -0.16755,-3.41874 -4.80942,-12.89247 -8.90163,-18.16768 -2.06607,-2.66334 -3.0432,-3.12557 -6.58366,-3.11439 -7.74976,0.0246 -8.36774,0.4903 -9.36246,7.05716 -0.85866,5.66872 -0.788,6.01555 1.65899,8.1405 4.74375,4.11942 17.66483,9.87562 21.36758,9.51899 1.5862,-0.15275 1.94857,-0.83616 1.82118,-3.43458 z m -15.1874,2.31541 c 0,-0.24605 -1.00244,-0.91947 -2.2277,-1.49657 -2.1392,-1.00757 -2.15133,-0.98982 -0.3058,0.4473 2.02004,1.57301 2.5335,1.78564 2.5335,1.04927 z m -14.16522,-5.06771 c -0.25089,-0.93629 -0.47292,-0.40325 -0.4931,1.18459 -0.0196,1.58782 0.18522,2.3539 0.45644,1.70235 0.2711,-0.6515 0.28769,-1.95064 0.0367,-2.88694 z m 31.97872,-1.91272 c -1.07241,-1.62483 -1.10172,-1.62232 -0.56165,0.0486 0.31338,0.96953 0.62148,2.4852 0.68465,3.36814 0.10356,1.44624 0.15915,1.44143 0.56165,-0.0486 0.24586,-0.90962 -0.0623,-2.42526 -0.68465,-3.36813 z m -25.73421,2.13499 c -0.6779,-0.79391 -1.70869,-1.44349 -2.29062,-1.44349 -0.58197,0 -0.19338,0.63581 0.86376,1.41288 2.48363,1.82582 2.96865,1.83622 1.42686,0.0306 z m -4.29429,-8.93159 c 0.22678,-3.10608 0.75934,-6.9141 1.18331,-8.46224 0.74357,-2.71536 1.03084,-2.83589 8.12896,-3.4109 6.57439,-0.53257 7.61861,-0.37884 9.80341,1.44348 1.3449,1.12175 1.92733,1.37547 1.29427,0.5638 -1.38467,-1.77531 -0.49622,-3.42021 2.20102,-4.07519 1.19164,-0.28936 0.54961,-0.52532 -1.61225,-0.59248 -3.11672,-0.0968 -4.1328,-0.79241 -7.67321,-5.2527 -2.2444,-2.82756 -4.08076,-5.66093 -4.08076,-6.29634 0,-1.94694 8.05549,-11.65092 9.77233,-11.77216 2.31961,-0.16367 2.10234,-0.17486 8.04929,0.41176 3.53528,0.34876 4.57722,0.2556 2.97027,-0.26541 -1.36138,-0.4415 -3.93721,-0.84589 -5.72409,-0.89865 -4.00642,-0.11839 -4.96325,-2.10253 -2.71805,-5.63671 1.24135,-1.95404 0.81995,-1.71888 -1.6238,0.90616 l -3.30028,3.54509 -7.12949,-0.69104 c -3.92124,-0.3801 -7.41294,-0.96653 -7.75934,-1.30323 -0.34642,-0.33667 -1.05669,-3.95403 -1.57844,-8.03854 -0.902,-7.06158 -0.83698,-7.5426 1.32376,-9.79143 1.2498,-1.30073 4.16588,-3.44753 6.48023,-4.77064 2.31434,-1.32313 4.20786,-2.59626 4.20786,-2.82925 0,-0.65356 -4.10568,1.55676 -7.60711,4.09532 -3.95005,2.86384 -5.99429,2.90126 -6.54547,0.11975 -0.24278,-1.22455 -0.48767,-0.46817 -0.56393,1.74108 -0.11955,3.46718 -0.73955,4.41376 -5.51422,8.4203 -2.95869,2.48267 -5.79791,4.51394 -6.3094,4.51394 -0.51149,0 -3.71062,-2.16038 -7.10913,-4.80086 -3.39852,-2.64045 -6.52116,-4.59541 -6.93918,-4.34431 -0.418,0.25123 -1.07654,3.73944 -1.46337,7.75183 -0.39268,4.07281 -1.21,7.47225 -1.85032,7.6959 -0.63085,0.22042 -4.57973,0.73283 -8.77534,1.13887 l -7.62835,0.73826 4.90561,6.12777 c 2.69809,3.37025 4.90561,6.75062 4.90561,7.51194 0,0.7613 -2.23709,4.06643 -4.97129,7.34468 -2.94976,3.5367 -4.45957,6.06362 -3.71284,6.21414 0.69214,0.1394 4.60001,0.57254 8.68413,0.96233 l 7.42568,0.70866 0.99008,8.55072 0.9901,8.55076 5.11156,-3.93571 c 2.81135,-2.16467 5.39951,-4.38857 5.75145,-4.94206 1.39465,-2.19327 5.25654,-0.68833 10.91073,4.25173 3.26281,2.85066 6.10226,5.01788 6.30991,4.81603 0.20769,-0.20186 0.56322,-2.90832 0.79009,-6.01442 z m -26.36368,-44.41371 c -0.56371,-1.02375 -1.02492,-2.75592 -1.02492,-3.84929 0,-2.84711 4.49786,-2.71465 6.02158,0.17731 0.62744,1.19086 2.09112,2.90574 3.25263,3.81083 l 2.11185,1.64561 -2.2915,-0.57117 c -1.2603,-0.31413 -2.98232,-1.59598 -3.82671,-2.84851 -2.11586,-3.13864 -3.35654,-2.85259 -2.64411,0.60961 0.67647,3.2875 -0.0846,3.77564 -1.59882,1.02559 z m 19.27194,-1.02558 c 1.28805,-2.42094 1.31052,-2.88697 0.13922,-2.88697 -0.76819,0 -2.12651,1.08263 -3.01852,2.40582 -0.892,1.32318 -2.16849,2.39199 -2.83663,2.37516 -0.75641,-0.0191 -0.60458,-0.482 0.40236,-1.2269 0.88943,-0.65794 1.78432,-2.05156 1.98864,-3.09689 0.2425,-1.24023 1.31465,-2.00645 3.08579,-2.20515 2.2749,-0.25532 2.70919,0.0562 2.68278,1.92462 -0.0311,2.20323 -2.04479,5.59725 -3.32089,5.59725 -0.36234,0 0.0322,-1.29913 0.87716,-2.88694 z m 32.17794,42.34193 c -0.58288,-1.05857 -1.28253,-1.92465 -1.55483,-1.92465 -0.27224,0 -0.0168,0.86608 0.56475,1.92465 0.58286,1.05853 1.28251,1.92462 1.5548,1.92462 0.27222,0 0.0168,-0.86609 -0.56472,-1.92462 z m 69.23207,-12.11799 c 1.03827,-7.36087 2.19601,-18.53435 2.57276,-24.82996 0.66218,-11.06472 0.62017,-11.43008 -1.25939,-10.95235 -1.0694,0.27168 -12.36727,2.37359 -25.10639,4.67061 l -23.16203,4.1764 17.49546,16.17365 c 20.28549,18.75282 26.95737,24.70775 27.31524,24.38004 0.14116,-0.12929 1.10608,-6.25752 2.14435,-13.61839 z m -139.32719,-5.32496 4.6567,-5.80829 -5.08129,-6.28447 -5.0813,-6.28444 -4.23621,0.56435 c -6.39548,0.85201 -16.29792,4.33207 -19.91439,6.99862 -6.52212,4.80894 -3.03359,9.72748 9.9216,13.98858 12.42319,4.0861 14.13463,3.81082 19.73489,-3.17435 z m 73.3129,5.25783 c -0.68068,-0.26705 -1.79454,-0.26705 -2.4752,0 -0.68072,0.26705 -0.12379,0.48536 1.23759,0.48536 1.36138,0 1.91831,-0.2185 1.23761,-0.48536 z m 4.43479,-0.9064 c -0.329,-0.31976 -1.18295,-0.35396 -1.89767,-0.0762 -0.78985,0.3072 -0.55522,0.53522 0.59817,0.58141 1.04373,0.0418 1.6285,-0.18576 1.2995,-0.50544 z m -2.70213,-2.80494 c 11.28008,-2.67385 16.26866,-5.82327 13.8012,-8.71296 -2.69769,-3.15937 -16.48949,-8.04002 -22.87519,-8.09512 -0.90661,-0.009 -3.29065,2.16028 -5.29794,4.81802 -3.60776,4.77694 -3.6299,4.86233 -1.93345,7.45796 0.94386,1.44415 2.61753,3.59138 3.71923,4.77168 2.12611,2.27771 1.95266,2.281 12.58615,-0.2395 z m 11.68506,0.11674 c 1.47177,-0.73972 3.56278,-2.36363 4.64671,-3.60867 l 1.97075,-2.26373 -2.47521,2.11338 c -1.36138,1.16239 -4.03144,2.76935 -5.93349,3.57102 -1.90203,0.80171 -2.87918,1.47459 -2.17145,1.49529 0.70773,0.0218 2.49097,-0.56756 3.96269,-1.30729 z m 4.08147,-11.7623 c -2.32974,-2.44763 -9.79706,-6.19279 -12.13577,-6.0866 -0.63555,0.029 1.07218,0.92094 3.79494,1.98237 2.72274,1.06145 6.05415,2.9865 7.40316,4.27794 3.2738,3.13413 3.96437,3.0062 0.93767,-0.17376 z m -79.01234,-14.07831 c 0.33827,-0.50334 0.91791,-4.16381 1.2881,-8.13435 0.77999,-8.36617 1.25199,-7.74182 -10.31889,-13.64963 -9.77664,-4.99174 -13.98041,-5.76666 -16.73874,-3.0857 -1.14015,1.10815 -2.07298,2.82647 -2.07298,3.81847 0,3.08627 2.88045,9.94963 7.02511,16.73898 l 3.97636,6.5137 8.11301,-0.64315 c 4.46215,-0.35375 8.38977,-1.05496 8.72803,-1.55832 z m 51.68677,-1.06781 c 4.20137,-5.35374 8.8817,-15.15837 8.98589,-18.82414 0.0962,-3.38411 0.0339,-3.44046 -3.57542,-3.23672 -4.21885,0.23814 -13.59536,4.62555 -18.45947,8.63742 l -3.32111,2.73922 0.70799,6.42581 0.70802,6.42581 3.6032,0.37112 c 8.42048,0.86731 8.73303,0.7974 11.3509,-2.53852 z m 6.6086,-3.50305 c 0.58286,-1.05854 0.83697,-1.92461 0.56472,-1.92461 -0.27224,0 -0.97194,0.86607 -1.5548,1.92461 -0.58288,1.05856 -0.83701,1.92465 -0.56475,1.92465 0.27224,0 0.97195,-0.86609 1.55483,-1.92465 z m -34.42161,-6.05144 4.68699,-4.05286 -1.3946,-6.38925 c -1.68264,-7.70911 -5.00153,-15.48481 -7.57586,-17.7492 -1.03873,-0.91369 -1.88862,-2.3108 -1.88862,-3.10471 0,-2.15705 -3.72721,1.3776 -5.98357,5.67448 -2.82858,5.38656 -6.20644,19.24758 -4.98083,20.43878 1.81297,1.76213 11.4408,9.17718 11.95449,9.20694 0.27224,0.0164 2.60418,-1.79511 5.182,-4.02418 z m 40.75899,-8.88401 0.57188,-3.8297 -1.35774,4.33043 c -0.74677,2.38171 -1.66141,5.1965 -2.03251,6.25503 -0.42024,1.19856 -0.12377,1.00966 0.78584,-0.50072 0.80334,-1.33394 1.718,-4.14871 2.03253,-6.25504 z m -34.55496,-5.27319 c -0.89183,-3.94658 -1.6917,-3.16914 -0.86632,0.84204 0.3479,1.69073 0.83893,2.87348 1.09119,2.62831 0.25231,-0.24524 0.15098,-1.80683 -0.22482,-3.47035 z m 28.14403,-0.96232 c 2.00083,0 4.26243,0.54131 5.02576,1.20291 1.18071,1.02332 1.19216,0.95151 0.0769,-0.48115 -2.06803,-2.6563 -12.88376,-1.751 -16.4056,1.37319 -0.53939,0.47846 0.96465,0.20294 3.34228,-0.61248 2.3776,-0.81536 5.95996,-1.48247 7.96079,-1.48247 z m -30.62394,-6.45935 c -1.07881,-1.63528 -1.10676,-1.63318 -0.56512,0.0425 0.31338,0.9695 0.60498,2.26863 0.64798,2.88694 0.0564,0.8114 0.21358,0.79958 0.5651,-0.0425 0.26774,-0.64167 -0.0225,-1.94079 -0.64796,-2.88694 z m -2.9656,-6.38276 c 0,-0.1825 -1.00247,-1.15696 -2.2277,-2.16522 l -2.2277,-1.83321 1.88611,2.16521 c 1.77248,2.03478 2.56929,2.60332 2.56929,1.83322 z M 199.55766,81.332074 c 0.26262,-1.415116 1.1363,-1.924623 3.30032,-1.924623 2.16403,0 3.03772,0.509507 3.30035,1.924623 0.88516,4.76952 1.76923,2.879376 0.98679,-2.109735 -1.06692,-6.803058 -1.62989,-8.383403 -1.73375,-4.867041 -0.0632,2.140202 -0.5384,2.646351 -2.48452,2.646351 -1.74169,0 -2.49375,-0.59805 -2.72275,-2.165212 -0.17401,-1.190866 -0.78523,0.542314 -1.35825,3.851499 -0.57303,3.309175 -0.72767,5.6909 -0.34363,5.292712 0.38404,-0.398148 0.85898,-1.590017 1.05544,-2.648574 z m 16.12731,-6.656257 c 5.805,-2.357444 5.71555,-11.290688 -0.12394,-12.37568 -1.53498,-0.285202 -3.12756,-0.316294 -3.53907,-0.069 -0.41151,0.247142 -0.6679,5.512149 -0.56975,11.699893 0.0981,6.187714 0.34551,9.189286 0.54969,6.670133 0.3362,-4.14818 0.68365,-4.707161 3.68307,-5.925242 z m -3.00025,-2.807809 c -0.30822,-0.78065 -0.41761,-2.867954 -0.24312,-4.638472 0.26711,-2.709989 0.7088,-3.219161 2.79252,-3.219161 2.27353,0 2.47522,0.352863 2.47522,4.330426 0,3.760713 -0.29366,4.370957 -2.23213,4.638499 -1.28911,0.177856 -2.46887,-0.291581 -2.7925,-1.111292 z m 3.22574,-3.707632 c -0.31607,-0.767659 -0.55067,-0.539648 -0.59817,0.581412 -0.043,1.014426 0.19101,1.582789 0.52,1.263041 0.32901,-0.319788 0.36418,-1.149786 0.0781,-1.844453 z m 26.05611,15.644409 c 0,-0.492447 -1.00249,-1.033759 -2.2277,-1.202886 -2.11682,-0.292208 -2.25494,-0.834521 -2.77458,-10.892971 l -0.54684,-10.585502 -0.19573,11.788388 -0.1957,11.788387 h 2.97025 c 1.63368,0 2.9703,-0.402931 2.9703,-0.895416 z m 6.67463,-15.66686 c -0.19394,-3.328682 -0.35414,-0.855664 -0.3561,5.495617 -0.002,6.351308 0.15659,9.07477 0.35252,6.052201 0.19589,-3.022598 0.19757,-8.219108 0.003,-11.547818 z m 12.13708,15.66686 c 0,-0.492447 -1.00246,-1.033759 -2.22772,-1.202886 -1.80752,-0.249597 -2.28728,-1.014994 -2.54372,-4.058811 -0.32206,-3.822831 1.09429,-5.798622 3.53383,-4.929621 0.68069,0.242504 1.23761,0.02184 1.23761,-0.491282 0,-0.512664 -1.11384,-0.932099 -2.47522,-0.932099 -2.21891,0 -2.47521,-0.390297 -2.47521,-3.769096 0,-3.235856 0.38516,-3.905812 2.72271,-4.735607 l 2.72277,-0.966533 -3.21778,-0.07612 -3.21779,-0.07612 v 11.066631 11.06665 h 2.97025 c 1.63365,0 2.97027,-0.402922 2.97027,-0.895407 z m 11.8811,-1.029236 c 1.63121,-1.585436 1.98017,-3.207729 1.98017,-9.205261 0,-4.004344 -0.4612,-8.118256 -1.02493,-9.142017 -1.36679,-2.482267 -6.93131,-2.626979 -6.81762,-0.177307 0.0467,1.006054 0.27924,1.199749 0.57756,0.481159 0.63447,-1.528284 3.53566,-1.555729 5.08679,-0.04802 0.71565,0.695572 1.18809,4.063103 1.18809,8.468377 0,4.405273 -0.47244,7.772832 -1.18809,8.468404 -1.55113,1.507613 -4.45232,1.480168 -5.08679,-0.04802 -0.27477,-0.661612 -0.53458,-0.228598 -0.57756,0.962317 -0.10077,2.789803 3.10423,2.921343 5.86238,0.240598 z m -45.54607,-7.698523 c 2.30156,0 4.95235,-3.496558 4.95235,-6.532435 0,-3.788352 -1.79368,-5.977681 -4.89736,-5.977681 -2.79269,0 -2.85394,0.114304 -3.18296,5.937716 -0.18449,3.265755 -0.11836,8.137464 0.14699,10.826061 l 0.48243,4.888347 0.31438,-4.571014 c 0.25667,-3.731642 0.65774,-4.570994 2.18418,-4.570994 z m -1.78502,-6.486986 c 0.35715,-5.399731 2.97048,-6.850721 4.9052,-2.723548 1.52151,3.245653 -0.22599,7.285891 -3.15131,7.285891 -1.83419,0 -2.02314,-0.491532 -1.75389,-4.562343 z m 2.44263,-1.452135 c -0.27466,-0.661583 -0.49938,-0.120299 -0.49938,1.202896 0,1.323185 0.22471,1.864488 0.49938,1.202914 0.27464,-0.661611 0.27464,-1.744199 0,-2.40581 z m 35.97764,6.495637 c 0,-7.056966 -0.055,-7.217365 -2.47523,-7.217365 -1.54012,0 -2.47521,0.545316 -2.47521,1.443484 0,0.801928 0.88007,1.443455 1.98016,1.443455 1.60301,0 1.9802,0.641558 1.9802,3.368109 0,2.72657 -0.37719,3.368127 -1.9802,3.368127 -2.8516,0 -2.63643,3.592549 0.24754,4.132438 1.22523,0.229406 2.33909,0.475999 2.47521,0.548078 0.13612,0.07198 0.24753,-3.116761 0.24753,-7.086326 z m 6.66178,-4.089827 c -0.21358,-1.984796 -0.38836,-0.360898 -0.38836,3.608668 0,3.969556 0.17484,5.593465 0.38836,3.608697 0.21357,-1.984768 0.21357,-5.232597 0,-7.217365 z m -67.37104,3.428243 c -0.31607,-0.767688 -0.55069,-0.539638 -0.59819,0.581384 -0.043,1.014454 0.19101,1.582828 0.52002,1.263041 0.32899,-0.319759 0.36416,-1.149748 0.0781,-1.844425 z m 5.95031,-1.485297 c -0.25103,-0.936324 -0.47294,-0.403258 -0.4931,1.184564 -0.0202,1.587832 0.1852,2.353893 0.45641,1.702377 0.27119,-0.651518 0.28772,-1.950645 0.0366,-2.886941 z m -6.72865,-4.108158 c 0.11759,1.283086 0.23894,1.283086 1.09207,0 0.803,-1.207697 0.96225,-1.142203 0.97494,0.400959 0.008,1.014426 0.24102,1.62491 0.51708,1.356607 0.95348,-0.92675 -0.75325,-6.569159 -1.98707,-6.569159 -0.68068,0 -1.51607,1.353249 -1.85642,3.007239 -0.85619,4.160923 -0.55577,6.788913 0.37128,3.24781 0.4157,-1.587813 0.81535,-2.237396 0.88812,-1.443456 z m 19.56942,-0.240598 c -0.27465,-0.661583 -0.49938,-0.120299 -0.49938,1.202896 0,1.323185 0.22471,1.864488 0.49938,1.202914 0.27464,-0.661611 0.27464,-1.744199 0,-2.40581 z m 79.35083,-30.832123 c -0.13387,-6.893593 -0.28328,-7.959137 -0.50076,-3.570676 -0.5171,10.434129 -0.60506,10.585483 -6.15202,10.585483 -5.2717,0 -5.87121,-0.601669 -5.55342,-5.573468 0.26775,-4.187319 -1.23166,-2.612228 -1.64122,1.724201 -0.31725,3.358957 -0.33157,3.368109 -5.26855,3.368109 h -4.95046 l -0.26831,-7.217375 C 276.45236,25.0183 275.24683,24.223408 274.65734,34.178581 l -0.51287,8.66085 -4.70292,0.293304 -4.70294,0.293304 v -6.788941 c 0,-6.883469 -0.31232,-7.496138 -2.97027,-5.826624 -0.99009,0.621897 -1.07258,0.937758 -0.24754,0.947584 0.71169,0.0086 1.23762,1.241522 1.23762,2.901682 0,2.590171 -0.31721,2.88695 -3.0857,2.88695 -2.7604,0 -3.03563,-0.254505 -2.61087,-2.414212 0.38431,-1.954051 0.21753,-2.206717 -0.87468,-1.325639 -0.74221,0.598705 -1.34947,1.875478 -1.34947,2.837275 0,1.326091 0.89729,1.820895 3.71282,2.047376 2.95036,0.237355 3.71284,0.693926 3.71284,2.223307 0,1.802429 -0.66004,1.924634 -10.39595,1.924634 h -10.39594 l -0.28812,-7.971533 c -0.17261,-4.77461 -0.66891,-7.74278 -1.23762,-7.401157 -1.06714,0.641018 -1.32176,17.095881 -0.2801,18.108209 0.36812,0.35777 14.40266,0.629365 31.18788,0.603526 l 30.51856,-0.04696 z m -48.32366,-9.768937 c 0,-0.2334 -0.44554,-0.692002 -0.99009,-1.019112 -0.54454,-0.327112 -0.99008,-0.136149 -0.99008,0.424362 0,0.560511 0.44554,1.019112 0.99008,1.019112 0.54455,0 0.99009,-0.190971 0.99009,-0.424362 z"
     id="path1" /></svg>
