<?xml version="1.0" standalone="no"?>
<!DOCTYPE svg PUBLIC "-//W3C//DTD SVG 20010904//EN"
 "http://www.w3.org/TR/2001/REC-SVG-20010904/DTD/svg10.dtd">
<svg version="1.0" xmlns="http://www.w3.org/2000/svg"
 width="348.000000pt" height="348.000000pt" viewBox="0 0 348.000000 348.000000"
 preserveAspectRatio="xMidYMid meet">
<metadata>
Created by potrace 1.16, written by Peter Selinger 2001-2019
</metadata>
<g transform="translate(0.000000,348.000000) scale(0.100000,-0.100000)"
fill="#000000" stroke="none">
<path d="M1519 3255 c-233 -38 -416 -108 -609 -232 -75 -49 -125 -88 -233
-183 -51 -44 -163 -182 -221 -273 -104 -159 -175 -333 -217 -527 -30 -140 -33
-434 -6 -580 114 -609 588 -1089 1207 -1221 140 -30 434 -33 580 -6 610 114
1086 586 1222 1210 32 149 32 446 -1 597 -132 612 -588 1073 -1189 1200 -128
28 -409 36 -533 15z"/>
</g>
</svg>
