<?xml version="1.0" standalone="no"?>
<!DOCTYPE svg PUBLIC "-//W3C//DTD SVG 20010904//EN"
 "http://www.w3.org/TR/2001/REC-SVG-20010904/DTD/svg10.dtd">
<svg version="1.0" xmlns="http://www.w3.org/2000/svg"
 width="736.000000pt" height="736.000000pt" viewBox="0 0 736.000000 736.000000"
 preserveAspectRatio="xMidYMid meet">
<metadata>
Created by potrace 1.16, written by Peter Selinger 2001-2019
</metadata>
<g transform="translate(0.000000,736.000000) scale(0.100000,-0.100000)"
fill="#000000" stroke="none">
<path d="M3705 7283 c-11 -2 -69 -20 -130 -40 -120 -38 -156 -39 -295 -6 -36
8 -99 15 -140 14 -66 0 -84 -5 -147 -37 -40 -20 -73 -40 -73 -44 0 -5 -26 -37
-58 -72 -32 -35 -65 -73 -73 -85 -20 -28 -144 -120 -204 -150 -27 -14 -63 -35
-80 -47 -16 -11 -56 -33 -89 -47 -74 -31 -112 -76 -132 -155 -8 -32 -40 -138
-71 -234 -64 -197 -102 -264 -180 -315 -44 -28 -53 -30 -140 -30 -51 0 -93 -2
-93 -6 0 -3 21 -16 48 -29 37 -18 68 -24 145 -28 64 -3 97 -8 97 -16 0 -6 -19
-34 -41 -61 -123 -149 -181 -284 -208 -488 -16 -119 -13 -129 18 -47 31 85 43
106 126 218 53 72 81 99 91 89 2 -1 -14 -54 -36 -116 -61 -175 -76 -346 -45
-520 24 -135 97 -422 107 -419 12 4 12 -8 4 198 -3 96 -2 193 3 215 7 39 8 38
15 -30 17 -175 27 -261 32 -282 13 -49 23 -19 26 70 2 50 7 92 12 92 11 0 52
-140 72 -250 18 -103 13 -212 -13 -251 -9 -14 -28 -31 -42 -39 l-26 -14 30 0
c45 -1 124 23 175 53 25 14 50 26 55 26 6 0 19 -39 28 -87 16 -77 43 -153 120
-335 25 -61 41 -69 27 -15 -10 37 -15 135 -12 220 2 71 13 68 52 -17 56 -124
86 -252 73 -316 -7 -35 -38 -52 -143 -76 -144 -33 -154 -39 -241 -137 -94
-106 -155 -192 -173 -245 l-13 -37 -75 3 c-48 3 -94 -2 -131 -13 -60 -17 -97
-49 -241 -204 -33 -35 -77 -71 -100 -82 -61 -27 -115 -72 -154 -130 -28 -42
-35 -64 -41 -128 -5 -43 -11 -84 -15 -90 -4 -6 -22 -11 -40 -11 -18 0 -57 -8
-87 -19 -130 -44 -166 -80 -204 -200 -19 -57 -31 -75 -93 -135 -59 -57 -75
-80 -96 -135 -22 -61 -77 -347 -92 -486 -8 -72 -33 -125 -85 -182 -22 -24 -39
-51 -40 -60 0 -10 -1 -110 -3 -223 -3 -183 -6 -211 -25 -262 -12 -32 -102
-216 -200 -410 -98 -194 -194 -398 -213 -453 -20 -55 -39 -108 -43 -117 -7
-17 168 -18 3584 -18 l3591 0 0 468 c0 397 -2 471 -15 489 -21 30 -127 217
-163 288 -16 33 -44 77 -60 98 -37 46 -40 68 -46 282 -5 174 -21 245 -60 269
-11 8 -49 16 -83 19 -34 3 -66 8 -72 12 -6 3 -11 30 -11 58 1 151 -59 485
-100 567 -10 19 -37 53 -59 74 -23 23 -47 59 -56 85 -14 40 -26 53 -93 97 -42
29 -83 55 -90 59 -7 3 -65 16 -129 29 l-117 22 -56 139 c-62 152 -69 160 -165
191 -27 10 -68 29 -90 44 -22 15 -55 35 -73 44 -18 9 -50 32 -71 51 -60 54
-123 74 -217 68 l-79 -4 -60 81 c-33 45 -74 92 -92 106 -72 55 -217 113 -383
154 -91 23 -182 46 -202 51 -48 12 -66 45 -74 138 -4 39 -5 71 -2 71 2 0 48
-44 101 -97 53 -53 100 -93 104 -89 4 4 -9 22 -29 39 -51 45 -58 64 -65 177
-7 112 8 251 38 353 34 115 40 95 43 -137 1 -35 6 -61 13 -63 26 -9 83 213 83
328 0 75 11 71 81 -24 54 -75 138 -167 151 -167 4 0 -9 28 -29 61 -19 34 -51
94 -69 134 -31 67 -32 76 -24 131 11 82 20 113 42 158 45 90 51 124 52 313 1
100 4 184 7 187 6 7 86 -107 118 -169 12 -22 21 -54 21 -72 0 -35 8 -63 19
-63 4 0 8 55 9 122 2 117 -9 179 -53 289 -5 14 4 17 57 22 81 7 143 32 157 64
11 24 10 25 -11 19 -13 -4 -44 -10 -70 -13 -41 -5 -51 -2 -82 24 -91 75 -219
281 -265 425 -31 97 -40 147 -62 328 -20 173 -86 275 -274 425 -49 39 -130
109 -180 154 -195 177 -250 220 -358 276 -143 74 -251 105 -360 104 -45 -1
-91 -3 -102 -6z"/>
</g>
</svg>
