<?xml version="1.0" encoding="UTF-8" standalone="no"?>
<svg
   version="1.0"
   width="989.000000pt"
   height="1600.000000pt"
   viewBox="0 0 989.000000 1600.000000"
   preserveAspectRatio="xMidYMid meet"
   id="svg145"
   sodipodi:docname="output.svg"
   inkscape:version="1.4.2 (ebf0e940d0, 2025-05-08)"
   xmlns:inkscape="http://www.inkscape.org/namespaces/inkscape"
   xmlns:sodipodi="http://sodipodi.sourceforge.net/DTD/sodipodi-0.dtd"
   xmlns="http://www.w3.org/2000/svg"
   xmlns:svg="http://www.w3.org/2000/svg">
  <defs
     id="defs145" />
  <sodipodi:namedview
     id="namedview145"
     pagecolor="#ffffff"
     bordercolor="#000000"
     borderopacity="0.25"
     inkscape:showpageshadow="2"
     inkscape:pageopacity="0.0"
     inkscape:pagecheckerboard="0"
     inkscape:deskcolor="#d1d1d1"
     inkscape:document-units="pt"
     inkscape:zoom="0.52966717"
     inkscape:cx="1187.5382"
     inkscape:cy="1573.6297"
     inkscape:window-width="1920"
     inkscape:window-height="1008"
     inkscape:window-x="0"
     inkscape:window-y="0"
     inkscape:window-maximized="1"
     inkscape:current-layer="svg145" />
  <metadata
     id="metadata1">
Created by potrace 1.16, written by Peter Selinger 2001-2019
</metadata>
  <g
     transform="matrix(0.16965644,0,0,-0.10734468,-282.84486,1666.8003)"
     fill="#000000"
     stroke="none"
     id="g145">
    <path
       d="m 4899,15747 c -62,-37 -109,-77 -109,-93 0,-10 11,-14 38,-14 33,0 43,7 89,59 65,73 58,93 -18,48 z m -29,-57 c 0,-5 -5,-10 -11,-10 -5,0 -7,5 -4,10 3,6 8,10 11,10 2,0 4,-4 4,-10 z"
       id="path1" />
    <path
       d="m 4993,15390 c -71,-41 -155,-125 -187,-188 -19,-38 -26,-66 -26,-109 0,-61 -2,-57 103,-237 54,-93 71,-156 55,-212 -8,-30 -34,-61 -112,-134 -169,-159 -225,-220 -253,-279 -24,-48 -28,-68 -28,-141 0,-97 9,-118 80,-201 26,-30 56,-71 67,-93 l 20,-38 -34,26 c -57,43 -101,56 -188,56 -61,0 -80,-3 -80,-14 0,-8 15,-15 40,-19 51,-7 96,-39 120,-87 27,-52 25,-96 -5,-164 -60,-135 -45,-185 100,-337 135,-141 142,-162 91,-278 -45,-102 -47,-155 -9,-220 14,-25 29,-48 32,-51 4,-3 23,-30 44,-60 52,-78 50,-107 -12,-128 -75,-26 -202,50 -231,137 -12,37 -11,49 10,124 46,162 32,238 -56,300 -44,31 -157,56 -190,43 -19,-8 -19,-8 0,-19 51,-31 96,-82 106,-118 15,-54 1,-98 -73,-242 -59,-113 -62,-121 -62,-190 0,-115 38,-177 214,-356 l 85,-86 -35,-8 c -18,-5 -54,-16 -79,-26 l -45,-17 -5,-2124 -5,-2125 -205,-7 c -113,-4 -297,-8 -410,-8 -220,-1 -343,-18 -555,-78 -56,-16 -43,-71 23,-99 l 32,-13 v -409 -408 l -41,-7 c -58,-9 -98,-32 -105,-60 -13,-54 22,-89 105,-102 l 41,-7 v -408 c 0,-453 7,-409 -67,-424 -109,-22 -109,-128 0,-150 18,-4 40,-9 50,-11 16,-5 17,-75 17,-1279 V 3032 l -27,-7 c -78,-19 -123,-77 -123,-158 0,-61 32,-106 97,-137 l 53,-25 1,-705 c 0,-388 0,-751 -1,-807 l -2,-102 -44,-44 c -39,-39 -44,-50 -44,-88 0,-39 4,-47 34,-67 108,-74 450,-135 971,-174 222,-16 1106,-16 1360,0 588,39 946,96 1113,177 l 72,36 v 42 c 0,49 -29,102 -65,119 l -25,11 v 806 806 l 53,25 c 66,32 97,76 97,140 0,64 -31,108 -97,140 l -53,25 v 365 c 0,201 3,773 7,1272 l 6,907 37,6 c 20,3 51,15 68,25 26,16 32,26 32,55 0,29 -6,39 -32,55 -17,10 -49,22 -70,25 l -38,7 v 408 407 l 42,6 c 53,7 92,36 96,71 5,44 -31,73 -110,90 l -28,6 v 405 405 l 40,20 c 33,17 40,26 40,49 0,26 -5,31 -47,44 -105,34 -350,60 -703,77 -129,6 -273,15 -320,20 -72,8 -61,8 75,6 162,-4 151,-1 -72,19 l -73,7 -2,2111 -3,2112 -32,14 -32,14 72,44 c 73,46 177,145 177,169 0,8 4,14 9,14 18,0 51,110 51,169 0,80 -23,147 -71,211 -61,79 -72,146 -31,192 13,16 13,18 -1,24 -20,7 -52,-10 -88,-47 -38,-39 -39,-102 -3,-196 40,-105 26,-179 -48,-264 -27,-31 -60,-43 -95,-34 -23,5 -25,10 -20,45 3,22 12,46 20,54 48,49 62,89 62,181 0,89 -1,93 -51,195 -28,58 -72,138 -98,179 -91,141 -92,177 -8,279 53,65 82,117 82,147 0,45 -23,96 -60,137 -23,24 -40,52 -40,65 0,28 -25,31 -40,4 -17,-32 -12,-72 16,-118 25,-43 25,-45 7,-65 -10,-11 -44,-33 -76,-49 -74,-38 -97,-74 -97,-152 0,-48 -4,-62 -24,-82 -27,-27 -46,-25 -83,7 -53,48 -34,110 61,198 98,93 105,140 32,239 -99,134 -88,224 35,299 195,120 234,171 234,307 0,96 -12,123 -96,213 -70,75 -77,108 -29,144 45,33 40,52 -12,44 -115,-18 -161,-71 -156,-175 3,-62 -10,-91 -42,-91 -27,0 -50,33 -50,72 0,29 13,54 64,123 75,100 96,162 77,232 -15,55 -45,90 -160,185 -145,119 -181,190 -147,287 18,49 78,136 101,145 18,7 20,36 3,36 -7,0 -36,-14 -65,-30 z m -78,-208 c 0,-74 2,-82 38,-135 34,-52 110,-115 130,-109 5,1 6,-2 2,-8 -3,-5 0,-10 9,-10 16,0 129,-100 122,-108 -3,-2 -1,-14 5,-26 10,-21 10,-21 -6,-1 -25,32 -115,125 -115,119 0,-11 -123,82 -156,118 -42,47 -56,79 -56,136 0,34 17,102 26,102 0,0 1,-35 1,-78 z m -46,19 c -11,-48 -4,-101 19,-146 16,-34 97,-115 113,-115 6,0 9,-7 6,-15 -4,-8 -1,-17 5,-21 7,-4 6,-9 -3,-15 -8,-5 -9,-9 -3,-9 14,0 54,-90 54,-122 0,-51 -24,-103 -83,-182 -96,-127 -98,-133 -76,-220 13,-54 1,-81 -81,-179 -74,-87 -97,-144 -81,-199 7,-21 24,-51 39,-66 15,-16 22,-21 16,-13 -68,94 -56,154 55,272 86,91 97,118 82,194 -7,33 -9,69 -5,80 11,30 60,104 91,139 6,7 28,44 48,81 34,64 44,123 20,118 -14,-3 -27,39 -16,50 13,13 51,-50 51,-86 0,-40 -25,-93 -70,-152 -63,-82 -73,-116 -65,-217 8,-104 0,-123 -89,-217 -34,-35 -52,-59 -41,-53 26,13 128,120 144,151 10,17 11,46 7,102 -9,99 2,141 61,226 26,38 52,84 59,103 10,27 13,30 14,12 0,-27 -24,-77 -74,-150 -54,-81 -60,-116 -37,-212 20,-85 18,-118 -14,-166 -11,-17 -12,-22 -2,-18 23,9 47,61 47,103 0,23 -7,68 -16,101 -21,74 -9,126 48,205 68,95 83,157 54,214 -8,15 -42,53 -76,84 -34,32 -59,57 -55,57 14,0 93,-57 126,-91 64,-66 62,-129 -8,-252 -46,-78 -79,-167 -64,-167 5,0 14,21 20,48 7,26 29,74 50,107 53,86 64,119 58,170 -4,38 -2,44 9,34 8,-6 14,-20 14,-30 0,-10 4,-20 9,-23 4,-3 7,7 5,22 -4,27 -4,27 5,2 12,-38 -12,-104 -61,-165 -53,-67 -88,-132 -88,-163 0,-13 -4,-20 -10,-17 -6,3 -10,-5 -10,-19 0,-28 37,-106 50,-106 5,0 -2,19 -15,43 -17,29 -21,47 -15,57 8,13 10,13 10,1 0,-28 32,-51 71,-51 54,0 73,31 64,99 -8,60 11,109 54,134 37,21 36,21 38,-5 2,-17 0,-19 -7,-8 -7,11 -10,8 -16,-14 -5,-20 -9,-24 -15,-15 -6,11 -9,11 -13,-1 -12,-39 -14,-68 -7,-105 4,-22 4,-51 1,-65 -4,-14 -2,-34 3,-45 9,-17 8,-18 -5,-7 -13,10 -21,9 -47,-5 -37,-21 -42,-36 -6,-20 14,7 25,15 25,20 0,4 5,7 10,7 22,0 10,-61 -16,-85 -26,-25 -41,-29 -143,-40 -49,-5 -139,-41 -129,-50 2,-2 26,2 53,10 26,8 67,15 89,15 96,0 176,49 176,107 0,40 18,10 26,-45 11,-75 -19,-118 -130,-183 -80,-47 -118,-86 -121,-128 -2,-22 0,-29 6,-20 5,8 9,24 9,36 0,26 38,59 123,107 70,39 123,91 133,132 10,41 -2,102 -29,137 -17,22 -22,38 -17,52 5,11 6,52 3,90 -6,77 -3,78 30,14 12,-24 28,-44 36,-44 20,0 89,-101 102,-149 6,-22 9,-57 7,-78 -2,-27 0,-38 10,-38 23,0 -29,-80 -78,-119 -25,-20 -77,-54 -114,-76 -94,-54 -126,-99 -126,-177 0,-69 15,-108 70,-185 61,-86 55,-112 -52,-212 -62,-58 -84,-103 -75,-158 12,-71 97,-116 146,-76 19,16 25,32 30,89 8,87 26,116 94,150 102,51 117,85 72,159 -35,56 -31,68 10,31 19,-18 35,-36 35,-41 0,-4 -9,0 -20,10 -11,10 -20,15 -20,11 0,-4 9,-19 20,-33 11,-14 20,-37 20,-50 0,-27 -28,-93 -39,-93 -16,0 -68,-57 -79,-85 -18,-50 -24,-114 -17,-181 10,-92 21,-79 17,19 -4,88 11,167 31,167 7,0 6,4 -3,10 -13,8 -13,10 2,10 24,0 97,87 104,125 3,18 3,44 -1,57 -4,12 -4,20 1,15 9,-9 23,-107 15,-107 -4,0 -12,-9 -19,-21 -11,-17 -11,-20 0,-14 7,5 -3,-7 -23,-26 -19,-19 -26,-27 -14,-19 11,8 8,3 -7,-12 -16,-16 -29,-31 -29,-35 -3,-18 -26,-42 -34,-35 -5,4 -5,2 -2,-4 3,-6 1,-26 -4,-45 -15,-48 0,-98 60,-195 78,-125 140,-254 153,-315 13,-61 -1,-156 -26,-182 -54,-56 -73,-129 -40,-161 29,-29 84,-20 131,22 52,47 74,90 80,163 5,53 0,77 -32,164 -6,15 1,11 24,-12 43,-42 91,-114 91,-135 0,-10 5,-18 10,-18 6,0 10,-7 10,-15 0,-9 6,-12 16,-8 15,5 16,-1 12,-53 -2,-32 -13,-77 -23,-99 -35,-73 -114,-163 -183,-208 -96,-63 -116,-69 -187,-57 -33,5 -64,10 -68,10 -4,0 3,15 16,33 51,68 62,169 27,245 -24,52 -40,47 -40,-13 0,-24 -5,-56 -11,-72 -14,-39 -76,-100 -127,-126 -24,-12 -39,-23 -34,-25 17,-5 74,28 115,67 47,44 77,99 78,143 0,32 0,32 11,8 17,-42 4,-162 -21,-204 l -23,-36 h -159 c -87,0 -159,4 -159,8 0,4 16,24 36,43 20,18 40,43 45,54 6,11 -16,-8 -48,-41 -32,-34 -67,-63 -78,-65 -16,-4 -20,-12 -20,-48 v -44 l 45,-3 c 25,-1 78,-5 118,-9 47,-4 72,-2 72,5 0,5 -17,11 -37,11 -179,7 -183,8 -183,44 v 25 h 165 c 170,0 210,-7 220,-42 4,-10 11,-18 16,-18 6,0 7,9 4,20 -8,25 -6,25 90,0 94,-24 115,-38 89,-57 -16,-12 -16,-13 -1,-13 16,0 17,-134 17,-2087 V 7797 l -239,7 c -131,4 -258,3 -282,-1 l -44,-8 45,-6 c 25,-3 -102,-7 -282,-7 -179,-1 -333,-5 -342,-8 -15,-6 -16,183 -14,2112 l 3,2119 27,13 c 25,12 78,23 171,37 21,3 47,10 57,15 10,6 44,10 75,10 h 56 l -3,-32 c -3,-32 -5,-33 -58,-41 -140,-19 -133,-19 -127,9 3,16 0,23 -7,21 -6,-2 -10,-16 -9,-31 1,-17 -3,-26 -14,-26 -18,0 -73,-31 -73,-41 0,-4 15,0 33,9 25,14 55,16 145,14 70,-1 112,2 112,8 0,5 -21,11 -47,12 l -48,1 55,6 55,6 3,42 c 3,40 4,42 40,45 32,3 38,7 42,33 3,17 13,45 23,63 10,19 16,36 13,39 -6,7 -56,-95 -56,-114 0,-15 -2,-15 -24,-7 -12,5 -16,20 -16,62 0,54 1,56 56,111 78,78 85,90 85,159 1,75 -21,126 -91,212 -87,108 -97,149 -55,238 34,72 32,106 -11,196 -43,90 -43,127 1,224 37,83 32,137 -18,211 -20,29 -37,63 -37,75 1,21 1,21 15,2 8,-11 15,-23 15,-27 0,-4 34,-33 75,-64 97,-75 120,-119 112,-213 -4,-37 -16,-96 -28,-132 -30,-91 -30,-173 0,-230 29,-56 76,-110 87,-101 5,3 10,20 12,36 5,43 25,69 92,122 32,25 61,53 63,62 3,9 5,0 6,-19 0,-24 -11,-52 -34,-90 -52,-80 -45,-127 33,-232 71,-96 87,-141 87,-249 0,-84 -3,-102 -27,-150 -16,-30 -54,-81 -85,-113 -46,-47 -53,-57 -33,-51 41,12 116,93 144,154 14,32 31,88 37,127 16,95 -2,152 -82,264 -101,139 -107,170 -49,260 27,42 30,54 27,117 -2,59 -4,67 -14,52 -7,-9 -10,-26 -7,-36 6,-17 6,-17 -7,0 -12,14 -19,16 -39,8 l -25,-10 h 28 c 15,-1 27,-6 27,-13 0,-6 -34,-43 -76,-83 -61,-57 -78,-78 -83,-108 l -6,-38 -33,51 c -53,81 -59,135 -29,255 21,82 26,93 26,59 1,-28 7,-47 21,-59 20,-18 20,-18 6,16 -19,47 -29,109 -18,109 6,0 13,7 16,16 3,8 2,12 -4,9 -6,-4 -10,9 -10,31 0,62 -35,119 -111,179 -76,62 -99,89 -99,122 0,49 -35,31 -46,-23 -4,-23 2,-41 32,-84 51,-76 56,-129 19,-213 -43,-94 -44,-142 -6,-223 34,-74 40,-136 16,-171 -27,-38 -46,-105 -39,-138 3,-19 33,-66 70,-111 83,-102 114,-164 114,-227 0,-60 -9,-77 -76,-148 -56,-59 -70,-92 -60,-134 l 7,-26 -53,27 c -107,54 -138,91 -138,163 0,54 -17,61 -36,14 -22,-52 -15,-156 15,-203 l 21,-35 -28,-6 c -24,-5 -38,5 -130,99 -117,120 -174,198 -198,272 -23,71 -13,127 39,219 84,151 103,207 92,279 -5,32 -16,53 -44,81 l -38,38 40,-9 c 51,-11 118,-51 136,-80 19,-31 14,-145 -10,-215 -23,-68 -24,-119 -3,-140 8,-9 13,-21 10,-28 -3,-8 2,-16 11,-19 9,-4 13,-9 10,-12 -7,-7 65,-69 102,-88 104,-53 222,-1 192,85 -5,16 -30,55 -54,87 -101,130 -105,153 -52,273 19,44 35,95 35,113 0,54 -45,127 -130,210 -44,43 -90,95 -102,114 -29,47 -27,103 6,181 40,92 41,125 10,189 -15,31 -40,62 -58,74 l -31,20 39,-6 c 22,-3 42,-10 46,-16 4,-7 11,-12 16,-12 36,-1 86,-46 99,-89 11,-35 35,-22 35,19 -1,51 -31,113 -91,185 -29,34 -61,82 -72,107 -18,41 -19,51 -8,114 6,38 15,74 18,80 4,6 8,16 9,22 2,13 29,46 91,113 24,25 43,49 43,54 0,4 6,7 14,7 7,0 29,17 49,39 33,37 57,57 57,48 0,-3 -34,-38 -76,-78 -42,-41 -88,-91 -103,-113 -49,-71 -81,-131 -80,-151 0,-11 15,10 36,48 23,44 68,100 126,160 50,51 82,81 71,67 l -19,-24 23,14 c 13,8 23,18 23,22 0,4 13,21 30,39 35,37 90,129 107,178 17,48 15,129 -4,185 -9,26 -18,45 -20,43 -2,-2 3,-24 11,-48 12,-32 14,-60 9,-104 l -7,-60 -13,62 c -14,65 -48,140 -94,208 -74,108 -85,165 -49,238 21,41 49,80 55,74 2,-1 -1,-22 -7,-46 z m 195,-363 c -3,-5 -7,-8 -8,-6 -1,2 -10,17 -20,33 l -19,30 26,-24 c 15,-13 24,-28 21,-33 z m 286,-394 c 0,-3 -7,-1 -15,6 -8,7 -15,17 -15,22 0,5 7,3 15,-6 8,-8 15,-18 15,-22 z m 92,-106 c -2,-5 2,-8 7,-8 6,0 11,-8 10,-17 0,-15 -3,-13 -17,7 -9,13 -29,39 -44,56 -41,46 -34,51 10,7 20,-21 36,-41 34,-45 z m 35,-100 c -3,-8 -6,-5 -6,6 -1,11 2,17 5,13 3,-3 4,-12 1,-19 z m 13,-72 c 0,-3 -4,-8 -10,-11 -5,-3 -10,-1 -10,4 0,6 5,11 10,11 6,0 10,-2 10,-4 z m -1027,-343 c -7,-2 -19,-2 -25,0 -7,3 -2,5 12,5 14,0 19,-2 13,-5 z m 1291,-988 c -4,-8 -10,-15 -15,-15 -12,0 -11,-72 1,-105 6,-16 14,-23 22,-19 7,4 8,3 4,-5 -8,-12 60,-111 76,-111 4,0 4,-7 1,-17 -5,-12 -3,-14 7,-8 9,6 11,4 5,-5 -4,-7 -2,-16 5,-20 7,-4 9,-13 5,-20 -5,-8 -14,3 -26,29 -18,41 -58,99 -91,133 -30,30 -50,79 -43,105 4,18 2,23 -7,18 -7,-4 2,7 20,24 36,35 44,38 36,16 z m -1041,-618 c 14,-18 49,-45 78,-60 56,-28 96,-55 88,-59 -2,-2 -43,-2 -90,0 l -87,3 -15,37 c -17,39 -22,74 -18,132 l 3,35 8,-28 c 5,-16 20,-43 33,-60 z m 769,-4444 c -40,-2 -103,-2 -140,0 -37,2 -4,3 73,3 77,0 107,-2 67,-3 z m -672,-23 c 50,-4 -13,-7 -190,-9 -146,-1 -344,-5 -440,-10 -96,-4 -184,-4 -195,0 -13,5 7,8 55,10 41,1 167,5 280,9 273,9 400,9 490,0 z m -852,-25 c -11,-9 -178,-15 -178,-6 0,6 35,11 83,13 74,3 104,1 95,-7 z m 1550,8 c -43,-2 -113,-2 -155,0 -43,1 -8,3 77,3 85,0 120,-2 78,-3 z m -148,-13 c 602,-13 993,-38 1199,-76 135,-25 121,31 121,-466 v -430 l -72,6 c -168,13 -348,18 -348,9 0,-5 88,-15 198,-22 108,-7 215,-14 236,-16 89,-9 152,-49 126,-80 -7,-8 -18,-15 -25,-15 -8,0 -15,-5 -17,-11 -5,-14 -48,-15 -218,-5 -82,4 -147,3 -165,-3 -25,-8 -16,-9 51,-10 45,-1 115,-4 158,-7 l 76,-7 -2,-421 -3,-421 -30,-2 c -139,-13 -793,-25 -1540,-28 -376,-1 -579,-7 -535,-17 74,-15 1691,3 2022,23 130,8 164,7 192,-5 18,-8 36,-19 40,-24 18,-30 -35,-70 -102,-77 -20,-2 -89,-9 -152,-15 -63,-7 -117,-14 -120,-17 -3,-3 48,-3 113,-1 l 117,3 -2,-1285 -3,-1285 -80,-12 c -44,-6 -105,-12 -135,-13 -30,0 -62,-5 -70,-10 -34,-22 253,-2 304,21 53,24 143,-64 132,-130 -6,-41 -28,-75 -61,-97 -34,-22 -180,-50 -364,-68 -84,-8 -156,-18 -160,-22 -12,-13 322,13 412,32 l 27,6 v -855 c 0,-969 10,-866 -90,-910 -97,-43 -304,-86 -565,-116 -126,-15 -467,-41 -545,-42 -36,0 -73,-4 -84,-8 -10,-4 62,-6 160,-4 98,2 176,2 173,-1 -8,-9 -330,-25 -622,-31 -159,-4 -296,-8 -305,-10 -9,-2 -21,-5 -27,-6 -5,-1 13,-6 40,-10 64,-9 -329,-1 -540,12 -183,11 -306,22 -488,45 -129,17 -153,27 -79,33 45,4 -37,27 -195,55 -18,3 -35,1 -38,-4 -6,-9 2,-12 21,-9 4,0 10,-4 13,-10 4,-5 24,-12 46,-15 22,-2 41,-5 43,-7 3,-2 20,-6 34,-8 6,0 9,-4 6,-7 -10,-9 -166,26 -243,54 -142,52 -162,83 -100,150 l 34,37 1,-36 c 0,-52 38,-82 140,-113 47,-14 96,-28 110,-30 14,-3 54,-12 90,-20 36,-8 108,-19 160,-26 52,-6 102,-14 110,-17 8,-3 44,-7 80,-9 36,-1 121,-8 190,-14 185,-17 1005,-26 996,-11 -5,8 -99,11 -330,11 -686,0 -1271,62 -1458,154 l -63,31 -3,123 c -2,90 1,122 9,122 7,0 21,7 31,17 36,32 16,123 -28,123 -12,0 -14,36 -14,218 1,182 3,214 14,200 7,-10 28,-21 46,-24 27,-6 36,-3 51,17 26,34 24,81 -6,113 -29,31 -31,31 -72,6 l -33,-20 v 423 424 l 33,-3 c 21,-2 9,4 -35,19 -87,29 -124,57 -139,106 -9,31 -9,47 1,71 13,32 72,89 93,91 7,0 20,2 29,4 10,2 20,-1 24,-6 3,-5 11,-9 17,-9 7,0 4,5 -5,11 -17,9 -18,53 -18,689 v 680 h 1641 c 1091,0 1638,3 1634,10 -4,7 -562,10 -1641,10 H 3350 v 505 505 h 1633 c 897,0 1638,4 1645,9 9,5 1,10 -25,14 -21,4 -761,7 -1645,7 H 3350 v 78 78 l 68,-7 c 120,-12 428,-21 412,-11 -8,5 -80,13 -160,16 -212,10 -381,26 -417,41 -43,18 -58,47 -35,68 35,32 68,37 179,26 60,-5 124,-14 143,-19 92,-24 689,-38 850,-20 50,5 27,7 -102,8 -92,1 -211,6 -265,12 -54,5 -183,14 -288,20 -287,16 -338,20 -362,25 l -23,5 v 426 c 0,234 4,423 8,420 4,-2 14,0 22,6 11,7 6,8 -18,4 -46,-8 -116,11 -142,39 l -21,23 21,19 c 24,23 84,43 129,43 17,0 31,5 31,10 0,6 -7,10 -15,10 -13,0 -15,56 -15,440 v 439 l 38,10 c 20,6 57,15 82,20 45,9 45,9 10,11 -36,3 130,28 185,28 26,1 27,-1 10,-9 -14,-6 -7,-7 25,-4 119,13 469,28 780,34 190,4 370,8 400,9 30,1 246,-3 480,-8 z m 478,3 c -26,-2 -71,-2 -100,0 -29,2 -8,3 47,3 55,0 79,-1 53,-3 z m 487,-14 c 244,-19 445,-55 445,-79 0,-5 -13,-16 -29,-24 -27,-14 -29,-14 -39,9 -8,18 -25,26 -79,38 -66,15 -253,39 -418,53 -44,3 -87,10 -95,15 -9,5 2,7 30,4 25,-3 108,-10 185,-16 z m -242,4 c -7,-2 -19,-2 -25,0 -7,3 -2,5 12,5 14,0 19,-2 13,-5 z m -2346,-9 c -3,-3 -12,-4 -19,-1 -8,3 -5,6 6,6 11,1 17,-2 13,-5 z m -312,-33 c -11,-5 -33,-13 -50,-17 -16,-5 -34,-19 -40,-30 -12,-23 -40,-19 -64,9 -11,14 -6,18 36,31 51,16 155,21 118,7 z m 282,-1968 c -20,-2 -52,-2 -70,0 -17,2 0,4 38,4 39,0 53,-2 32,-4 z M 6755,1020 c 26,-50 20,-65 -42,-98 -93,-49 -240,-86 -483,-122 -145,-21 -177,-24 -145,-10 27,11 -134,11 -245,1 -47,-4 -89,-4 -95,0 -5,5 12,9 41,9 70,0 378,36 514,60 206,37 307,68 373,112 22,16 27,27 27,59 0,37 2,39 20,29 11,-6 27,-24 35,-40 z M 6027,774 c -3,-3 -12,-4 -19,-1 -8,3 -5,6 6,6 11,1 17,-2 13,-5 z"
       id="path2" />
    <path
       d="m 4930,14921 c 5,-11 15,-23 21,-27 6,-3 3,5 -6,20 -20,30 -30,35 -15,7 z"
       id="path3" />
    <path
       d="m 4785,14367 c -41,-45 -47,-61 -10,-25 22,21 37,39 34,42 -2,3 -13,-5 -24,-17 z"
       id="path4" />
    <path
       d="m 5360,14362 c 0,-4 11,-23 25,-42 30,-41 33,-30 4,16 -21,34 -29,41 -29,26 z"
       id="path5" />
    <path
       d="m 4710,14280 c -6,-11 -8,-20 -6,-20 3,0 10,9 16,20 6,11 8,20 6,20 -3,0 -10,-9 -16,-20 z"
       id="path6" />
    <path
       d="m 5418,14219 c 4,-61 2,-67 -29,-108 -24,-31 -62,-60 -125,-95 -110,-61 -120,-69 -144,-115 -13,-26 -17,-52 -14,-90 5,-69 15,-81 12,-15 -1,27 2,63 6,81 10,41 69,94 149,133 69,34 119,76 141,118 22,43 27,94 13,127 -12,27 -13,25 -9,-36 z"
       id="path7" />
    <path
       d="m 5140,14256 c 0,-2 7,-6 15,-10 8,-3 15,-1 15,4 0,6 -7,10 -15,10 -8,0 -15,-2 -15,-4 z"
       id="path8" />
    <path
       d="m 4650,14190 c -16,-33 -30,-70 -29,-82 0,-14 7,-4 18,28 9,27 27,65 40,82 12,18 18,32 12,32 -6,0 -24,-27 -41,-60 z"
       id="path9" />
    <path
       d="m 5253,14161 c -18,-17 -63,-40 -104,-53 -50,-16 -86,-35 -117,-63 -41,-38 -45,-46 -50,-98 -4,-53 -2,-62 30,-110 59,-89 70,-115 69,-178 0,-32 -5,-68 -11,-80 -9,-16 -9,-20 0,-14 40,24 42,137 4,203 -14,26 -37,65 -49,87 -61,108 -17,191 123,234 71,21 114,48 132,82 14,25 11,24 -27,-10 z"
       id="path10" />
    <path
       d="m 4621,14062 c -1,-24 77,-187 85,-179 3,3 -9,32 -27,64 -18,32 -38,76 -45,98 -9,27 -13,33 -13,17 z"
       id="path11" />
    <path
       d="m 4875,14010 c -4,-12 -5,-24 -2,-27 3,-2 8,5 12,17 4,12 5,24 2,27 -3,2 -8,-5 -12,-17 z"
       id="path12" />
    <path
       d="m 4871,13950 c -1,-34 30,-99 68,-142 17,-20 31,-38 31,-42 0,-3 16,-26 35,-52 26,-34 35,-55 35,-85 0,-24 4,-38 10,-34 30,18 -3,114 -60,177 -44,47 -95,127 -107,168 -9,30 -11,31 -12,10 z"
       id="path13" />
    <path
       d="m 4722,13850 c 7,-11 17,-20 22,-20 5,0 1,9 -9,20 -10,11 -20,20 -22,20 -2,0 2,-9 9,-20 z"
       id="path14" />
    <path
       d="m 4770,13860 c -8,-5 -10,-10 -5,-10 6,0 17,5 25,10 8,5 11,10 5,10 -5,0 -17,-5 -25,-10 z"
       id="path15" />
    <path
       d="m 5060,13845 c 0,-5 5,-17 10,-25 5,-8 10,-10 10,-5 0,6 -5,17 -10,25 -5,8 -10,11 -10,5 z"
       id="path16" />
    <path
       d="m 4750,13806 c 0,-2 7,-22 15,-45 8,-23 14,-44 14,-47 0,-3 2,-9 6,-12 8,-8 -3,51 -16,86 -7,19 -19,30 -19,18 z"
       id="path17" />
    <path
       d="m 4658,13725 c 9,-39 9,-112 -1,-150 -7,-27 -6,-28 7,-12 26,33 29,102 7,149 -15,33 -18,36 -13,13 z"
       id="path18" />
    <path
       d="m 5120,13727 c 0,-14 43,-123 53,-132 7,-7 7,-4 2,10 -4,11 -16,42 -26,69 -17,46 -29,67 -29,53 z"
       id="path19" />
    <path
       d="m 4772,13670 c 0,-14 2,-19 5,-12 2,6 2,18 0,25 -3,6 -5,1 -5,-13 z"
       id="path20" />
    <path
       d="m 4761,13609 c 0,-19 5,-43 10,-54 6,-13 7,-4 3,30 -8,60 -14,72 -13,24 z"
       id="path21" />
    <path
       d="m 5183,13560 c 4,-14 7,-41 7,-60 0,-23 3,-30 9,-21 8,13 -4,90 -16,101 -3,3 -3,-6 0,-20 z"
       id="path22" />
    <path
       d="m 4640,13510 c -9,-103 -2,-159 22,-185 5,-5 4,3 -1,18 -14,35 -14,113 -1,82 7,-15 9,-9 9,25 1,31 -2,40 -8,31 -7,-11 -11,-4 -14,25 l -4,39 z"
       id="path23" />
    <path
       d="m 4781,13520 c 0,-14 28,-72 29,-59 0,4 -7,22 -15,40 -8,19 -14,27 -14,19 z"
       id="path24" />
    <path
       d="m 5167,13428 c -10,-18 -31,-51 -47,-73 -16,-22 -29,-44 -30,-50 0,-5 23,21 50,59 28,38 50,75 50,82 0,21 -5,17 -23,-18 z"
       id="path25" />
    <path
       d="m 4810,13405 c 0,-15 4,-24 10,-20 6,3 10,12 10,20 0,8 -4,17 -10,20 -6,4 -10,-5 -10,-20 z"
       id="path26" />
    <path
       d="m 4680,13371 c 0,-10 39,-36 45,-29 2,2 -8,11 -21,21 -13,10 -24,13 -24,8 z"
       id="path27" />
    <path
       d="m 4760,13340 c -13,-9 -13,-10 0,-10 8,0 22,5 30,10 13,9 13,10 0,10 -8,0 -22,-5 -30,-10 z"
       id="path28" />
    <path
       d="m 5337,13307 c -15,-17 -27,-41 -27,-52 0,-16 4,-14 16,10 8,16 23,38 31,48 9,9 14,19 11,22 -2,2 -16,-10 -31,-28 z"
       id="path29" />
    <path
       d="m 4710,13250 c 6,-11 13,-20 16,-20 2,0 0,9 -6,20 -6,11 -13,20 -16,20 -2,0 0,-9 6,-20 z"
       id="path30" />
    <path
       d="m 5300,13203 c 0,-18 5,-33 10,-33 13,0 13,30 0,50 -7,11 -10,7 -10,-17 z"
       id="path31" />
    <path
       d="m 4748,13204 c 6,-11 18,-27 27,-34 24,-20 65,-106 70,-145 4,-24 -6,-54 -34,-112 -21,-43 -41,-86 -45,-97 -13,-38 17,-95 95,-180 92,-101 102,-118 101,-171 0,-38 0,-39 10,-12 14,40 -21,107 -102,192 -37,39 -71,79 -77,90 -21,44 -14,89 27,175 32,65 41,93 36,118 -7,47 -55,138 -90,170 -23,22 -27,23 -18,6 z"
       id="path32" />
    <path
       d="m 4952,12989 c 0,-18 -13,-70 -27,-115 -30,-93 -29,-98 39,-194 115,-161 121,-173 118,-220 -2,-25 -2,-25 9,-3 15,29 -18,97 -100,211 -32,45 -62,94 -65,107 -4,16 3,57 19,106 27,86 29,106 16,127 -5,9 -8,2 -9,-19 z"
       id="path33" />
    <path
       d="m 5371,13008 c -1,-21 18,-72 24,-66 3,3 -1,22 -9,44 -8,21 -15,31 -15,22 z"
       id="path34" />
    <path
       d="m 4540,12891 c 0,-22 -10,-70 -21,-105 -17,-52 -25,-64 -40,-61 -13,3 -24,-6 -35,-27 -9,-17 -11,-27 -4,-23 6,4 15,17 20,29 5,13 6,0 3,-35 -5,-50 11,-138 23,-126 3,2 0,17 -6,32 -6,16 -8,36 -4,44 5,13 8,11 14,-9 7,-20 8,-17 9,20 1,25 15,83 31,130 30,85 38,154 20,165 -6,4 -10,-10 -10,-34 z m -50,-201 c 0,-11 -4,-20 -9,-20 -5,0 -7,9 -4,20 3,11 7,20 9,20 2,0 4,-9 4,-20 z"
       id="path35" />
    <path
       d="m 5400,12922 c 0,-7 9,-30 20,-52 33,-64 70,-208 70,-271 0,-32 -7,-79 -16,-104 -8,-26 -13,-54 -11,-63 3,-10 5,-6 6,10 0,15 5,29 9,32 17,10 34,117 27,169 -10,68 -104,321 -105,279 z"
       id="path36" />
    <path
       d="m 4412,12616 c -14,-52 -8,-133 13,-178 9,-21 12,-24 8,-8 -15,58 -18,99 -11,159 4,36 6,66 5,68 -2,1 -8,-17 -15,-41 z"
       id="path37" />
    <path
       d="m 5255,12605 c 4,-11 14,-38 23,-60 14,-37 21,-177 10,-217 -4,-15 -39,-73 -85,-138 l -17,-25 28,25 c 66,59 111,179 100,265 -7,55 -29,119 -52,150 l -14,20 z"
       id="path38" />
    <path
       d="m 4496,12517 c 3,-10 9,-15 12,-12 3,3 0,11 -7,18 -10,9 -11,8 -5,-6 z"
       id="path39" />
    <path
       d="m 5800,12510 c -1,-14 -2,-29 -1,-33 1,-4 -10,-31 -23,-60 -14,-28 -24,-53 -22,-55 2,-2 16,23 31,55 15,32 33,61 39,65 8,6 8,8 -1,8 -6,0 -14,10 -16,23 -4,21 -4,21 -7,-3 z"
       id="path40" />
    <path
       d="m 5817,12448 c -3,-12 -3,-28 1,-35 5,-8 8,0 9,22 1,40 -2,44 -10,13 z"
       id="path41" />
    <path
       d="m 4556,12447 c 3,-10 9,-15 12,-12 3,3 0,11 -7,18 -10,9 -11,8 -5,-6 z"
       id="path42" />
    <path
       d="m 5450,12385 c 0,-5 5,-17 10,-25 5,-8 10,-10 10,-5 0,6 -5,17 -10,25 -5,8 -10,11 -10,5 z"
       id="path43" />
    <path
       d="m 5726,12333 c -6,-14 -5,-15 5,-6 7,7 10,15 7,18 -3,3 -9,-2 -12,-12 z"
       id="path44" />
    <path
       d="m 5045,12285 c -26,-25 -46,-47 -43,-50 2,-3 26,16 52,41 62,59 55,67 -9,9 z"
       id="path45" />
    <path
       d="m 5210,12280 c -6,-11 -8,-20 -6,-20 3,0 10,9 16,20 6,11 8,20 6,20 -3,0 -10,-9 -16,-20 z"
       id="path46" />
    <path
       d="m 5180,12240 c -9,-6 -10,-10 -3,-10 6,0 15,5 18,10 8,12 4,12 -15,0 z"
       id="path47" />
    <path
       d="m 5390,12000 c -19,-5 -46,-6 -60,-3 -24,5 -25,5 -5,-10 11,-9 27,-17 36,-17 25,0 79,21 79,31 0,10 -2,10 -50,-1 z"
       id="path48" />
    <path
       d="m 5460,11952 c 0,-6 5,-14 10,-17 16,-10 12,-21 -15,-35 -14,-7 -23,-15 -21,-17 6,-7 66,26 66,36 0,4 -9,16 -20,26 -11,10 -20,13 -20,7 z"
       id="path49" />
    <path
       d="m 4570,11909 c 0,-14 51,-36 100,-43 33,-5 41,-4 30,3 -8,6 -23,11 -33,11 -10,0 -36,9 -57,19 -22,11 -40,15 -40,10 z"
       id="path50" />
    <path
       d="m 5205,11856 c -78,-8 -114,-15 -102,-20 22,-10 227,10 241,24 7,7 5,10 -4,9 -8,-1 -69,-7 -135,-13 z"
       id="path51" />
    <path
       d="m 5358,7693 c 46,-2 118,-2 160,0 42,1 5,3 -83,3 -88,0 -123,-2 -77,-3 z"
       id="path52" />
    <path
       d="m 3595,7671 c 6,-3 -17,-10 -50,-17 -87,-17 -15,-16 95,1 79,12 81,13 30,13 -30,0 -62,2 -70,4 -8,3 -10,2 -5,-1 z"
       id="path53" />
    <path
       d="m 4170,6800 -195,-6 269,-2 c 148,-1 267,0 265,2 -10,8 -157,11 -339,6 z"
       id="path54" />
    <path
       d="m 4780,6781 c 36,-11 1199,-23 1235,-13 19,5 -125,11 -385,15 -522,9 -883,8 -850,-2 z"
       id="path55" />
    <path
       d="m 3767,6770 c -87,-7 -136,-18 -96,-21 8,-1 1,-5 -16,-9 -30,-8 -30,-8 8,-9 23,-1 36,3 32,9 -4,6 7,10 27,9 28,0 30,-2 13,-10 -22,-10 635,-1 720,10 42,6 30,8 -75,14 -219,12 -512,16 -613,7 z m 180,-17 c -20,-2 -52,-2 -70,0 -17,2 0,4 38,4 39,0 53,-2 32,-4 z"
       id="path56" />
    <path
       d="m 6218,6763 c 7,-3 16,-2 19,1 4,3 -2,6 -13,5 -11,0 -14,-3 -6,-6 z"
       id="path57" />
    <path
       d="m 4523,6753 c 9,-2 25,-2 35,0 9,3 1,5 -18,5 -19,0 -27,-2 -17,-5 z"
       id="path58" />
    <path
       d="m 4940,6742 c 0,-13 -322,-23 -337,-10 -8,6 -24,7 -40,2 l -28,-8 35,-7 c 32,-7 31,-7 -15,-7 -141,0 -155,-7 -44,-21 l 64,-8 -52,-2 c -29,0 -53,-5 -53,-11 0,-6 103,-11 288,-11 264,-2 280,-3 192,-13 -84,-10 -47,-11 310,-14 223,-2 448,0 500,5 l 95,8 -70,6 c -38,3 69,6 239,7 296,2 377,10 223,23 l -72,6 93,1 c 59,1 91,6 87,12 -3,6 -23,10 -44,10 -21,0 -40,2 -43,5 -3,3 -88,8 -189,11 -214,7 -291,11 -339,18 -26,5 -30,4 -15,-3 18,-9 17,-10 -8,-10 -16,-1 -26,3 -22,9 3,6 1,10 -4,10 -6,0 -11,-3 -11,-7 0,-9 -573,-5 -677,4 -37,3 -63,1 -63,-5 z m 73,-9 c -7,-2 -19,-2 -25,0 -7,3 -2,5 12,5 14,0 19,-2 13,-5 z m -141,-40 c -40,-2 -103,-2 -140,0 -37,2 -4,3 73,3 77,0 107,-2 67,-3 z m 1066,0 c -26,-2 -71,-2 -100,0 -29,2 -8,3 47,3 55,0 79,-1 53,-3 z m -510,-30 c -16,-2 -40,-2 -55,0 -16,2 -3,4 27,4 30,0 43,-2 28,-4 z"
       id="path59" />
    <path
       d="m 4348,6723 c 7,-3 16,-2 19,1 4,3 -2,6 -13,5 -11,0 -14,-3 -6,-6 z"
       id="path60" />
    <path
       d="m 4078,6703 c 6,-2 18,-2 25,0 6,3 1,5 -13,5 -14,0 -19,-2 -12,-5 z"
       id="path61" />
    <path
       d="m 3965,6670 c 3,-5 8,-10 11,-10 2,0 4,5 4,10 0,6 -5,10 -11,10 -5,0 -7,-4 -4,-10 z"
       id="path62" />
    <path
       d="m 3995,6660 c -3,-6 1,-7 9,-4 18,7 21,14 7,14 -6,0 -13,-4 -16,-10 z"
       id="path63" />
    <path
       d="m 3650,6620 c -18,-11 415,-12 525,0 44,4 -36,7 -220,8 -173,1 -296,-2 -305,-8 z"
       id="path64" />
    <path
       d="m 4951,6611 c -9,-6 167,-9 450,-9 267,0 443,4 414,8 -70,11 -847,12 -864,1 z"
       id="path65" />
    <path
       d="m 3733,5734 c 3,-3 130,-8 281,-11 199,-4 276,-2 276,6 0,8 -81,11 -282,11 -155,0 -279,-3 -275,-6 z"
       id="path66" />
    <path
       d="m 4328,5723 c 7,-3 16,-2 19,1 4,3 -2,6 -13,5 -11,0 -14,-3 -6,-6 z"
       id="path67" />
    <path
       d="m 4823,5650 c -50,-3 -95,-8 -98,-12 -4,-3 20,-9 52,-13 94,-10 101,-12 46,-14 -93,-2 -73,-23 32,-34 17,-1 -85,-7 -225,-12 -240,-9 -217,-10 410,-13 366,-2 730,0 810,5 l 145,8 -195,5 -195,6 192,2 c 168,2 245,9 303,30 9,3 1,8 -20,12 l -35,7 40,2 c 31,2 36,4 20,10 -11,5 -110,9 -220,10 -555,5 -979,5 -1062,1 z m 184,-36 c -3,-3 -12,-4 -19,-1 -8,3 -5,6 6,6 11,1 17,-2 13,-5 z m 826,-1 c -34,-2 -93,-2 -130,0 -37,2 -9,3 62,3 72,0 102,-1 68,-3 z m -875,-40 c -10,-2 -28,-2 -40,0 -13,2 -5,4 17,4 22,1 32,-1 23,-4 z"
       id="path68" />
    <path
       d="m 5125,5529 c 79,-9 486,-9 595,0 51,4 -65,7 -285,7 -203,0 -343,-3 -310,-7 z"
       id="path69" />
    <path
       d="m 3966,4211 c -3,-4 -6,-129 -6,-277 -1,-258 5,-324 29,-324 16,0 38,-57 61,-155 11,-49 27,-103 34,-120 14,-30 30,-96 42,-170 4,-22 11,-47 16,-55 9,-15 5,69 -8,158 -4,28 -2,42 5,42 6,0 11,-4 11,-10 0,-5 5,-10 10,-10 16,0 12,102 -5,134 -8,15 -15,30 -15,32 0,5 73,24 96,24 20,0 20,-4 16,-108 -3,-86 -1,-118 13,-157 12,-32 20,-89 22,-160 4,-97 8,-116 33,-166 39,-74 45,-121 26,-194 -9,-32 -16,-81 -16,-107 0,-27 -5,-48 -11,-48 -5,0 -7,-5 -4,-10 7,-11 -19,-149 -42,-225 -35,-112 -54,-167 -77,-218 -21,-49 -27,-89 -14,-102 3,-3 11,8 18,26 12,27 17,30 42,25 35,-7 38,11 2,20 -18,5 -24,12 -22,28 2,17 11,22 43,24 22,2 44,7 50,12 17,14 107,14 163,0 51,-14 54,-30 5,-30 -13,0 -23,-4 -23,-10 0,-5 -12,-16 -27,-25 -27,-15 -27,-15 -3,-9 14,4 30,8 35,10 15,6 21,-112 16,-312 -3,-107 -13,-104 -13,3 0,62 -2,73 -10,53 -27,-68 1,-204 58,-285 12,-16 34,-55 49,-85 16,-30 30,-50 32,-43 4,12 -47,120 -78,165 -30,42 -21,56 11,18 17,-19 27,-26 23,-16 -5,14 -3,17 6,12 8,-6 7,2 -3,23 -18,33 -30,42 -19,14 6,-16 5,-16 -10,-4 -19,15 -24,46 -5,35 7,-4 8,-3 4,5 -4,6 -12,9 -17,6 -5,-4 -9,9 -8,27 1,31 1,32 9,8 6,-18 8,-6 8,40 0,51 -2,59 -8,35 -5,-18 -7,24 -5,103 2,77 0,145 -7,163 -6,16 -8,33 -5,36 3,3 26,8 51,10 44,5 45,5 61,-33 25,-60 28,-119 11,-243 -12,-93 -13,-129 -3,-200 6,-47 11,-112 11,-143 0,-32 3,-58 6,-58 4,0 12,-29 18,-64 8,-51 7,-75 -4,-112 -8,-26 -15,-66 -15,-88 -1,-39 -2,-40 -9,-11 l -8,30 -1,-27 c -1,-18 -7,-28 -16,-28 -17,0 -17,5 -6,71 4,25 4,54 0,65 -7,17 -8,17 -8,-4 -1,-13 -5,-20 -11,-17 -9,6 -13,-23 -14,-92 0,-20 -6,-23 -37,-23 -21,0 -40,6 -42,13 -4,9 -6,9 -6,0 -1,-9 -19,-13 -56,-13 h -55 l 16,38 c 10,20 18,47 18,60 1,12 4,22 7,22 4,0 9,8 13,18 3,9 9,23 12,30 3,6 1,12 -4,12 -10,0 -34,-52 -37,-80 -1,-8 -10,-34 -21,-57 -18,-40 -21,-43 -61,-43 -36,0 -41,3 -36,17 3,10 15,28 25,40 11,11 18,29 15,40 -4,15 -5,14 -6,-4 0,-12 -6,-25 -11,-28 -7,-5 -10,10 -7,42 3,26 2,38 0,25 -3,-16 -9,-22 -19,-18 -11,4 -14,-2 -12,-22 2,-32 -20,-92 -34,-92 -5,0 -7,8 -4,18 32,111 56,258 56,352 0,37 5,60 13,63 10,4 10,6 0,6 -7,1 -13,9 -14,19 -1,9 -5,-1 -10,-23 -22,-98 -19,-92 -35,-71 -8,11 -14,15 -14,10 0,-6 5,-15 11,-21 8,-8 3,-39 -20,-115 -17,-57 -32,-113 -34,-125 -1,-11 -10,-31 -19,-44 l -17,-24 -2,30 c -2,17 -4,55 -5,85 -5,92 -6,100 -14,100 -7,0 -20,144 -26,290 -3,75 -20,152 -25,110 -1,-14 -2,-33 -1,-42 3,-33 -14,-18 -36,30 -45,100 -55,159 -49,283 7,117 25,207 26,127 1,-20 5,-39 10,-42 5,-3 14,-26 20,-50 27,-110 89,-90 140,45 24,61 24,62 13,55 -5,-3 -7,9 -5,27 3,26 1,28 -6,12 -9,-19 -10,-19 -10,-1 -1,26 -11,14 -21,-26 -32,-123 -44,-158 -52,-156 -12,4 -48,95 -48,119 0,9 8,25 18,37 9,11 28,35 42,52 14,18 30,38 37,45 7,7 9,15 6,19 -3,3 0,14 8,23 49,59 114,244 122,343 4,61 4,62 -5,20 -30,-133 -126,-389 -128,-337 0,10 9,35 20,57 32,63 23,60 -20,-7 -45,-70 -46,-73 -25,-73 8,0 15,-2 15,-5 0,-30 -93,-135 -103,-118 -3,5 -2,15 4,23 11,18 12,50 1,50 -4,0 -13,-14 -20,-32 -6,-17 -14,-29 -18,-26 -3,4 -1,15 5,26 12,22 15,90 4,78 -16,-16 -63,-163 -63,-199 0,-16 -4,-26 -10,-22 -12,7 -50,-30 -50,-50 0,-12 -11,-7 -40,16 -43,34 -48,50 -26,68 16,13 26,65 16,81 -4,6 -13,-2 -20,-17 -8,-16 -21,-36 -29,-45 -8,-10 -10,-18 -4,-18 6,0 8,-11 5,-25 -2,-14 -8,-25 -13,-25 -5,0 -9,96 -9,213 v 212 l 35,60 c 20,33 63,96 95,140 74,99 123,193 141,265 16,68 16,287 0,395 -17,112 -71,285 -88,285 -8,0 -21,7 -30,15 -20,21 -30,10 -12,-12 45,-54 51,-97 56,-375 l 4,-238 h -99 c -98,0 -98,0 -109,28 l -12,27 2,-35 2,-35 118,-3 117,-3 1,218 1,218 20,-125 c 28,-185 13,-374 -30,-382 -13,-3 -17,-14 -17,-48 0,-40 -3,-45 -23,-48 -18,-3 -23,-8 -19,-24 3,-11 3,-26 0,-34 -4,-12 -8,-12 -22,-2 -14,11 -14,11 -3,-4 14,-17 3,-37 -40,-77 -10,-8 -18,-19 -18,-24 0,-4 -16,-29 -36,-55 -35,-46 -36,-46 -32,-17 2,17 8,29 16,28 6,-2 12,2 12,7 0,6 -7,10 -15,10 -11,0 -15,11 -15,39 0,22 -4,43 -10,46 -6,3 -10,-5 -10,-19 0,-18 -6,-26 -22,-29 l -23,-4 23,-8 c 22,-7 23,-12 21,-101 -1,-63 -5,-93 -13,-91 -18,3 -19,-70 -2,-95 13,-19 16,-61 16,-266 0,-237 0,-242 -19,-232 -31,16 -76,12 -96,-10 -22,-24 -15,-98 11,-117 22,-16 75,-13 82,5 16,43 22,-47 22,-355 v -343 h 720 720 v 478 c 0,262 0,615 0,783 v 307 l 178,6 c 97,3 289,9 426,12 153,4 243,10 235,15 -13,9 -325,6 -681,-7 l -158,-5 v 39 39 l 323,7 c 348,7 618,22 682,38 22,5 53,9 70,8 28,-1 29,0 10,14 -16,12 -48,14 -170,9 -405,-13 -662,-18 -785,-13 -102,4 -46,7 230,12 442,9 659,23 680,44 13,13 9,15 -40,13 -190,-6 -1000,2 -1000,11 0,6 96,9 252,9 158,1 255,4 262,11 11,11 25,11 -291,12 l -223,1 v 29 28 l 203,1 c 111,0 225,4 252,9 31,5 -43,7 -197,7 -136,-1 -250,1 -253,4 -3,3 -5,281 -5,617 v 612 h -344 c -219,0 -347,-4 -351,-10 -4,-7 110,-10 334,-10 h 341 v -265 -265 l -97,-1 c -54,0 -152,-4 -218,-8 -88,-5 -123,-3 -133,6 -8,8 -37,10 -85,8 l -72,-4 69,9 c 78,10 128,40 66,40 -89,0 -393,-30 -405,-40 -7,-6 -42,-10 -78,-9 l -65,2 9,32 c 5,17 7,61 5,98 -1,37 0,67 3,67 4,0 8,14 9,31 1,18 6,39 11,47 5,9 5,26 0,40 -6,15 -5,31 2,43 6,11 10,48 9,82 -2,88 -3,87 25,87 25,0 25,-1 25,-87 1,-178 40,-367 70,-337 5,5 10,44 11,86 1,42 5,82 9,89 8,12 50,9 95,-6 16,-6 17,-5 5,4 -8,6 -34,16 -57,22 l -43,11 v 109 109 h 30 c 17,0 30,4 30,8 0,13 -270,15 -285,2 -9,-8 -15,-8 -20,0 -7,12 -112,14 -119,1 z m 120,-148 6,-133 -35,-47 c -42,-59 -58,-89 -68,-128 -4,-16 -7,77 -8,208 l -1,238 50,-3 51,-3 z m 13,-258 c -5,-44 -7,-90 -4,-102 11,-48 -76,-76 -103,-33 -10,17 -9,32 12,91 26,74 48,106 81,119 11,4 20,7 21,6 1,0 -3,-37 -7,-81 z m 399,-142 c -10,-2 -26,-2 -35,0 -10,3 -2,5 17,5 19,0 27,-2 18,-5 z m -108,-8 c -8,-2 -49,-8 -90,-15 -41,-6 -87,-13 -102,-16 -16,-3 -28,-1 -28,4 0,12 105,29 180,30 30,0 48,-2 40,-3 z m 738,-32 c -21,-2 -57,-2 -80,0 -24,2 -7,4 37,4 44,0 63,-2 43,-4 z m -658,-13 c -11,-7 4,-10 50,-10 43,0 60,-3 50,-9 -8,-6 -18,-7 -22,-5 -4,3 -8,1 -8,-5 0,-6 -16,-13 -36,-17 -32,-6 -35,-9 -32,-38 2,-23 8,-31 23,-31 16,0 20,6 18,33 -1,26 2,32 14,28 8,-3 25,-6 38,-6 13,0 30,-7 38,-15 8,-8 16,-12 18,-10 8,7 137,15 337,21 l 202,6 v -611 c -1,-373 -5,-613 -11,-616 -5,-4 -9,-13 -9,-21 0,-8 5,-12 10,-9 6,4 10,-34 10,-106 v -112 l -141,5 -140,5 -33,32 c -31,30 -43,48 -69,111 -15,34 -38,61 -47,55 -4,-3 -16,12 -26,33 -21,41 -26,151 -11,233 7,38 6,47 -7,52 -24,10 -44,-2 -61,-36 -19,-38 -12,-47 10,-13 10,14 21,26 26,26 9,0 0,-120 -12,-160 -6,-21 -7,-17 -8,18 -1,25 -5,41 -11,37 -5,-3 -7,-48 -5,-110 3,-63 1,-105 -4,-105 -6,0 -12,21 -15,48 -4,26 -11,66 -16,90 -6,24 -8,47 -5,52 3,5 1,11 -4,14 -5,3 -7,14 -5,24 3,9 1,28 -5,42 -19,49 -12,-111 10,-223 12,-59 19,-110 16,-114 -9,-9 -261,17 -265,27 -2,5 -14,4 -28,-2 -13,-6 -26,-9 -28,-7 -7,6 17,89 25,89 4,0 18,43 30,96 l 22,96 31,-6 31,-6 -27,17 c -23,14 -28,25 -28,56 0,40 19,126 46,206 8,24 11,47 6,50 -5,3 -16,28 -25,55 -9,27 -24,57 -33,67 -21,23 -27,204 -6,187 9,-8 16,-8 24,0 12,12 2,32 -17,32 -20,0 -25,24 -25,115 v 84 l 36,10 c 19,5 43,7 51,4 11,-4 14,-2 9,5 -4,7 0,15 9,18 13,6 14,8 3,15 -21,14 -48,10 -48,-6 0,-20 -49,-32 -61,-14 -5,8 -8,31 -7,52 3,33 1,38 -22,44 -13,4 -31,12 -38,20 -16,16 -68,17 -111,2 -33,-12 -42,-44 -18,-68 10,-10 9,-11 -5,-6 -22,9 -22,7 -3,-38 8,-20 15,-44 15,-54 -1,-23 -26,41 -51,131 -11,38 -24,77 -29,87 -6,10 -10,20 -10,23 0,11 39,6 46,-5 5,-8 34,-10 96,-5 61,5 94,3 104,-4 16,-14 34,-5 34,16 0,9 -5,12 -12,8 -7,-5 -8,-3 -4,5 13,20 48,30 111,30 42,1 56,-2 45,-9 z m 368,3 c -10,-2 -28,-2 -40,0 -13,2 -5,4 17,4 22,1 32,-1 23,-4 z m -135,-10 c -13,-2 -33,-2 -45,0 -13,2 -3,4 22,4 25,0 35,-2 23,-4 z m -33,-1302 c 12,-45 62,-107 79,-96 5,3 13,0 17,-6 4,-8 3,-9 -4,-5 -7,4 -12,1 -12,-9 0,-11 5,-15 16,-11 9,3 12,2 9,-4 -7,-11 29,-63 37,-55 3,3 13,-5 24,-17 l 19,-23 -22,19 c -34,28 -28,13 17,-46 22,-29 42,-65 46,-81 4,-18 11,-27 19,-23 19,7 65,-89 65,-136 0,-20 9,-55 20,-76 11,-21 22,-60 25,-87 3,-28 2,-43 -1,-35 -4,8 -16,23 -28,33 -20,18 -21,18 -39,-4 -20,-25 -19,-52 5,-164 11,-49 11,-49 19,-20 5,17 4,32 -1,35 -5,3 -13,39 -16,79 -7,68 -6,73 12,69 11,-2 20,-13 22,-28 2,-14 8,-29 13,-35 12,-12 12,-28 0,-20 -14,8 -24,-14 -13,-28 5,-7 7,-47 3,-94 -3,-46 -3,-83 1,-83 3,0 9,8 11,18 4,13 5,12 6,-5 1,-21 3,-21 36,11 19,19 35,38 35,43 -1,4 -10,-3 -20,-16 -11,-13 -20,-19 -20,-14 0,5 25,33 55,63 l 54,53 v -206 c 0,-125 -4,-207 -9,-207 -6,0 -10,6 -11,13 0,10 -2,10 -6,0 -3,-8 -23,-13 -49,-13 -51,0 -67,19 -40,49 9,10 16,28 15,42 -1,20 -2,19 -10,-9 -5,-17 -11,-32 -12,-32 -1,0 -2,19 -2,43 0,23 -3,56 -8,72 l -7,30 15,-25 c 8,-15 14,-19 14,-10 1,24 -16,43 -29,35 -8,-5 -10,-19 -5,-42 4,-24 3,-33 -4,-28 -6,3 -11,-2 -11,-11 0,-16 -1,-16 -15,2 -10,13 -14,14 -15,5 0,-11 -3,-11 -15,-1 -17,14 -21,0 -4,-17 7,-7 12,-30 12,-52 0,-23 4,-41 8,-41 5,0 9,6 9,14 0,8 6,16 13,19 9,3 9,9 -1,26 -16,27 -5,27 17,-1 24,-29 7,-68 -30,-68 -28,0 -54,22 -42,34 4,4 0,4 -10,0 -17,-6 -22,10 -19,56 0,8 -5,35 -12,60 -7,25 -9,58 -5,75 4,17 7,22 8,12 0,-10 6,-15 11,-12 6,3 10,0 10,-8 0,-18 31,-80 37,-73 2,2 0,13 -6,24 -6,12 -11,31 -11,44 0,25 -22,93 -33,104 -4,4 -7,-6 -7,-22 0,-20 -3,-25 -9,-16 -6,10 -10,4 -15,-18 -3,-18 -3,-37 1,-43 3,-6 1,-7 -6,-3 -6,4 -19,25 -27,47 -9,21 -19,37 -22,36 -8,-2 -43,33 -58,59 -17,30 -61,51 -75,37 -9,-9 -8,-20 5,-47 16,-35 34,-51 22,-21 -3,8 -2,14 2,14 20,-3 25,2 12,12 -12,8 -12,10 -1,7 22,-6 20,-57 -2,-64 -16,-5 -17,-8 -6,-15 8,-5 9,-9 4,-9 -12,0 -15,-80 -3,-80 3,0 4,-10 0,-22 -3,-14 -1,-19 6,-14 17,11 32,-28 30,-81 l -1,-48 -6,54 c -6,58 -19,71 -44,46 -21,-21 -29,-6 -33,64 -3,31 -11,91 -19,134 -8,44 -13,83 -10,87 3,5 0,20 -7,34 -10,22 -9,28 7,40 15,11 16,14 3,19 -25,9 -30,84 -13,208 8,64 12,130 9,145 -3,18 0,37 9,48 13,18 17,15 63,-50 27,-38 52,-70 56,-72 5,-2 8,-8 8,-13 0,-9 -38,-68 -51,-79 -17,-14 -29,-54 -29,-99 0,-44 -3,-51 -20,-51 -13,0 -20,-7 -20,-20 0,-11 5,-20 12,-20 6,0 3,-7 -8,-15 -10,-8 -14,-15 -7,-15 6,0 18,7 27,15 13,14 16,13 27,-7 7,-13 20,-30 30,-39 10,-9 24,-29 31,-45 l 12,-29 4,38 c 2,20 7,35 12,32 13,-8 -1,39 -15,50 -23,20 -38,56 -26,68 16,16 14,50 -3,44 -10,-4 -12,0 -9,14 3,11 9,22 14,25 5,3 9,10 9,16 0,6 -8,0 -19,-13 -29,-37 -26,-121 6,-155 29,-32 25,-42 -7,-16 -20,16 -24,30 -27,88 -3,65 -1,72 32,127 20,31 41,57 46,57 6,0 8,4 5,8 -2,4 0,14 6,22 8,12 9,12 4,-3 -4,-13 -1,-17 12,-15 13,2 16,-3 14,-19 -2,-13 2,-23 7,-23 6,0 11,3 12,8 10,99 0,152 -17,80 -4,-20 -9,-27 -12,-18 -3,8 -10,21 -15,28 -11,14 -19,72 -18,127 0,23 -2,27 -9,15 -6,-8 -10,-33 -9,-55 2,-83 2,-83 -36,-40 -19,22 -34,48 -35,58 0,21 -36,95 -58,119 -8,10 -15,36 -15,58 0,23 -4,43 -9,46 -4,3 -3,15 4,27 l 12,22 8,-25 c 7,-25 7,-15 -7,103 -4,34 -3,37 5,17 5,-14 14,-45 20,-69 z m 65,-61 c 10,-11 16,-20 13,-20 -3,0 -13,9 -23,20 -10,11 -16,20 -13,20 3,0 13,-9 23,-20 z m -415,-60 c 20,-6 16,-8 -23,-9 -30,-1 -46,3 -42,9 7,11 29,11 65,0 z m -163,-32 c -3,-8 -6,-5 -6,6 -1,11 2,17 5,13 3,-3 4,-12 1,-19 z m 286,15 c -7,-2 -19,-2 -25,0 -7,3 -2,5 12,5 14,0 19,-2 13,-5 z m 90,-10 c -7,-2 -19,-2 -25,0 -7,3 -2,5 12,5 14,0 19,-2 13,-5 z m 70,-10 c -7,-2 -19,-2 -25,0 -7,3 -2,5 12,5 14,0 19,-2 13,-5 z m -674,-130 c -1,-57 -1,-58 -14,-28 -15,33 -19,68 -8,78 16,17 23,3 22,-50 z m -107,9 c 15,-14 25,-29 21,-35 -3,-6 -1,-7 6,-3 17,11 93,-158 125,-274 26,-100 44,-222 27,-185 -7,14 -8,-1 -4,-45 3,-36 11,-68 17,-72 6,-5 7,-8 1,-8 -5,0 -10,-16 -10,-35 0,-21 5,-35 13,-35 15,0 15,-10 -2,-33 -7,-9 -11,-29 -8,-45 2,-15 2,-24 -2,-21 -4,4 -8,18 -10,31 -1,13 -6,30 -11,37 -6,10 -4,12 5,6 10,-6 12,-4 7,9 -4,10 -7,29 -7,42 0,14 -3,23 -7,21 -5,-3 -8,49 -8,114 1,125 -10,166 -14,53 -1,-36 -7,-74 -13,-84 -8,-13 -8,-34 1,-80 10,-50 10,-64 0,-70 -7,-5 -14,-45 -17,-109 -3,-56 -9,-104 -13,-107 -5,-3 -9,3 -9,13 0,15 -2,16 -10,3 -6,-10 -10,-11 -10,-2 0,17 -18,15 -22,-3 -2,-9 -8,-12 -16,-6 -11,7 -17,44 -21,134 -1,11 -6,15 -12,11 -8,-5 -10,-30 -5,-81 4,-48 2,-72 -4,-68 -6,3 -11,23 -12,43 -1,37 -1,37 -8,-8 -5,-32 -7,-12 -8,70 0,63 2,109 5,103 9,-24 31,-13 37,20 10,48 38,117 46,112 4,-2 17,16 30,41 22,45 34,48 43,9 3,-11 5,31 6,94 1,112 -19,221 -41,221 -5,0 -4,-9 2,-20 5,-10 12,-54 15,-97 3,-64 3,-70 -4,-33 -10,49 -34,110 -58,147 -28,42 -24,18 7,-49 19,-40 31,-83 32,-110 1,-56 -30,-126 -70,-160 -18,-15 -32,-36 -32,-47 0,-12 -5,-21 -11,-21 -6,0 -9,-6 -7,-12 3,-7 -1,-26 -8,-43 -11,-25 -13,26 -14,337 0,407 -4,388 62,330 z m 1121,21 c -7,-2 -19,-2 -25,0 -7,3 -2,5 12,5 14,0 19,-2 13,-5 z m 205,-76 c 9,0 12,-49 12,-208 v -207 l -70,-69 -70,-69 v 35 c 1,20 7,63 15,96 18,75 19,117 1,180 -7,28 -20,76 -29,107 -9,31 -27,74 -41,95 -14,21 -26,42 -26,47 0,5 40,6 98,1 53,-4 103,-8 110,-8 z m -1208,-44 c 0,-22 -2,-25 -10,-13 -13,20 -13,40 0,40 6,0 10,-12 10,-27 z m 29,-98 c 0,-5 -4,-3 -9,5 -5,8 -9,22 -9,30 0,16 17,-16 18,-35 z m -279,-5 c 0,-5 -2,-10 -4,-10 -3,0 -8,5 -11,10 -3,6 -1,10 4,10 6,0 11,-4 11,-10 z m 30,-20 c -24,-15 -37,-11 -16,5 11,8 22,12 25,9 3,-3 -1,-9 -9,-14 z m 305,-120 c 16,-54 29,-257 15,-223 -5,12 -11,57 -13,100 -3,43 -14,105 -24,138 -11,33 -23,74 -26,90 -9,41 30,-44 48,-105 z m 32,-22 c -3,-8 -6,-5 -6,6 -1,11 2,17 5,13 3,-3 4,-12 1,-19 z m -153,-140 c -9,-18 -20,-35 -24,-38 -13,-10 -70,-133 -70,-152 0,-11 -4,-17 -9,-13 -19,11 26,132 68,185 23,28 41,57 42,63 0,9 2,9 5,0 3,-6 -2,-27 -12,-45 z m 113,-70 c -3,-8 -6,-5 -6,6 -1,11 2,17 5,13 3,-3 4,-12 1,-19 z m 230,-80 c -3,-8 -6,-5 -6,6 -1,11 2,17 5,13 3,-3 4,-12 1,-19 z m 543,-2 c 0,-29 20,-46 21,-19 1,36 51,-94 58,-151 12,-91 6,-106 -39,-106 -44,0 -51,11 -54,85 -2,28 -10,66 -20,86 -11,23 -16,54 -14,80 l 3,44 23,-45 c 19,-39 22,-41 18,-15 -3,17 -8,38 -11,48 -4,10 -3,17 4,17 6,0 11,-11 11,-24 z m -560,-72 c -16,-49 -21,-38 -8,16 6,24 13,39 16,32 2,-6 -2,-28 -8,-48 z m -138,8 c 5,-15 10,-58 9,-97 -1,-83 7,-100 43,-91 28,7 38,24 55,96 l 10,45 -3,-45 c -2,-25 -11,-62 -20,-82 l -16,-38 h -85 -85 v 65 c 0,64 12,86 24,43 5,-18 8,-20 15,-10 6,10 10,6 16,-15 7,-25 9,-21 17,31 6,50 5,65 -11,91 -17,30 -17,31 1,32 12,1 23,-8 30,-25 z m -34,-55 c -6,-34 -23,-22 -26,18 -2,38 -1,39 13,20 9,-11 14,-28 13,-38 z m -91,-109 c -2,-29 -3,-8 -3,47 0,55 1,79 3,53 2,-26 2,-71 0,-100 z m 761,-15 c -10,-21 -22,-29 -46,-31 -31,-3 -32,-2 -31,35 1,37 16,100 18,76 2,-19 48,-15 57,5 6,13 9,8 12,-20 2,-21 -3,-50 -10,-65 z m -961,-5 c -2,-18 -4,-6 -4,27 0,33 2,48 4,33 2,-15 2,-42 0,-60 z m 1153,-13 c 10,-13 9,-15 -9,-15 -12,0 -21,6 -21,15 0,8 4,15 9,15 5,0 14,-7 21,-15 z"
       id="path70" />
    <path
       d="m 4407,3564 c -14,-14 -7,-35 11,-32 9,2 17,10 17,17 0,16 -18,25 -28,15 z"
       id="path71" />
    <path
       d="m 4467,3424 c -9,-10 2,-24 19,-24 8,0 14,7 14,15 0,15 -21,21 -33,9 z"
       id="path72" />
    <path
       d="m 4568,3409 c -22,-12 -23,-35 -3,-43 17,-6 29,13 23,38 -2,11 -7,12 -20,5 z"
       id="path73" />
    <path
       d="m 4476,3334 c -8,-20 -8,-24 2,-24 4,0 8,9 9,20 2,24 -3,26 -11,4 z"
       id="path74" />
    <path
       d="m 4560,3330 c 0,-22 -16,-27 -23,-7 -2,6 -2,2 0,-10 2,-13 -1,-23 -7,-23 -16,0 -12,-18 10,-40 24,-24 34,-25 49,-6 15,18 3,106 -15,106 -8,0 -14,-9 -14,-20 z m 16,-65 c -5,-14 -9,-15 -21,-5 -12,10 -13,16 -4,27 15,18 34,1 25,-22 z"
       id="path75" />
    <path
       d="m 4450,3261 c 0,-17 18,-31 41,-31 5,0 9,7 9,15 0,8 -5,15 -11,15 -5,0 -7,-5 -3,-12 4,-7 3,-8 -4,-4 -6,4 -9,13 -5,21 3,9 -1,15 -11,15 -9,0 -16,-8 -16,-19 z"
       id="path76" />
    <path
       d="m 4634,3259 c -10,-17 13,-36 27,-22 12,12 4,33 -11,33 -5,0 -12,-5 -16,-11 z"
       id="path77" />
    <path
       d="m 4523,3243 c -16,-6 -17,-39 -2,-49 6,-3 16,-1 22,5 13,13 -3,50 -20,44 z"
       id="path78" />
    <path
       d="m 4360,3195 c 0,-8 7,-15 15,-15 8,0 15,7 15,15 0,8 -7,15 -15,15 -8,0 -15,-7 -15,-15 z"
       id="path79" />
    <path
       d="m 4622,3079 c 2,-6 8,-10 13,-10 5,0 11,4 13,10 2,6 -4,11 -13,11 -9,0 -15,-5 -13,-11 z"
       id="path80" />
    <path
       d="m 5062,2403 c 2,-10 13,-19 26,-21 17,-3 22,2 22,17 0,16 -6,21 -26,21 -19,0 -25,-5 -22,-17 z"
       id="path81" />
    <path
       d="m 4850,2379 c 0,-12 4,-18 11,-13 6,3 15,1 19,-6 4,-7 13,-9 19,-6 16,10 14,26 -4,26 -8,0 -15,5 -15,10 0,6 -7,10 -15,10 -8,0 -15,-9 -15,-21 z"
       id="path82" />
    <path
       d="m 4944,2375 c -8,-21 6,-37 27,-32 11,3 19,1 19,-4 0,-12 27,-11 35,1 3,6 3,19 0,30 -8,25 -72,29 -81,5 z"
       id="path83" />
    <path
       d="m 5080,2290 c 0,-5 5,-10 10,-10 6,0 10,5 10,10 0,6 -4,10 -10,10 -5,0 -10,-4 -10,-10 z"
       id="path84" />
    <path
       d="m 5010,2245 c 0,-8 7,-15 15,-15 8,0 15,7 15,15 0,8 -7,15 -15,15 -8,0 -15,-7 -15,-15 z"
       id="path85" />
    <path
       d="m 4760,2085 c 33,-19 46,-19 30,0 -7,8 -22,15 -34,15 -20,-1 -20,-2 4,-15 z"
       id="path86" />
    <path
       d="m 4760,1630 c 0,-5 7,-10 15,-10 8,0 15,5 15,10 0,6 -7,10 -15,10 -8,0 -15,-4 -15,-10 z"
       id="path87" />
    <path
       d="m 5114,1438 -19,-23 23,19 c 21,18 27,26 19,26 -2,0 -12,-10 -23,-22 z"
       id="path88" />
    <path
       d="m 3876,1838 c 10,-14 21,-24 23,-22 3,3 -6,15 -18,27 l -24,22 z"
       id="path89" />
    <path
       d="m 3791,1204 c 0,-11 3,-14 6,-6 3,7 2,16 -1,19 -3,4 -6,-2 -5,-13 z"
       id="path90" />
    <path
       d="m 3846,1194 c -3,-9 -4,-19 -1,-22 3,-3 5,1 6,9 1,8 5,3 9,-11 7,-21 8,-21 9,-5 0,11 -3,26 -8,33 -6,11 -10,10 -15,-4 z"
       id="path91" />
    <path
       d="m 4804,1139 c -3,-6 -2,-15 3,-20 5,-5 9,-1 9,11 0,23 -2,24 -12,9 z"
       id="path92" />
    <path
       d="m 4210,3280 c 0,-5 5,-10 11,-10 5,0 7,5 4,10 -3,6 -8,10 -11,10 -2,0 -4,-4 -4,-10 z"
       id="path93" />
    <path
       d="m 3832,3223 c 5,-26 38,-29 38,-4 0,15 -6,21 -21,21 -14,0 -19,-5 -17,-17 z"
       id="path94" />
    <path
       d="m 4167,3219 c 4,-13 8,-18 11,-10 2,7 -1,18 -6,23 -8,8 -9,4 -5,-13 z"
       id="path95" />
    <path
       d="m 3746,3163 c -14,-15 -5,-43 14,-43 13,0 20,7 20,19 0,19 -23,35 -34,24 z"
       id="path96" />
    <path
       d="m 3803,2985 c -7,-8 -13,-19 -13,-24 0,-5 -4,-12 -9,-16 -6,-3 -8,6 -5,20 3,18 0,25 -11,25 -8,0 -15,-4 -15,-8 0,-5 -24,-7 -54,-4 -33,3 -56,0 -60,-7 -5,-7 9,-11 43,-11 27,0 56,-3 65,-6 17,-7 22,-54 6,-54 -5,0 -10,-11 -10,-25 0,-15 6,-25 14,-25 16,0 28,24 20,44 -3,8 -1,16 4,20 11,6 7,-33 -8,-93 -18,-73 8,-100 34,-36 10,24 22,35 35,35 23,0 30,35 9,42 -7,3 -9,12 -5,22 4,9 11,14 17,11 13,-8 11,52 -3,83 -12,25 -36,28 -54,7 z m 32,-39 c 10,4 15,0 15,-11 0,-10 -5,-13 -12,-9 -8,5 -9,2 -5,-9 6,-16 4,-16 -17,-2 -17,11 -22,22 -18,37 4,17 6,18 14,5 5,-9 15,-14 23,-11 z m -31,-101 c 3,-8 1,-15 -4,-15 -6,0 -10,7 -10,15 0,8 2,15 4,15 2,0 6,-7 10,-15 z"
       id="path97" />
    <path
       d="m 5258,2933 c 7,-3 16,-2 19,1 4,3 -2,6 -13,5 -11,0 -14,-3 -6,-6 z"
       id="path98" />
    <path
       d="m 5718,2913 c 7,-3 16,-2 19,1 4,3 -2,6 -13,5 -11,0 -14,-3 -6,-6 z"
       id="path99" />
    <path
       d="m 3820,2802 c 0,-5 7,-9 15,-9 8,0 15,4 15,9 0,4 -7,8 -15,8 -8,0 -15,-4 -15,-8 z"
       id="path100" />
    <path
       d="m 5673,2723 c 15,-2 37,-2 50,0 12,2 0,4 -28,4 -27,0 -38,-2 -22,-4 z"
       id="path101" />
    <path
       d="m 6188,2673 c 6,-2 18,-2 25,0 6,3 1,5 -13,5 -14,0 -19,-2 -12,-5 z"
       id="path102" />
    <path
       d="m 3906,2614 c -10,-25 1,-29 14,-5 6,12 7,21 1,21 -5,0 -12,-7 -15,-16 z"
       id="path103" />
    <path
       d="m 3890,2525 c -11,-13 -10,-14 4,-9 9,3 16,10 16,15 0,13 -6,11 -20,-6 z"
       id="path104" />
    <path
       d="m 3470,2488 c -38,-42 -22,-111 30,-121 40,-9 56,-1 70,34 32,76 -46,145 -100,87 z"
       id="path105" />
    <path
       d="m 3805,2443 c 0,-49 11,-56 26,-16 7,19 6,28 -2,34 -6,4 -9,11 -6,16 3,5 1,10 -6,10 -7,0 -12,-17 -12,-44 z"
       id="path106" />
    <path
       d="m 6565,2451 c -28,-12 -43,-32 -41,-56 8,-75 45,-108 93,-85 l 28,14 -25,4 c -14,2 -29,8 -35,14 -7,8 -6,9 2,4 13,-7 43,2 43,15 0,4 -6,6 -14,3 -23,-9 -31,18 -11,33 17,12 17,13 2,13 -9,0 -17,5 -17,10 0,6 9,10 21,10 26,0 20,24 -7,27 -10,1 -28,-2 -39,-6 z m 2,-83 c -3,-7 -5,-2 -5,12 0,14 2,19 5,13 2,-7 2,-19 0,-25 z"
       id="path107" />
    <path
       d="m 5833,2399 c -40,-12 -57,-40 -47,-82 8,-39 30,-56 71,-57 37,0 73,32 73,66 0,33 -18,76 -29,69 -5,-3 -12,-1 -16,5 -7,11 -9,11 -52,-1 z"
       id="path108" />
    <path
       d="m 6213,2398 c -31,-44 -36,-67 -19,-93 23,-35 62,-49 97,-34 45,18 51,95 10,126 -21,16 -76,16 -88,1 z m 84,-70 c -3,-8 -6,-5 -6,6 -1,11 2,17 5,13 3,-3 4,-12 1,-19 z"
       id="path109" />
    <path
       d="m 4078,2380 c -4,-14 -8,-34 -8,-45 1,-19 1,-19 11,-2 6,10 9,30 7,45 l -3,27 z"
       id="path110" />
    <path
       d="m 5391,2348 c -65,-23 -70,-103 -9,-134 45,-23 84,-11 98,32 22,67 -28,125 -89,102 z m 20,-37 c -13,-3 -28,-15 -32,-26 -5,-14 -8,-15 -8,-4 -1,21 19,39 44,38 17,-1 17,-2 -4,-8 z m 14,-31 c 3,-5 -1,-10 -10,-10 -9,0 -13,5 -10,10 3,6 8,10 10,10 2,0 7,-4 10,-10 z m 16,-33 c -10,-9 -11,-8 -5,6 3,10 9,15 12,12 3,-3 0,-11 -7,-18 z"
       id="path111" />
    <path
       d="m 4041,2284 c 0,-11 3,-14 6,-6 3,7 2,16 -1,19 -3,4 -6,-2 -5,-13 z"
       id="path112" />
    <path
       d="m 4171,2274 c 0,-11 3,-14 6,-6 3,7 2,16 -1,19 -3,4 -6,-2 -5,-13 z"
       id="path113" />
    <path
       d="m 4143,2245 c -3,-9 -3,-18 -1,-21 3,-3 8,4 11,16 6,23 -1,27 -10,5 z"
       id="path114" />
    <path
       d="m 4385,2053 c -3,-15 -10,-48 -16,-73 -17,-73 -22,-179 -11,-264 9,-69 8,-81 -5,-91 -14,-10 -15,-25 -9,-91 12,-131 16,-149 26,-109 l 8,30 1,-27 c 0,-16 5,-28 10,-28 14,0 21,28 14,62 -5,24 -3,29 7,23 15,-9 5,98 -16,160 -19,57 -28,183 -18,251 7,52 8,56 15,29 6,-29 7,-29 4,5 -1,19 1,59 5,88 7,55 -5,84 -15,35 z m -6,-516 c 0,-50 -3,-66 -9,-52 -12,29 -12,138 0,130 6,-3 10,-39 9,-78 z"
       id="path115" />
    <path
       d="m 4437,2003 c -4,-3 -7,-13 -7,-22 1,-13 3,-13 11,2 11,19 8,33 -4,20 z"
       id="path116" />
    <path
       d="m 4120,1913 c 0,-4 5,-15 10,-23 8,-13 10,-13 10,2 0,9 -4,20 -10,23 -5,3 -10,3 -10,-2 z"
       id="path117" />
    <path
       d="m 4321,1894 c 0,-11 3,-14 6,-6 3,7 2,16 -1,19 -3,4 -6,-2 -5,-13 z"
       id="path118" />
    <path
       d="m 6546,1855 c -50,-46 -24,-125 40,-125 19,0 34,5 34,10 0,6 -5,10 -12,10 -6,0 -4,7 5,18 22,24 21,41 0,65 -17,19 -17,20 10,15 30,-6 37,6 10,17 -37,16 -62,13 -87,-10 z m 70,-46 c 10,-17 -13,-36 -27,-22 -12,12 -4,33 11,33 5,0 12,-5 16,-11 z"
       id="path119" />
    <path
       d="m 4322,1840 c 0,-14 2,-19 5,-12 2,6 2,18 0,25 -3,6 -5,1 -5,-13 z"
       id="path120" />
    <path
       d="m 5814,1817 c -28,-15 -34,-28 -34,-69 0,-80 111,-96 138,-19 8,23 6,35 -9,60 -10,17 -22,32 -26,32 -34,6 -53,5 -69,-4 z"
       id="path121" />
    <path
       d="m 6206,1811 c -23,-25 -25,-86 -3,-108 23,-23 86,-22 104,3 25,34 27,64 6,92 -26,35 -81,42 -107,13 z m 79,-79 c -17,-15 -18,-15 -6,0 7,9 9,23 5,30 -6,10 -4,11 7,0 11,-10 10,-15 -6,-30 z m -15,24 c 0,-3 -4,-8 -10,-11 -5,-3 -10,-1 -10,4 0,6 5,11 10,11 6,0 10,-2 10,-4 z"
       id="path122" />
    <path
       d="m 5355,1745 c -41,-40 -30,-92 24,-115 42,-17 73,-7 95,30 15,26 16,36 6,59 -21,53 -86,66 -125,26 z m 65,-45 c 0,-5 -4,-10 -10,-10 -5,0 -10,5 -10,10 0,6 5,10 10,10 6,0 10,-4 10,-10 z"
       id="path123" />
    <path
       d="m 4275,1710 c -3,-5 -1,-10 4,-10 6,0 11,5 11,10 0,6 -2,10 -4,10 -3,0 -8,-4 -11,-10 z"
       id="path124" />
    <path
       d="m 4407,1676 c -4,-10 -5,-21 -2,-24 9,-9 17,6 13,25 -3,17 -4,17 -11,-1 z"
       id="path125" />
    <path
       d="m 4426,1620 c -4,-15 -1,-40 8,-61 8,-20 12,-40 8,-44 -4,-5 -1,-5 6,-1 9,5 12,-6 12,-43 0,-31 -4,-51 -11,-51 -7,0 -9,-9 -5,-24 3,-13 -1,-43 -9,-66 -18,-52 -18,-54 -1,-38 8,7 12,15 10,17 -2,2 1,10 6,16 10,12 13,29 25,137 2,22 -6,67 -20,110 -19,62 -24,69 -29,48 z"
       id="path126" />
    <path
       d="m 4100,1585 c 7,-9 15,-13 17,-11 7,7 -7,26 -19,26 -6,0 -6,-6 2,-15 z"
       id="path127" />
    <path
       d="m 4117,1536 c 10,-13 20,-20 21,-15 5,12 -17,39 -30,39 -5,0 -1,-11 9,-24 z"
       id="path128" />
    <path
       d="m 4582,1519 c 6,-16 12,-28 14,-26 5,5 -13,57 -20,57 -3,0 0,-14 6,-31 z"
       id="path129" />
    <path
       d="m 3566,1348 c -50,-79 19,-163 92,-112 31,21 31,83 -1,112 -31,29 -72,29 -91,0 z m 64,-52 c 0,-3 -4,-8 -10,-11 -5,-3 -10,-1 -10,4 0,6 5,11 10,11 6,0 10,-2 10,-4 z"
       id="path130" />
    <path
       d="m 6528,1332 c -52,-26 -52,-99 0,-126 48,-25 103,12 101,69 0,6 -6,-5 -14,-23 -13,-29 -17,-32 -47,-27 -18,3 -39,13 -45,22 -15,20 -17,37 -3,28 6,-3 10,-13 10,-21 0,-11 9,-14 32,-12 35,3 44,26 23,55 -11,15 -16,16 -41,5 -24,-12 -26,-11 -14,2 15,19 61,21 78,4 9,-9 12,-8 12,4 0,28 -53,39 -92,20 z m 50,-59 c -4,-22 -22,-20 -26,1 -2,10 3,16 13,16 10,0 15,-7 13,-17 z"
       id="path131" />
    <path
       d="m 4343,1257 c -6,-34 -20,-82 -31,-106 -12,-25 -16,-41 -9,-38 20,6 54,89 61,150 8,77 -7,73 -21,-6 z"
       id="path132" />
    <path
       d="m 4331,1303 c -1,-6 -4,-20 -7,-30 -5,-17 -5,-17 6,0 6,10 9,23 6,30 -3,9 -5,9 -5,0 z"
       id="path133" />
    <path
       d="m 6238,1265 c -29,-16 -44,-60 -33,-96 10,-30 61,-49 97,-37 55,19 63,74 19,119 -33,33 -44,34 -83,14 z m 81,-43 c 6,-11 6,-24 0,-33 -7,-11 -9,-9 -9,8 0,12 -8,27 -17,32 -17,10 -17,10 -1,11 10,0 22,-8 27,-18 z m -82,-34 c -3,-8 -6,-5 -6,6 -1,11 2,17 5,13 3,-3 4,-12 1,-19 z m 53,12 c 0,-5 -4,-10 -10,-10 -5,0 -10,5 -10,10 0,6 5,10 10,10 6,0 10,-4 10,-10 z m 3,-41 c -8,-8 -16,-8 -30,0 -16,9 -14,10 12,11 21,0 26,-3 18,-11 z"
       id="path134" />
    <path
       d="m 4311,1224 c 0,-11 3,-14 6,-6 3,7 2,16 -1,19 -3,4 -6,-2 -5,-13 z"
       id="path135" />
    <path
       d="m 5833,1233 c -77,-15 -63,-147 15,-145 64,2 95,46 72,102 -9,22 -53,55 -63,49 -1,-1 -12,-4 -24,-6 z m 34,-39 c -3,-3 -12,-4 -19,-1 -8,3 -5,6 6,6 11,1 17,-2 13,-5 z m -2,-34 c 3,-5 -1,-10 -10,-10 -9,0 -13,5 -10,10 3,6 8,10 10,10 2,0 7,-4 10,-10 z m 24,-26 c -6,-8 -19,-13 -28,-13 -13,1 -13,2 2,6 9,2 17,11 17,19 0,8 5,12 10,9 8,-5 7,-11 -1,-21 z"
       id="path136" />
    <path
       d="m 5343,1185 c -21,-23 -16,-82 8,-106 17,-17 29,-20 62,-16 22,3 44,11 48,19 16,24 10,84 -9,101 -23,21 -92,22 -109,2 z"
       id="path137" />
    <path
       d="m 4350,1165 c -6,-8 -10,-19 -8,-24 1,-6 8,1 15,14 13,28 11,31 -7,10 z"
       id="path138" />
    <path
       d="m 5238,778 c 9,-9 15,-9 24,0 9,9 7,12 -12,12 -19,0 -21,-3 -12,-12 z"
       id="path139" />
    <path
       d="m 5293,783 c 9,-2 25,-2 35,0 9,3 1,5 -18,5 -19,0 -27,-2 -17,-5 z"
       id="path140" />
    <path
       d="m 3515,781 c 22,-11 52,-22 65,-25 14,-2 49,-9 79,-15 30,-6 57,-9 59,-6 3,3 -2,5 -11,5 -9,0 -17,4 -17,8 0,7 -67,23 -150,35 -14,2 -34,7 -45,11 -11,3 -2,-3 20,-13 z"
       id="path141" />
    <path
       d="m 185,753 c -10,-16 -24,-32 -32,-36 -18,-11 -17,-47 1,-47 8,0 18,5 22,11 3,6 14,9 24,6 22,-6 30,11 30,59 0,42 -21,45 -45,7 z m 15,-34 c -7,-11 -14,-18 -17,-15 -3,3 0,12 7,21 18,21 23,19 10,-6 z"
       id="path142" />
    <path
       d="m 3740,742 c 0,-4 10,-9 22,-9 18,-2 20,0 8,7 -18,12 -30,13 -30,2 z"
       id="path143" />
    <path
       d="m 5593,663 c 9,-2 23,-2 30,0 6,3 -1,5 -18,5 -16,0 -22,-2 -12,-5 z"
       id="path144" />
    <path
       d="m 5310,650 -85,-6 70,-1 c 39,0 113,3 165,7 l 95,7 h -80 c -44,-1 -118,-4 -165,-7 z"
       id="path145" />
  </g>
</svg>
