<?xml version="1.0" standalone="no"?>
<!DOCTYPE svg PUBLIC "-//W3C//DTD SVG 20010904//EN"
 "http://www.w3.org/TR/2001/REC-SVG-20010904/DTD/svg10.dtd">
<svg version="1.0" xmlns="http://www.w3.org/2000/svg"
 width="736.000000pt" height="1041.000000pt" viewBox="0 0 736.000000 1041.000000"
 preserveAspectRatio="xMidYMid meet">
<metadata>
Created by potrace 1.16, written by Peter Selinger 2001-2019
</metadata>
<g transform="translate(0.000000,1041.000000) scale(0.100000,-0.100000)"
fill="#000000" stroke="none">
<path d="M3787 7280 c-4 -8 -13 -73 -22 -145 -9 -71 -17 -131 -19 -133 -6 -5
-52 24 -103 66 -24 18 -43 28 -43 21 0 -6 25 -51 55 -99 l56 -87 -3 -463 c-2
-298 -7 -464 -13 -466 -5 -2 -118 101 -249 229 l-239 232 87 254 c47 140 85
256 82 258 -2 2 -37 -38 -78 -89 -41 -51 -130 -163 -199 -248 -68 -85 -132
-166 -142 -180 l-18 -25 348 -342 348 -342 -367 -368 c-203 -202 -368 -373
-368 -379 0 -10 273 -284 708 -709 84 -83 161 -154 171 -159 11 -4 26 -4 34 0
28 16 877 856 877 868 0 6 -165 177 -367 379 l-368 368 343 340 c188 186 342
344 342 350 0 15 -424 542 -428 531 -1 -5 36 -121 84 -258 l86 -248 -238 -232
c-132 -128 -243 -232 -249 -230 -6 2 -11 172 -13 480 l-2 477 38 52 c94 130
94 146 0 72 -85 -67 -80 -71 -97 85 -13 110 -26 163 -34 140z m-90 -2786 c-2
-2 -112 105 -245 239 l-242 242 243 243 242 242 3 -481 c1 -265 1 -484 -1
-485z m441 723 l242 -242 -245 -245 -245 -245 0 488 c0 268 1 487 3 487 1 0
111 -109 245 -243z"/>
</g>
</svg>
