<?xml version="1.0" standalone="no"?>
<!DOCTYPE svg PUBLIC "-//W3C//DTD SVG 20010904//EN"
 "http://www.w3.org/TR/2001/REC-SVG-20010904/DTD/svg10.dtd">
<svg version="1.0" xmlns="http://www.w3.org/2000/svg"
 width="162.000000pt" height="87.000000pt" viewBox="0 0 162.000000 87.000000"
 preserveAspectRatio="xMidYMid meet">
<metadata>
Created by potrace 1.16, written by Peter Selinger 2001-2019
</metadata>
<g transform="translate(0.000000,87.000000) scale(0.100000,-0.100000)"
fill="#000000" stroke="none">
<path d="M747 739 c-53 -28 -55 -43 -12 -83 42 -40 42 -60 -2 -64 -24 -2 -32
1 -36 18 -8 32 -24 16 -19 -19 4 -30 -17 -59 -64 -88 -18 -12 -18 -12 2 -12
25 -1 74 35 74 53 0 8 17 16 40 20 21 3 44 14 49 24 9 16 11 15 26 -5 15 -21
23 -22 113 -20 93 2 97 3 97 25 0 12 -4 21 -10 20 -5 -2 -9 -6 -8 -10 2 -5 -4
-8 -12 -8 -8 0 -15 5 -15 11 0 6 -7 4 -15 -5 -17 -16 -45 -11 -45 8 0 7 -3 6
-9 -2 -4 -7 -23 -14 -40 -14 -27 -1 -42 9 -87 56 -30 31 -54 58 -54 60 0 3 20
12 45 22 25 9 45 21 45 25 0 14 -22 10 -63 -12z"/>
<path d="M604 704 c3 -26 6 -68 7 -93 l1 -46 8 35 c11 42 1 150 -13 150 -6 0
-7 -18 -3 -46z"/>
<path d="M952 681 c2 -7 7 -12 11 -12 12 1 9 15 -3 20 -7 2 -11 -2 -8 -8z"/>
<path d="M935 650 c-3 -5 1 -10 10 -10 9 0 13 5 10 10 -3 6 -8 10 -10 10 -2 0
-7 -4 -10 -10z"/>
<path d="M970 650 c0 -5 5 -10 10 -10 6 0 10 5 10 10 0 6 -4 10 -10 10 -5 0
-10 -4 -10 -10z"/>
<path d="M651 310 c0 -71 2 -100 9 -90 11 17 11 121 0 165 -5 20 -8 -5 -9 -75z"/>
<path d="M307 392 c-5 -7 -3 -53 4 -102 15 -110 8 -122 -60 -118 -37 2 -48 8
-58 28 l-13 25 0 -26 c0 -36 29 -59 74 -59 47 0 76 15 76 40 0 10 4 21 9 24 5
3 64 6 132 7 146 1 172 14 135 64 -13 18 -14 18 -51 -4 -30 -17 -40 -19 -47
-9 -6 10 -10 7 -14 -10 -6 -19 -12 -23 -43 -20 -31 3 -36 7 -39 31 -2 15 -7
27 -12 27 -5 0 -7 -13 -3 -30 5 -27 3 -30 -20 -30 -34 0 -40 11 -52 100 -6 46
-13 70 -18 62z m288 -143 c0 -8 -12 -15 -27 -17 -31 -4 -37 12 -10 27 21 13
37 9 37 -10z"/>
<path d="M1216 341 c-4 -5 -2 -12 3 -15 5 -4 12 -2 15 3 4 5 2 12 -3 15 -5 4
-12 2 -15 -3z"/>
<path d="M818 280 c-48 -44 -38 -58 45 -64 39 -3 99 -5 132 -3 54 2 60 4 63
25 2 12 -1 22 -7 22 -6 0 -11 -7 -11 -15 0 -20 -17 -19 -28 1 -8 15 -10 15
-15 0 -8 -20 -36 -21 -43 -1 -6 14 -8 14 -18 -1 -8 -10 -23 -14 -41 -12 -24 2
-31 10 -40 38 l-10 35 -27 -25z m22 -25 c0 -8 -7 -15 -15 -15 -16 0 -20 12 -8
23 11 12 23 8 23 -8z"/>
<path d="M1115 300 c-3 -5 1 -10 9 -10 15 0 46 -36 46 -53 0 -5 -18 -7 -40 -5
-28 2 -40 0 -40 -9 0 -10 29 -13 120 -13 112 0 120 -1 120 -19 0 -30 11 -51
26 -51 20 0 34 32 23 53 -11 18 -15 17 91 21 27 1 36 6 38 22 2 11 -4 26 -12
33 -13 11 -21 9 -47 -13 -17 -14 -41 -26 -55 -26 -22 0 -23 2 -12 20 10 16 10
23 -4 36 -22 22 -46 11 -50 -23 -2 -23 -8 -29 -34 -31 -28 -3 -32 0 -38 28 -3
17 -10 29 -15 26 -4 -3 -6 -17 -3 -31 4 -22 1 -25 -27 -25 -23 0 -31 5 -31 18
0 40 -48 79 -65 52z m255 -34 c0 -7 -7 -19 -15 -26 -12 -10 -15 -9 -15 7 0 11
3 23 7 26 11 12 23 8 23 -7z m117 -32 c-9 -9 -28 6 -21 18 4 6 10 6 17 -1 6
-6 8 -13 4 -17z m-117 -60 c0 -19 -16 -18 -24 2 -11 27 -7 37 9 24 8 -7 15
-19 15 -26z"/>
<path d="M370 164 c0 -8 10 -12 25 -10 35 4 37 21 3 21 -16 1 -28 -5 -28 -11z"/>
</g>
</svg>
