<?xml version="1.0" standalone="no"?>
<!DOCTYPE svg PUBLIC "-//W3C//DTD SVG 20010904//EN"
 "http://www.w3.org/TR/2001/REC-SVG-20010904/DTD/svg10.dtd">
<svg version="1.0" xmlns="http://www.w3.org/2000/svg"
 width="1200.000000pt" height="1200.000000pt" viewBox="0 0 1200.000000 1200.000000"
 preserveAspectRatio="xMidYMid meet">
<metadata>
Created by potrace 1.16, written by Peter Selinger 2001-2019
</metadata>
<g transform="translate(0.000000,1200.000000) scale(0.100000,-0.100000)"
fill="#000000" stroke="none">
<path d="M5318 11675 c-7 -13 -105 -144 -218 -291 -113 -146 -247 -320 -299
-387 -51 -67 -110 -143 -130 -169 -20 -26 -72 -94 -116 -152 -75 -98 -82 -105
-115 -106 -20 0 -45 -7 -57 -15 -23 -16 -53 -98 -53 -144 0 -17 -25 -58 -70
-116 -38 -49 -119 -154 -180 -233 -60 -78 -110 -151 -110 -162 0 -16 7 -20 30
-20 17 0 93 -23 169 -52 l139 -52 6 -485 c3 -267 9 -531 12 -587 6 -100 6
-101 -20 -117 -32 -21 -66 -86 -66 -125 0 -44 35 -82 74 -82 48 0 56 15 56
103 0 87 10 96 44 37 17 -29 18 -38 7 -79 -13 -51 -50 -91 -84 -91 -12 0 -39
9 -60 20 -20 11 -41 20 -45 20 -15 0 -31 -47 -67 -191 -87 -352 -125 -614
-132 -916 -6 -249 -2 -293 27 -293 15 0 20 7 20 26 0 22 3 24 23 18 12 -3 23
-7 24 -8 0 0 7 -26 15 -56 8 -36 18 -55 28 -55 13 0 16 29 21 180 9 256 19
429 27 459 4 15 5 -42 3 -124 -3 -160 13 -400 30 -433 8 -14 14 -16 22 -8 6 6
22 11 35 11 15 0 22 5 19 13 -2 6 -12 11 -22 10 -17 -1 -17 12 -10 236 8 293
22 411 24 216 2 -205 31 -513 52 -546 4 -6 15 -9 24 -5 14 5 16 15 11 54 -8
72 -19 322 -14 322 3 0 11 -51 18 -112 21 -199 45 -277 73 -249 5 5 4 123 -3
268 -20 444 -29 741 -30 936 0 178 -1 187 -19 187 -11 0 -23 -4 -26 -10 -3 -5
-14 -10 -23 -10 -11 0 -5 7 15 20 90 54 94 218 7 260 l-32 15 -6 105 c-3 58
-9 318 -12 578 l-7 473 69 -27 c112 -43 695 -244 708 -244 9 0 18 48 30 145
23 187 35 230 34 115 -1 -101 11 -111 69 -60 30 26 111 70 130 70 2 0 -21 -23
-52 -52 -142 -129 -290 -359 -380 -589 -180 -456 -238 -860 -180 -1249 18
-118 68 -344 97 -430 71 -218 198 -416 350 -545 44 -38 47 -43 47 -92 1 -39
-5 -61 -23 -87 -13 -19 -26 -55 -30 -78 -11 -72 25 -158 66 -158 19 0 20 4 13
38 -19 101 -21 93 26 134 24 21 47 38 52 38 4 0 32 -16 62 -35 203 -130 537
-224 725 -206 46 5 55 9 55 26 0 17 -15 22 -130 41 -304 51 -507 129 -638 244
-47 41 -47 50 1 39 20 -5 89 -12 152 -15 100 -6 147 -2 365 30 458 67 565 89
850 176 220 67 301 85 351 77 73 -12 134 -76 134 -141 0 -20 16 -37 74 -80 75
-55 146 -121 146 -134 0 -4 -29 -18 -65 -30 -49 -18 -65 -28 -65 -43 0 -17 8
-19 68 -19 75 0 156 -21 187 -48 64 -55 118 -164 102 -205 -9 -25 -49 -46
-110 -59 -48 -10 -72 -9 -179 12 -170 32 -417 38 -651 15 -243 -23 -501 -31
-782 -24 -270 7 -335 17 -574 85 -170 48 -238 55 -265 25 -23 -26 -54 -117
-67 -202 -20 -127 8 -282 61 -342 l29 -34 -107 -41 c-198 -77 -396 -142 -582
-193 -287 -78 -347 -98 -463 -149 -129 -58 -169 -89 -240 -183 -83 -111 -143
-230 -197 -396 -100 -306 -152 -614 -230 -1361 -11 -107 -24 -235 -29 -285 -6
-49 -13 -130 -16 -180 -7 -107 -21 -262 -40 -440 -8 -71 -17 -175 -21 -230 -4
-57 -12 -106 -19 -115 -33 -39 -205 -340 -266 -465 -81 -167 -127 -296 -180
-505 -52 -206 -65 -350 -51 -570 27 -422 177 -674 414 -697 59 -5 66 -3 95 21
42 35 69 117 128 386 35 159 55 296 55 382 0 108 -49 736 -79 1002 -4 39 -4
63 1 55 82 -142 171 -269 189 -269 25 0 18 38 -25 134 -114 254 -151 661 -71
776 42 60 292 340 404 451 100 100 305 283 381 341 39 29 25 28 395 49 l190
11 129 -42 c182 -59 249 -90 329 -151 199 -153 377 -321 377 -356 0 -34 -33
-47 -88 -33 -24 6 -165 71 -311 145 -310 156 -309 155 -381 161 -159 11 -334
26 -405 33 -86 9 -95 7 -95 -14 0 -20 15 -23 245 -40 267 -20 324 -34 445
-110 19 -12 80 -45 135 -74 55 -29 135 -77 179 -108 l79 -55 -69 -31 c-38 -16
-78 -36 -89 -43 -11 -8 -27 -14 -36 -14 -9 0 -76 28 -150 61 -228 104 -299
125 -509 149 -102 11 -219 26 -260 34 -116 20 -132 -11 -31 -64 31 -17 89 -55
129 -84 104 -78 236 -154 396 -230 l138 -66 -53 -45 c-29 -25 -58 -45 -65 -45
-68 0 -308 74 -532 165 -246 98 -327 118 -309 73 3 -8 64 -41 135 -72 72 -32
161 -76 198 -98 38 -22 128 -69 200 -104 72 -36 139 -73 149 -84 17 -19 17
-20 -6 -40 -20 -18 -33 -20 -84 -15 -33 3 -107 19 -165 35 -58 17 -155 42
-215 55 -61 13 -170 39 -243 58 -72 19 -134 31 -137 29 -3 -3 -5 -11 -5 -18 0
-14 37 -28 148 -55 60 -14 83 -25 104 -49 48 -53 47 -60 -56 -275 -53 -109
-96 -210 -96 -225 0 -103 308 -321 492 -348 l53 -7 0 -70 c-1 -39 -6 -178 -12
-310 -7 -132 -15 -322 -18 -422 -6 -175 -5 -183 13 -183 21 0 19 -3 104 190
58 132 140 284 160 296 17 11 179 -174 318 -364 85 -115 117 -133 106 -59 -28
189 -36 248 -36 292 l0 49 48 -45 c96 -93 182 -159 207 -159 33 0 32 15 -5
131 -44 136 -60 238 -75 473 -14 216 -10 356 9 368 6 4 22 8 36 8 14 0 81 14
150 30 144 34 215 37 380 14 88 -12 168 -15 340 -11 233 4 317 16 478 66 59
18 67 19 115 4 29 -8 131 -52 227 -98 158 -75 396 -165 435 -165 8 0 15 8 15
18 0 13 -26 25 -114 54 -63 20 -196 75 -296 122 -99 47 -203 93 -230 102 -28
9 -52 20 -55 24 -6 10 -24 6 -128 -26 -151 -46 -286 -64 -492 -65 -119 0 -231
6 -300 15 -164 23 -242 20 -380 -13 -66 -16 -146 -32 -177 -36 -34 -4 -63 -14
-72 -24 -38 -41 -77 -144 -86 -224 -16 -136 -19 -147 -39 -147 -19 0 -61 41
-81 79 -18 34 -25 246 -10 300 7 27 28 61 53 87 48 50 213 151 369 227 74 36
107 57 107 70 2 31 -36 19 -180 -58 -269 -144 -359 -213 -384 -299 -10 -31
-15 -93 -15 -168 0 -97 -3 -118 -15 -118 -18 0 -84 114 -120 208 l-27 74 22
106 c30 146 46 186 84 220 45 39 175 108 331 177 286 125 329 149 297 169 -11
6 -307 -123 -482 -211 -90 -45 -150 -83 -181 -113 -43 -41 -48 -53 -67 -135
-12 -49 -27 -122 -34 -162 -12 -70 -11 -74 16 -140 30 -73 47 -224 28 -252
-19 -27 -39 -2 -105 133 l-68 136 6 142 c10 238 13 265 43 300 49 58 210 195
355 301 125 91 163 113 269 155 79 32 124 55 126 66 5 25 -23 20 -144 -28
-129 -51 -148 -62 -330 -199 -154 -115 -301 -245 -324 -286 -8 -14 -19 -64
-25 -111 -11 -82 -12 -84 -24 -55 -17 38 -8 183 13 222 17 34 91 105 246 239
280 244 397 318 655 419 149 58 193 67 281 54 129 -17 516 -113 864 -214 492
-142 582 -167 650 -180 55 -11 70 -19 98 -52 55 -62 101 -165 151 -338 20 -71
25 -96 61 -315 30 -178 123 -549 182 -725 78 -231 206 -473 319 -599 48 -54
122 -106 151 -106 32 0 19 27 -26 54 -90 53 -183 179 -294 401 -123 246 -237
643 -307 1070 -57 348 -146 565 -260 636 -30 19 -29 19 165 19 276 0 642 -51
900 -125 215 -61 605 -269 709 -379 36 -37 71 -47 71 -21 0 20 -197 217 -280
280 -35 27 -91 64 -125 82 -33 18 -53 33 -45 33 61 0 351 -85 470 -137 97 -42
243 -148 363 -263 77 -73 122 -110 132 -106 20 7 19 22 -6 73 -32 65 -175 192
-349 308 -309 207 -480 265 -731 251 l-116 -7 -12 43 c-7 24 -36 104 -63 178
-76 205 -124 370 -152 520 -63 344 -76 489 -76 869 1 306 9 431 55 804 8 71
13 133 10 138 -11 17 -36 9 -45 -16 -16 -41 -50 -259 -95 -610 -22 -171 -30
-491 -16 -660 7 -77 15 -178 18 -225 5 -81 14 -110 34 -110 13 0 11 82 -6 265
-16 167 -19 477 -6 555 4 27 10 -77 13 -265 11 -560 66 -847 268 -1395 17 -47
32 -95 33 -108 l2 -23 205 -2 c204 -2 205 -3 287 -34 93 -36 209 -94 238 -118
l20 -17 -20 8 c-236 84 -358 116 -460 117 -75 2 -80 1 -83 -20 -3 -18 7 -27
50 -49 59 -30 188 -111 188 -118 0 -3 -51 21 -112 54 -249 130 -411 175 -918
252 -117 18 -621 18 -642 0 -12 -10 -23 -9 -58 3 -23 8 -95 29 -159 45 -64 17
-138 37 -166 45 -406 119 -541 156 -773 211 -173 41 -299 65 -343 66 -66 2
-69 3 -69 27 0 34 -31 75 -116 151 -39 36 -72 71 -73 78 -1 6 44 96 98 200
183 345 165 316 202 322 26 4 38 13 51 40 32 63 27 71 -75 117 -252 113 -387
178 -387 184 0 3 17 9 38 13 127 21 292 169 292 263 0 39 -17 50 -92 61 -87
13 -173 -3 -266 -50 -138 -68 -226 -168 -193 -219 7 -12 11 -81 11 -196 1 -98
7 -220 14 -271 l13 -92 -23 15 c-13 8 -33 15 -45 15 -21 0 -22 3 -16 78 3 42
13 138 22 212 18 154 13 238 -16 269 -38 41 -64 14 -57 -59 3 -28 2 -50 -1
-50 -12 0 -61 69 -61 86 0 9 9 32 21 51 16 25 32 37 65 45 31 9 44 17 44 30 0
17 22 64 218 468 44 91 118 244 164 341 81 168 87 176 124 191 66 26 115 29
204 14 169 -30 304 -92 403 -185 76 -71 97 -105 97 -151 0 -28 -275 -565 -466
-910 -35 -63 -64 -125 -64 -137 0 -57 34 -12 133 175 346 651 447 846 447 866
0 38 -50 124 -103 177 -28 28 -87 72 -130 97 -49 29 -74 49 -68 55 18 18 152
-58 234 -132 43 -39 86 -71 97 -71 13 0 70 59 167 173 390 457 920 994 1181
1196 42 32 45 33 110 27 59 -6 283 -44 457 -77 142 -27 311 -77 385 -114 197
-99 347 -386 616 -1180 156 -460 224 -677 270 -863 20 -81 65 -248 101 -372
80 -277 120 -450 138 -600 29 -234 36 -288 61 -425 51 -283 130 -616 161 -678
23 -46 24 -57 22 -210 -1 -134 1 -169 16 -204 15 -37 15 -53 5 -130 -6 -48
-15 -151 -19 -228 -9 -145 -20 -191 -72 -301 -77 -164 -205 -311 -393 -451
-245 -184 -583 -304 -891 -317 -66 -3 -123 -5 -127 -6 -5 0 -8 -7 -8 -16 0
-15 17 -16 163 -11 139 4 179 9 280 36 330 86 535 197 780 420 122 113 253
327 292 481 9 36 20 139 25 230 5 91 12 186 15 211 6 36 2 60 -15 105 -21 56
-21 64 -10 176 13 127 10 158 -26 233 -26 54 -63 203 -124 498 -35 167 -55
293 -91 562 -17 128 -49 303 -69 379 -29 105 -64 230 -93 326 -14 47 -49 177
-77 290 -58 227 -275 898 -407 1255 -164 444 -307 698 -447 794 -90 63 -255
113 -546 166 -107 20 -220 41 -250 47 -30 5 -98 11 -151 11 l-97 2 -6 49 c-15
127 -104 221 -241 251 -28 7 -28 8 -9 15 67 26 7 114 -148 219 -29 19 -50 41
-53 56 -3 14 -7 36 -10 50 -6 28 -45 68 -90 93 -44 24 -160 19 -270 -11 -49
-13 -151 -43 -226 -66 -190 -58 -319 -86 -584 -126 -126 -19 -255 -39 -285
-45 -102 -21 -277 -23 -389 -6 -58 9 -115 16 -128 16 -37 0 -28 -30 30 -88 46
-48 49 -52 20 -38 -18 9 -34 16 -36 16 -2 0 -24 -16 -48 -34 -24 -19 -45 -33
-47 -31 -2 2 6 17 19 34 19 27 21 38 16 98 -6 68 -7 68 -69 129 -212 204 -304
381 -382 731 -39 177 -66 383 -66 506 0 185 46 465 109 662 112 352 220 563
388 760 93 110 226 205 286 205 25 0 86 -40 124 -81 l22 -24 -92 0 c-124 0
-180 -27 -297 -145 -98 -98 -176 -217 -290 -445 -104 -206 -110 -229 -110
-394 0 -139 -5 -166 -61 -361 -18 -62 -23 -108 -26 -275 -4 -171 -2 -218 16
-322 30 -173 64 -281 131 -418 73 -150 118 -218 219 -332 100 -113 146 -136
317 -159 101 -14 134 -15 219 -4 55 6 124 20 153 30 119 42 314 206 436 368
94 122 201 342 216 442 28 187 22 422 -14 540 -28 90 -61 161 -320 684 -282
566 -367 713 -490 842 l-64 67 106 -6 c137 -8 388 -59 627 -128 113 -33 564
-198 630 -230 165 -81 527 -333 620 -430 64 -68 130 -157 123 -165 -3 -2 -26
23 -53 56 -78 98 -101 79 -70 -60 34 -155 9 -297 -122 -705 -40 -122 -56 -165
-149 -376 -67 -153 -76 -189 -46 -189 18 1 124 131 217 270 114 171 190 370
230 605 9 55 18 101 20 103 3 4 64 -82 92 -130 12 -21 34 -75 49 -120 24 -73
27 -99 27 -213 0 -113 -5 -155 -41 -325 -42 -206 -54 -278 -77 -479 -16 -143
-39 -201 -125 -314 -63 -83 -118 -122 -157 -112 -41 10 -128 105 -206 223 -74
113 -133 162 -194 162 -18 0 -82 -16 -142 -35 -139 -45 -155 -46 -115 -2 126
135 334 463 334 526 0 15 -6 21 -22 20 -16 0 -46 -28 -98 -91 -185 -224 -405
-419 -593 -526 -114 -65 -112 -66 -74 24 132 311 220 639 267 989 11 88 25
185 30 215 5 30 15 138 21 240 9 153 8 224 -6 410 -20 282 -25 314 -47 318
-23 4 -23 -4 -1 -194 22 -201 22 -525 -1 -709 -41 -337 -58 -444 -102 -635
-50 -223 -154 -532 -229 -681 -20 -38 -33 -74 -30 -79 18 -30 102 6 275 118
163 104 323 247 459 410 24 28 46 50 48 48 11 -10 -177 -275 -276 -391 -28
-32 -51 -67 -51 -77 0 -30 65 -22 207 23 86 27 138 38 158 35 44 -9 93 -59
167 -172 111 -167 183 -225 266 -209 76 14 226 210 257 333 7 32 19 104 25
162 17 150 44 312 80 485 30 141 32 160 28 310 -4 150 -6 165 -36 245 -40 104
-155 283 -180 278 -12 -2 -20 -22 -30 -73 -55 -304 -81 -394 -148 -528 -42
-85 -183 -302 -190 -294 -2 2 20 59 50 128 62 145 140 377 192 575 32 121 37
155 38 259 1 66 -2 134 -7 150 l-7 30 30 -35 c57 -65 117 -145 134 -177 17
-34 43 -43 52 -19 18 48 -106 273 -215 388 -91 97 -355 286 -568 408 -105 59
-162 82 -488 194 -267 92 -370 121 -624 171 -269 54 -456 48 -637 -20 -38 -14
-83 -34 -100 -44 l-32 -19 -7 190 c-6 150 -10 191 -22 195 -23 9 -19 28 -59
-257 -9 -58 -21 -151 -28 -207 -7 -56 -14 -105 -17 -107 -2 -3 -36 6 -74 19
-205 69 -443 152 -553 193 l-124 46 7 275 7 276 55 75 c31 41 61 80 67 85 6 6
20 23 30 39 10 16 61 84 115 151 98 125 298 384 570 739 84 111 155 203 157
205 2 2 36 -11 76 -29 40 -18 222 -99 403 -180 182 -81 417 -186 523 -234 105
-47 279 -125 385 -172 105 -47 278 -124 382 -171 105 -47 233 -104 285 -128
228 -101 742 -331 930 -415 113 -51 248 -111 300 -134 292 -129 620 -279 620
-285 -1 -3 -54 -41 -118 -85 -64 -43 -307 -209 -539 -370 l-423 -291 -62 -122
c-34 -67 -64 -121 -66 -119 -5 5 32 106 108 296 99 246 132 348 121 368 -15
28 -177 180 -261 245 -528 407 -817 590 -1174 742 -424 180 -722 237 -1126
216 -192 -11 -265 -23 -274 -47 -8 -21 16 -27 61 -15 50 14 251 31 361 31 106
0 331 -26 447 -51 189 -42 516 -164 735 -274 161 -81 387 -225 650 -414 154
-110 427 -330 490 -395 l55 -57 -34 -97 c-18 -53 -57 -155 -86 -227 -29 -71
-74 -191 -100 -265 -26 -74 -58 -162 -72 -195 -33 -82 -35 -95 -14 -95 21 0
134 172 208 319 29 57 58 110 64 118 7 8 186 134 398 280 212 147 453 313 536
371 82 57 160 109 173 115 37 17 22 36 -53 69 -65 28 -174 77 -510 228 -71 32
-368 165 -660 295 -574 257 -740 331 -1807 809 -798 357 -932 416 -944 416 -7
0 -19 -11 -26 -25z m-898 -1175 c-29 -40 -44 -49 -35 -19 10 32 24 49 42 49
11 0 9 -7 -7 -30z m-107 -437 c-3 -131 -6 -239 -7 -240 -1 -2 -269 97 -273
101 -2 1 30 45 70 97 132 174 212 278 214 279 1 0 -1 -107 -4 -237z m1404
-418 c59 -17 74 -34 170 -193 68 -113 525 -1027 574 -1149 54 -132 63 -185 63
-358 1 -189 -14 -288 -60 -399 -85 -203 -230 -390 -417 -540 -133 -106 -223
-131 -445 -124 -197 7 -238 22 -340 127 -107 110 -142 159 -221 316 -115 230
-163 439 -163 710 0 177 9 240 54 383 27 87 31 115 37 272 l7 175 42 99 c88
207 238 451 341 556 127 128 228 163 358 125z m-1383 -1192 c-5 -34 -21 -42
-42 -21 -18 18 -14 49 10 88 l22 35 8 -35 c4 -19 5 -50 2 -67z m-3 -183 c23 0
23 4 -1 -133 -21 -123 -46 -337 -60 -522 l-9 -120 5 150 c4 162 18 335 35 456
6 42 9 84 7 94 -4 25 -65 29 -78 5 -14 -27 -77 -291 -104 -440 -13 -74 -25
-124 -25 -110 -2 63 94 534 134 657 3 9 15 5 41 -12 20 -14 45 -25 55 -25z
m-90 -256 c-44 -252 -73 -496 -85 -714 -2 -36 -2 36 0 160 3 231 16 341 63
545 27 117 33 137 38 131 2 -2 -5 -57 -16 -122z m180 -296 c4 -150 11 -293 13
-318 4 -36 3 -39 -4 -17 -11 37 -18 130 -26 397 -4 124 -3 222 1 218 4 -4 11
-130 16 -280z m-324 -130 c-3 -8 -6 -5 -6 6 -1 11 2 17 5 13 3 -3 4 -12 1 -19z
m22 -434 c1 -55 -2 -73 -14 -78 -18 -6 -19 27 -8 175 l8 94 6 -60 c4 -33 7
-92 8 -131z m1326 -799 c393 -111 676 -120 1534 -46 128 11 320 -1 459 -28 57
-12 126 -21 153 -21 53 0 140 29 170 56 11 9 19 15 19 12 0 -3 -57 -53 -126
-113 -230 -197 -785 -764 -979 -1000 -41 -49 -143 -168 -201 -234 -15 -17 -25
-11 -100 58 -37 34 -92 69 -147 95 l-88 42 57 75 c105 136 285 332 546 591
170 170 258 264 258 277 0 27 -22 27 -46 0 -36 -41 -250 -138 -449 -206 -299
-102 -507 -136 -835 -137 -207 -1 -231 1 -297 22 -96 30 -176 100 -198 173
-35 120 -26 272 25 385 17 39 22 44 52 44 19 0 106 -20 193 -45z m1180 -568
c-222 -225 -422 -448 -493 -550 -34 -49 -41 -67 -37 -89 4 -15 5 -28 3 -28 -3
0 -38 12 -79 27 -65 23 -89 27 -204 27 -144 1 -197 -14 -223 -64 -36 -70 -414
-853 -448 -927 -13 -29 -30 -53 -38 -53 -8 0 -22 -3 -31 -6 -15 -6 -16 0 -9
62 18 156 5 264 -47 393 -40 99 -65 138 -100 157 -50 26 -78 -1 -172 -168 -71
-125 -81 -157 -74 -231 8 -93 62 -192 154 -283 42 -41 71 -74 65 -74 -22 0
-115 -84 -171 -155 -67 -84 -107 -161 -117 -222 -6 -38 -4 -43 13 -43 11 0 28
9 39 21 l19 21 11 -38 c7 -27 16 -39 29 -39 20 0 16 -6 85 135 52 108 139 223
186 248 25 13 26 13 19 -10 -5 -13 -34 -75 -65 -138 -32 -63 -81 -164 -109
-225 -29 -60 -59 -116 -68 -122 -11 -9 -54 -13 -125 -13 l-108 0 0 208 c0 423
15 557 132 1177 52 279 226 811 279 851 17 14 144 44 183 44 21 0 27 -4 22
-16 -14 -36 -48 -232 -72 -414 -17 -127 -28 -266 -31 -397 -5 -183 -4 -203 11
-209 9 -4 19 -4 23 -1 3 3 7 57 8 119 3 121 39 356 80 528 39 160 95 427 95
453 0 42 13 49 56 31 163 -68 643 -53 974 31 175 45 415 129 505 178 17 9 32
16 35 17 3 0 -89 -96 -205 -213z m-1395 10 c0 -42 -98 -492 -106 -484 -5 4 42
269 56 317 5 19 10 48 10 64 l0 29 -77 -6 c-43 -3 -108 -15 -144 -26 -61 -19
-68 -24 -92 -69 -37 -69 -76 -177 -151 -427 -84 -281 -89 -302 -182 -835 -38
-220 -46 -318 -53 -655 l-6 -310 -105 -10 c-58 -6 -112 -14 -120 -20 -8 -5
-55 -43 -105 -85 -144 -121 -129 -118 -121 -25 7 81 12 117 42 285 16 94 92
356 201 700 124 390 178 618 137 577 -4 -4 -19 -59 -34 -124 -32 -135 -54
-212 -175 -593 -138 -440 -169 -575 -195 -853 l-9 -98 -106 -101 c-97 -93
-318 -334 -429 -469 -75 -91 -90 -203 -61 -449 8 -69 24 -161 35 -204 11 -44
18 -81 15 -84 -2 -3 -19 26 -37 64 -27 57 -33 80 -31 132 1 48 -2 62 -13 62
-37 0 -49 -131 -29 -320 8 -80 20 -197 25 -260 6 -63 15 -169 21 -235 19 -223
27 -477 18 -574 -5 -52 -20 -147 -34 -210 -89 -409 -104 -441 -200 -428 -152
21 -269 165 -332 406 -34 134 -50 375 -35 536 35 363 204 792 473 1198 31 47
39 68 39 105 0 26 9 133 20 237 12 105 27 271 35 370 21 264 34 399 45 495 5
47 19 173 30 280 36 332 69 580 101 740 83 423 181 675 331 851 84 99 218 157
618 269 135 38 290 84 345 104 55 20 106 36 113 36 7 0 31 9 55 20 100 46 217
88 217 77z m-313 -1114 c29 -38 73 -135 93 -205 15 -54 20 -100 19 -183 -1
-60 -4 -122 -8 -136 l-6 -26 -85 48 c-84 49 -113 58 -125 39 -18 -29 126 -190
171 -190 21 0 24 -5 24 -35 0 -29 -5 -36 -36 -51 -53 -25 -138 -134 -194 -248
-48 -96 -50 -98 -60 -72 -8 21 -15 27 -30 23 -25 -6 -25 -6 1 46 46 90 187
238 247 258 17 6 32 16 32 23 0 6 -39 50 -87 97 -67 64 -96 101 -121 153 -39
80 -50 151 -32 198 20 49 109 208 138 245 28 37 39 40 59 16z m788 -475 c17
-17 -12 -67 -74 -129 -80 -78 -142 -106 -254 -114 l-72 -6 51 21 c68 27 130
80 121 104 -6 15 -14 17 -50 11 -23 -4 -72 -18 -108 -31 -37 -13 -70 -24 -74
-24 -17 0 43 53 107 97 101 67 156 84 260 81 47 -2 90 -6 93 -10z m-714 -131
c-6 -6 -26 4 -55 28 -63 52 -58 63 9 18 36 -23 52 -40 46 -46z m379 -43 c0 -6
-65 -34 -81 -34 -20 0 -3 11 38 25 46 17 43 16 43 9z m-77 -94 c-4 -14 2 -22
18 -29 151 -62 236 -99 354 -156 77 -37 150 -71 163 -76 23 -9 28 -25 13 -47
-7 -11 -19 -10 -67 4 -78 22 -251 92 -340 137 -69 35 -104 37 -92 5 3 -7 93
-58 199 -112 107 -55 195 -100 197 -102 3 -2 -234 -461 -245 -474 -5 -5 -9 -2
-114 83 -46 37 -103 80 -127 94 -51 30 -372 143 -408 143 -13 0 -24 2 -24 4 0
2 52 111 115 242 115 235 115 237 136 218 17 -15 25 -16 51 -6 l30 11 -7 -52
c-30 -219 -49 -467 -37 -479 15 -15 49 8 56 37 8 31 20 32 58 0 59 -50 63 -35
44 136 -9 74 -16 203 -16 287 l0 152 24 0 c19 0 23 -4 19 -20z m-813 -1124 c0
-23 -13 -25 -45 -5 l-30 19 38 0 c26 0 37 -4 37 -14z m185 -12 c138 -11 191
-27 401 -117 85 -37 164 -75 164 -80 0 -2 -44 -34 -99 -71 l-99 -67 -181 90
c-192 96 -341 187 -341 209 0 32 21 53 48 48 15 -3 63 -8 107 -12z m864 -38
c17 -9 20 -15 11 -21 -7 -4 -21 1 -33 14 -24 24 -14 27 22 7z m-978 -372 c85
-30 248 -74 277 -74 12 0 22 -3 22 -7 0 -9 -65 -63 -75 -63 -4 0 -21 11 -38
24 -18 14 -81 47 -140 75 -99 46 -185 96 -132 76 11 -4 50 -18 86 -31z m-351
-163 c0 -17 -18 -21 -24 -6 -3 9 0 15 9 15 8 0 15 -4 15 -9z m238 -55 c51 -15
112 -29 136 -32 65 -9 73 -17 48 -49 -29 -37 -45 -118 -41 -207 4 -61 9 -82
31 -114 25 -37 27 -47 29 -164 4 -169 -9 -190 -114 -190 -123 0 -306 88 -442
211 -93 85 -94 71 41 351 l118 244 51 -12 c27 -6 92 -24 143 -38z m837 -788
c1 -252 34 -523 81 -662 13 -38 22 -72 20 -74 -2 -2 -15 7 -29 20 -14 13 -66
59 -115 103 l-90 80 -10 80 c-6 44 -14 115 -17 157 l-7 77 38 3 c34 3 40 7 50
38 7 19 17 76 22 125 10 80 36 165 52 165 3 0 5 -51 5 -112z m-543 -45 c48
-104 64 -123 102 -123 43 0 58 19 64 81 l5 51 24 -31 c19 -24 32 -31 59 -31
19 0 34 -5 34 -12 0 -6 12 -26 26 -45 23 -30 26 -44 30 -146 2 -61 10 -159 18
-217 8 -58 17 -141 21 -185 3 -44 8 -100 11 -125 l7 -45 -72 95 c-82 109 -215
264 -250 291 -35 28 -65 24 -93 -13 -40 -54 -102 -168 -142 -263 -46 -110 -60
-126 -52 -65 4 25 11 186 16 358 5 172 11 316 14 321 3 4 6 37 7 73 l2 66 38
11 c22 7 46 23 55 37 16 24 17 24 31 4 8 -11 28 -50 45 -87z"/>
<path d="M5245 6276 c-62 -94 -39 -264 46 -341 46 -41 86 -62 97 -50 4 4 -2
12 -13 19 -11 6 -41 32 -66 57 -81 80 -99 190 -50 288 24 46 25 51 11 51 -5 0
-17 -11 -25 -24z"/>
<path d="M4437 4963 c-10 -10 -8 -63 2 -63 9 0 21 33 21 58 0 13 -13 16 -23 5z"/>
<path d="M4228 2038 c-78 -140 -128 -246 -128 -271 0 -26 38 -88 58 -95 14 -4
16 24 2 33 -6 3 -17 19 -25 35 -15 29 -14 33 36 132 28 57 69 133 90 170 43
74 45 78 26 78 -7 0 -34 -37 -59 -82z"/>
<path d="M10055 11480 c-8 -14 3 -30 21 -30 8 0 14 9 14 20 0 21 -24 28 -35
10z"/>
<path d="M10215 11390 c-8 -14 3 -30 21 -30 8 0 14 9 14 20 0 21 -24 28 -35
10z"/>
<path d="M10684 11369 c-10 -17 13 -36 27 -22 12 12 4 33 -11 33 -5 0 -12 -5
-16 -11z"/>
<path d="M9750 11105 c0 -9 5 -15 11 -13 6 2 11 8 11 13 0 5 -5 11 -11 13 -6
2 -11 -4 -11 -13z"/>
<path d="M5321 10680 c-82 -65 -149 -166 -125 -190 13 -13 24 -2 66 61 20 31
59 74 87 95 47 37 60 63 35 71 -6 2 -34 -15 -63 -37z"/>
<path d="M6070 10531 c0 -5 33 -12 73 -16 469 -42 1037 -284 1454 -617 40 -32
74 -58 77 -58 44 0 -162 164 -364 290 -304 190 -721 349 -1027 394 -124 18
-213 21 -213 7z"/>
<path d="M6105 10392 c-11 -12 -4 -22 16 -22 32 0 215 -39 309 -67 207 -60
554 -215 780 -350 137 -82 280 -184 371 -264 63 -56 89 -70 89 -50 0 13 -109
107 -220 188 -285 209 -764 440 -1087 522 -95 24 -250 50 -258 43z"/>
<path d="M10185 10251 c-9 -16 3 -31 26 -31 14 0 19 6 17 17 -4 20 -33 29 -43
14z"/>
<path d="M6170 10158 c0 -9 25 -18 76 -26 283 -45 817 -310 1189 -591 72 -54
158 -127 192 -161 79 -80 108 -76 33 4 -185 195 -622 475 -1007 645 -202 89
-483 164 -483 129z"/>
<path d="M9534 10002 c4 -7 11 -12 16 -12 19 0 120 -42 120 -49 0 -9 -44 -36
-222 -141 -100 -58 -126 -80 -95 -80 14 0 325 184 346 205 18 17 8 31 -40 55
-47 24 -136 39 -125 22z"/>
<path d="M10997 9964 c-9 -10 2 -24 19 -24 8 0 14 7 14 15 0 15 -21 21 -33 9z"/>
<path d="M9765 9924 c-11 -9 -50 -33 -87 -55 -38 -22 -68 -44 -68 -49 0 -14 5
-13 53 11 61 31 147 89 147 100 0 14 -23 10 -45 -7z"/>
<path d="M9887 9903 c-12 -11 -8 -23 7 -23 8 0 16 7 20 15 5 15 -14 21 -27 8z"/>
<path d="M6490 9860 c0 -5 33 -19 73 -31 126 -37 559 -242 667 -315 34 -24 70
-32 70 -16 0 16 -393 221 -580 302 -72 32 -192 70 -217 70 -7 0 -13 -4 -13
-10z"/>
<path d="M10930 9540 c0 -15 5 -20 18 -18 9 2 17 10 17 18 0 8 -8 16 -17 18
-13 2 -18 -3 -18 -18z"/>
<path d="M10460 9344 c0 -9 7 -14 17 -12 25 5 28 28 4 28 -12 0 -21 -6 -21
-16z"/>
<path d="M9932 9258 c6 -18 28 -21 28 -4 0 9 -7 16 -16 16 -9 0 -14 -5 -12
-12z"/>
<path d="M3470 9149 c0 -25 143 -289 157 -289 8 0 13 3 11 8 -1 4 -36 71 -76
150 -65 126 -92 165 -92 131z"/>
<path d="M3010 8757 c0 -16 0 -16 187 -91 79 -31 193 -82 254 -112 125 -61
130 -63 136 -48 4 11 -245 134 -352 174 -71 26 -136 52 -187 74 -31 13 -38 14
-38 3z"/>
<path d="M8877 8496 c-7 -18 1 -26 25 -26 13 0 18 6 16 17 -4 22 -34 29 -41 9z"/>
<path d="M9706 8415 c-3 -9 1 -18 10 -22 19 -7 39 11 30 26 -10 16 -33 13 -40
-4z"/>
<path d="M9774 8305 c-7 -18 3 -35 22 -35 20 0 30 30 13 41 -20 12 -29 11 -35
-6z"/>
<path d="M9450 8265 c0 -8 7 -15 15 -15 8 0 15 7 15 15 0 8 -7 15 -15 15 -8 0
-15 -7 -15 -15z"/>
<path d="M3405 8193 c-47 -11 -268 -86 -310 -104 -25 -11 -45 -24 -45 -29 0
-15 14 -12 93 19 94 37 260 89 315 97 23 4 42 10 42 15 0 9 -60 10 -95 2z"/>
<path d="M8414 8015 c-4 -9 -2 -21 4 -27 15 -15 44 -1 40 19 -4 23 -36 29 -44
8z"/>
<path d="M9080 7920 c0 -13 7 -20 20 -20 13 0 20 7 20 20 0 13 -7 20 -20 20
-13 0 -20 -7 -20 -20z"/>
<path d="M8193 7784 c-7 -18 17 -38 31 -24 11 11 1 40 -14 40 -6 0 -13 -7 -17
-16z"/>
<path d="M9364 7285 c-4 -9 -2 -21 4 -27 15 -15 44 -1 40 19 -4 23 -36 29 -44
8z"/>
<path d="M7950 7134 c-18 -129 -69 -222 -181 -338 -49 -50 -89 -94 -89 -98 0
-20 27 -3 87 55 115 110 188 236 204 355 5 37 11 77 14 90 4 15 1 22 -9 22
-10 0 -17 -24 -26 -86z"/>
<path d="M8207 7094 c-14 -15 -6 -34 14 -34 14 0 19 5 17 17 -3 18 -20 27 -31
17z"/>
<path d="M8047 7084 c-9 -10 2 -24 19 -24 8 0 14 7 14 15 0 15 -21 21 -33 9z"/>
<path d="M9660 7070 c0 -15 5 -20 18 -18 9 2 17 10 17 18 0 8 -8 16 -17 18
-13 2 -18 -3 -18 -18z"/>
<path d="M9974 6979 c-3 -6 -1 -16 4 -21 13 -13 45 8 36 23 -7 12 -31 11 -40
-2z"/>
<path d="M8745 6960 c-8 -13 13 -40 30 -40 15 0 28 27 19 41 -7 12 -41 11 -49
-1z"/>
<path d="M3025 6881 c-8 -15 3 -31 21 -31 9 0 14 7 12 17 -4 20 -24 28 -33 14z"/>
<path d="M3044 6829 c-9 -15 11 -33 30 -26 9 4 13 13 10 22 -7 17 -30 20 -40
4z"/>
<path d="M7830 6761 c0 -5 -13 -22 -30 -38 -29 -27 -39 -53 -21 -53 11 0 81
77 81 90 0 6 -7 10 -15 10 -8 0 -15 -4 -15 -9z"/>
<path d="M10097 6763 c-14 -13 -6 -33 13 -33 13 0 20 7 20 20 0 19 -20 27 -33
13z"/>
<path d="M4146 6713 c-12 -12 -6 -33 9 -33 8 0 15 6 15 14 0 17 -14 28 -24 19z"/>
<path d="M7964 6709 c-10 -17 23 -46 37 -32 7 7 9 19 6 27 -7 18 -33 21 -43 5z"/>
<path d="M7285 6604 c-126 -45 -486 -98 -628 -93 -83 3 -103 -15 -27 -24 84
-10 316 16 560 62 82 16 180 53 180 68 0 16 0 16 -85 -13z"/>
<path d="M3886 6613 c-11 -11 -6 -23 9 -23 8 0 15 4 15 9 0 13 -16 22 -24 14z"/>
<path d="M3966 6603 c-12 -12 -6 -33 9 -33 8 0 15 6 15 14 0 17 -14 28 -24 19z"/>
<path d="M6490 6530 c0 -5 7 -10 15 -10 8 0 15 5 15 10 0 6 -7 10 -15 10 -8 0
-15 -4 -15 -10z"/>
<path d="M8788 6447 c6 -7 50 -28 98 -47 156 -60 216 -117 293 -275 49 -100
119 -273 156 -385 33 -98 31 -94 44 -86 12 8 -5 68 -60 208 -99 254 -157 371
-220 443 -38 42 -109 84 -214 124 -88 34 -114 39 -97 18z"/>
<path d="M9110 6365 c0 -4 17 -27 39 -53 21 -26 46 -62 55 -79 15 -30 46 -46
46 -24 0 18 -106 156 -123 159 -9 2 -17 1 -17 -3z"/>
<path d="M2532 6333 c4 -21 33 -25 33 -3 0 8 -8 16 -18 18 -14 3 -18 -1 -15
-15z"/>
<path d="M10467 6253 c-12 -11 -8 -23 8 -23 8 0 15 7 15 15 0 16 -12 20 -23 8z"/>
<path d="M3965 6231 c-8 -15 3 -31 21 -31 9 0 14 7 12 17 -4 20 -24 28 -33 14z"/>
<path d="M11061 6066 c-8 -10 -8 -16 2 -24 17 -14 42 2 34 22 -8 20 -21 20
-36 2z"/>
<path d="M3246 5991 c-7 -11 3 -41 13 -41 18 0 30 24 20 37 -13 15 -26 17 -33
4z"/>
<path d="M3074 5959 c-7 -12 15 -31 28 -23 4 3 8 12 8 20 0 17 -26 19 -36 3z"/>
<path d="M2396 5873 c-3 -4 -6 -15 -6 -25 0 -24 33 -21 38 3 3 17 -21 33 -32
22z"/>
<path d="M2101 5826 c-9 -10 -8 -16 3 -25 10 -9 16 -8 25 3 9 10 8 16 -3 25
-10 9 -16 8 -25 -3z"/>
<path d="M2670 5705 c0 -8 5 -15 10 -15 6 0 10 7 10 15 0 8 -4 15 -10 15 -5 0
-10 -7 -10 -15z"/>
<path d="M10092 5688 c2 -15 11 -24 26 -26 18 -3 22 1 22 22 0 21 -5 26 -26
26 -21 0 -25 -4 -22 -22z"/>
<path d="M3824 5588 c-143 -85 -324 -280 -324 -351 0 -28 15 -13 50 50 59 104
186 222 323 297 63 36 83 56 54 56 -7 0 -54 -24 -103 -52z"/>
<path d="M9396 5592 c-9 -14 38 -185 52 -190 17 -5 15 12 -9 98 -23 85 -33
107 -43 92z"/>
<path d="M3576 5508 c-58 -65 -65 -78 -43 -78 14 1 117 113 117 129 0 23 -20
9 -74 -51z"/>
<path d="M1947 5466 c-7 -16 1 -26 20 -26 7 0 13 9 13 20 0 23 -25 27 -33 6z"/>
<path d="M10526 5431 c-10 -16 6 -42 23 -39 9 2 17 13 19 26 3 16 -2 22 -17
22 -11 0 -22 -4 -25 -9z"/>
<path d="M2673 5385 c-3 -9 -3 -18 0 -21 9 -9 27 6 27 22 0 19 -19 18 -27 -1z"/>
<path d="M2240 5240 c0 -5 5 -10 10 -10 6 0 10 5 10 10 0 6 -4 10 -10 10 -5 0
-10 -4 -10 -10z"/>
<path d="M1800 5165 c0 -9 5 -15 11 -13 6 2 11 8 11 13 0 5 -5 11 -11 13 -6 2
-11 -4 -11 -13z"/>
<path d="M1812 5098 c6 -18 28 -21 28 -4 0 9 -7 16 -16 16 -9 0 -14 -5 -12
-12z"/>
<path d="M6230 4889 c0 -7 18 -32 41 -56 47 -51 47 -48 -17 -175 -46 -90 -52
-112 -32 -106 20 7 108 190 108 225 0 25 -10 44 -41 78 -42 45 -59 55 -59 34z"/>
<path d="M1870 4821 c0 -12 6 -21 16 -21 9 0 14 7 12 17 -5 25 -28 28 -28 4z"/>
<path d="M10180 4724 c0 -9 7 -14 17 -12 25 5 28 28 4 28 -12 0 -21 -6 -21
-16z"/>
<path d="M10987 4733 c-3 -5 -2 -15 3 -22 10 -17 43 -6 38 12 -6 15 -34 22
-41 10z"/>
<path d="M1515 4660 c-8 -13 4 -32 16 -25 12 8 12 35 0 35 -6 0 -13 -4 -16
-10z"/>
<path d="M10156 4653 c-14 -15 -5 -43 14 -43 13 0 20 7 20 19 0 19 -23 35 -34
24z"/>
<path d="M3440 4615 c-15 -18 -5 -35 21 -35 12 0 19 7 19 19 0 24 -25 34 -40
16z"/>
<path d="M6183 4528 c-12 -15 -53 -94 -53 -103 0 -3 6 -5 13 -5 16 0 69 102
59 112 -5 5 -14 3 -19 -4z"/>
<path d="M1581 4516 c-9 -10 -8 -16 3 -25 10 -9 16 -8 25 3 9 10 8 16 -3 25
-10 9 -16 8 -25 -3z"/>
<path d="M1911 4516 c-12 -14 -5 -26 16 -26 15 0 18 26 4 34 -5 3 -14 0 -20
-8z"/>
<path d="M2682 4499 c2 -6 8 -10 13 -10 5 0 11 4 13 10 2 6 -4 11 -13 11 -9 0
-15 -5 -13 -11z"/>
<path d="M10727 4476 c-3 -8 1 -20 9 -27 12 -10 18 -9 31 3 8 9 12 21 9 27
-10 16 -43 14 -49 -3z"/>
<path d="M1890 4420 c0 -15 5 -20 18 -18 9 2 17 10 17 18 0 8 -8 16 -17 18
-13 2 -18 -3 -18 -18z"/>
<path d="M10220 4350 c0 -11 6 -20 13 -20 19 0 27 10 20 26 -8 21 -33 17 -33
-6z"/>
<path d="M1623 4194 c-3 -8 -1 -20 5 -26 16 -16 42 -2 42 22 0 24 -38 28 -47
4z"/>
<path d="M2327 4144 c-14 -14 -7 -35 11 -32 9 2 17 10 17 17 0 16 -18 25 -28
15z"/>
<path d="M2274 4116 c-7 -19 3 -36 22 -36 10 0 14 8 12 22 -4 26 -26 36 -34
14z"/>
<path d="M11005 4101 c-8 -15 3 -31 21 -31 9 0 14 7 12 17 -4 20 -24 28 -33
14z"/>
<path d="M3296 4032 c-2 -4 -1 -14 4 -22 7 -11 12 -12 21 -3 6 6 8 16 5 22 -8
13 -23 14 -30 3z"/>
<path d="M10981 3971 c-17 -11 -7 -41 13 -41 22 0 30 20 15 36 -9 8 -19 10
-28 5z"/>
<path d="M10693 3958 c2 -7 10 -13 17 -13 7 0 15 6 18 13 2 7 -5 12 -18 12
-13 0 -20 -5 -17 -12z"/>
<path d="M10510 3910 c0 -5 7 -10 15 -10 8 0 15 5 15 10 0 6 -7 10 -15 10 -8
0 -15 -4 -15 -10z"/>
<path d="M3230 3871 c0 -13 26 -32 33 -24 14 13 6 33 -13 33 -11 0 -20 -4 -20
-9z"/>
<path d="M3180 3856 c0 -8 4 -17 8 -20 13 -8 35 11 28 23 -10 16 -36 14 -36
-3z"/>
<path d="M10216 3792 c-8 -13 11 -35 23 -28 16 10 14 36 -3 36 -8 0 -17 -4
-20 -8z"/>
<path d="M10590 3704 c0 -9 5 -14 12 -12 18 6 21 28 4 28 -9 0 -16 -7 -16 -16z"/>
<path d="M10175 3690 c-3 -5 1 -10 10 -10 9 0 13 5 10 10 -3 6 -8 10 -10 10
-2 0 -7 -4 -10 -10z"/>
<path d="M2890 3541 c0 -24 25 -34 40 -16 15 18 5 35 -21 35 -12 0 -19 -7 -19
-19z"/>
<path d="M10130 3276 c0 -21 21 -31 30 -15 5 7 6 17 4 21 -9 14 -34 9 -34 -6z"/>
<path d="M2606 3223 c-12 -12 -5 -23 14 -23 11 0 20 4 20 9 0 11 -26 22 -34
14z"/>
<path d="M3000 3220 c0 -5 7 -10 16 -10 8 0 12 5 9 10 -3 6 -10 10 -16 10 -5
0 -9 -4 -9 -10z"/>
<path d="M2217 3124 c-14 -15 -6 -34 14 -34 14 0 19 5 17 17 -3 18 -20 27 -31
17z"/>
<path d="M1595 2901 c-7 -12 12 -24 25 -16 11 7 4 25 -10 25 -5 0 -11 -4 -15
-9z"/>
<path d="M2447 2594 c-14 -14 -7 -35 11 -32 9 2 17 10 17 17 0 16 -18 25 -28
15z"/>
<path d="M2647 2416 c-3 -8 1 -20 9 -27 12 -10 18 -9 31 3 8 9 12 21 9 27 -10
16 -43 14 -49 -3z"/>
<path d="M2500 2376 c0 -9 7 -16 16 -16 17 0 14 22 -4 28 -7 2 -12 -3 -12 -12z"/>
<path d="M7520 2344 c0 -4 16 -24 35 -45 19 -21 43 -55 54 -76 23 -47 91 -249
91 -274 0 -25 11 -49 22 -49 25 0 -29 200 -84 319 -33 69 -82 131 -104 131 -8
0 -14 -3 -14 -6z"/>
<path d="M1842 2291 c4 -13 18 -16 19 -4 0 4 -5 9 -11 12 -7 2 -11 -2 -8 -8z"/>
<path d="M1702 2201 c2 -7 7 -12 11 -12 12 1 9 15 -3 20 -7 2 -11 -2 -8 -8z"/>
<path d="M2908 2123 c-65 -69 -242 -398 -313 -583 -43 -109 -97 -316 -126
-475 -25 -139 -30 -391 -10 -490 19 -98 33 -145 42 -145 13 0 11 20 -8 97 -24
97 -24 412 1 538 44 227 101 418 172 578 76 173 224 430 268 466 17 14 22 41
8 41 -5 0 -20 -12 -34 -27z"/>
<path d="M1470 2106 c0 -15 24 -28 34 -19 13 14 5 33 -14 33 -11 0 -20 -6 -20
-14z"/>
<path d="M1670 2020 c-12 -7 -12 -12 -2 -22 9 -9 15 -9 24 0 8 8 9 15 2 22 -5
5 -15 6 -24 0z"/>
<path d="M1822 1999 c2 -6 8 -10 13 -10 5 0 11 4 13 10 2 6 -4 11 -13 11 -9 0
-15 -5 -13 -11z"/>
<path d="M7750 1801 c0 -28 15 -49 27 -38 8 8 -7 67 -18 67 -5 0 -9 -13 -9
-29z"/>
<path d="M2080 1775 c0 -8 7 -15 15 -15 8 0 15 7 15 15 0 8 -7 15 -15 15 -8 0
-15 -7 -15 -15z"/>
<path d="M1834 1639 c-10 -17 13 -36 27 -22 12 12 4 33 -11 33 -5 0 -12 -5
-16 -11z"/>
<path d="M1362 1619 c2 -6 8 -10 13 -10 5 0 11 4 13 10 2 6 -4 11 -13 11 -9 0
-15 -5 -13 -11z"/>
<path d="M4060 1479 c-66 -48 -102 -59 -189 -59 -87 0 -180 24 -229 59 -32 23
-52 27 -52 11 0 -19 80 -62 151 -81 105 -27 202 -25 265 6 62 31 121 79 107
88 -6 4 -30 -7 -53 -24z"/>
<path d="M1900 1435 c0 -9 5 -15 11 -13 6 2 11 8 11 13 0 5 -5 11 -11 13 -6 2
-11 -4 -11 -13z"/>
<path d="M3550 1397 c0 -18 68 -81 110 -103 39 -20 177 -27 182 -9 2 6 -29 12
-72 16 -85 6 -123 23 -171 74 -35 37 -49 43 -49 22z"/>
<path d="M1397 1213 c-13 -12 -7 -23 13 -23 11 0 20 7 20 15 0 15 -21 21 -33
8z"/>
<path d="M10312 1092 c-35 -155 -93 -290 -176 -412 -45 -66 -189 -213 -252
-256 -30 -21 -54 -43 -54 -51 0 -7 3 -13 6 -13 19 0 113 78 200 165 110 110
187 227 244 367 32 82 70 226 70 271 0 55 -17 24 -38 -71z"/>
<path d="M2396 1153 c-7 -24 -46 -252 -46 -270 0 -8 5 -13 12 -11 9 3 56 234
58 286 0 18 -18 14 -24 -5z"/>
<path d="M8367 243 c-17 -16 -4 -36 36 -53 52 -23 136 -43 154 -36 26 10 0 33
-51 45 -30 7 -71 21 -92 31 -44 23 -39 22 -47 13z"/>
</g>
</svg>
