<?xml version="1.0" standalone="no"?>
<!DOCTYPE svg PUBLIC "-//W3C//DTD SVG 20010904//EN"
 "http://www.w3.org/TR/2001/REC-SVG-20010904/DTD/svg10.dtd">
<svg version="1.0" xmlns="http://www.w3.org/2000/svg"
 width="1200.000000pt" height="1200.000000pt" viewBox="0 0 1200.000000 1200.000000"
 preserveAspectRatio="xMidYMid meet">
<metadata>
Created by potrace 1.16, written by Peter Selinger 2001-2019
</metadata>
<g transform="translate(0.000000,1200.000000) scale(0.100000,-0.100000)"
fill="#000000" stroke="none">
<path d="M6571 9695 c-48 -22 -91 -62 -191 -178 -98 -115 -238 -241 -485 -439
-220 -175 -327 -287 -514 -535 -83 -111 -182 -231 -218 -265 -155 -146 -191
-185 -198 -217 -17 -80 34 -121 250 -199 346 -124 454 -149 711 -159 l152 -6
-10 -29 c-6 -17 -8 -56 -5 -89 5 -57 4 -59 -26 -78 -35 -22 -106 -91 -93 -91
5 0 22 11 38 25 41 35 102 65 163 81 89 24 93 20 38 -38 -166 -177 -293 -487
-357 -868 -39 -236 -49 -417 -43 -810 4 -302 8 -372 26 -470 42 -230 110 -397
251 -620 100 -159 164 -281 194 -372 23 -67 26 -94 26 -208 0 -75 5 -140 11
-152 30 -56 179 -76 286 -38 138 48 167 137 177 538 4 124 12 239 23 295 20
109 17 114 68 -138 74 -367 85 -500 86 -1015 0 -228 4 -424 9 -435 6 -13 9 11
11 75 1 52 3 113 5 135 2 22 5 193 6 380 2 303 -1 357 -20 500 -27 195 -73
422 -108 536 -24 79 -26 98 -28 329 -2 208 -6 261 -25 353 -24 119 -80 289
-116 355 -13 23 -21 42 -18 42 3 0 22 -13 42 -29 54 -43 237 -153 330 -201 46
-23 131 -58 189 -77 95 -33 118 -37 202 -36 56 1 114 7 140 16 66 23 278 110
329 136 56 29 139 111 188 187 l38 59 0 -165 c0 -161 1 -166 27 -210 14 -25
51 -72 81 -106 66 -72 98 -130 104 -187 4 -41 3 -43 -48 -77 -64 -42 -133
-122 -266 -306 -56 -77 -136 -178 -178 -224 -168 -183 -305 -356 -420 -530
-322 -488 -363 -564 -405 -764 -16 -77 -32 -149 -35 -160 -4 -16 -2 -14 9 5 9
15 29 82 46 150 41 171 84 252 318 604 206 309 312 449 494 653 57 64 146 178
198 252 140 201 252 330 287 330 5 0 5 -48 0 -107 -13 -182 9 -309 63 -358 17
-15 22 -15 77 11 87 41 170 129 225 241 l46 92 124 -86 c148 -102 196 -140
266 -207 67 -65 68 -45 0 29 -60 66 -159 148 -278 229 -47 32 -88 62 -93 65
-4 4 2 43 13 86 81 318 74 797 -21 1270 -83 418 -201 637 -458 848 -67 56
-275 211 -308 231 -40 23 4 -14 134 -115 258 -200 359 -308 448 -480 131 -252
212 -668 222 -1134 6 -264 -2 -382 -38 -550 -31 -150 -19 -138 -103 -100 -40
19 -101 42 -137 51 -35 10 -67 22 -70 27 -4 5 -23 7 -43 3 -35 -7 -36 -6 -36
26 0 52 -42 128 -113 207 -94 105 -102 124 -103 256 -1 151 13 259 42 324 27
61 28 65 13 55 -13 -8 -17 -22 55 211 31 99 63 209 71 245 21 89 30 271 16
345 -17 96 -79 207 -194 348 -57 70 -121 157 -142 192 -21 36 -40 65 -42 65
-14 0 79 -151 145 -236 189 -243 226 -332 216 -524 -6 -113 -30 -215 -99 -430
-34 -107 -70 -227 -80 -266 -15 -61 -29 -87 -96 -178 -96 -130 -132 -155 -354
-245 l-160 -65 -110 0 c-95 -1 -121 3 -194 27 -47 16 -114 42 -149 58 -87 39
-292 153 -371 206 -35 23 -66 43 -70 45 -7 3 -42 52 -206 293 -200 291 -272
505 -263 780 7 198 43 284 198 462 l69 81 117 7 c137 9 254 -4 315 -35 49 -25
61 -21 23 9 -51 40 -128 56 -276 56 -76 0 -138 3 -138 7 0 4 -12 3 -26 -3 -15
-5 -35 -7 -45 -4 -24 8 -211 -14 -267 -30 l-42 -13 6 92 7 92 -61 -4 c-136
-10 -471 42 -609 94 -37 14 -126 47 -198 73 -208 76 -245 100 -245 160 0 33
12 47 149 181 112 108 178 184 265 301 201 272 285 357 553 567 201 156 371
311 455 413 131 160 188 190 313 170 38 -7 115 -28 170 -47 271 -96 338 -117
541 -172 1579 -428 1663 -456 2222 -743 74 -38 89 -67 51 -100 -64 -56 -239
-160 -380 -224 -86 -40 -189 -93 -228 -119 -92 -61 -187 -167 -247 -273 -78
-139 -69 -136 -142 -49 -60 72 -62 76 -48 98 24 37 37 113 25 145 -25 66 -92
97 -163 73 -37 -12 -86 -61 -86 -87 0 -9 10 -3 26 16 34 41 89 57 138 41 55
-18 70 -66 45 -139 -14 -41 -25 -39 -38 7 -9 31 -10 32 -7 7 2 -16 7 -38 11
-49 6 -13 4 -17 -5 -14 -6 2 -23 38 -37 81 -13 42 -28 77 -34 77 -6 0 -8 -8
-5 -17 19 -62 25 -128 15 -170 -7 -27 -9 -77 -5 -127 l6 -82 -46 -32 c-90 -64
-92 -124 -11 -313 25 -57 48 -117 51 -132 6 -25 5 -27 -11 -18 -10 5 -80 59
-156 121 -170 136 -237 182 -330 226 -217 103 -556 95 -903 -21 -101 -33 -234
-90 -234 -98 0 -3 51 12 113 34 140 48 325 94 437 110 115 15 318 13 410 -5
155 -30 226 -68 480 -261 101 -76 238 -165 255 -165 5 0 -2 10 -17 23 -14 12
-30 37 -33 56 -4 19 -29 89 -56 155 -27 67 -49 137 -49 156 0 44 30 94 72 120
31 19 33 19 36 2 2 -9 18 -82 37 -162 19 -80 53 -230 75 -334 23 -104 70 -288
105 -410 71 -250 72 -257 84 -456 11 -168 31 -237 86 -290 32 -31 36 -33 51
-18 11 11 20 48 27 107 10 83 12 91 32 91 39 0 68 44 73 108 4 62 -28 169
-108 357 -98 233 -119 319 -145 611 -25 274 -41 376 -72 447 -15 36 -15 38 4
60 11 12 39 58 64 101 52 93 159 211 241 267 32 22 97 58 143 80 47 21 124 57
173 80 91 42 216 119 290 177 72 57 54 113 -52 163 -33 15 -104 51 -156 80
-201 108 -508 225 -888 338 -149 45 -558 158 -1197 332 -121 33 -258 74 -305
90 -323 115 -344 121 -430 125 -62 3 -94 0 -119 -11z m2048 -1695 c16 8 28 -3
79 -68 44 -55 57 -79 48 -84 -7 -4 -42 -12 -79 -18 -36 -5 -72 -13 -80 -16
-19 -7 -27 36 -27 145 l1 86 20 -27 c16 -22 24 -26 38 -18z m168 -202 c25 -71
43 -206 63 -468 20 -267 35 -326 152 -619 80 -202 102 -279 93 -324 -9 -41
-32 -67 -60 -67 -35 0 -45 -20 -46 -90 0 -36 -4 -74 -8 -84 -7 -17 -9 -17 -29
9 -36 45 -53 121 -62 282 -10 162 -13 180 -95 463 -29 102 -70 255 -90 340
-20 85 -56 237 -81 337 -24 100 -44 189 -44 197 0 9 12 19 28 23 30 7 141 30
157 32 6 0 16 -14 22 -31z m-2456 -353 c-135 -159 -171 -234 -190 -393 -35
-285 66 -588 309 -927 194 -271 265 -426 307 -674 17 -102 30 -441 17 -441 -5
0 -22 30 -38 65 -16 36 -33 65 -38 65 -5 0 -2 -12 6 -27 7 -16 25 -61 39 -100
l26 -72 -24 -148 c-17 -111 -25 -202 -28 -363 -8 -367 -39 -436 -208 -472 -65
-13 -139 -4 -171 22 -22 17 -23 25 -24 157 -1 123 -4 147 -28 218 -32 93 -85
196 -186 355 -105 166 -154 261 -194 379 -76 220 -96 391 -96 837 0 327 13
524 50 737 59 345 207 688 359 830 50 47 50 47 121 47 l71 0 -80 -95z m2159
-2238 c91 -34 190 -85 196 -101 6 -15 -40 -115 -76 -168 -51 -74 -121 -134
-185 -158 -23 -9 -27 -6 -46 33 -27 52 -34 135 -24 300 7 118 8 126 28 129 12
2 27 1 32 -3 6 -4 39 -18 75 -32z"/>
<path d="M6061 6153 c-14 -47 -14 -343 -1 -443 15 -110 45 -220 97 -345 117
-283 153 -420 154 -588 0 -66 3 -95 9 -82 14 33 11 229 -5 307 -20 96 -45 172
-116 348 -98 248 -119 362 -122 667 -1 95 -3 173 -4 173 -1 0 -7 -17 -12 -37z"/>
<path d="M7540 9121 c36 -11 128 -44 205 -74 351 -137 570 -199 905 -257 129
-22 262 -46 295 -54 33 -8 62 -13 64 -11 12 13 -169 59 -453 115 -243 48 -378
87 -721 204 -142 49 -274 88 -305 91 l-55 5 65 -19z"/>
<path d="M6803 8912 c-94 -71 -238 -158 -443 -267 -295 -157 -438 -252 -555
-371 -59 -59 -142 -170 -134 -178 2 -2 29 26 59 62 112 135 300 272 555 407
157 83 258 140 355 203 88 56 230 170 230 184 0 11 1 12 -67 -40z"/>
<path d="M7170 8594 c-256 -30 -385 -64 -566 -150 -195 -92 -369 -236 -418
-346 -26 -56 -46 -156 -27 -128 6 8 11 24 11 35 1 76 114 211 255 304 352 231
796 306 1245 209 228 -49 345 -114 534 -298 71 -69 127 -119 125 -113 -9 27
-224 246 -283 288 -126 90 -287 148 -501 180 -104 15 -314 26 -375 19z"/>
<path d="M2743 8362 c-22 -3 -23 -6 -104 -309 l-22 -82 -29 24 c-55 46 -129
24 -186 -54 -15 -21 -45 -79 -65 -129 -43 -101 -94 -169 -120 -159 -11 4 -17
18 -17 37 0 25 38 206 56 261 12 41 -74 69 -95 32 -9 -17 -11 -16 -34 5 -14
13 -42 26 -64 29 -76 10 -149 -72 -196 -218 -30 -96 -77 -162 -98 -141 -11 10
-10 28 4 96 20 95 18 105 -43 194 -22 33 -40 71 -40 86 0 59 -40 86 -72 49
-27 -31 -30 -62 -12 -112 l17 -47 -43 -97 c-23 -53 -56 -116 -73 -140 -42 -59
-97 -119 -97 -106 0 6 18 89 40 184 44 192 47 220 24 229 -30 12 -64 6 -76
-13 -11 -17 -12 -17 -34 8 -18 22 -31 26 -73 26 -45 0 -54 -4 -89 -38 -68 -67
-112 -180 -112 -292 1 -141 88 -217 170 -148 l32 27 -7 -45 c-10 -57 -18 -71
-61 -107 -58 -48 -112 -127 -119 -176 -18 -118 79 -202 152 -134 45 42 62 87
98 263 17 79 17 80 100 166 71 74 91 103 138 200 30 63 58 123 62 134 5 16 8
17 15 5 13 -21 12 -113 -1 -147 -6 -15 -12 -58 -12 -95 -2 -58 1 -70 22 -92
14 -14 35 -26 47 -26 28 0 89 52 111 93 l15 31 15 -35 c22 -52 62 -89 97 -89
23 0 41 12 77 49 l48 49 10 -31 c27 -76 78 -88 139 -33 21 19 47 51 57 70 22
40 35 46 35 15 0 -50 60 -119 103 -119 22 0 42 12 78 48 l48 48 12 -30 c39
-98 116 -84 191 33 15 25 28 38 28 30 0 -62 44 -129 85 -129 29 0 85 47 116
96 l22 36 17 -53 c31 -89 74 -102 142 -41 22 20 49 49 58 65 l17 28 17 -46
c21 -53 57 -85 98 -85 22 0 41 12 78 50 l48 49 7 -27 c9 -36 43 -72 69 -72 34
0 81 35 112 84 28 44 46 58 43 34 -6 -52 35 -118 74 -118 38 0 82 36 125 99
40 60 41 60 47 33 8 -39 62 -102 101 -118 73 -31 148 -10 208 56 l34 38 29
-42 c31 -43 84 -76 123 -76 70 0 141 76 210 223 42 89 49 139 20 145 -10 2
-23 -18 -39 -60 -39 -100 -81 -157 -81 -108 0 11 -14 70 -31 131 -25 89 -30
124 -26 171 5 56 4 60 -19 70 -36 17 -56 -9 -89 -112 -30 -92 -57 -151 -86
-189 -11 -13 -19 -31 -19 -41 0 -25 -69 -101 -106 -116 -45 -19 -81 -4 -99 41
-8 19 -15 36 -15 39 0 2 18 7 40 11 97 16 180 110 180 203 0 79 -38 121 -109
122 -90 0 -176 -82 -226 -215 -53 -139 -135 -215 -135 -124 0 16 23 125 50
241 28 116 50 213 50 214 0 2 21 4 48 6 41 3 47 6 50 27 4 28 -12 41 -52 41
-25 0 -27 3 -22 23 4 12 9 43 12 68 6 43 5 46 -17 50 -35 6 -70 -1 -74 -14 -2
-7 -11 -38 -20 -69 -15 -56 -17 -58 -50 -58 -25 0 -35 -5 -40 -20 -8 -26 10
-50 37 -50 16 0 19 -5 14 -22 -3 -13 -20 -81 -37 -153 -35 -146 -95 -286 -135
-311 -23 -16 -26 -16 -42 -1 -15 15 -13 27 16 150 18 73 32 143 32 154 0 36
-71 47 -92 14 -11 -17 -12 -17 -34 8 -18 22 -31 26 -73 26 -44 0 -54 -4 -86
-35 -49 -47 -72 -86 -99 -169 -25 -75 -58 -131 -89 -151 -16 -9 -22 -9 -35 4
-15 14 -14 25 8 118 46 200 46 198 30 208 -8 6 -29 10 -47 10 -31 0 -32 -1
-62 -96 -40 -124 -73 -193 -110 -228 -25 -24 -33 -27 -46 -16 -21 17 -19 36
16 184 31 126 31 130 13 143 -11 8 -32 13 -49 11 -28 -3 -31 -8 -51 -81 -26
-94 -83 -213 -118 -246 -31 -30 -56 -22 -56 18 0 16 34 168 75 337 42 170 74
313 71 320 -5 13 -41 21 -73 16z m1475 -444 c5 -57 -21 -101 -79 -133 -28 -15
-53 -25 -55 -22 -8 7 15 86 37 129 21 41 56 70 79 66 9 -2 16 -17 18 -40z
m-2864 6 c3 -9 6 -29 6 -44 0 -37 -45 -178 -66 -208 -20 -29 -54 -26 -72 8
-24 46 8 185 53 234 27 29 70 34 79 10z m764 -32 c4 -51 -33 -183 -60 -218
-46 -58 -93 -2 -78 92 17 104 64 177 110 172 22 -3 25 -8 28 -46z m466 -27
c-3 -119 -55 -225 -103 -210 -27 8 -35 42 -28 114 8 94 59 174 107 169 24 -3
25 -5 24 -73z m933 48 c8 -35 -29 -182 -58 -229 -42 -68 -96 -25 -86 70 6 65
42 152 71 171 34 24 65 19 73 -12z m942 -141 c1 -90 -9 -122 -39 -122 -29 0
-38 46 -16 83 12 22 14 33 5 43 -8 10 -6 27 6 66 10 29 20 58 24 63 9 16 19
-44 20 -133z m-3226 -503 c-20 -74 -39 -109 -60 -109 -28 0 -9 74 32 130 21
28 39 49 42 47 2 -3 -4 -33 -14 -68z"/>
<path d="M4349 7216 c9 -11 -14 -18 -126 -41 -296 -59 -437 -117 -544 -224
-59 -59 -68 -73 -78 -122 -16 -76 -6 -134 74 -414 122 -429 143 -510 180 -675
46 -209 60 -256 150 -505 40 -112 87 -252 104 -313 45 -159 96 -282 151 -367
68 -104 80 -129 80 -170 0 -99 -292 -566 -615 -985 -198 -257 -225 -329 -245
-639 -8 -120 -1 -472 7 -430 4 14 80 16 756 23 414 3 896 11 1072 15 176 5
322 7 325 5 2 -3 -6 -24 -18 -47 l-23 -42 30 33 c17 18 31 39 31 47 0 11 12
15 43 15 51 0 958 27 1177 35 85 3 407 12 715 20 308 8 646 18 750 21 105 4
699 8 1320 9 622 1 1149 5 1173 10 58 11 65 31 66 185 1 121 0 127 -30 185
-18 33 -56 92 -86 130 -53 69 -54 71 -45 115 11 61 1 187 -22 259 -23 74 -98
201 -178 300 -66 81 -160 178 -167 170 -2 -2 27 -42 66 -89 152 -184 241 -341
263 -466 15 -81 19 -176 10 -186 -5 -4 -109 99 -122 121 -2 2 -6 2 -9 -2 -3
-3 22 -42 56 -87 66 -87 68 -99 23 -144 -14 -14 -20 -26 -14 -26 7 0 26 14 43
30 16 17 34 28 38 25 17 -11 117 -170 134 -213 12 -31 16 -75 16 -166 l0 -123
-46 -7 c-26 -3 -156 -6 -290 -6 -236 0 -244 1 -244 20 0 32 -82 181 -145 264
-233 303 -235 307 -371 591 -141 294 -246 568 -310 810 -23 88 -27 124 -31
303 l-5 202 83 -39 c46 -21 115 -51 153 -67 37 -15 75 -38 83 -50 25 -39 72
-191 92 -301 38 -208 34 -359 -15 -514 -14 -44 -24 -83 -21 -85 7 -7 56 109
74 177 23 89 23 315 -1 424 -22 101 -50 184 -87 259 -16 33 -27 62 -25 64 7 6
112 -17 202 -44 100 -30 188 -87 242 -157 88 -115 101 -176 103 -467 1 -168 3
-206 11 -175 6 22 11 135 12 250 1 175 -2 219 -17 265 -51 162 -194 283 -382
323 -68 15 -193 32 -207 29 -11 -3 -220 93 -265 121 -65 41 -83 71 -83 137 0
47 -4 60 -24 79 -49 47 -114 43 -141 -8 -16 -32 -51 -199 -65 -311 -14 -117
-13 -206 6 -345 21 -158 16 -281 -10 -301 -42 -30 -130 -18 -301 42 -212 74
-251 86 -240 76 17 -15 248 -109 335 -136 142 -45 226 -35 251 32 14 35 13
185 -1 282 -18 126 -13 313 14 469 28 164 40 195 78 199 41 5 68 -28 68 -84 0
-50 10 -76 45 -114 23 -25 23 -27 14 -159 -12 -162 -1 -272 40 -433 52 -199
118 -381 233 -638 148 -332 220 -453 375 -638 122 -144 239 -329 221 -347 -3
-4 -153 -2 -332 4 -180 6 -392 11 -472 11 l-146 0 -117 74 c-142 90 -307 173
-423 214 -202 72 -245 110 -267 242 -19 110 -36 142 -111 214 -65 62 -75 78
-71 116 3 26 50 60 84 61 30 0 31 1 10 11 -46 22 -110 -24 -120 -86 -5 -33 -1
-40 64 -108 83 -87 88 -94 103 -178 18 -106 38 -154 78 -192 45 -43 76 -59
190 -99 48 -17 123 -47 167 -66 79 -35 377 -194 372 -199 -1 -1 -191 -5 -422
-8 -623 -9 -1418 -27 -1432 -31 -16 -5 -17 -10 11 71 34 99 61 161 199 456
168 357 249 563 272 693 12 62 1 41 -49 -96 -46 -129 -131 -324 -231 -534
-120 -253 -193 -433 -215 -535 l-12 -56 -112 -2 c-236 -5 -1407 -41 -1515 -47
l-114 -5 7 38 c3 21 13 91 21 156 18 140 59 271 130 421 75 159 92 258 61 370
-31 114 -106 223 -168 244 l-33 10 25 -17 c75 -51 132 -153 151 -272 17 -102
1 -176 -71 -330 -86 -185 -117 -304 -135 -520 -4 -42 -9 -81 -13 -87 -5 -8
-83 -14 -232 -18 -124 -3 -258 -8 -299 -10 -41 -2 -138 -5 -217 -6 -119 -1
-148 2 -172 16 -33 20 -62 63 -62 93 0 30 35 35 245 37 201 2 261 11 355 58
76 37 92 106 33 144 -23 15 -54 18 -237 18 -243 0 -446 25 -446 54 0 28 44 95
77 117 39 26 166 44 310 44 117 0 199 13 225 37 20 18 24 58 7 69 -7 4 -9 0
-5 -13 4 -13 -1 -26 -14 -38 -18 -16 -47 -19 -233 -26 -256 -8 -302 -19 -347
-81 -30 -40 -49 -94 -57 -153 -2 -16 -7 -44 -12 -62 -16 -56 5 -36 24 23 16
52 19 55 44 49 140 -36 229 -47 411 -51 224 -5 236 -7 250 -34 16 -30 -24 -64
-106 -91 -58 -18 -102 -23 -274 -29 -119 -4 -219 -13 -238 -20 -57 -21 -53
-70 11 -138 l31 -32 -145 0 c-79 0 -355 -5 -612 -11 -257 -6 -469 -10 -470 -8
-7 11 13 464 22 529 30 200 63 270 225 478 280 359 481 677 601 951 25 57 43
106 41 108 -3 3 -11 -7 -19 -22 l-14 -28 -5 41 c-4 24 -25 72 -53 116 -64 103
-108 213 -160 396 -24 85 -69 227 -100 315 -86 246 -101 296 -145 499 -23 104
-89 354 -147 555 -142 493 -145 544 -34 644 100 90 217 141 466 202 102 25
188 45 193 45 14 0 60 -102 93 -207 17 -54 52 -163 79 -243 27 -80 72 -233
100 -340 28 -107 93 -321 145 -475 51 -154 119 -363 149 -465 88 -295 164
-522 303 -900 160 -439 208 -560 270 -690 35 -74 73 -165 84 -201 l20 -67 -20
-33 c-21 -33 -27 -82 -15 -113 11 -28 24 -17 24 18 0 19 5 47 11 63 l10 27 20
-43 c11 -24 22 -41 25 -38 3 3 -2 19 -10 36 -21 40 -20 58 4 66 29 9 24 25 -8
25 -26 0 -29 5 -46 67 -9 36 -31 96 -48 132 -113 245 -425 1113 -558 1551 -89
295 -109 358 -199 620 -44 129 -100 309 -125 400 -24 91 -58 206 -74 255 -107
319 -157 457 -183 504 -27 50 -27 55 -12 67 16 11 14 12 -9 7 -14 -3 -29 0
-32 6 -4 6 -12 11 -18 11 -7 0 -7 -4 1 -14z"/>
<path d="M8435 6525 c-8 -29 -3 -98 28 -365 16 -133 7 -230 -32 -351 -17 -51
-28 -95 -26 -97 6 -7 53 91 77 164 31 94 30 226 -5 449 -15 94 -28 184 -30
200 l-3 30 -9 -30z"/>
<path d="M4191 6323 c-2 -123 23 -215 151 -573 101 -279 191 -491 204 -478 2
3 -14 54 -37 114 -54 143 -191 528 -240 677 -22 65 -48 166 -59 225 l-18 107
-1 -72z"/>
<path d="M5605 5155 c-44 -6 -125 -27 -180 -45 -84 -28 -116 -33 -198 -34 -93
-1 -97 -2 -65 -15 61 -25 162 -17 293 22 118 36 180 48 320 63 54 5 64 9 45
15 -37 11 -125 9 -215 -6z"/>
<path d="M7000 5147 c0 -2 21 -26 48 -53 56 -59 93 -148 118 -283 20 -108 38
-105 28 3 -12 138 -69 264 -143 313 -30 21 -51 29 -51 20z"/>
<path d="M7732 4980 c-100 -58 -240 -208 -382 -410 -64 -91 -115 -146 -155
-167 -16 -9 -25 -18 -18 -20 39 -13 120 62 246 229 125 166 217 268 294 328
88 69 89 70 78 70 -6 0 -34 -14 -63 -30z"/>
<path d="M5635 4565 c11 -163 85 -363 224 -608 52 -91 251 -408 416 -662 181
-278 421 -549 588 -663 91 -63 103 -57 16 8 -159 117 -347 335 -534 615 -489
734 -631 998 -695 1290 l-20 90 5 -70z"/>
<path d="M4900 4597 c0 -4 9 -25 19 -45 26 -50 46 -133 66 -267 9 -60 34 -177
55 -260 53 -208 139 -517 145 -523 17 -18 -13 132 -89 443 -36 143 -72 303
-81 355 -22 122 -60 239 -90 276 -14 16 -24 25 -25 21z"/>
<path d="M4337 4243 c-21 -34 68 -193 144 -257 l30 -25 -26 -7 c-68 -17 -133
-154 -142 -298 -5 -75 -3 -89 20 -139 15 -32 54 -87 93 -128 65 -69 66 -72 61
-114 -4 -23 -16 -72 -28 -109 l-22 -67 33 -77 c46 -107 48 -128 17 -160 -39
-42 -49 -70 -49 -133 0 -95 52 -219 122 -289 52 -52 73 -52 27 0 -66 72 -117
200 -117 290 0 34 7 56 25 81 61 83 62 106 11 206 -39 79 -36 98 24 128 85 43
170 58 340 59 184 1 228 -10 308 -80 29 -26 56 -44 59 -40 12 12 -82 97 -137
124 -53 26 -60 27 -230 27 -153 0 -184 -3 -246 -22 -39 -12 -88 -34 -109 -48
-29 -21 -36 -22 -31 -9 16 43 26 110 20 138 l-6 31 31 -29 c17 -16 33 -27 36
-24 3 2 -35 49 -85 103 -117 127 -136 165 -133 270 4 138 53 261 118 292 19 9
35 19 35 22 0 3 -32 49 -72 101 -39 52 -81 117 -93 144 -12 27 -25 45 -28 39z"/>
<path d="M8464 3996 c-38 -17 -61 -47 -75 -100 -22 -81 35 -153 165 -211 70
-31 95 -28 40 5 -146 88 -174 117 -174 180 0 64 52 120 112 120 19 0 20 2 8
10 -20 13 -39 12 -76 -4z"/>
<path d="M4537 3849 c-3 -65 -13 -117 -32 -169 -56 -158 -22 -250 126 -349 74
-50 74 -30 -1 30 -30 25 -68 66 -83 91 -42 68 -44 110 -11 215 30 95 39 221
18 257 -9 15 -12 0 -17 -75z"/>
<path d="M8353 3665 c-24 -17 -39 -71 -28 -105 13 -40 67 -90 130 -120 72 -34
75 -37 121 -122 34 -62 35 -62 29 -23 -14 84 -67 149 -150 185 -84 37 -128
117 -86 159 12 12 31 21 44 21 12 0 29 5 37 10 11 7 3 10 -30 10 -25 0 -55 -7
-67 -15z"/>
<path d="M5610 3372 c0 -28 66 -101 107 -119 35 -14 93 -18 93 -5 0 4 -23 15
-51 25 -35 13 -67 35 -100 70 -42 44 -49 48 -49 29z"/>
<path d="M9287 3338 c12 -13 42 -63 68 -113 88 -168 169 -288 245 -366 98
-100 151 -119 334 -119 82 0 116 3 106 10 -8 5 -46 10 -85 10 -84 0 -189 21
-242 48 -75 39 -173 160 -303 377 -71 118 -114 175 -134 175 -5 0 0 -10 11
-22z"/>
</g>
</svg>
